<?xml version="1.0" encoding="UTF-8"?>
<svg width="280px" height="280px" viewBox="0 0 280 280" version="1.1" xmlns="http://www.w3.org/2000/svg" xmlns:xlink="http://www.w3.org/1999/xlink">
    <!-- Generator: Sketch 43.2 (39069) - http://www.bohemiancoding.com/sketch -->
    <title>red</title>
    <desc>Created with Sketch.</desc>
    <defs>
        <polygon id="path-1" points="1.03258865e-19 280 280.002967 280 280.002967 -0.0003 0 -0.0003"></polygon>
        <path d="M57.0064865,113.47 C52.272973,113.504054 49.4389189,115.479189 48.1410811,120.008378 C47.6643243,121.677027 46.9189189,121.983514 45.4735135,121.960811 C42.3367568,121.907838 39.1962162,121.90027 36.0594595,121.957027 C30.0583784,122.062973 26.6113514,125.494865 26.5318919,131.488378 C26.4637838,136.573784 26.512973,141.659189 26.512973,146.744595 L26.512973,161.35 C26.512973,161.569459 26.512973,161.781351 26.5205405,161.997027 C26.6681081,167.89973 29.9637838,171.233243 35.8172973,171.335405 C38.8443243,171.392162 41.8751351,171.418649 44.9021622,171.324054 C46.7372973,171.267297 47.7324324,171.596486 48.2432432,173.738108 C49.0945946,177.302432 51.6562162,179.587838 55.4097297,179.788378 C63.6205405,180.223514 71.8427027,180.257568 80.0497297,179.777027 C83.8183784,179.553784 86.7091892,177.48027 88.0297297,174.010541 C88.9151351,171.668378 90.2318919,171.293784 92.3924324,171.316486 C101.045946,171.39973 109.703243,171.369459 118.356757,171.342973 C126.102162,171.316486 129.995676,167.570541 130.082703,159.847838 C130.181081,151.084595 130.173514,142.317568 130.086486,133.561892 C130.010811,125.952703 125.947027,121.983514 118.364324,121.953243 C109.498919,121.919189 100.622162,121.904054 91.752973,121.97973 C89.9216216,121.991081 88.9075676,121.578649 88.1583784,119.686757 C86.4632432,115.403514 82.9443243,113.50027 78.4302703,113.47 C74.7335135,113.447297 71.0367568,113.432162 67.34,113.432162 C63.8967568,113.432162 60.4497297,113.443514 57.0064865,113.47 Z M57.5475676,174.706757 C53.847027,174.676486 53.06,173.817568 53.0448649,170.003514 C53.0221622,162.224054 53.0410811,154.437027 53.0410811,146.657568 C53.0410811,138.878108 53.0108108,131.094865 53.0486486,123.311622 C53.0675676,119.633784 54.0172973,118.676486 57.6345946,118.657568 C64.4491892,118.623514 71.2562162,118.615946 78.067027,118.661351 C81.987027,118.684054 83.9432432,120.413243 83.9659459,124.378649 C84.0643243,139.184595 84.0643243,153.994324 83.9735135,168.80027 C83.9508108,173.072162 82.1951351,174.668919 77.9724324,174.702973 C74.5708108,174.733243 71.1654054,174.748378 67.7637838,174.748378 C64.3583784,174.748378 60.952973,174.733243 57.5475676,174.706757 Z M45.36,127.084054 C47.4221622,126.985676 47.9291892,127.840811 47.8989189,129.74027 C47.8081081,135.355405 47.8648649,140.981892 47.8648649,146.597027 C47.8648649,152.215946 47.7891892,157.838649 47.9064865,163.453784 C47.9481081,165.576486 47.2405405,166.329459 45.1178378,166.231081 C42.1021622,166.091081 39.0675676,166.159189 36.0443243,166.200811 C33.2556757,166.234865 31.7232432,164.899189 31.7156757,162.129459 C31.6702703,151.864054 31.6816216,141.598649 31.7081081,131.329459 C31.7156757,128.55973 33.2178378,127.15973 35.9610811,127.133243 C37.1037838,127.125676 38.2540541,127.133243 39.4005405,127.144595 C40.1572973,127.148378 40.9102703,127.155946 41.6632432,127.155946 C42.8967568,127.155946 44.1302703,127.140811 45.36,127.084054 Z M88.9643243,163.397027 C89.0589189,157.774324 88.9983784,152.159189 88.9983784,146.536486 C88.9983784,140.917568 89.0551351,135.302432 88.9643243,129.687297 C88.9302703,127.715946 89.6151351,127.065135 91.5902703,127.084054 C96.4675676,127.129459 101.344865,127.125676 106.225946,127.125676 C110.528108,127.121892 114.834054,127.118108 119.14,127.144595 C122.935135,127.174865 124.906486,129.138649 124.940541,133.024595 C125.027568,142.098108 125.027568,151.175405 124.940541,160.248919 C124.902703,164.437568 123.105405,166.155405 118.954595,166.181892 C114.992973,166.204595 111.035135,166.200811 107.077297,166.197027 C101.961622,166.189459 96.8421622,166.185676 91.7264865,166.234865 L91.6243243,166.234865 C89.5394595,166.234865 88.9302703,165.417568 88.9643243,163.397027 Z" id="path-3"></path>
        <path d="M143.216216,123.266216 C143.178378,131.049459 143.208649,138.836486 143.208649,146.61973 L143.242703,146.61973 C143.242703,155.053784 143.129189,163.491622 143.280541,171.921892 C143.386486,178.445135 147.847568,183.292162 154.253514,184.487838 C156.781081,184.964595 159.217838,184.400811 161.673514,184.188919 C181.163784,182.531622 200.642703,180.787297 220.125405,179.061892 C223.035135,178.804595 226.126486,177.97973 227.488649,175.527838 C230.088108,170.854865 234.061081,171.142432 238.28,171.331622 C240.330811,171.43 242.385405,171.380811 244.443784,171.335405 C250.119459,171.214324 253.566486,167.892162 253.611892,162.235405 C253.691351,151.958649 253.687568,141.689459 253.615676,131.416486 C253.574054,125.449459 250.062703,122.051622 244.038919,121.960811 C240.251351,121.90027 236.467568,121.922973 232.683784,121.957027 C231.435135,121.968378 230.447568,121.813243 229.721081,120.545676 C227.087568,115.955946 222.815676,114.389459 217.760541,114.067838 C211.725405,113.681892 205.705405,113.027297 199.674054,112.505135 C185.897297,111.301892 172.131892,109.932162 158.336216,108.974865 C157.802703,108.937027 157.276757,108.918108 156.765946,108.918108 C148.131351,108.918108 143.257838,114.226757 143.216216,123.266216 Z M148.396216,171.271081 C148.294054,163.056486 148.373514,154.845676 148.373514,146.627297 C148.362162,138.738108 148.324324,130.841351 148.377297,122.955946 C148.415135,116.773243 151.536757,113.636486 157.67027,114.117027 C173.823243,115.384595 189.957297,116.867838 206.098919,118.267838 C210.189189,118.61973 214.279459,118.971622 218.36973,119.31973 C223.519459,119.754865 226.311892,122.551081 226.342162,127.689459 C226.414054,140.334865 226.406486,152.98027 226.34973,165.629459 C226.330811,170.767838 223.912973,173.488378 218.812432,173.965135 C202.356757,175.49 185.893514,176.912703 169.43027,178.373243 C165.551892,178.717568 161.677297,179.016486 157.81027,179.402432 C157.412973,179.444054 157.027027,179.462973 156.648649,179.462973 C151.835676,179.462973 148.460541,176.29973 148.396216,171.271081 Z M231.514595,163.733784 C231.56,152.295405 231.552432,140.857027 231.518378,129.418649 C231.514595,127.821892 231.987568,127.053784 233.724324,127.095405 C235.945405,127.15973 238.174054,127.148378 240.402703,127.137027 C241.628649,127.129459 242.854595,127.125676 244.084324,127.129459 C246.994054,127.140811 248.458378,128.624054 248.458378,131.533784 L248.458378,146.748378 C248.462162,151.712703 248.511351,156.680811 248.443243,161.641351 C248.397838,164.971081 247.243784,166.113784 243.963243,166.181892 C242.423243,166.212162 240.883243,166.200811 239.347027,166.193243 C237.538378,166.185676 235.72973,166.174324 233.924865,166.21973 C233.868108,166.223514 233.815135,166.223514 233.765946,166.223514 C232.048108,166.223514 231.507027,165.459189 231.514595,163.733784 Z" id="path-5"></path>
        <path d="M122.787568,50.5645946 C116.116757,53.0959459 109.464865,55.6613514 102.828108,58.2872973 C99.4643243,59.6154054 98.7643243,61.722973 100.864324,64.5948649 C109.498919,76.37 118.216757,88.0808108 126.885405,99.8256757 C128.016757,101.354324 129.416757,102.296486 131.327568,101.60027 C133.257297,100.904054 133.715135,99.2694595 133.525946,97.3737838 C133.321622,95.55 133.117297,93.7224324 132.916757,91.8986486 C131.562162,79.3251351 130.249189,66.7478378 128.826486,54.1818919 C128.501081,51.3137838 127.445405,49.9667568 125.485405,49.9667568 C124.728649,49.9667568 123.831892,50.1672973 122.787568,50.5645946 Z M109.820541,65.2872973 C108.689189,63.7851351 109.014595,63.1532432 110.683243,62.562973 C113.92973,61.4164865 117.119459,60.0959459 120.347027,58.8889189 C121.183243,58.5748649 122.299459,57.837027 122.484865,59.57 C123.408108,67.9851351 124.308649,76.4078378 125.216757,84.8267568 C124.963243,84.8835135 124.713514,84.9364865 124.46,84.997027 C119.59027,78.417027 114.747027,71.8218919 109.820541,65.2872973 Z" id="path-7"></path>
        <path d="M149.981622,48.1543243 C148.57027,60.7013514 147.268649,73.2559459 145.929189,85.8105405 C145.717297,87.7364865 145.819459,89.6245946 147.881622,90.4986486 C149.852973,91.3348649 151.430811,90.5289189 152.660541,88.8716216 C160.296216,78.5305405 167.981081,68.2348649 175.563784,57.8597297 C177.531351,55.1581081 176.835135,52.8916216 173.777838,51.6543243 C167.769189,49.2327027 161.726486,46.9094595 155.664865,44.6467568 C154.855135,44.3440541 154.124865,44.1964865 153.47027,44.1964865 C151.502703,44.1964865 150.272973,45.5472973 149.981622,48.1543243 Z M154.518378,73.2105405 C155.154054,67.1035135 155.801081,60.9964865 156.41027,54.8932432 C156.569189,53.3116216 157.185946,52.8083784 158.744865,53.4705405 C161.026486,54.4354054 163.345946,55.3283784 165.680541,56.1608108 C166.853514,56.577027 167.33027,57.0272973 166.448649,58.2078378 C162.661081,63.2856757 158.907568,68.39 155.142703,73.4867568 C154.934595,73.3959459 154.726486,73.3013514 154.518378,73.2105405 Z" id="path-9"></path>
        <path d="M99.6156757,137.273784 C99.7102703,140.402973 99.6383784,143.53973 99.6383784,146.676486 C99.6383784,149.915405 99.7027027,153.165676 99.6194595,156.408378 C99.5589189,158.784595 100.603243,159.719189 102.937838,159.620811 C105.525946,159.514865 108.129189,159.548919 110.721081,159.613243 C113.067027,159.673784 114.062162,158.561351 114.050811,156.27973 C114.024324,149.904054 114.016757,143.524595 114.050811,137.145135 C114.065946,134.685676 112.881622,133.59973 110.467568,133.645135 C108.087568,133.686757 105.711351,133.717027 103.335135,133.633784 C103.229189,133.626216 103.127027,133.626216 103.028649,133.626216 C100.648649,133.626216 99.54,134.723514 99.6156757,137.273784 Z M106.801081,155.110541 C105.102162,155.084054 103.811892,154.978108 103.940541,152.738108 C104.061622,150.588919 103.967027,148.420811 103.967027,146.264054 C103.955676,144.640811 104.054054,143.013784 103.936757,141.401892 C103.774054,139.218649 104.19027,138.049459 106.857838,138.087297 C109.415676,138.117568 109.58973,139.317027 109.540541,141.292162 C109.44973,145.068378 109.419459,148.852162 109.548108,152.632162 C109.62,154.686757 108.689189,155.110541 106.99027,155.110541 L106.801081,155.110541 Z" id="path-11"></path>
        <path d="M158.336216,126.637568 C158.313514,133.334865 158.332432,140.032162 158.336216,146.725676 C158.336216,153.634865 158.362703,160.547838 158.321081,167.457027 C158.305946,169.977027 159.225405,171.373243 161.968649,171.097027 C167.867568,170.506757 173.77027,169.855946 179.684324,169.424595 C182.223243,169.239189 182.968649,168.07 182.957297,165.697568 C182.896757,152.953784 182.889189,140.21 182.957297,127.47 C182.972432,125.150541 182.034054,124.072162 179.812973,123.898108 C174.107027,123.447838 168.416216,122.902973 162.714054,122.551081 C162.210811,122.520811 161.764324,122.501892 161.370811,122.501892 C158.714595,122.501892 158.355135,123.322973 158.336216,126.637568 Z M162.831351,163.752703 C162.895676,158.024054 162.857838,152.295405 162.857838,146.570541 C162.854054,140.951622 162.941081,135.328919 162.808649,129.71 C162.759459,127.443514 163.644865,126.906216 165.691892,127.167297 C169.112432,127.606216 172.548108,128.041351 175.995135,128.211622 C178.064865,128.31 178.435676,129.229459 178.428108,131.045676 C178.36,141.530541 178.378919,152.015405 178.409189,162.496486 C178.420541,164.074324 178.216216,165.224595 176.248649,165.322973 C172.585946,165.512162 168.923243,165.773243 165.271892,166.128919 C165.086486,166.147838 164.916216,166.155405 164.753514,166.155405 C163.258919,166.155405 162.816216,165.364595 162.831351,163.752703 Z" id="path-13"></path>
    </defs>
    <g id="Symbols" stroke="none" stroke-width="1" fill="none" fill-rule="evenodd">
        <g id="red">
            <mask id="mask-2" fill="white">
                <use xlink:href="#path-1"></use>
            </mask>
            <g id="Clip-2"></g>
            <path d="M228.013459,228.013459 C205.227514,250.791838 173.818324,264.859946 139.052919,264.86373 C104.295081,264.859946 72.8821081,250.791838 50.0961622,228.013459 C27.314,205.227514 13.2458919,173.814541 13.2421081,139.052919 C13.2458919,104.291297 27.314,72.8783243 50.0961622,50.0923784 C72.8821081,27.314 104.295081,13.2458919 139.052919,13.2383243 C173.818324,13.2458919 205.227514,27.314 228.013459,50.0923784 C250.795622,72.8783243 264.859946,104.291297 264.86373,139.052919 C264.859946,173.814541 250.795622,205.227514 228.013459,228.013459 M139.052919,-0.00113513514 C62.2572432,0.00264864865 0.00264864865,62.2496757 -0.00113513514,139.052919 C0.00264864865,215.852378 62.2572432,278.103189 139.052919,278.103189 C215.852378,278.103189 278.103189,215.852378 278.106973,139.052919 C278.103189,62.2496757 215.852378,0.00264864865 139.052919,-0.00113513514" id="Fill-1" fill="#FF738E" mask="url(#mask-2)"></path>
            <mask id="mask-4" fill="white">
                <use xlink:href="#path-3"></use>
            </mask>
            <g id="Clip-5"></g>
            <polygon id="Fill-4" fill="#FF738E" mask="url(#mask-4)" points="7.57891892 199.047838 149.077297 199.047838 149.077297 94.5132432 7.57891892 94.5132432"></polygon>
            <mask id="mask-6" fill="white">
                <use xlink:href="#path-5"></use>
            </mask>
            <g id="Clip-8"></g>
            <polygon id="Fill-7" fill="#FF738E" mask="url(#mask-6)" points="124.278378 203.592162 272.587568 203.592162 272.587568 89.9991892 124.278378 89.9991892"></polygon>
            <mask id="mask-8" fill="white">
                <use xlink:href="#path-7"></use>
            </mask>
            <use id="Clip-11" fill="#FF738E" xlink:href="#path-7"></use>
            <polygon id="Fill-10" fill="#FF738E" mask="url(#mask-8)" points="80.7572973 120.753784 152.486486 120.753784 152.486486 31.0478378 80.7572973 31.0478378"></polygon>
            <mask id="mask-10" fill="white">
                <use xlink:href="#path-9"></use>
            </mask>
            <use id="Clip-14" fill="#FF738E" xlink:href="#path-9"></use>
            <polygon id="Fill-13" fill="#FF738E" mask="url(#mask-10)" points="126.930811 109.750541 195.587568 109.750541 195.587568 25.2775676 126.930811 25.2775676"></polygon>
            <mask id="mask-12" fill="white">
                <use xlink:href="#path-11"></use>
            </mask>
            <g id="Clip-17"></g>
            <polygon id="Fill-16" fill="#FF738E" mask="url(#mask-12)" points="80.692973 178.547297 132.965946 178.547297 132.965946 114.707297 80.692973 114.707297"></polygon>
            <mask id="mask-14" fill="white">
                <use xlink:href="#path-13"></use>
            </mask>
            <g id="Clip-20"></g>
            <polygon id="Fill-19" fill="#FF738E" mask="url(#mask-14)" points="139.402162 190.05 201.88 190.05 201.88 103.579189 139.402162 103.579189"></polygon>
        </g>
    </g>
</svg>