<svg id="Layer_1" data-name="Layer 1" xmlns="http://www.w3.org/2000/svg" viewBox="0 0 120 120"><defs><style>.cls-1{fill:#fff;}.cls-2{fill:#6cf;}.cls-3{fill:#ff738e;}</style></defs><title>logo_techcrunch</title><rect id="Bg" class="cls-1" width="120" height="120"/><g id="BuckleUp"><path class="cls-2" d="M23.92,91a4.85,4.85,0,0,1-2.47,9H15V86.33H13.77V83.47h6.09A4.85,4.85,0,0,1,23.92,91Zm-6-.68h2a2,2,0,1,0,0-4h-2Zm3.57,6.84a2,2,0,0,0,0-4H17.88v4Z"/><path class="cls-2" d="M37.33,89.6V100H34.47v-.33a4.58,4.58,0,0,1-6.29-4.24V89.6H31v5.85a1.71,1.71,0,0,0,3.43,0V89.6Z"/><path class="cls-2" d="M45.86,96.44l2,2a5.21,5.21,0,1,1,0-7.36l-2,2a2.35,2.35,0,1,0,0,3.32Z"/><path class="cls-2" d="M57.65,91a4.22,4.22,0,0,1-1.06,2.8,4.22,4.22,0,0,1,1.06,2.8V100H54.79v-3.4a1.37,1.37,0,1,0-2.73,0V100H49.2V83.47h2.86v9.17a4.19,4.19,0,0,1,1.37-.23A1.37,1.37,0,0,0,54.79,91V89.61h2.86Z"/><path class="cls-2" d="M59.54,100V83.48H62.4V100Z"/><path class="cls-2" d="M71.73,96.18l1.85,2.18A6,6,0,0,1,69.42,100a5.39,5.39,0,0,1-4.26-2h0a5.16,5.16,0,0,1-.52-.8h0a5.11,5.11,0,0,1-.45-1.2v0a5.21,5.21,0,0,1,9.32-4.19h0l.11.17.07.11.13.22.05.09.15.3h0v0h0v0h0v0l.56,1.33-2.89,1.19-.39.16-3.18,1.32a2.16,2.16,0,0,0,1.21.32A3.28,3.28,0,0,0,71.73,96.18Zm-4.67-1.72.1,0,1.7-.7L70.63,93l0,0a2.27,2.27,0,0,0-1.39-.47,2,2,0,0,0-.81.17,2.25,2.25,0,0,0-1.32,1.82Z"/><path class="cls-2" d="M87.75,97.14V100H86.32a2.67,2.67,0,0,1-2-.95,5.23,5.23,0,0,1-8.23-4.28V83.45h2.86V94.77a2.37,2.37,0,0,0,4.73,0V83.45h2.86V97.14Z"/><path class="cls-2" d="M99.22,92.94A5.21,5.21,0,0,1,92,99.46v6.7H89.16V89.6H92v.56a5.21,5.21,0,0,1,7.2,2.78Zm-2.51,1.87a2.35,2.35,0,1,0-2.35,2.35A2.35,2.35,0,0,0,96.71,94.81Z"/></g><g id="U"><rect class="cls-2" x="59.8" y="19.46" width="17.75" height="17.75" transform="translate(5.97 -11.5) rotate(10.01)"/><rect class="cls-2" x="92.4" y="25.22" width="17.75" height="17.75" transform="translate(7.47 -17.08) rotate(10.01)"/><path class="cls-3" d="M91,41.29,88.5,54.85a9.41,9.41,0,0,1-3.15,5.89,6.6,6.6,0,0,1-5.57,1.48,7.32,7.32,0,0,1-5-3.39,8.85,8.85,0,0,1-1.18-6.61l2.3-13.6L58.39,35.54l-.58,3.3a20.45,20.45,0,0,1,6.65,32.82,29.51,29.51,0,0,0,12.66,5.17,28.77,28.77,0,0,0,13.61-.57,21.11,21.11,0,0,0,10.11-6.61A24.23,24.23,0,0,0,106.08,58l2.4-13.58Z"/></g><path id="B" class="cls-3" d="M31.43,30.87a8.61,8.61,0,0,1,8.6,8.6V49h9.53a8.6,8.6,0,1,1,0,17.21H22.83V39.47a8.61,8.61,0,0,1,8.6-8.6m0-9.53A18.13,18.13,0,0,0,13.3,39.47V75.73H49.56a18.13,18.13,0,1,0,0-36.26A18.13,18.13,0,0,0,31.43,21.34Z"/></svg>