<?xml version="1.0" encoding="UTF-8"?>
<svg width="665px" height="95px" viewBox="0 0 665 95" version="1.1" xmlns="http://www.w3.org/2000/svg" xmlns:xlink="http://www.w3.org/1999/xlink">
    <!-- Generator: Sketch 46.2 (44496) - http://www.bohemiancoding.com/sketch -->
    <title>magnet_logo_1</title>
    <desc>Created with Sketch.</desc>
    <defs></defs>
    <g id="Page-1" stroke="none" stroke-width="1" fill="none" fill-rule="evenodd">
        <g id="magnet_logo_1" transform="translate(0.000000, -1.000000)" fill-rule="nonzero">
            <path d="M622.771129,48.20607 L623.991814,48.20607 C627.795372,48.20607 630.53484,47.31687 632.212103,45.53847 C633.88748,43.76007 634.725168,41.27867 634.725168,38.08287 C634.725168,34.89087 633.88748,32.40567 632.212103,30.62727 C630.53484,28.84887 627.795372,27.95967 623.991814,27.95967 L622.771129,27.95967 L622.771129,48.20607 Z M664.336698,38.08287 C664.336698,44.37567 663.249967,49.73557 661.078392,54.15877 C658.903044,58.58197 655.937174,62.15967 652.180783,64.89567 C648.420619,67.63357 644.030301,69.63997 639.004171,70.91487 C633.976154,72.19357 628.56514,72.83007 622.771129,72.83007 L622.771129,93.98847 L593.835032,93.98847 L593.835032,3.33757 L622.771129,3.33757 C628.56514,3.33757 633.976154,3.97597 639.004171,5.25277 C644.030301,6.52767 648.420619,8.53407 652.180783,11.27197 C655.937174,14.00607 658.903044,17.58757 661.078392,22.01077 C663.249967,26.43397 664.336698,31.79007 664.336698,38.08287 L664.336698,38.08287 Z" id="Fill-10" fill="#66CCFF"></path>
            <polygon id="Fill-15" fill="#66CCFF" points="510.323915 27.3283 539.258125 27.3283 539.258125 3.0501 510.323915 3.0501"></polygon>
            <polygon id="Fill-17" fill="#66CCFF" points="556.374136 27.3283 585.444187 27.3283 585.444187 3.0501 556.374136 3.0501"></polygon>
            <path d="M556.374136,59.84908 C556.374136,63.07338 555.715683,65.53198 554.404436,67.23438 C553.091303,68.93678 550.895201,69.78608 547.81613,69.78608 C544.737059,69.78608 542.539071,68.93678 541.227824,67.23438 C539.912805,65.53198 539.258125,63.07338 539.258125,59.84908 L539.258125,26.84608 L510.323915,26.84608 L510.323915,59.16508 C510.323915,65.23748 511.208771,70.52898 512.972822,75.03578 C514.738759,79.54638 517.251824,83.27038 520.512017,86.21538 C523.77221,89.16038 527.711609,91.37008 532.330215,92.84068 C536.948822,94.31318 542.110793,95.04848 547.81613,95.04848 C553.521467,95.04848 558.683439,94.31318 563.302045,92.84068 C567.920652,91.37008 571.882691,89.16038 575.188164,86.21538 C578.493637,83.27038 581.029343,79.54638 582.79528,75.03578 C584.561218,70.52898 585.444187,65.23748 585.444187,59.16508 L585.444187,26.84608 L556.374136,26.84608 L556.374136,59.84908 Z" id="Fill-13" fill="#FF738E"></path>
            <polygon id="Fill-8" fill="#66CCFF" points="414.0805 3.33719 468.409497 3.33719 468.409497 27.02449 443.01471 27.02449 443.01471 37.03939 468.237809 37.15909 468.237809 59.62469 443.01471 59.50499 443.01471 69.93029 468.417044 69.93029 468.420818 94.09069 414.084274 94.09069"></polygon>
            <polygon id="Fill-6" fill="#66CCFF" points="351.501216 3.17949 381.657998 3.17949 381.657998 70.48509 406.652808 70.48509 406.652808 93.79049 351.501216 93.79049"></polygon>
            <polygon id="Fill-4" fill="#66CCFF" points="261.313307 3.33719 290.653154 3.33719 290.653154 24.40439 307.771052 3.33719 343.227534 3.33719 311.302927 45.05929 344.53878 93.94819 309.627551 93.94819 290.653154 66.40009 290.653154 93.94819 261.313307 93.94819"></polygon>
            <path d="M176.710931,48.18004 C176.710931,40.99424 177.927843,34.49814 180.363554,28.70124 C182.797378,22.90434 186.102852,17.94154 190.278087,13.80524 C194.451435,9.67274 199.320971,6.50354 204.88858,4.30144 C210.452415,2.09934 216.369061,0.99924 222.629084,0.99924 C227.585407,0.99924 231.998364,1.49324 235.869843,2.48124 C239.737548,3.47114 243.065662,4.59404 245.85041,5.85184 C249.067208,7.29014 251.85007,8.86524 254.198993,10.56954 L240.501656,35.50894 C239.109282,34.43164 237.586727,33.39994 235.935877,32.40814 C234.454829,31.69184 232.694551,30.99264 230.651271,30.32194 C228.60799,29.64554 226.281707,29.30734 223.672421,29.30734 C220.976347,29.30734 218.497242,29.80514 216.236993,30.79314 C213.974857,31.78114 211.997611,33.12824 210.30148,34.83824 C208.60535,36.54444 207.27901,38.54324 206.322461,40.83464 C205.365911,43.12794 204.88858,45.57704 204.88858,48.18004 C204.88858,50.79064 205.386665,53.23784 206.386608,55.52924 C207.386551,57.82064 208.756285,59.82134 210.497696,61.52754 C212.23722,63.23754 214.2805,64.58464 216.629424,65.57264 C218.976461,66.56254 221.540466,67.05464 224.325214,67.05464 C227.108075,67.05464 229.585293,66.69554 231.760642,65.97544 C233.934104,65.25724 235.760415,64.44974 237.239577,63.55104 C238.977214,62.56304 240.501656,61.39264 241.805356,60.04364 L255.502693,84.98304 C253.153769,86.96284 250.370908,88.71464 247.154109,90.24414 C244.369361,91.50194 241.022381,92.66854 237.109395,93.74584 C233.19641,94.82504 228.715531,95.36654 223.672421,95.36654 C216.889786,95.36654 210.627877,94.21704 204.88858,91.92754 C199.149282,89.63424 194.191073,86.42324 190.017724,82.28884 C185.842489,78.15634 182.58041,73.18784 180.233373,67.39094 C177.884449,61.59594 176.710931,55.19104 176.710931,48.18004" id="Fill-1" fill="#66CCFF"></path>
            <path d="M139.650767,3.04953 L139.650767,58.10963 C139.650767,61.34723 138.992313,63.81343 137.681067,65.52153 C136.367934,67.22963 134.171832,68.08463 131.092761,68.08463 C128.01369,68.08463 125.815701,67.22963 124.504455,65.52153 C123.189435,63.81343 122.534755,61.34723 122.534755,58.10963 L122.534755,3.04953 L93.6005456,3.04953 L93.6005456,26.92683 L93.6005456,27.41133 L93.6005456,59.35983 C93.6005456,65.45313 94.4854011,70.76173 96.2494521,75.28563 C98.0153898,79.80953 100.528455,83.54683 103.788648,86.50323 C107.04884,89.45773 110.98824,91.67313 115.606846,93.14943 C120.225452,94.62573 125.387424,95.36673 131.092761,95.36673 C136.798098,95.36673 141.96007,94.62573 146.578676,93.14943 C151.197282,91.67313 155.159322,89.45773 158.464795,86.50323 C161.770268,83.54683 164.305973,79.80953 166.071911,75.28563 C167.837849,70.76173 168.720818,65.45313 168.720818,59.35983 L168.720818,27.41133 L168.720818,26.92683 L168.720818,3.04953 L139.650767,3.04953 Z" id="Fill-18" fill="#66CCFF"></path>
            <path d="M18.0618068,75.95082 C27.1216708,75.97932 41.2038918,75.96602 51.510855,75.73612 C67.4250476,75.37892 69.4211609,67.77322 69.2739994,60.38032 C69.1098578,52.20842 68.99477,48.11012 52.0240334,48.44642 C47.1280844,48.54522 43.0528436,44.69962 42.8321014,39.77482 L42.36043,29.24502 C42.3566567,29.16902 42.35477,29.09302 42.3528833,29.01702 C42.2566623,24.17012 41.196345,18.99072 29.7083167,19.20352 C18.8051609,19.37832 18.1278408,27.53692 18.1278408,27.62052 C18.1297275,39.63042 18.0882204,63.05172 18.0618068,75.95082 M24.5670986,94.13002 C15.8053309,94.13002 9.08684363,94.08252 8.95477564,94.08062 C3.99090595,94.04262 -0.0107541076,89.97662 0.000566005666,84.97582 C0.000566005666,84.97392 0.0873535411,44.72432 0.08358017,27.62242 C0.0816934844,16.77912 9.17929122,1.36062 29.4196538,1.03382 C48.1393479,0.72222 59.9933932,11.26342 60.3895972,28.53252 L60.4820448,30.58832 C78.5904527,32.38952 86.9503564,41.71092 87.3144867,60.01552 C87.7238975,80.72932 74.4887983,93.39662 51.9089456,93.90012 C43.6905433,94.08442 33.1496312,94.13002 24.5670986,94.13002" id="Fill-19" fill="#FF738E"></path>
        </g>
    </g>
</svg>