<?xml version="1.0" encoding="iso-8859-1"?>
<!-- Generator: Adobe Illustrator 18.0.0, SVG Export Plug-In . SVG Version: 6.00 Build 0)  -->
<!DOCTYPE svg PUBLIC "-//W3C//DTD SVG 1.1//EN" "http://www.w3.org/Graphics/SVG/1.1/DTD/svg11.dtd">
<svg version="1.1" id="Capa_1" xmlns="http://www.w3.org/2000/svg" xmlns:xlink="http://www.w3.org/1999/xlink" x="0px" y="0px"
	 viewBox="0 0 485.964 485.964" style="enable-background:new 0 0 485.964 485.964;" xml:space="preserve">
<g id="XMLID_210_">
	<path id="XMLID_212_" d="M150.972,159.758l114.033-48.635l-94.206-33.034c-3.764-1.32-7.888-1.186-11.558,0.383l-32.826,13.994
		c-4.474,1.91-7.833,5.746-9.13,10.427c-1.305,4.68-0.406,9.694,2.444,13.635L150.972,159.758z"/>
	<path id="XMLID_211_" d="M484.683,98.188c-8.922-20.958-63.543-17.75-84.511-8.819l-298.56,127.327
		C65.618,189.178,76.841,197.76,51.258,178.2c-4.577-3.493-10.674-4.266-15.975-2.005L9.707,187.1
		c-4.187,1.792-7.41,5.278-8.867,9.584c-1.457,4.315-1.003,9.043,1.242,12.999c21.333,37.618,10.746,18.944,50.434,88.944
		c7.475,13.181,23.649,18.649,37.587,12.704c26.323-11.224-5.731,2.444,113.342-48.333c9.742,40.588,1.941,8.111,32.069,133.527
		c1.099,4.577,4.155,8.43,8.358,10.547c4.204,2.109,9.123,2.27,13.452,0.423l32.573-13.892c4.409-1.886,7.745-5.651,9.082-10.26
		c43.159-149.034,37.46-129.355,53.229-183.786l80.339-34.267C453.528,156.343,493.629,119.147,484.683,98.188z"/>
</g>
<g>
</g>
<g>
</g>
<g>
</g>
<g>
</g>
<g>
</g>
<g>
</g>
<g>
</g>
<g>
</g>
<g>
</g>
<g>
</g>
<g>
</g>
<g>
</g>
<g>
</g>
<g>
</g>
<g>
</g>
</svg>
