<?xml version="1.0" encoding="UTF-8"?>
<svg width="37px" height="57px" viewBox="0 0 37 57" version="1.1" xmlns="http://www.w3.org/2000/svg" xmlns:xlink="http://www.w3.org/1999/xlink">
    <!-- Generator: Sketch 46.2 (44496) - http://www.bohemiancoding.com/sketch -->
    <title>bluetooth</title>
    <desc>Created with Sketch.</desc>
    <defs></defs>
    <g id="Page-1" stroke="none" stroke-width="1" fill="none" fill-rule="evenodd">
        <g id="bluetooth" fill-rule="nonzero" fill="#000000">
            <polygon id="Shape" points="19.5 43.37 25.143 37.022 19.524 31.102"></polygon>
            <polygon id="Shape" points="19.5 13.414 19.524 25.373 25.127 19.042"></polygon>
            <path d="M18.5,0 C8.575,0 0.5,8.075 0.5,18 L0.5,39 C0.5,48.925 8.575,57 18.5,57 C28.425,57 36.5,48.925 36.5,39 L36.5,18 C36.5,8.075 28.425,0 18.5,0 Z M27.857,36.978 L17.5,48.63 L17.537,30.28 L9.167,37.759 L7.834,36.267 L17.057,28.026 L7.902,19.755 L9.243,18.271 L17.535,25.762 L17.5,8.586 L27.873,18.958 L19.614,28.29 L27.857,36.978 Z" id="Shape"></path>
        </g>
    </g>
</svg>