<?xml version="1.0" encoding="UTF-8"?>
<svg width="240px" height="360px" viewBox="0 0 240 360" version="1.1" xmlns="http://www.w3.org/2000/svg" xmlns:xlink="http://www.w3.org/1999/xlink">
    <!-- Generator: Sketch 46.2 (44496) - http://www.bohemiancoding.com/sketch -->
    <title>bluetooth2</title>
    <desc>Created with Sketch.</desc>
    <defs></defs>
    <g id="Page-1" stroke="none" stroke-width="1" fill="none" fill-rule="evenodd">
        <g id="bluetooth2" fill-rule="nonzero" fill="#66CCFF">
            <path d="M120.003,0 C53.723,0 0,53.723 0,120 L0,240 C0,306.277 53.723,360 120.003,360 C186.277,360 240,306.277 240,240 L240,120 C240,53.723 186.277,0 120.003,0 Z M189.367,224.128 C192.072,226.296 193.646,229.576 193.646,233.043 C193.646,236.51 192.072,239.789 189.367,241.958 L117.715,299.397 C115.648,301.054 113.118,301.908 110.567,301.908 C108.887,301.908 107.198,301.537 105.625,300.783 C101.664,298.882 99.144,294.877 99.144,290.483 L99.144,208.459 L64.962,236.091 C62.848,237.8 60.309,238.632 57.786,238.632 C54.455,238.632 51.152,237.182 48.894,234.389 C44.927,229.482 45.69,222.288 50.597,218.321 L97.982,180.015 L50.597,141.709 C45.69,137.742 44.927,130.548 48.894,125.641 C52.861,120.733 60.056,119.972 64.962,123.938 L99.144,151.57 L99.144,69.519 C99.144,65.125 101.664,61.12 105.625,59.219 C109.587,57.318 114.288,57.857 117.716,60.605 L189.368,118.046 C192.073,120.214 193.647,123.494 193.647,126.96 C193.647,130.426 192.073,133.706 189.368,135.875 L134.322,180 L189.367,224.128 Z" id="Shape"></path>
            <polygon id="Shape" points="121.994 160.596 163.954 126.959 121.994 93.321"></polygon>
            <polygon id="Shape" points="121.994 266.679 163.954 233.042 121.994 199.404"></polygon>
        </g>
    </g>
</svg>