<?xml version="1.0" encoding="UTF-8"?>
<svg width="413px" height="315px" viewBox="0 0 413 315" version="1.1" xmlns="http://www.w3.org/2000/svg" xmlns:xlink="http://www.w3.org/1999/xlink">
    <!-- Generator: Sketch 46.2 (44496) - http://www.bohemiancoding.com/sketch -->
    <title>flight_stats</title>
    <desc>Created with Sketch.</desc>
    <defs></defs>
    <g id="Page-1" stroke="none" stroke-width="1" fill="none" fill-rule="evenodd">
        <g id="flight_stats" fill-rule="nonzero" fill="#4CE4B4">
            <path d="M410.922,109.857 C408.826,105.997 405.352,103.182 401.14,101.934 L59.895,0.775 C58.372,0.324 56.798,0.094 55.219,0.094 C47.991,0.094 41.509,4.937 39.454,11.87 L0.679,142.668 C-1.773,150.94 2.619,159.63 10.54,162.678 L10.54,298.381 C10.54,307.449 17.918,314.828 26.987,314.828 L382.911,314.828 C391.98,314.828 399.358,307.449 399.358,298.381 L399.358,165.819 L412.235,122.379 C413.486,118.165 413.019,113.718 410.922,109.857 Z M387.359,298.381 C387.359,300.833 385.364,302.828 382.912,302.828 L291.308,302.828 L291.308,295.67 C291.308,292.357 288.622,289.67 285.308,289.67 C281.994,289.67 279.308,292.357 279.308,295.67 L279.308,302.828 L26.987,302.828 C24.535,302.828 22.54,300.833 22.54,298.381 L22.54,166.304 L78.016,182.749 L74.133,186.632 L47.004,183.66 L41.386,188.209 L62.974,197.79 L55.432,205.333 L47.388,204.546 C47.251,204.533 47.118,204.585 47.022,204.685 L44.206,207.501 C44.024,207.67 44.01,207.956 44.179,208.142 C44.221,208.188 44.272,208.224 44.328,208.248 L51.328,211.434 C51.351,212.579 51.797,213.716 52.669,214.589 C53.543,215.461 54.68,215.908 55.824,215.931 L59.018,222.922 C59.121,223.151 59.389,223.252 59.616,223.151 C59.665,223.128 59.711,223.099 59.749,223.061 L62.565,220.227 C62.664,220.132 62.714,219.999 62.704,219.862 L61.916,211.835 L69.465,204.285 L79.047,225.874 L83.596,220.255 L80.625,193.126 L88.03,185.72 L100.496,189.415 L100.496,192.695 C100.496,193.8 101.392,194.695 102.496,194.695 L118.307,194.695 L163.782,208.175 L102.496,208.175 C101.392,208.175 100.496,209.071 100.496,210.175 L100.496,222.91 C100.496,224.015 101.392,224.91 102.496,224.91 L220.237,224.91 L279.495,242.476 C279.377,242.945 279.307,243.434 279.307,243.94 L279.307,269.805 C279.307,273.118 281.993,275.805 285.307,275.805 C288.621,275.805 291.307,273.118 291.307,269.805 L291.307,245.977 L353.02,264.271 C354.543,264.723 356.118,264.952 357.697,264.952 C364.924,264.952 371.406,260.11 373.463,253.178 L387.359,206.301 L387.359,298.381 Z M400.731,118.967 L361.959,249.766 C361.402,251.642 359.65,252.952 357.698,252.952 C357.273,252.952 356.847,252.889 356.431,252.766 L268.605,226.731 L270.639,219.869 C271.58,216.692 269.769,213.353 266.591,212.411 C263.416,211.471 260.075,213.28 259.133,216.458 L257.099,223.321 L15.185,151.608 C12.834,150.911 11.487,148.431 12.185,146.08 L50.958,15.281 C51.514,13.405 53.266,12.094 55.218,12.094 C55.643,12.094 56.07,12.157 56.485,12.28 L298.399,83.994 L295.887,92.467 C294.946,95.645 296.757,98.984 299.935,99.925 C300.504,100.094 301.078,100.174 301.643,100.174 C304.231,100.174 306.62,98.486 307.393,95.878 L309.905,87.405 L397.73,113.44 C398.87,113.777 399.81,114.539 400.376,115.583 C400.943,116.625 401.069,117.828 400.731,118.967 Z" id="Shape"></path>
            <path d="M281.293,162.815 C278.125,161.872 274.777,163.683 273.835,166.862 L266.485,191.66 C265.544,194.837 267.356,198.177 270.533,199.118 C271.101,199.287 271.676,199.367 272.241,199.367 C274.829,199.367 277.218,197.679 277.991,195.07 L285.342,170.272 C286.282,167.095 284.469,163.756 281.293,162.815 Z" id="Shape"></path>
            <path d="M295.995,113.218 C292.826,112.277 289.479,114.087 288.537,117.266 L281.186,142.064 C280.245,145.241 282.057,148.58 285.234,149.521 C285.802,149.69 286.376,149.77 286.942,149.77 C289.53,149.77 291.919,148.082 292.692,145.474 L300.043,120.676 C300.984,117.499 299.172,114.16 295.995,113.218 Z" id="Shape"></path>
            <path d="M58.69,65.857 L64.496,70.9 C64.192,72.004 64.297,73.22 64.886,74.305 C65.475,75.39 66.438,76.143 67.529,76.489 L68.605,84.098 C68.639,84.347 68.866,84.522 69.113,84.488 C69.166,84.48 69.218,84.465 69.266,84.44 L72.771,82.523 C72.893,82.46 72.979,82.347 73.008,82.212 L74.534,74.291 L83.918,69.2 L86.969,92.621 L92.927,88.526 L97.789,61.671 L108.095,56.078 C110.323,54.87 111.149,52.082 109.94,49.854 C108.731,47.626 105.943,46.799 103.715,48.008 L93.409,53.602 L68.243,43.042 L61.564,45.807 L79.539,61.129 L70.165,66.218 L62.676,63.176 C62.548,63.125 62.406,63.137 62.286,63.205 L58.786,65.103 C58.563,65.214 58.469,65.484 58.578,65.71 C58.604,65.767 58.643,65.817 58.69,65.857 Z" id="Shape"></path>
            <path d="M245.265,184.118 L38.41,122.797 C37.355,122.486 36.238,123.087 35.924,124.147 L32.304,136.357 C32.153,136.865 32.211,137.413 32.464,137.88 C32.717,138.346 33.145,138.693 33.654,138.843 L240.51,200.163 C240.696,200.219 240.888,200.246 241.078,200.246 C241.408,200.246 241.736,200.164 242.032,200.004 C242.498,199.751 242.845,199.323 242.996,198.815 L246.615,186.605 C246.928,185.544 246.324,184.432 245.265,184.118 Z" id="Shape"></path>
            <path d="M253.853,155.148 L46.997,93.827 C46.489,93.677 45.941,93.734 45.475,93.987 C45.009,94.24 44.662,94.668 44.512,95.176 L40.892,107.388 C40.578,108.447 41.182,109.56 42.241,109.873 L249.097,171.192 C249.284,171.248 249.475,171.275 249.665,171.275 C249.995,171.275 250.323,171.193 250.619,171.033 C251.085,170.78 251.432,170.352 251.583,169.844 L255.202,157.634 C255.516,156.575 254.912,155.462 253.853,155.148 Z" id="Shape"></path>
            <path d="M262.439,126.178 L114.482,82.318 C113.424,82.005 112.31,82.607 111.996,83.668 L108.376,95.878 C108.225,96.386 108.283,96.934 108.536,97.4 C108.789,97.866 109.217,98.213 109.726,98.363 L257.686,142.224 C257.873,142.28 258.064,142.307 258.254,142.307 C258.584,142.307 258.912,142.225 259.208,142.065 C259.674,141.812 260.021,141.383 260.172,140.875 L263.789,128.664 C264.102,127.605 263.498,126.493 262.439,126.178 Z" id="Shape"></path>
            <path d="M266.84,113.336 C267.702,113.336 268.499,112.773 268.756,111.904 L272.377,99.694 C272.528,99.185 272.471,98.637 272.218,98.171 C271.965,97.705 271.537,97.358 271.029,97.207 L123.069,53.347 C122.012,53.034 120.898,53.637 120.583,54.697 L116.963,66.907 C116.812,67.415 116.87,67.963 117.123,68.429 C117.376,68.895 117.804,69.242 118.312,69.392 L266.271,113.252 C266.461,113.31 266.652,113.336 266.84,113.336 Z" id="Shape"></path>
            <path d="M256.82,268.606 L41.068,268.606 C39.963,268.606 39.068,269.502 39.068,270.606 L39.068,283.341 C39.068,284.446 39.963,285.341 41.068,285.341 L256.82,285.341 C257.924,285.341 258.82,284.446 258.82,283.341 L258.82,270.606 C258.82,269.501 257.924,268.606 256.82,268.606 Z" id="Shape"></path>
            <path d="M256.82,238.39 L41.068,238.389 C40.538,238.389 40.029,238.6 39.654,238.975 C39.279,239.35 39.068,239.859 39.068,240.389 L39.068,253.125 C39.068,254.229 39.963,255.125 41.068,255.125 L256.82,255.125 C257.924,255.125 258.82,254.229 258.82,253.125 L258.82,240.39 C258.82,239.286 257.924,238.39 256.82,238.39 Z" id="Shape"></path>
        </g>
    </g>
</svg>