<?xml version="1.0" encoding="iso-8859-1"?>
<!-- Generator: Adobe Illustrator 19.0.0, SVG Export Plug-In . SVG Version: 6.00 Build 0)  -->
<svg version="1.1" id="Layer_1" xmlns="http://www.w3.org/2000/svg" xmlns:xlink="http://www.w3.org/1999/xlink" x="0px" y="0px"
	 viewBox="0 0 512 512" style="enable-background:new 0 0 512 512;" xml:space="preserve">
<g>
	<g>
		<g>
			<path d="M80.48,315.224l4.885-14.822l34.221,2.566l-15.361,46.602h21.898l23.622-44.338l11.62,0.872
				c0.198,0.006,0.402,0.012,0.6,0.012c22.046-0.002,21.52-33.633-0.6-32.838c-6.462,0.483-8.491,0.638-11.62,0.872l-23.622-44.338
				h-21.898l15.361,46.601l-34.221,2.566l-4.885-14.823H63.369l8.416,25.534l-8.416,25.533H80.48z"/>
			<path d="M472.082,79.167H39.918C17.907,79.167,0,97.074,0,119.085c0,12.72,0,261.499,0,273.83
				c0,22.011,17.907,39.918,39.918,39.918c13.107,0,426.962,0,432.165,0c22.011,0,39.918-17.907,39.918-39.918
				c0-12.339,0-261.124,0-273.83C512,97.074,494.093,79.167,472.082,79.167z M39.918,114.862h432.165
				c2.329,0,4.223,1.894,4.223,4.223v27.464c-6.237,0-413.545,0-440.61,0v-27.464h0C35.695,116.756,37.589,114.862,39.918,114.862z
				 M206.051,397.138H39.918c-2.328,0-4.223-1.894-4.223-4.223V182.244h170.357V397.138z M476.306,392.915h-0.001
				c0,2.328-1.894,4.223-4.223,4.223H241.746V182.242h234.56V392.915z"/>
			<path d="M291.987,244.229h134.077c9.857,0,17.847-7.991,17.847-17.847s-7.991-17.847-17.847-17.847H291.987
				c-9.857,0-17.847,7.991-17.847,17.847S282.13,244.229,291.987,244.229z"/>
			<path d="M291.987,307.538h134.077c9.857,0,17.847-7.991,17.847-17.847s-7.991-17.847-17.847-17.847H291.987
				c-9.857,0-17.847,7.991-17.847,17.847S282.13,307.538,291.987,307.538z"/>
			<path d="M291.987,370.847h134.077c9.857,0,17.847-7.991,17.847-17.847s-7.991-17.847-17.847-17.847H291.987
				c-9.857,0-17.847,7.991-17.847,17.847S282.13,370.847,291.987,370.847z"/>
		</g>
	</g>
</g>
<g>
</g>
<g>
</g>
<g>
</g>
<g>
</g>
<g>
</g>
<g>
</g>
<g>
</g>
<g>
</g>
<g>
</g>
<g>
</g>
<g>
</g>
<g>
</g>
<g>
</g>
<g>
</g>
<g>
</g>
</svg>
