<?xml version="1.0" encoding="UTF-8"?>
<svg width="73px" height="98px" viewBox="0 0 73 98" version="1.1" xmlns="http://www.w3.org/2000/svg" xmlns:xlink="http://www.w3.org/1999/xlink">
    <!-- Generator: Sketch 46.2 (44496) - http://www.bohemiancoding.com/sketch -->
    <title>hyper_location</title>
    <desc>Created with Sketch.</desc>
    <defs></defs>
    <g id="Page-1" stroke="none" stroke-width="1" fill="none" fill-rule="evenodd">
        <g id="hyper_location" fill-rule="nonzero" fill="#FF738E">
            <path d="M36.855,0 C17.021,0 0.883,16.138 0.883,35.974 C0.883,41.148 1.942,46.088 4.029,50.658 C13.023,70.339 30.267,91.118 35.339,97.017 C35.719,97.458 36.273,97.712 36.856,97.712 C37.439,97.712 37.993,97.458 38.373,97.017 C43.443,91.119 60.687,70.341 69.684,50.658 C71.772,46.088 72.83,41.148 72.83,35.974 C72.828,16.138 56.69,0 36.855,0 Z M36.855,54.659 C26.552,54.659 18.169,46.276 18.169,35.973 C18.169,25.669 26.552,17.286 36.855,17.286 C47.158,17.286 55.541,25.669 55.541,35.973 C55.542,46.276 47.159,54.659 36.855,54.659 Z" id="Shape"></path>
        </g>
    </g>
</svg>