<?xml version="1.0" encoding="UTF-8"?>
<svg width="54px" height="52px" viewBox="0 0 54 52" version="1.1" xmlns="http://www.w3.org/2000/svg" xmlns:xlink="http://www.w3.org/1999/xlink">
    <!-- Generator: Sketch 46.2 (44496) - http://www.bohemiancoding.com/sketch -->
    <title>maps</title>
    <desc>Created with Sketch.</desc>
    <defs></defs>
    <g id="Page-1" stroke="none" stroke-width="1" fill="none" fill-rule="evenodd">
        <g id="maps" fill-rule="nonzero" fill="#FF738E">
            <path d="M53.516,0.143 C53.216,-0.039 52.842,-0.047 52.533,0.116 L36,8.869 L19.468,0.116 C19.455,0.109 19.44,0.107 19.427,0.101 C19.379,0.078 19.33,0.061 19.28,0.046 C19.252,0.038 19.225,0.029 19.197,0.023 C19.142,0.012 19.086,0.008 19.029,0.006 C19.004,0.005 18.979,0.002 18.953,0.003 C18.899,0.006 18.846,0.016 18.793,0.028 C18.763,0.034 18.733,0.038 18.704,0.047 C18.697,0.049 18.69,0.049 18.684,0.051 L0.684,6.051 C0.275,6.187 0,6.569 0,7 L0,50 C0,50.321 0.154,50.623 0.416,50.812 C0.588,50.935 0.793,51 1,51 C1.106,51 1.213,50.983 1.316,50.948 L18.962,45.066 L35.619,51.925 C35.633,51.931 35.649,51.929 35.663,51.934 C35.773,51.973 35.885,52 36,52 C36.09,52 36.179,51.985 36.266,51.961 C36.294,51.953 36.32,51.94 36.348,51.93 C36.388,51.915 36.43,51.904 36.468,51.884 L53.468,42.884 C53.795,42.711 54,42.37 54,42 L54,1 C54,0.649 53.816,0.324 53.516,0.143 Z M2,7.721 L18,2.388 L18,29.38 C17.57,29.458 17.146,29.546 16.736,29.654 C16.202,29.796 15.884,30.343 16.026,30.877 C16.145,31.325 16.549,31.621 16.992,31.621 C17.076,31.621 17.163,31.61 17.249,31.588 C17.489,31.524 17.751,31.492 18,31.44 L18,43.28 L2,48.612 L2,7.721 Z M20,31.16 C20.321,31.135 20.632,31.094 20.961,31.087 C21.513,31.075 21.951,30.618 21.94,30.066 C21.928,29.521 21.483,29.087 20.94,29.087 C20.933,29.087 20.925,29.087 20.918,29.087 C20.608,29.094 20.303,29.111 20,29.132 L20,2.661 L35,10.602 L35,31.796 C34.286,31.765 33.56,31.681 32.799,31.534 C32.255,31.427 31.732,31.783 31.627,32.325 C31.522,32.867 31.877,33.392 32.419,33.497 C33.305,33.669 34.165,33.753 35.001,33.786 L35.001,49.507 L20,43.33 L20,31.16 Z M52,41.397 L37,49.338 L37,33.678 C37.372,33.509 37.62,33.129 37.587,32.698 C37.558,32.324 37.318,32.024 37,31.877 L37,10.602 L52,2.661 L52,41.397 Z" id="Shape"></path>
            <path d="M11,8 C8.243,8 6,10.243 6,13 C6,15.415 7.721,17.434 10,17.899 L10,20 C10,20.553 10.448,21 11,21 C11.552,21 12,20.553 12,20 L12,17.899 C14.279,17.434 16,15.415 16,13 C16,10.243 13.757,8 11,8 Z M11,16 C9.346,16 8,14.654 8,13 C8,11.346 9.346,10 11,10 C12.654,10 14,11.346 14,13 C14,14.654 12.654,16 11,16 Z" id="Shape"></path>
            <path d="M45.07,26.673 C45.19,26.72 45.313,26.741 45.434,26.741 C45.834,26.741 46.211,26.5 46.366,26.105 C46.836,24.906 47.213,23.552 47.489,22.081 C47.591,21.539 47.233,21.017 46.69,20.914 C46.144,20.824 45.625,21.171 45.523,21.714 C45.271,23.062 44.928,24.294 44.504,25.377 C44.303,25.89 44.556,26.471 45.07,26.673 Z" id="Shape"></path>
            <path d="M12.805,31.342 C11.598,32.099 10.51,33.047 9.57,34.162 C9.214,34.584 9.268,35.215 9.69,35.571 C9.878,35.729 10.107,35.806 10.334,35.806 C10.619,35.806 10.901,35.685 11.099,35.451 C11.905,34.495 12.836,33.682 13.867,33.037 C14.335,32.743 14.476,32.126 14.183,31.658 C13.89,31.19 13.272,31.048 12.805,31.342 Z" id="Shape"></path>
            <path d="M8.627,37.276 C8.125,37.046 7.531,37.263 7.3,37.765 C6.274,39.991 6.02,41.788 6.009,41.864 C5.934,42.411 6.316,42.914 6.863,42.989 C6.909,42.996 6.956,42.999 7.001,42.999 C7.492,42.999 7.92,42.637 7.991,42.138 C7.993,42.122 8.222,40.541 9.116,38.604 C9.347,38.101 9.128,37.508 8.627,37.276 Z" id="Shape"></path>
            <path d="M40.423,32.729 C40.576,32.729 40.732,32.694 40.877,32.62 C42.169,31.959 43.308,31.021 44.261,29.834 C44.607,29.403 44.538,28.773 44.107,28.428 C43.677,28.085 43.047,28.152 42.701,28.582 C41.925,29.549 41.005,30.308 39.966,30.839 C39.474,31.091 39.279,31.693 39.531,32.185 C39.709,32.53 40.06,32.729 40.423,32.729 Z" id="Shape"></path>
            <path d="M29.17,30.432 C28.729,30.247 28.471,30.119 28.454,30.11 C28.389,30.077 28.32,30.05 28.249,30.032 C27.166,29.754 26.099,29.534 25.076,29.378 C24.531,29.292 24.02,29.669 23.936,30.215 C23.853,30.761 24.228,31.272 24.774,31.355 C25.7,31.497 26.667,31.695 27.651,31.945 C27.785,32.009 28.041,32.13 28.399,32.279 C28.525,32.332 28.656,32.356 28.784,32.356 C29.175,32.356 29.547,32.126 29.707,31.742 C29.92,31.23 29.68,30.644 29.17,30.432 Z" id="Shape"></path>
            <path d="M46.923,18.931 C46.945,18.932 46.966,18.933 46.988,18.933 C47.511,18.933 47.951,18.527 47.985,17.996 C48.047,17.035 48.078,16.018 48.078,14.976 C48.078,14.629 48.075,14.277 48.068,13.918 C48.058,13.365 47.578,12.945 47.05,12.936 C46.498,12.946 46.058,13.402 46.068,13.954 C46.074,14.301 46.078,14.642 46.078,14.976 C46.078,15.976 46.048,16.949 45.989,17.869 C45.954,18.42 46.372,18.895 46.923,18.931 Z" id="Shape"></path>
            <path d="M8.293,27.707 C8.488,27.902 8.744,28 9,28 C9.256,28 9.512,27.902 9.707,27.707 L11,26.414 L12.293,27.707 C12.488,27.902 12.744,28 13,28 C13.256,28 13.512,27.902 13.707,27.707 C14.098,27.316 14.098,26.684 13.707,26.293 L12.414,25 L13.707,23.707 C14.098,23.316 14.098,22.684 13.707,22.293 C13.316,21.902 12.684,21.902 12.293,22.293 L11,23.586 L9.707,22.293 C9.316,21.902 8.684,21.902 8.293,22.293 C7.902,22.684 7.902,23.316 8.293,23.707 L9.586,25 L8.293,26.293 C7.902,26.683 7.902,27.316 8.293,27.707 Z" id="Shape"></path>
        </g>
    </g>
</svg>