<?xml version="1.0" encoding="UTF-8"?>
<svg width="490px" height="398px" viewBox="0 0 490 398" version="1.1" xmlns="http://www.w3.org/2000/svg" xmlns:xlink="http://www.w3.org/1999/xlink">
    <!-- Generator: Sketch 46.2 (44496) - http://www.bohemiancoding.com/sketch -->
    <title>offline</title>
    <desc>Created with Sketch.</desc>
    <defs></defs>
    <g id="Page-1" stroke="none" stroke-width="1" fill="none" fill-rule="evenodd">
        <g id="offline" fill-rule="nonzero" fill="#66CCFF">
            <g id="Group" transform="translate(0.000000, 63.000000)">
                <path d="M179.6,126.6 C145.9,136.9 114.1,155.1 87.4,181.7 L134,228.3 C147.9,214.4 164.1,203.5 181.6,195.8 L179.6,126.6 Z" id="Shape"></path>
                <path d="M175.8,0 C111.3,13 49.9,44.4 0,94.3 L46.6,140.9 C84.1,103.4 129.7,79 177.8,67.2 L175.8,0 Z" id="Shape"></path>
                <path d="M313.8,0 L311.8,67.3 C359.9,79.1 405.5,103.5 443,141 L489.6,94.4 C439.8,44.4 378.3,13 313.8,0 Z" id="Shape"></path>
                <path d="M307.9,195.8 C325.4,203.5 341.6,214.4 355.6,228.4 L402.2,181.8 C375.6,155.2 343.7,136.9 310,126.6 L307.9,195.8 Z" id="Shape"></path>
            </g>
            <circle id="Oval" cx="244.8" cy="357.2" r="40"></circle>
            <path d="M260.6,284.4 L228.9,284.4 C220.6,284.4 213.8,277.8 213.6,269.5 L206,16.2 C205.7,7.6 212.7,0.4 221.3,0.4 L268.3,0.4 C276.9,0.4 283.9,7.5 283.6,16.2 L275.9,269.5 C275.7,277.8 268.9,284.4 260.6,284.4 Z" id="Shape"></path>
        </g>
    </g>
</svg>