<?xml version="1.0" encoding="UTF-8"?>
<svg width="375px" height="487px" viewBox="0 0 375 487" version="1.1" xmlns="http://www.w3.org/2000/svg" xmlns:xlink="http://www.w3.org/1999/xlink">
    <!-- Generator: Sketch 46.2 (44496) - http://www.bohemiancoding.com/sketch -->
    <title>security</title>
    <desc>Created with Sketch.</desc>
    <defs></defs>
    <g id="Page-1" stroke="none" stroke-width="1" fill="none" fill-rule="evenodd">
        <g id="security" fill-rule="nonzero" fill="#FF738E">
            <path d="M347.88,196.563 L338.396,196.563 L338.396,152.175 C338.396,70.076 273.245,1.494 191.814,0.03 C189.589,-0.01 185.143,-0.01 182.919,0.03 C101.486,1.494 36.336,70.076 36.336,152.175 L36.336,196.563 L26.851,196.563 C12.235,196.563 0.313,211.645 0.313,230.272 L0.313,452.904 C0.313,471.51 12.235,486.733 26.852,486.733 L347.88,486.733 C362.496,486.733 374.419,471.51 374.419,452.904 L374.419,230.272 C374.419,211.646 362.497,196.563 347.88,196.563 Z M217.442,341.362 L217.442,408.633 C217.442,416.336 210.993,422.855 203.284,422.855 L171.45,422.855 C163.74,422.855 157.291,416.336 157.291,408.633 L157.291,341.362 C149.814,334.002 145.461,323.825 145.461,312.567 C145.461,291.233 161.952,272.901 182.92,272.054 C185.142,271.964 189.593,271.964 191.815,272.054 C212.783,272.901 229.274,291.233 229.274,312.567 C229.272,323.825 224.919,334.002 217.442,341.362 Z M275.886,196.563 L191.814,196.563 L182.919,196.563 L98.847,196.563 L98.847,152.175 C98.847,103.27 138.591,62.833 187.366,62.833 C236.141,62.833 275.887,103.27 275.887,152.175 L275.887,196.563 L275.886,196.563 Z" id="Shape"></path>
        </g>
    </g>
</svg>