<svg id="Layer_1" xmlns="http://www.w3.org/2000/svg" xmlns:xlink="http://www.w3.org/1999/xlink" viewBox="0 0 595.3 270"><style>.st0{clip-path:url(#SVGID_2_);fill:url(#SVGID_3_)}.st1{clip-path:url(#SVGID_5_);fill-rule:evenodd;clip-rule:evenodd;fill:#fff}.st2{clip-path:url(#SVGID_7_);fill:url(#SVGID_8_)}.st3,.st4{clip-path:url(#SVGID_10_);fill-rule:evenodd;clip-rule:evenodd;fill:#222a55}.st4{fill:#2ebbed}.st5{fill:#222a55}</style><defs><path id="SVGID_1_" d="M55.9 9.2c-12.5 0-23.2 4.4-32 13.3S10.6 42 10.6 54.5V145c0 12.5 4.4 23.2 13.3 32 8.9 8.9 19.5 13.3 32 13.3h90.5c12.5 0 23.2-4.4 32-13.3 8.9-8.8 13.3-19.5 13.3-32V54.5c0-12.5-4.4-23.2-13.3-32-8.8-8.8-19.5-13.3-32-13.3H55.9z"/></defs><clipPath id="SVGID_2_"><use xlink:href="#SVGID_1_" overflow="visible"/></clipPath><linearGradient id="SVGID_3_" gradientUnits="userSpaceOnUse" x1="-7.732" y1="395.041" x2="-3.14" y2="395.041" gradientTransform="matrix(0 39.4367 39.4367 0 -15477.894 314.127)"><stop offset="0" stop-color="#2ebbee"/><stop offset=".506" stop-color="#0066b2"/><stop offset="1" stop-color="#222a55"/></linearGradient><path class="st0" d="M10.7 9.2h181.1v181.1H10.7z"/><defs><path id="SVGID_4_" d="M40.8 39.4h120.7v120.7H40.8z"/></defs><clipPath id="SVGID_5_"><use xlink:href="#SVGID_4_" overflow="visible"/></clipPath><path class="st1" d="M127.5 59.5H74.9c-3.8 0-7.1 1.4-9.8 4.1-2.8 2.8-4.1 6.1-4.1 10v52.3c0 3.9 1.4 7.2 4.1 9.9L50.9 150c-6.7-6.7-10-14.7-10-24.2V73.6c0-9.5 3.3-17.5 10-24.2 6.6-6.6 14.6-9.9 23.9-10h53c2.6.1 4.9 1 6.8 2.9 2 2 2.9 4.3 2.9 7.1s-1 5.2-2.9 7.1c-2 2-4.4 3-7.1 3"/><defs><path id="SVGID_6_" d="M134.5 42.3c2 2 2.9 4.3 2.9 7.1s-1 5.2-2.9 7.1c-1.9 1.9-4.3 2.9-7 2.9 3.8 0 7.1 1.4 9.8 4.1 2.8 2.7 4.1 6 4.1 9.9v52.3c0 3.9-1.4 7.2-4.1 9.9v.1c-2.8 2.7-6.1 4.1-9.9 4.1H75.1c-3.9 0-7.2-1.4-9.9-4.1l-.5-.5-14.2 14.2.5.5c6.7 6.7 14.7 10 24.2 10h52.3c9.4 0 17.5-3.3 24.1-10h.1c6.7-6.7 10-14.7 10-24.2V73.6c0-9.5-3.3-17.5-10-24.2-6.6-6.6-14.6-9.9-23.8-10 2.4 0 4.7 1 6.6 2.9"/></defs><clipPath id="SVGID_7_"><use xlink:href="#SVGID_6_" overflow="visible"/></clipPath><linearGradient id="SVGID_8_" gradientUnits="userSpaceOnUse" x1="-8.87" y1="388.54" x2="-4.278" y2="388.54" gradientTransform="scale(-31.0072 31.0072) rotate(45 460.077 199.82)"><stop offset="0" stop-color="#70b5e4"/><stop offset=".831" stop-color="#fff"/><stop offset="1" stop-color="#fff"/></linearGradient><path class="st2" d="M221.9 99.7L106 215.7l-116-116L106-16.2z"/><defs><path id="SVGID_9_" d="M10.7 9.2h568.5v181.1H10.7z"/></defs><clipPath id="SVGID_10_"><use xlink:href="#SVGID_9_" overflow="visible"/></clipPath><path class="st3" d="M280.6 157.9c5.1 5.1 11.2 7.6 18.5 7.6 7.3 0 13.5-2.5 18.8-7.6 5.2-5.1 7.7-11.2 7.7-18.4 0-7.3-2.5-13.5-7.6-18.5s-11.3-7.5-18.7-7.5c-7.3 0-13.5 2.5-18.7 7.6-5.1 5.1-7.6 11.2-7.6 18.4 0 7.1 2.6 13.3 7.6 18.4m-4.9 1.8c-5.1-5.9-7.7-12.6-7.7-20.2 0-8.6 3-15.8 9-21.6 6-5.8 13.4-8.7 22.2-8.7 8.9 0 16.3 2.9 22.3 8.7 6 5.8 9 12.9 9 21.5 0 7-2.3 13.5-6.9 19.4-4.7 5.9-11.6 9.6-20.9 10.9 6.8 4.6 12.9 6.9 18.5 6.9 1.9 0 3.8-.7 5.8-2.2l1 .9-5.1 5.9c-10.3-1.3-19.2-5.1-26.9-11.6-8.4-.7-15.1-4-20.3-9.9M234 109.2c4.6 0 9.1 1.2 13.6 3.7v5c-5.1-3-9.5-4.5-13.2-4.5-3.6 0-6.5 1.1-8.9 3.2-2.4 2.1-3.6 4.8-3.6 8 0 2.3.7 4.3 2.1 6.2 1.4 1.8 4.4 3.6 8.8 5.3 4.5 1.7 7.7 3.1 9.8 4.2 2 1.1 3.8 2.7 5.2 4.9 1.4 2.1 2.2 4.9 2.2 8.3 0 4.6-1.7 8.4-5 11.5-3.3 3.1-7.4 4.7-12.1 4.7-4.9 0-10-1.7-15.1-5.1v-5.4c5.7 4.2 10.7 6.3 14.9 6.3 3.5 0 6.4-1.1 8.9-3.4 2.4-2.3 3.6-5.1 3.6-8.3 0-2.5-.7-4.8-2.2-6.8-1.5-2-4.5-3.8-9.1-5.6-4.6-1.7-7.8-3.2-9.8-4.2-2-1.1-3.6-2.6-5-4.6-1.4-2-2.1-4.5-2.1-7.6 0-4.3 1.7-8 5-11.1 3.3-3.2 7.3-4.7 12-4.7m115.2.7h4.6v33c0 7 1.9 12.6 5.6 16.5 3.7 4 8.5 5.9 14.4 5.9 6 0 10.9-2 14.6-6 3.7-4 5.6-9.7 5.6-17.1v-32.4h4.6V142c0 8.8-2.3 15.6-6.9 20.4-4.6 4.8-10.5 7.2-17.9 7.2-7.2 0-13.2-2.4-17.8-7.1-4.6-4.7-6.9-11.2-6.9-19.4v-33.2zm196.7 0h32.2v3.8h-27.7v23.6h26.9v3.8h-26.9V165h28.3v3.8h-32.8v-58.9zm-59.8 0h15.1c6.3 0 11.2 1.4 14.5 4.1 3.4 2.7 5 6.5 5 11.1 0 6.8-3.8 11.6-11.3 14.3 1.9.9 4.6 3.9 7.8 9l13.4 20.4h-5.4l-10.3-16.2c-3.4-5.4-6.1-8.8-8-10.1-1.9-1.4-4.7-2.1-8.4-2.1h-7.9v28.3H486v-58.8zm29.8 15.4c0-3.7-1.3-6.5-4-8.5s-6.5-3.1-11.6-3.1h-9.6v23.1h9.8c5 0 8.8-1 11.4-3 2.6-2 4-4.8 4-8.5m-75.5-8.4l-12.7 27.8H453l-12.6-27.8zm-1.2-7.4h2.5L469 169h-4.8l-9.3-20.4H426l-9.3 20.4h-4.8l27.3-59.5z"/><path class="st4" d="M300.5 30.1h4.7v33.8c0 3.9.6 7.4 1.7 10.4 1 2.5 2.3 4.6 4.1 6.5 3.8 4.1 8.7 6.1 14.7 6.1 6.1 0 11.1-2 14.9-6.1 1.7-1.8 3-4 3.9-6.5 1.2-3.2 1.8-6.8 1.8-11.1V30.1h4.7V63c0 4.2-.5 8-1.5 11.3-1.2 3.8-3 7-5.5 9.6-4.7 4.9-10.8 7.3-18.3 7.3-7.4 0-13.5-2.4-18.2-7.2-2.6-2.7-4.5-5.9-5.6-9.7-.9-3-1.4-6.4-1.4-10.2v-34zm-70.4 11.1c-5.1 5.1-7.6 11.4-7.6 19.1 0 5.3 1.2 10 3.6 14 1.1 1.8 2.4 3.5 3.9 5 5 5.1 11.8 7.6 20.4 7.6 6.2 0 11.8-1.2 16.5-3.7V66.9h-12.7V63h17.5v23.1c-7.1 3.4-14.3 5.1-21.4 5.1-9.4 0-17.2-3-23.4-8.9-2.6-2.4-4.6-5.1-6.1-8-2.2-4.2-3.3-8.9-3.3-14.2 0-8.8 3.1-16.2 9.3-22 6.1-5.9 13.8-8.8 23.1-8.8 6.3 0 13.2 1.7 20.7 5.1v5.3c-7.1-4.1-14.3-6.1-21.4-6.1-7.7 0-14 2.6-19.1 7.6m256.5-6.9c3.4 2.8 5.1 6.6 5.1 11.4 0 7-3.8 11.9-11.5 14.7 2 .9 4.7 4 8 9.2l13.7 20.9h-5.5L485.9 74c-3.5-5.5-6.3-9-8.2-10.4-1.9-1.4-4.8-2.1-8.6-2.1h-8.2v29h-4.7V30.1h15.5c6.5 0 11.4 1.4 14.9 4.2m59.9-.3h-16.8v52.6h17.1c7.8 0 14.3-2.4 19.5-7.2 1.7-1.5 3-3.2 4.2-5.1 2.4-4 3.6-8.6 3.6-14 0-7.7-2.6-14.1-7.7-19S554.6 34 546.5 34m-21.4-3.9h21.1c10.7 0 18.9 2.8 24.5 8.4 5.6 5.6 8.4 12.9 8.4 21.8 0 5.2-1 9.9-3 14-1.3 2.8-3.1 5.3-5.4 7.6-5.6 5.7-13.5 8.5-23.7 8.5h-22V30.1zM470.7 34h-9.9v23.6h10c5.1 0 9-1 11.7-3.1 2.7-2.1 4-5 4-8.8 0-3.7-1.4-6.6-4.1-8.6-2.6-2.1-6.5-3.1-11.7-3.1m-69.1 3.3l-13 28.5h26l-13-28.5zm-14.8 32.3l-9.6 20.9h-4.9l27.9-60.8h2.6l27.9 60.8h-4.9l-9.6-20.9h-29.4z"/><path class="st5" d="M24.5 241.5l-11.6-28.8h-.2c.1 1.8.2 3.6.2 5.4v23.3h-2.1v-31.1h3.4l11 27.4h.1l11-27.4h3.3v31.1h-2.2v-23.6c0-1.6.1-3.4.3-5.1h-.2l-11.7 28.7h-1.3zm42.6-11.6c0 3.8-.9 6.7-2.7 8.8-1.8 2.1-4.4 3.2-7.6 3.2-2 0-3.8-.5-5.4-1.5-1.5-1-2.7-2.4-3.6-4.2-.8-1.8-1.2-3.9-1.2-6.3 0-3.8.9-6.7 2.7-8.8 1.8-2.1 4.3-3.2 7.5-3.2s5.7 1.1 7.5 3.2c1.9 2.2 2.8 5.1 2.8 8.8zm-18.3 0c0 3.2.7 5.7 2.1 7.4 1.4 1.8 3.4 2.7 5.9 2.7 2.6 0 4.5-.9 5.9-2.7 1.4-1.8 2.1-4.3 2.1-7.4 0-3.2-.7-5.7-2.1-7.4-1.4-1.8-3.4-2.6-6-2.6s-4.5.9-5.9 2.6c-1.3 1.7-2 4.2-2 7.4zm34.5-12c3.2 0 5.7 1 7.3 3.1 1.6 2 2.5 5 2.5 8.9 0 3.8-.9 6.8-2.6 8.9-1.7 2.1-4.1 3.1-7.3 3.1-1.6 0-3.1-.3-4.5-1s-2.4-1.6-3.1-2.9h-.2l-.6 3.5h-1.3v-33.1h2.1v8.3c0 1.2 0 2.4-.1 3.5l-.1 1.8h.1c.9-1.4 1.9-2.4 3.2-3.1 1.3-.6 2.8-1 4.6-1zm-.1 2c-2.7 0-4.7.8-5.9 2.3-1.2 1.6-1.8 4.1-1.8 7.7v.4c0 3.5.6 6 1.8 7.5 1.2 1.5 3.1 2.3 5.7 2.3 2.5 0 4.4-.9 5.7-2.7 1.3-1.8 1.9-4.3 1.9-7.6.2-6.6-2.3-9.9-7.4-9.9zm16-7.9c0-1.4.4-2 1.3-2 .4 0 .8.2 1 .5.2.4.4.9.4 1.5s-.1 1.1-.4 1.5-.6.6-1 .6c-.9-.1-1.3-.8-1.3-2.1zm2.4 29.5h-2.1v-23.2h2.1v23.2zm9.8 0h-2.1v-33.1h2.1v33.1zm17.1.5c-3.4 0-6-1-7.9-3.1s-2.8-5-2.8-8.7c0-3.7.9-6.6 2.7-8.9 1.8-2.2 4.3-3.3 7.3-3.3 2.7 0 4.9 1 6.5 2.9 1.6 1.9 2.4 4.5 2.4 7.8v1.7H120c0 3.2.8 5.6 2.2 7.3s3.5 2.5 6.3 2.5c1.3 0 2.5-.1 3.5-.3s2.3-.6 3.8-1.2v1.9c-1.3.6-2.5 1-3.6 1.2s-2.3.2-3.7.2zm-.6-22.2c-2.2 0-4 .7-5.4 2.2-1.3 1.5-2.1 3.6-2.4 6.4h14.3c0-2.7-.6-4.8-1.7-6.3s-2.7-2.3-4.8-2.3zm42.1 10.8h-12.7l-4.3 11h-2.4l12.5-31.3h1.4l12.3 31.3h-2.4l-4.4-11zm-11.9-2h11.1l-4.2-11.2c-.4-.9-.8-2.1-1.3-3.7-.4 1.4-.8 2.6-1.3 3.7l-4.3 11.2zm32.4 13.4c-3.6 0-6.2-1.3-7.8-4h-.1l.1 1.8c.1 1.1.1 2.2.1 3.5v8.8h-2.1v-33.6h1.8l.4 3.3h.1c1.6-2.5 4.1-3.7 7.6-3.7 3.1 0 5.5 1 7.1 3.1 1.6 2.1 2.5 5 2.5 9 0 3.8-.9 6.8-2.6 8.8-1.7 1.9-4.1 3-7.1 3zm0-1.9c2.4 0 4.2-.9 5.5-2.6 1.3-1.8 1.9-4.2 1.9-7.4 0-6.8-2.5-10.2-7.4-10.2-2.7 0-4.7.7-5.9 2.2-1.3 1.5-1.9 3.9-1.9 7.3v.7c0 3.6.6 6.2 1.8 7.8 1.3 1.4 3.3 2.2 6 2.2zm26 1.9c-3.6 0-6.2-1.3-7.8-4h-.1l.1 1.8c.1 1.1.1 2.2.1 3.5v8.8h-2.1v-33.6h1.8l.4 3.3h.1c1.6-2.5 4.1-3.7 7.6-3.7 3.1 0 5.5 1 7.1 3.1 1.6 2.1 2.5 5 2.5 9 0 3.8-.9 6.8-2.6 8.8-1.8 1.9-4.1 3-7.1 3zm0-1.9c2.4 0 4.2-.9 5.5-2.6 1.3-1.8 1.9-4.2 1.9-7.4 0-6.8-2.5-10.2-7.4-10.2-2.7 0-4.7.7-5.9 2.2-1.3 1.5-1.9 3.9-1.9 7.3v.7c0 3.6.6 6.2 1.8 7.8 1.2 1.4 3.2 2.2 6 2.2zm18.2 1.4h-2.1v-33.1h2.1v33.1zm7.4-29.5c0-1.4.4-2 1.3-2 .4 0 .8.2 1 .5.2.4.4.9.4 1.5s-.1 1.1-.4 1.5-.6.6-1 .6c-.8-.1-1.3-.8-1.3-2.1zm2.4 29.5h-2.1v-23.2h2.1v23.2zm17 .5c-3.3 0-5.9-1-7.8-3.1-1.9-2.1-2.8-5-2.8-8.7 0-3.8 1-6.8 2.9-9 1.9-2.1 4.6-3.2 8-3.2 2 0 3.9.3 5.8 1l-.6 1.9c-2-.7-3.7-1-5.2-1-2.8 0-5 .9-6.5 2.6-1.5 1.8-2.2 4.3-2.2 7.6 0 3.1.7 5.6 2.2 7.3 1.5 1.8 3.5 2.7 6.1 2.7 2.1 0 4.1-.4 5.9-1.1v2c-1.4.6-3.4 1-5.8 1zm25.6-.5l-.5-3.7h-.2c-1.2 1.5-2.4 2.5-3.6 3.2-1.2.6-2.7.9-4.4.9-2.3 0-4-.6-5.3-1.7-1.3-1.2-1.9-2.8-1.9-4.8 0-2.3.9-4 2.8-5.3 1.9-1.2 4.6-1.9 8.2-2l4.4-.1v-1.5c0-2.2-.4-3.9-1.3-5s-2.3-1.7-4.3-1.7c-2.1 0-4.4.6-6.7 1.8l-.8-1.8c2.5-1.2 5.1-1.8 7.5-1.8 2.5 0 4.4.7 5.7 2 1.3 1.3 1.9 3.4 1.9 6.2v15.4h-1.5zm-8.6-1.4c2.5 0 4.4-.7 5.8-2.1 1.4-1.4 2.1-3.4 2.1-5.9v-2.3l-4 .2c-3.3.2-5.6.7-7 1.5-1.4.9-2.1 2.2-2.1 4 0 1.4.4 2.6 1.3 3.4 1.1.8 2.3 1.2 3.9 1.2zm23.7 0c1.3 0 2.5-.1 3.5-.3v1.7c-1 .3-2.2.5-3.5.5-2 0-3.6-.5-4.5-1.6-1-1.1-1.5-2.8-1.5-5.2v-15h-3.4V219l3.4-1 1.1-5.2h1.1v5.6h6.8v1.8h-6.8v14.7c0 1.8.3 3.1.9 3.9.6.9 1.6 1.3 2.9 1.3zm8.2-28.1c0-1.4.4-2 1.3-2 .4 0 .8.2 1 .5.2.4.4.9.4 1.5s-.1 1.1-.4 1.5c-.2.4-.6.6-1 .6-.8-.1-1.3-.8-1.3-2.1zm2.4 29.5h-2.1v-23.2h2.1v23.2zm26.9-11.6c0 3.8-.9 6.7-2.7 8.8-1.8 2.1-4.4 3.2-7.6 3.2-2 0-3.8-.5-5.4-1.5-1.5-1-2.7-2.4-3.6-4.2s-1.2-3.9-1.2-6.3c0-3.8.9-6.7 2.7-8.8 1.8-2.1 4.3-3.2 7.5-3.2s5.7 1.1 7.5 3.2c1.9 2.2 2.8 5.1 2.8 8.8zm-18.2 0c0 3.2.7 5.7 2.1 7.4 1.4 1.8 3.4 2.7 5.9 2.7s4.5-.9 5.9-2.7c1.4-1.8 2.1-4.3 2.1-7.4 0-3.2-.7-5.7-2.1-7.4-1.4-1.8-3.4-2.6-6-2.6s-4.5.9-5.9 2.6c-1.4 1.7-2 4.2-2 7.4zm40.8 11.6v-15c0-2.3-.5-4-1.5-5.1s-2.5-1.6-4.6-1.6c-2.8 0-4.8.7-6.1 2.1s-1.9 3.7-1.9 6.8v12.8h-2.1v-23.2h1.8l.4 3.2h.1c1.5-2.4 4.2-3.6 8-3.6 5.3 0 7.9 2.8 7.9 8.5v15.1h-2zm40.2-22.2c0 3-1 5.3-3.1 6.9-2 1.6-4.9 2.4-8.7 2.4h-4.8v12.9h-2.2v-31.1h7.6c7.5 0 11.2 3 11.2 8.9zm-16.6 7.5h4.3c3.5 0 6-.6 7.6-1.7 1.6-1.2 2.3-3 2.3-5.6 0-2.4-.7-4.2-2.2-5.3-1.5-1.2-3.8-1.7-6.9-1.7h-5.2v14.3zm31.9-8.9c1 0 2 .1 3.2.3l-.4 2c-1-.2-2-.4-3-.4-2 0-3.6.8-4.9 2.5-1.3 1.7-1.9 3.8-1.9 6.3v12.8h-2.1v-23.2h1.8l.2 4.2h.1c1-1.7 2-2.9 3-3.6s2.5-.9 4-.9zm27 12c0 3.8-.9 6.7-2.7 8.8-1.8 2.1-4.4 3.2-7.6 3.2-2 0-3.8-.5-5.4-1.5-1.5-1-2.7-2.4-3.6-4.2s-1.2-3.9-1.2-6.3c0-3.8.9-6.7 2.7-8.8 1.8-2.1 4.3-3.2 7.5-3.2s5.7 1.1 7.5 3.2c1.9 2.2 2.8 5.1 2.8 8.8zm-18.2 0c0 3.2.7 5.7 2.1 7.4 1.4 1.8 3.4 2.7 5.9 2.7s4.5-.9 5.9-2.7c1.4-1.8 2.1-4.3 2.1-7.4 0-3.2-.7-5.7-2.1-7.4-1.4-1.8-3.4-2.6-6-2.6s-4.5.9-5.9 2.6c-1.3 1.7-2 4.2-2 7.4zm30.8 10.2c1.3 0 2.5-.1 3.5-.3v1.7c-1 .3-2.2.5-3.5.5-2 0-3.6-.5-4.5-1.6-1-1.1-1.5-2.8-1.5-5.2v-15H448V219l3.4-1 1.1-5.2h1.1v5.6h6.8v1.8h-6.8v14.7c0 1.8.3 3.1.9 3.9.5.9 1.5 1.3 2.9 1.3zm17.8 1.9c-3.4 0-6-1-7.9-3.1-1.9-2.1-2.8-5-2.8-8.7 0-3.7.9-6.6 2.7-8.9 1.8-2.2 4.3-3.3 7.3-3.3 2.7 0 4.9 1 6.5 2.9 1.6 1.9 2.4 4.5 2.4 7.8v1.7h-16.7c0 3.2.8 5.6 2.2 7.3 1.5 1.7 3.5 2.5 6.3 2.5 1.3 0 2.5-.1 3.5-.3 1-.2 2.3-.6 3.8-1.2v1.9c-1.3.6-2.5 1-3.6 1.2s-2.4.2-3.7.2zm-.6-22.2c-2.2 0-4 .7-5.4 2.2-1.3 1.5-2.1 3.6-2.4 6.4h14.3c0-2.7-.6-4.8-1.7-6.3s-2.8-2.3-4.8-2.3zM499 242c-3.3 0-5.9-1-7.8-3.1-1.9-2.1-2.8-5-2.8-8.7 0-3.8 1-6.8 2.9-9 1.9-2.1 4.6-3.2 8-3.2 2 0 3.9.3 5.8 1l-.6 1.9c-2-.7-3.7-1-5.2-1-2.8 0-5 .9-6.5 2.6-1.5 1.8-2.2 4.3-2.2 7.6 0 3.1.7 5.6 2.2 7.3 1.5 1.8 3.5 2.7 6.1 2.7 2.1 0 4.1-.4 5.9-1.1v2c-1.4.6-3.4 1-5.8 1zm17.6-1.9c1.3 0 2.5-.1 3.5-.3v1.7c-1 .3-2.2.5-3.5.5-2 0-3.6-.5-4.5-1.6-1-1.1-1.5-2.8-1.5-5.2v-15h-3.4V219l3.4-1 1.1-5.2h1.1v5.6h6.8v1.8h-6.8v14.7c0 1.8.3 3.1.9 3.9.6.9 1.6 1.3 2.9 1.3zm8.2-28.1c0-1.4.4-2 1.3-2 .4 0 .8.2 1 .5.2.4.4.9.4 1.5s-.1 1.1-.4 1.5c-.2.4-.6.6-1 .6-.8-.1-1.3-.8-1.3-2.1zm2.4 29.5h-2.1v-23.2h2.1v23.2zm26.9-11.6c0 3.8-.9 6.7-2.7 8.8-1.8 2.1-4.4 3.2-7.6 3.2-2 0-3.8-.5-5.4-1.5-1.5-1-2.7-2.4-3.6-4.2s-1.2-3.9-1.2-6.3c0-3.8.9-6.7 2.7-8.8 1.8-2.1 4.3-3.2 7.5-3.2s5.7 1.1 7.5 3.2c1.9 2.2 2.8 5.1 2.8 8.8zm-18.2 0c0 3.2.7 5.7 2.1 7.4 1.4 1.8 3.4 2.7 5.9 2.7s4.5-.9 5.9-2.7c1.4-1.8 2.1-4.3 2.1-7.4 0-3.2-.7-5.7-2.1-7.4-1.4-1.8-3.4-2.6-6-2.6s-4.5.9-5.9 2.6c-1.3 1.7-2 4.2-2 7.4zm40.8 11.6v-15c0-2.3-.5-4-1.5-5.1s-2.5-1.6-4.6-1.6c-2.8 0-4.8.7-6.1 2.1s-1.9 3.7-1.9 6.8v12.8h-2.1v-23.2h1.8l.4 3.2h.1c1.5-2.4 4.2-3.6 8-3.6 5.3 0 7.9 2.8 7.9 8.5v15.1h-2z"/></svg>