<?xml version="1.0" encoding="UTF-8"?>
<svg width="48px" height="48px" viewBox="0 0 48 48" version="1.1" xmlns="http://www.w3.org/2000/svg" xmlns:xlink="http://www.w3.org/1999/xlink">
    <!-- Generator: Sketch 46.2 (44496) - http://www.bohemiancoding.com/sketch -->
    <title>square_guard_2</title>
    <desc>Created with Sketch.</desc>
    <defs></defs>
    <g id="Page-1" stroke="none" stroke-width="1" fill="none" fill-rule="evenodd">
        <g id="square_guard_2" fill-rule="nonzero" fill="#FF738E">
            <path d="M37.292,48 L11.917,48 C4.344,48 0,44.014 0,37.062 L0,12.125 C0,4.873 4.27,0 10.625,0 L38.209,0 C42.918,0 48,4.524 48,11.834 L48,36.917 C48,43.132 43.296,48 37.292,48 Z M10.625,2 C4.259,2 2,7.454 2,12.125 L2,37.063 C2,44.449 7.393,46 11.917,46 L37.292,46 C42.256,46 46,42.095 46,36.917 L46,11.834 C46,5.76 41.956,2 38.209,2 L10.625,2 Z" id="Shape"></path>
            <path d="M37.135,43.326 L10.938,43.326 C7.479,43.326 4.665,40.517 4.665,37.066 L4.665,10.935 C4.665,7.483 7.479,4.675 10.938,4.675 L37.135,4.675 C40.593,4.675 43.407,7.483 43.407,10.935 L43.407,37.066 C43.407,40.52 40.593,43.326 37.135,43.326 Z M10.938,6.659 C8.573,6.659 6.649,8.577 6.649,10.934 L6.649,37.066 C6.649,39.422 8.573,41.34 10.938,41.34 L37.135,41.34 C39.499,41.34 41.423,39.422 41.423,37.066 L41.423,10.935 C41.423,8.578 39.499,6.66 37.135,6.66 L10.938,6.659 L10.938,6.659 Z" id="Shape"></path>
        </g>
    </g>
</svg>