<?xml version="1.0" encoding="UTF-8"?>
<svg width="960px" height="960px" viewBox="0 0 960 960" version="1.1" xmlns="http://www.w3.org/2000/svg" xmlns:xlink="http://www.w3.org/1999/xlink">
    <!-- Generator: Sketch 46.2 (44496) - http://www.bohemiancoding.com/sketch -->
    <title>trips</title>
    <desc>Created with Sketch.</desc>
    <defs></defs>
    <g id="Page-1" stroke="none" stroke-width="1" fill="none" fill-rule="evenodd">
        <g id="trips" fill-rule="nonzero" fill="#4BE4C4">
            <path d="M923.777,2.34 L822.277,48.54 C815.777,51.54 809.777,55.64 804.677,60.74 L639.277,226.24 L69.677,157.94 C59.377,156.74 48.977,160.24 41.677,167.64 L9.977,199.34 C-6.823,216.14 -1.623,244.54 20.077,254.24 L428.277,437.24 L311.077,554.44 L106.377,554.44 C97.377,554.44 88.777,558.04 82.377,564.339 L65.277,581.539 C48.277,598.539 53.877,627.239 75.877,636.64 L248.577,710.64 L322.577,883.339 C331.977,905.339 360.777,910.94 377.678,893.94 L394.877,876.74 C401.277,870.34 404.777,861.74 404.777,852.74 L404.777,648.04 L521.977,530.84 L704.977,939.141 C714.677,960.84 743.077,966.04 759.876,949.241 L791.576,917.541 C798.976,910.141 802.476,899.841 801.276,889.541 L732.876,319.941 L898.376,154.441 C903.477,149.341 907.576,143.441 910.576,136.841 L956.776,35.341 C966.478,14.44 944.877,-7.26 923.777,2.34 Z" id="Shape"></path>
        </g>
    </g>
</svg>