<?xml version="1.0" encoding="iso-8859-1"?>
<!-- Generator: Adobe Illustrator 16.0.0, SVG Export Plug-In . SVG Version: 6.00 Build 0)  -->
<!DOCTYPE svg PUBLIC "-//W3C//DTD SVG 1.1//EN" "http://www.w3.org/Graphics/SVG/1.1/DTD/svg11.dtd">
<svg version="1.1" id="Capa_1" xmlns="http://www.w3.org/2000/svg" xmlns:xlink="http://www.w3.org/1999/xlink" x="0px" y="0px"
	 width="957.177px" height="957.176px" viewBox="0 0 957.177 957.176" style="enable-background:new 0 0 957.177 957.176;"
	 xml:space="preserve">
<g>
	<g>
		<path d="M0,816.385h957.177V140.792H0V816.385z M65,205.792h827.177v545.594H65V205.792z"/>
		<path d="M105.146,715.052h316.987v-231.54H105.146V715.052z M170.146,548.512h186.987v101.541H170.146V548.512z"/>
		<path d="M263.639,459.778c62.572,0,113.479-50.906,113.479-113.479c0-62.572-50.906-113.478-113.479-113.478
			c-62.571,0-113.478,50.906-113.478,113.478C150.161,408.872,201.068,459.778,263.639,459.778z M263.639,297.821
			c26.731,0,48.479,21.747,48.479,48.478s-21.747,48.479-48.479,48.479c-26.73,0-48.478-21.748-48.478-48.479
			S236.909,297.821,263.639,297.821z"/>
		<rect x="497.129" y="593.667" width="344.982" height="65"/>
		<rect x="497.129" y="446.287" width="344.982" height="65"/>
		<rect x="497.129" y="298.905" width="344.982" height="65"/>
	</g>
</g>
<g>
</g>
<g>
</g>
<g>
</g>
<g>
</g>
<g>
</g>
<g>
</g>
<g>
</g>
<g>
</g>
<g>
</g>
<g>
</g>
<g>
</g>
<g>
</g>
<g>
</g>
<g>
</g>
<g>
</g>
</svg>
