
<svg width="128px" height="140px" viewBox="0 0 128 140" version="1.1" xmlns="http://www.w3.org/2000/svg" xmlns:xlink="http://www.w3.org/1999/xlink">
    <!-- Generator: Sketch 43.1 (39012) - http://www.bohemiancoding.com/sketch -->
    <desc>Created with Sketch.</desc>
    <defs></defs>
    <g id="Page-1" stroke="none" stroke-width="1" fill="none" fill-rule="evenodd">
        <g id="Page-2" transform="translate(-1004.000000, -49.000000)">
            <g id="Logo_BILD" transform="translate(1005.000000, 50.000000)">
                <path d="M0.169389388,0.0913903814 L125.813858,0.0913903814 L125.813858,137.994487 L0.169389388,137.994487 L0.169389388,0.0913903814 L0.169389388,0.0913903814 Z" id="_81408128" stroke="#FFFFFF"></path>
                <path d="M65.677065,118.071726 L78.0452558,118.071726 L78.0452558,17.4397173 L65.677065,17.4397173 L65.677065,118.071726 Z M42.5988577,112.609809 C42.5918202,115.615587 40.1819603,118.030053 37.209547,118.037698 L12.8280697,118.037698 L12.835776,17.4396333 L37.239534,17.4396333 C40.1819603,17.4445904 42.5918202,19.8610745 42.5988577,22.8668513 L42.5988577,58.1284311 C42.5988577,60.9712999 40.2752712,63.2676412 37.4430772,63.2676412 L36.9022205,63.264784 C40.0348712,63.264784 42.5988577,65.8197284 42.5988577,68.9590908 L42.5988577,71.1707424 L42.5988577,112.609558 L42.5988577,112.609809 Z M25.1976006,29.8608929 L30.2746417,29.8608929 L30.2746417,58.5277633 L25.1976006,58.5277633 L25.1976006,29.8608929 Z M25.1976006,70.8459349 L30.2746417,70.8459349 L30.2746417,105.588798 L25.1976006,105.588798 L25.1976006,70.8459349 Z M113.154761,118.070045 L113.154761,17.4341724 L100.783804,17.4341724 L100.783804,34.9502807 L88.7467313,34.9502807 C85.8008702,34.9551534 83.4091018,37.3723941 83.4013952,40.3781693 L83.3867362,112.609641 C83.3944427,115.615418 85.8036337,118.029885 88.7760469,118.037532 L113.154761,118.069708 L113.154761,118.070045 Z M100.788665,47.2436669 L95.7117063,47.2436669 L95.7117063,105.588967 L100.788665,105.588967 L100.788665,47.2436669 Z M47.9560019,29.8607245 L60.3234385,29.8607245 L60.3234385,17.4383731 L47.9560019,17.4383731 L47.9560019,29.8607245 Z M47.9560019,118.071726 L60.3234385,118.071726 L60.3234385,34.9551534 L47.9560019,34.9551534 L47.9560019,118.071726 Z" id="_81405672" fill="#FFFFFF"></path>
            </g>
        </g>
    </g>
</svg>
