
<svg width="256px" height="99px" viewBox="0 0 256 99" version="1.1" xmlns="http://www.w3.org/2000/svg" xmlns:xlink="http://www.w3.org/1999/xlink">
    <!-- Generator: Sketch 43.2 (39069) - http://www.bohemiancoding.com/sketch -->
    <desc>Created with Sketch.</desc>
    <defs></defs>
    <g id="Page-1" stroke="none" stroke-width="1" fill="none" fill-rule="evenodd">
        <g id="Page-2" transform="translate(-680.000000, -73.000000)">
            <g id="CNET_com" transform="translate(680.000000, 74.000000)">
                <path d="M129.923879,62.5696935 C127.709867,64.3501129 125.944242,64.8382419 123.731782,64.8382419 C117.38143,64.8382419 114.006885,59.651871 114.006885,50.0050645 C114.006885,43.7642097 115.815952,35.7820484 123.492848,35.7820484 C125.740994,35.7820484 128.072921,36.7129355 129.801309,38.2133065 C130.282279,38.6607581 130.32417,38.9016935 130.001455,39.3882581 L128.7168,41.4549839 C128.516655,41.7804032 128.111709,41.658371 127.872776,41.4549839 C126.585018,40.4427419 125.382594,39.5102903 123.651103,39.5102903 C120.276558,39.5102903 118.707976,42.5892581 118.707976,49.3964677 C118.707976,57.2597258 120.476703,61.1491129 124.136727,61.1491129 C125.421382,61.1491129 126.626909,60.621871 127.992242,59.4875968 C128.316509,59.2044194 128.674909,59.0025968 128.955733,59.4484839 L130.162812,61.3931774 C130.445188,61.8390645 130.525867,62.0815645 129.923879,62.5696935" id="Fill-2" fill="#FFFFFF"></path>
                <path d="M148.97183,64.2296452 L146.562327,64.2296452 C146.079806,64.2296452 145.957236,64.1498548 145.718303,63.6617258 L137.600776,47.048129 C136.676073,45.1847903 136.232339,43.8048871 135.749818,42.2654032 C135.869285,43.7642097 135.993406,45.2239032 135.993406,46.7227097 L135.993406,63.5412581 C135.993406,64.1498548 135.869285,64.2296452 135.268848,64.2296452 L132.857794,64.2296452 C132.252703,64.2296452 132.172024,64.1498548 132.172024,63.5412581 L132.172024,37.1165806 C132.172024,36.5126774 132.252703,36.4297581 132.857794,36.4297581 L135.749818,36.4297581 C136.232339,36.4297581 136.313018,36.4704355 136.556606,36.957 L144.190061,52.3956452 C145.116315,54.2621129 145.555394,55.6373226 146.037915,57.178371 C145.918448,55.7609194 145.879661,54.3012258 145.879661,52.8822097 L145.879661,37.1165806 C145.879661,36.5126774 145.957236,36.4297581 146.562327,36.4297581 L148.97183,36.4297581 C149.576921,36.4297581 149.6576,36.5126774 149.6576,37.1165806 L149.6576,63.5412581 C149.6576,64.1498548 149.576921,64.2296452 148.97183,64.2296452" id="Fill-3" fill="#FFFFFF"></path>
                <path d="M167.259539,39.5102903 C167.141624,39.9155 166.896485,40.0782097 166.500848,40.0782097 L158.218861,40.0782097 L158.218861,47.9790161 L165.489261,47.9790161 C166.054012,47.9790161 166.176582,48.060371 166.176582,48.6674032 L166.176582,50.8561613 C166.176582,51.4256452 166.054012,51.507 165.489261,51.507 L158.218861,51.507 L158.218861,60.5405161 L167.178861,60.5405161 C167.780848,60.5405161 167.861527,60.6641129 167.861527,61.2711452 L167.861527,63.5412581 C167.861527,64.1498548 167.780848,64.2296452 167.178861,64.2296452 L154.43937,64.2296452 C153.837382,64.2296452 153.795491,64.1498548 153.795491,63.5412581 L153.795491,37.1165806 C153.795491,36.5126774 153.837382,36.4297581 154.43937,36.4297581 L167.379006,36.4297581 C168.147006,36.4297581 168.105115,36.7129355 167.942206,37.2417419 L167.259539,39.5102903" id="Fill-4" fill="#FFFFFF"></path>
                <path d="M186.426958,39.7105484 C186.307491,40.1595645 186.188024,40.2800323 185.745842,40.2800323 L180.320194,40.2800323 L180.320194,63.5412581 C180.320194,64.1498548 180.278303,64.2296452 179.676315,64.2296452 L176.622933,64.2296452 C176.016291,64.2296452 175.896824,64.1498548 175.896824,63.5412581 L175.896824,40.2800323 L170.429285,40.2800323 C169.827297,40.2800323 169.751273,40.1595645 169.751273,39.5509677 L169.751273,37.1165806 C169.751273,36.5126774 169.827297,36.4297581 170.429285,36.4297581 L186.589867,36.4297581 C187.353212,36.4297581 187.353212,36.6738226 187.153067,37.3622097 L186.426958,39.7105484" id="Fill-5" fill="#FFFFFF"></path>
                <path d="M189.962861,64.7975645 C188.111903,64.7975645 186.665891,63.3394355 186.665891,61.4745323 C186.665891,59.651871 188.111903,58.1499355 189.962861,58.1499355 C191.810715,58.1499355 193.25983,59.651871 193.25983,61.4745323 C193.25983,63.3394355 191.810715,64.7975645 189.962861,64.7975645" id="Fill-6" fill="#FFFFFF"></path>
                <path d="M210.500267,48.7894355 C210.29857,49.1132903 209.978958,48.9130323 209.859491,48.7894355 C208.290909,47.6144839 207.364655,47.2499516 206.157576,47.2499516 C203.146085,47.2499516 201.738861,49.5591774 201.738861,54.3810161 C201.738861,59.1653065 203.104194,61.4322903 205.999321,61.4322903 C207.64703,61.4322903 208.6912,60.7845806 209.94017,59.894371 C210.29857,59.6111935 210.500267,59.651871 210.619733,59.9757258 L211.428073,61.9610968 C211.625115,62.4476613 211.668558,62.6088065 211.186036,62.9733387 C209.698133,64.1498548 207.445333,64.8382419 205.513697,64.8382419 C200.370424,64.8382419 197.397721,61.1491129 197.397721,54.7846613 C197.397721,48.018129 200.736582,43.847129 206.118788,43.847129 C208.090764,43.847129 210.056533,44.5339516 211.428073,45.6275484 C211.749236,45.9122903 212.026958,46.2768226 211.829915,46.6006774 L210.500267,48.7894355" id="Fill-7" fill="#FFFFFF"></path>
                <path d="M225.171394,54.219871 C225.171394,59.2450968 223.922424,61.5136452 221.149867,61.5136452 C218.377309,61.5136452 217.092655,59.2450968 217.092655,54.219871 C217.092655,49.3964677 218.4192,47.1685968 221.149867,47.1685968 C223.883636,47.1685968 225.171394,49.3964677 225.171394,54.219871 Z M229.512533,54.3012258 C229.512533,47.6974032 226.417261,43.847129 221.230545,43.847129 C215.924364,43.847129 212.751515,47.817871 212.751515,54.3810161 C212.751515,60.9879677 215.804897,64.8382419 221.025745,64.8382419 C226.296242,64.8382419 229.512533,60.8252581 229.512533,54.3012258 L229.512533,54.3012258 Z" id="Fill-8" fill="#FFFFFF"></path>
                <path d="M255.14977,64.2296452 L252.259297,64.2296452 C251.776776,64.2296452 251.694545,64.1498548 251.694545,63.6617258 L251.694545,50.249129 C251.694545,48.060371 251.094109,47.1685968 249.523976,47.1685968 C248.321552,47.1685968 247.395297,47.6551613 245.749139,48.9505806 L245.749139,63.7024032 C245.749139,64.1498548 245.702594,64.2296452 245.182836,64.2296452 L242.3296,64.2296452 C241.847079,64.2296452 241.727612,64.1498548 241.727612,63.6617258 L241.727612,50.4931935 C241.727612,48.1417258 241.083733,47.2499516 239.515152,47.2499516 C238.349964,47.2499516 237.267006,47.7787581 235.782206,48.9928226 L235.782206,63.6617258 C235.782206,64.1498548 235.701527,64.2296452 235.215903,64.2296452 L232.362667,64.2296452 C231.799467,64.2296452 231.760679,64.1889677 231.760679,63.6617258 L231.760679,49.5591774 C231.760679,48.060371 231.68,47.2499516 231.278158,46.2768226 C230.997333,45.6275484 230.797188,45.1847903 231.278158,44.9814032 L233.726448,43.9660323 C234.536339,43.6437419 234.694594,44.5339516 234.97697,45.3052581 C235.094885,45.6275484 235.257794,46.0343226 235.338473,46.4802097 C237.54783,44.616871 239.076073,43.847129 241.125624,43.847129 C243.134836,43.847129 244.461382,44.6966613 245.263515,46.4802097 C247.596994,44.5761935 249.243152,43.847129 251.294255,43.847129 C255.232,43.847129 255.756412,46.8040645 255.756412,50.0441774 L255.756412,63.6617258 C255.756412,64.1498548 255.632291,64.2296452 255.14977,64.2296452" id="Fill-9" fill="#FFFFFF"></path>
                <path d="M48.4414061,96.7512419 C74.8280242,96.7512419 96.2125576,75.1875161 96.2125576,48.5876129 C96.2125576,21.9861452 74.8280242,0.420854839 48.4414061,0.420854839 C22.0609939,0.420854839 0.671806061,21.9861452 0.671806061,48.5876129 C0.671806061,75.1875161 22.0609939,96.7512419 48.4414061,96.7512419" id="Fill-10" stroke="#FFFFFF"></path>
                <polygon id="Fill-11" fill="#FFFFFF" points="30.415903 77.3496774 33.743903 77.3496774 33.743903 22.6620161 30.415903 22.6620161"></polygon>
                <polygon id="Fill-12" fill="#FFFFFF" points="30.415903 77.3496774 33.743903 77.3496774 33.743903 22.6620161 30.415903 22.6620161"></polygon>
                <path d="M16.7656727,42.5783065 C16.8246303,39.1003871 22.7514182,38.9986935 22.7514182,42.4171613 L22.8088242,45.3787903 L27.3314909,45.3787903 L27.3314909,42.6424516 C27.6169697,33.4900323 12.0630303,33.4962903 12.1778424,42.4171613 L12.1778424,58.1734032 C12.0630303,67.0958387 27.6324848,67.3273871 27.3470061,58.1734032 L27.3470061,54.8738387 L22.7514182,54.8738387 L22.7514182,58.4065161 C22.7514182,61.8265484 16.8323879,61.8844355 16.7749818,58.4065161 L16.7749818,42.4171613 L16.7656727,42.5783065" id="Fill-13" fill="#FFFFFF"></path>
                <path d="M42.6433939,39.0143387 C42.6433939,39.0143387 43.4331152,37.8425161 45.5043879,36.6816452 C48.1342061,35.207871 50.7050667,36.6800806 50.3280485,36.5079839 C52.3977697,37.4357419 53.1843879,39.673 53.3317818,42.1777903 L53.3317818,60.8393387 L56.2470788,60.8393387 L56.2470788,64.259371 L48.7501576,64.259371 L48.7470545,41.955629 C48.7470545,38.7076935 43.3105455,38.8109516 43.2562424,42.1120806 L43.260897,41.955629 L43.260897,64.259371 L36.5397333,64.259371 L36.5397333,60.8315161 L38.6637576,60.8362097 L38.6637576,39.9405323 L36.1378909,39.9264516 L36.1378909,36.5079839 L42.6309818,36.5079839 L42.6433939,39.0143387" id="Fill-14" fill="#FFFFFF"></path>
                <path d="M76.5827879,58.0983065 C76.7332848,60.6046613 77.519903,62.8419194 79.5865212,63.7696774 C79.1924364,63.5944516 80.5965576,64.2969194 82.0348121,64.2750161 C82.7826424,64.2625 86.4457697,64.2687581 86.4457697,64.2687581 L86.4457697,60.8362097 C86.4457697,60.8362097 84.5948121,60.8143065 83.6142545,60.8236935 C82.3745939,60.8393387 81.2931879,60.240129 81.2047515,58.4675323 L81.2140606,39.9561774 L81.2047515,39.9264516 L85.6281212,39.9264516 L85.6281212,36.5643065 L81.1969939,36.5643065 L81.2140606,36.5079839 L81.2140606,29.3268548 L76.5858909,29.3268548 L76.5827879,58.0983065" id="Fill-15" fill="#FFFFFF"></path>
                <path d="M68.2542545,54.8738387 L68.2542545,58.4065161 C68.2542545,61.8265484 62.3383273,61.8844355 62.2809212,58.4065161 L62.2809212,51.0485968 L71.9980606,51.0595484 C72.4650667,51.0595484 72.8420848,50.679371 72.8420848,50.2100161 L72.8374303,42.6424516 C73.1229091,33.4900323 57.5689697,33.4962903 57.6853333,42.4171613 L57.6853333,58.1734032 C57.5689697,67.0958387 73.1384242,67.3273871 72.8529455,58.1734032 L72.8529455,54.8738387 L68.2542545,54.8738387 Z M62.2809212,42.3952581 C62.3538424,38.9689677 68.2542545,38.9986935 68.2542545,42.4171613 L68.2371879,47.5738065 L62.2809212,47.575371 L62.2809212,42.3952581 L62.2809212,42.3952581 Z" id="Fill-16" fill="#FFFFFF"></path>
            </g>
        </g>
    </g>
</svg>
