
<svg width="217px" height="116px" viewBox="0 0 217 116" version="1.1" xmlns="http://www.w3.org/2000/svg" xmlns:xlink="http://www.w3.org/1999/xlink">
    <!-- Generator: Sketch 43.1 (39012) - http://www.bohemiancoding.com/sketch -->
    <desc>Created with Sketch.</desc>
    <defs>
        <polygon id="path-1" points="0 115.533063 216.621169 115.533063 216.621169 0 0 0"></polygon>
    </defs>
    <g id="Page-1" stroke="none" stroke-width="1" fill="none" fill-rule="evenodd">
        <g id="Page-2" transform="translate(-1203.000000, -62.000000)">
            <g id="Page-1" transform="translate(1203.000000, 62.000000)">
                <path d="M122.632879,8.16463797 C119.328594,8.16463797 116.640737,10.9868152 116.640737,14.4550684 C116.640737,17.8910177 119.328594,20.6867646 122.632879,20.6867646 C125.937899,20.6867646 128.626493,17.8910177 128.626493,14.4550684 C128.626493,10.9868152 125.937899,8.16463797 122.632879,8.16463797 Z M95.0775569,20.6867646 C98.3825773,20.6867646 101.071171,17.8910177 101.071171,14.4550684 C101.071171,10.9868152 98.3825773,8.16463797 95.0775569,8.16463797 C91.7725366,8.16463797 89.0839434,10.9868152 89.0839434,14.4550684 C89.0839434,17.8910177 91.7725366,20.6867646 95.0775569,20.6867646 Z M67.6767095,28.2348405 C59.8735366,28.2348405 53.5253671,22.0398532 53.5253671,14.4249671 C53.5253671,6.81081519 59.8161603,0.615093671 67.5487163,0.615093671 C73.9307231,0.615093671 78.9180451,4.94967595 80.3708417,9.0272962 L81.0461163,10.9236759 L73.0009332,10.9236759 L72.5779671,10.2724608 C71.6783366,8.88339747 69.7621163,8.05524557 67.4523536,8.05524557 C61.9618858,8.05524557 61.5345061,12.9551443 61.5345061,14.4580051 C61.5345061,15.9116759 61.9773332,20.6537266 67.6767095,20.6537266 C69.5443807,20.6537266 71.0545536,20.3167392 72.1645637,18.8381063 L66.8337197,18.8381063 L66.8337197,12.0572456 L81.5036553,12.0572456 C82.6526519,5.56418228 88.2946519,0.615093671 95.0760858,0.615093671 C102.560747,0.615093671 108.658079,6.64122025 108.855954,14.1195494 C109.054564,6.64122025 115.152632,0.615093671 122.637293,0.615093671 C130.245533,0.615093671 136.43555,6.8394481 136.43555,14.4903089 C136.43555,22.0692203 130.245533,28.2348405 122.637293,28.2348405 C115.152632,28.2348405 109.054564,22.2659797 108.855954,14.8573975 C108.658079,22.2659797 102.560747,28.2348405 95.0760858,28.2348405 C88.2100586,28.2348405 82.5150959,23.2071949 81.46614,16.6576 C80.4576417,23.1036759 74.561862,28.2348405 67.6767095,28.2348405 Z" id="Fill-1" fill="#FEFEFE"></path>
                <path d="M144.249536,20.7890354 L144.249536,8.0657443 C146.675523,8.10759241 148.61234,8.44164304 150.107801,9.71470633 C151.465706,10.8247823 152.309431,12.6550861 152.309431,14.4905291 C152.309431,16.7708835 151.118506,18.8537443 149.282465,19.7942253 C147.689906,20.5893392 146.387906,20.7677443 144.249536,20.7890354 M153.113435,26.0420734 C157.297489,23.9078203 160.001529,19.3742759 160.001529,14.4905291 C160.001529,10.5399215 158.142685,6.4997443 155.267252,4.19809873 C153.612902,2.86776962 150.626394,1.09840253 143.833191,1.09840253 L136.558174,1.09840253 L136.558174,27.7527063 L143.936909,27.7527063 C147.848058,27.7527063 150.93755,27.175643 153.113435,26.0420734" id="Fill-3" fill="#FEFEFE"></path>
                <path d="M68.7355959,36.3831797 C71.9861824,36.3831797 74.6313756,39.0842177 74.6313756,42.4049013 C74.6313756,45.6940152 71.9861824,48.3686228 68.7355959,48.3686228 C65.4850095,48.3686228 62.8405519,45.6940152 62.8405519,42.4049013 C62.8405519,39.0842177 65.4850095,36.3831797 68.7355959,36.3831797 L68.7355959,36.3831797 Z M34.114901,45.8188253 L37.850979,55.4901418 L43.6025824,55.4901418 L47.3379247,45.7659646 L47.3379247,55.4901418 L55.3345586,55.4901418 L55.3345586,45.9348253 C56.9219688,51.700319 62.3219586,55.9651544 68.7400095,55.9651544 C76.3997417,55.9651544 82.6324231,49.8986481 82.6324231,42.4430785 C82.6324231,34.917762 76.3997417,28.7939899 68.7400095,28.7939899 C62.3219586,28.7939899 56.9219688,33.0984709 55.3345586,38.9182937 L55.3345586,29.2682684 L45.3341688,29.2682684 L40.7506875,42.1200405 L36.114979,29.2682684 L26.1175315,29.2682684 L26.1175315,55.4901418 L34.114901,55.4901418 L34.114901,45.8188253 Z" id="Fill-5" fill="#FEFEFE"></path>
                <mask id="mask-2" fill="white">
                    <use xlink:href="#path-1"></use>
                </mask>
                <g id="Clip-8"></g>
                <polygon id="Fill-7" fill="#FEFEFE" mask="url(#mask-2)" points="128.447817 55.4905823 135.727247 55.4905823 135.727247 29.2679747 128.447817 29.2679747"></polygon>
                <path d="M90.8451007,36.1343671 L92.2419922,36.1343671 C94.7827312,36.1343671 95.0563719,37.6269494 95.0563719,38.2686203 C95.0563719,39.270038 94.5686736,40.4645443 92.2419922,40.4645443 L90.8451007,40.4645443 L90.8451007,36.1343671 Z M103.964406,55.4902152 L111.418172,55.4902152 L111.418172,43.4298861 L119.183094,55.4902152 L127.070124,55.4902152 L127.070124,29.2676076 L119.073491,29.2676076 L119.073491,41.287557 L111.409345,29.2676076 L103.626033,29.2676076 L103.626033,55.0386962 L97.0115786,46.2116835 C97.7802736,45.8974557 98.6924092,45.3952785 99.6119007,44.5326203 C101.623013,42.6318354 102.336538,39.7824937 102.336538,37.9198861 C102.336538,34.3466456 100.248924,32.1529241 99.0043007,31.1632532 C97.3330329,29.8343924 95.3307481,29.2676076 92.30746,29.2676076 L82.8484668,29.2676076 L82.8484668,55.4902152 L90.8451007,55.4902152 L90.8451007,49.5514557 L95.0306261,55.4902152 L103.626033,55.4902152 L103.964406,55.4902152 Z" id="Fill-9" fill="#FEFEFE" mask="url(#mask-2)"></path>
                <path d="M152.3404,29.2679747 L152.3404,41.2871899 L144.676254,29.2679747 L136.892942,29.2679747 L136.892942,55.4905823 L144.685817,55.4905823 L144.685817,43.429519 L152.450003,55.4905823 L160.337769,55.4905823 L160.337769,46.9491646 C162.384925,51.9621266 167.487735,55.5302278 173.460017,55.5302278 C180.994698,55.5302278 187.360522,49.5048354 187.360522,42.3745063 L187.360522,39.7725823 L172.618498,39.7725823 L172.618498,46.4014684 L177.899322,46.4014684 C176.79961,47.8022785 175.30562,48.1231139 173.460017,48.1231139 C167.791535,48.1231139 167.350915,43.5323038 167.350915,42.1256203 C167.350915,40.670481 167.775352,35.9232911 173.237132,35.9232911 C175.538803,35.9232911 177.447667,36.7279494 178.342149,38.0751646 L178.763644,38.7116962 L186.785288,38.7116962 L186.100451,36.8380759 C184.652803,32.8713165 179.686813,28.6556709 173.332759,28.6556709 C167.423739,28.6556709 162.37242,32.2127595 160.337769,37.2139747 L160.337769,29.2679747 L152.3404,29.2679747 Z" id="Fill-10" fill="#FEFEFE" mask="url(#mask-2)"></path>
                <path d="M17.5677315,79.9397848 L20.0658061,72.388038 L22.5638807,79.9397848 L17.5677315,79.9397848 Z M15.1299756,87.6222152 L25.134779,87.6222152 L27.320962,93.1219367 L37.6707586,93.1219367 L38.6196739,93.1219367 L47.4651824,93.1219367 L47.4651824,78.0052278 L52.9622705,93.1219367 L60.2549417,93.1219367 L65.7505586,77.9222658 L65.7505586,93.1219367 L75.5449824,93.1219367 L75.5449824,58.5480633 L63.0553451,58.5480633 L56.6461214,76.6447975 L50.1581892,58.5480633 L37.6707586,58.5480633 L37.6707586,90.7402658 L24.8501044,58.5480633 L16.020779,58.5480633 L1.62963322,93.1219367 L12.9459993,93.1219367 L15.1299756,87.6222152 Z" id="Fill-11" fill="#FEFEFE" mask="url(#mask-2)"></path>
                <polygon id="Fill-12" fill="#FEFEFE" mask="url(#mask-2)" points="99.9677807 66.8321519 99.9677807 58.5484304 78.3531095 58.5484304 78.3531095 93.1223038 99.9677807 93.1223038 99.9677807 84.1161519 88.4366214 84.1161519 88.4366214 79.4629367 99.4521298 79.4629367 99.4521298 71.1777468 88.4366214 71.1777468 88.4366214 66.8321519"></polygon>
                <path d="M113.032137,66.8321519 L115.693513,66.8321519 C120.077649,66.8321519 120.418228,69.4487595 120.418228,70.2512152 C120.418228,71.559519 119.804744,73.7547089 115.693513,73.7547089 L113.032137,73.7547089 L113.032137,66.8321519 Z M113.032137,83.9751899 L119.263347,93.1223038 L131.093893,93.1223038 L122.277808,81.4187848 C123.425334,81.0215949 124.496357,80.4092911 125.984462,79.1112658 C128.990096,76.4594177 129.784537,71.8465823 129.784537,69.7784051 C129.784537,65.1552911 126.864232,61.7567848 125.137795,60.4771139 C122.721371,58.6857215 119.737805,58.5484304 115.786934,58.5484304 L103.281113,58.5484304 L103.281113,93.1223038 L113.032137,93.1223038 L113.032137,83.9751899 Z" id="Fill-13" fill="#FEFEFE" mask="url(#mask-2)"></path>
                <polygon id="Fill-14" fill="#FEFEFE" mask="url(#mask-2)" points="133.307146 93.1223038 142.673454 93.1223038 142.673454 58.5484304 133.307146 58.5484304"></polygon>
                <path d="M191.780848,79.9397848 L194.278923,72.3873038 L196.777733,79.9397848 L191.780848,79.9397848 Z M181.459004,79.0220633 L181.454591,78.9449747 L170.514113,78.9457089 L170.33095,79.4031013 C170.293435,79.4963418 169.848401,80.5616329 168.926703,81.6731772 C167.443011,83.0071772 165.498838,83.7898101 163.408282,83.7898101 C158.889533,83.7898101 155.213038,80.1945443 155.213038,75.7740633 C155.213038,71.3550506 158.889533,67.7583165 163.408282,67.7583165 C164.492547,67.7583165 165.543709,67.9741646 166.514693,68.3647468 C168.899486,69.6444177 170.222818,72.031962 170.240472,72.065 L170.448645,72.450443 L181.055899,72.450443 L181.220672,72.2852532 L181.681889,72.2852532 L181.530357,71.683962 C181.649523,71.1590253 181.584055,70.5026709 181.506082,70.2904937 C181.140493,69.2912785 178.312872,62.1815063 171.112886,59.2088228 C168.751632,58.1589494 166.13954,57.5760127 163.408282,57.5760127 C160.380581,57.5760127 157.522801,58.2933038 154.993832,59.5538861 C148.283015,62.2262911 144.279916,67.9917848 144.279916,75.706519 C144.279916,82.5108734 147.843865,88.0994304 153.525587,91.1793038 C156.391459,92.9457342 159.77813,93.9721139 163.408282,93.9721139 C169.774842,93.9721139 175.461713,90.8628734 178.829259,85.9497595 L175.843486,93.1219367 L187.159116,93.1219367 L189.343828,87.6222152 L199.34716,87.6222152 L201.534079,93.1219367 L212.832791,93.1219367 L199.063221,58.5480633 L190.23316,58.5480633 L181.712048,79.0220633 L181.459004,79.0220633 Z" id="Fill-15" fill="#FEFEFE" mask="url(#mask-2)"></path>
                <path d="M212.172007,107.426278 C177.507913,101.171823 142.669482,98.0001772 108.624021,98.0001772 C44.2228346,98.0001772 4.07930576,109.493722 3.68208542,109.609722 L4.00574644,111.014937 C31.202099,106.811038 59.341482,104.680456 87.6434312,104.680456 C148.375479,104.680456 189.313448,114.44281 190.89056,115.26362 L191.381201,115.533063 L191.775479,115.136608 C193.251814,113.649165 205.069119,109.832911 212.141848,108.851316 L216.621611,108.229468 L212.172007,107.426278 Z" id="Fill-16" fill="#FEFEFE" mask="url(#mask-2)"></path>
                <g id="Group-29" mask="url(#mask-2)" fill="#FEFEFE">
                    <g transform="translate(1.471186, 0.267241)">
                        <path d="M121.161693,7.89739747 C124.466713,7.89739747 127.155306,10.7195747 127.155306,14.1878278 C127.155306,17.6237772 124.466713,20.4195241 121.161693,20.4195241 C117.857408,20.4195241 115.16955,17.6237772 115.16955,14.1878278 C115.16955,10.7195747 117.857408,7.89739747 121.161693,7.89739747 M93.6063705,20.4195241 C90.3013502,20.4195241 87.6127569,17.6237772 87.6127569,14.1878278 C87.6127569,10.7195747 90.3013502,7.89739747 93.6063705,7.89739747 C96.9113908,7.89739747 99.5999841,10.7195747 99.5999841,14.1878278 C99.5999841,17.6237772 96.9113908,20.4195241 93.6063705,20.4195241 M66.2055231,27.9676 C73.0906756,27.9676 78.9864553,22.8364354 79.9949536,16.3903595 C81.0439095,22.9399544 86.7388722,27.9676 93.6048993,27.9676 C101.08956,27.9676 107.186893,21.9987392 107.384767,14.590157 C107.583377,21.9987392 113.681445,27.9676 121.166106,27.9676 C128.774347,27.9676 134.964364,21.8019797 134.964364,14.2230684 C134.964364,6.57220759 128.774347,0.347853165 121.166106,0.347853165 C113.681445,0.347853165 107.583377,6.37397975 107.384767,13.8523089 C107.186893,6.37397975 101.08956,0.347853165 93.6048993,0.347853165 C86.8234654,0.347853165 81.1814654,5.29694177 80.0324688,11.7900051 L65.3625332,11.7900051 L65.3625332,18.5708658 L70.6933773,18.5708658 C69.5833671,20.0494987 68.0731942,20.3864861 66.2055231,20.3864861 C60.5061468,20.3864861 60.0633197,15.6444354 60.0633197,14.1907646 C60.0633197,12.6879038 60.4906993,7.78800506 65.9811671,7.78800506 C68.2909298,7.78800506 70.2071502,8.61615696 71.1067807,10.0052203 L71.5297468,10.6564354 L79.5749298,10.6564354 L78.8996553,8.7600557 C77.4468586,4.68243544 72.4595366,0.347853165 66.0775298,0.347853165 C58.3449739,0.347853165 52.0541807,6.54357468 52.0541807,14.1577266 C52.0541807,21.7726127 58.4023502,27.9676 66.2055231,27.9676" id="Fill-17"></path>
                        <path d="M142.77835,20.5217949 L142.77835,7.7985038 C145.204336,7.8403519 147.141153,8.17440253 148.636614,9.44746582 C149.994519,10.5575418 150.838245,12.3878456 150.838245,14.2232886 C150.838245,16.503643 149.647319,18.5865038 147.811279,19.5269848 C146.218719,20.3220987 144.916719,20.5005038 142.77835,20.5217949 M151.642248,25.7748329 C155.826302,23.6405797 158.530343,19.1070354 158.530343,14.2232886 C158.530343,10.272681 156.671499,6.2325038 153.796065,3.93085823 C152.141716,2.60052911 149.155207,0.831162025 142.362004,0.831162025 L135.086987,0.831162025 L135.086987,27.4854658 L142.465723,27.4854658 C146.376872,27.4854658 149.466363,26.9084025 151.642248,25.7748329" id="Fill-18"></path>
                        <path d="M67.2644095,36.1159392 C70.5149959,36.1159392 73.1601892,38.8169772 73.1601892,42.1376608 C73.1601892,45.4267747 70.5149959,48.1013823 67.2644095,48.1013823 C64.0138231,48.1013823 61.3693654,45.4267747 61.3693654,42.1376608 C61.3693654,38.8169772 64.0138231,36.1159392 67.2644095,36.1159392 L67.2644095,36.1159392 Z M32.6437146,45.5515848 L36.3797925,55.2229013 L42.1313959,55.2229013 L45.8667383,45.4987241 L45.8667383,55.2229013 L53.8633722,55.2229013 L53.8633722,45.6675848 C55.4507824,51.4330785 60.8507722,55.6979139 67.2688231,55.6979139 C74.9285553,55.6979139 81.1612366,49.6314076 81.1612366,42.175838 C81.1612366,34.6505215 74.9285553,28.5267494 67.2688231,28.5267494 C60.8507722,28.5267494 55.4507824,32.8312304 53.8633722,38.6510532 L53.8633722,29.0010278 L43.8629824,29.0010278 L39.279501,41.8528 L34.6437925,29.0010278 L24.6463451,29.0010278 L24.6463451,55.2229013 L32.6437146,55.2229013 L32.6437146,45.5515848 Z" id="Fill-19"></path>
                        <polygon id="Fill-20" points="126.976631 55.2233418 134.256061 55.2233418 134.256061 29.0007342 126.976631 29.0007342"></polygon>
                        <path d="M89.3739142,35.8671266 L90.7708058,35.8671266 C93.3115447,35.8671266 93.5851854,37.3597089 93.5851854,38.0013797 C93.5851854,39.0027975 93.0974871,40.1973038 90.7708058,40.1973038 L89.3739142,40.1973038 L89.3739142,35.8671266 Z M102.493219,55.2229747 L109.946985,55.2229747 L109.946985,43.1626456 L117.711907,55.2229747 L125.598938,55.2229747 L125.598938,29.0003671 L117.602304,29.0003671 L117.602304,41.0203165 L109.938158,29.0003671 L102.154846,29.0003671 L102.154846,54.7714557 L95.5403922,45.944443 C96.3090871,45.6302152 97.2212227,45.128038 98.1407142,44.2653797 C100.151826,42.3645949 100.865352,39.5152532 100.865352,37.6526456 C100.865352,34.0794051 98.777738,31.8856835 97.5331142,30.8960127 C95.8618464,29.5671519 93.8595617,29.0003671 90.8362736,29.0003671 L81.3772803,29.0003671 L81.3772803,55.2229747 L89.3739142,55.2229747 L89.3739142,49.2842152 L93.5594397,55.2229747 L102.154846,55.2229747 L102.493219,55.2229747 Z" id="Fill-21"></path>
                        <path d="M150.869213,29.0007342 L150.869213,41.0199494 L143.205067,29.0007342 L135.421756,29.0007342 L135.421756,55.2233418 L143.21463,55.2233418 L143.21463,43.1622785 L150.978817,55.2233418 L158.866583,55.2233418 L158.866583,46.6819241 C160.913739,51.6948861 166.016549,55.2629873 171.98883,55.2629873 C179.523512,55.2629873 185.889335,49.2375949 185.889335,42.1072658 L185.889335,39.5053418 L171.147312,39.5053418 L171.147312,46.1342278 L176.428135,46.1342278 C175.328423,47.535038 173.834434,47.8558734 171.98883,47.8558734 C166.320349,47.8558734 165.879728,43.2650633 165.879728,41.8583797 C165.879728,40.4032405 166.304166,35.6560506 171.765945,35.6560506 C174.067617,35.6560506 175.976481,36.4607089 176.870962,37.8079241 L177.292457,38.4444557 L185.314101,38.4444557 L184.629264,36.5708354 C183.181617,32.6040759 178.215627,28.3884304 171.861573,28.3884304 C165.952552,28.3884304 160.901234,31.945519 158.866583,36.9467342 L158.866583,29.0007342 L150.869213,29.0007342 Z" id="Fill-22"></path>
                        <path d="M16.0965451,79.6725443 L18.5946197,72.1207975 L21.0926942,79.6725443 L16.0965451,79.6725443 Z M13.6587892,87.3549747 L23.6635925,87.3549747 L25.8497756,92.8546962 L36.1995722,92.8546962 L37.1484875,92.8546962 L45.9939959,92.8546962 L45.9939959,77.7379873 L51.4910841,92.8546962 L58.7837553,92.8546962 L64.2793722,77.6550253 L64.2793722,92.8546962 L74.0737959,92.8546962 L74.0737959,58.2808228 L61.5841586,58.2808228 L55.1749349,76.377557 L48.6870027,58.2808228 L36.1995722,58.2808228 L36.1995722,90.4730253 L23.378918,58.2808228 L14.5495925,58.2808228 L0.15844678,92.8546962 L11.4748129,92.8546962 L13.6587892,87.3549747 Z" id="Fill-23"></path>
                        <polygon id="Fill-24" points="98.4965942 66.5649114 98.4965942 58.2811899 76.8819231 58.2811899 76.8819231 92.8550633 98.4965942 92.8550633 98.4965942 83.8489114 86.9654349 83.8489114 86.9654349 79.1956962 97.9809434 79.1956962 97.9809434 70.9105063 86.9654349 70.9105063 86.9654349 66.5649114"></polygon>
                        <path d="M111.560951,66.5649114 L114.222327,66.5649114 C118.606462,66.5649114 118.947042,69.181519 118.947042,69.9839747 C118.947042,71.2922785 118.333557,73.4874684 114.222327,73.4874684 L111.560951,73.4874684 L111.560951,66.5649114 Z M111.560951,83.7079494 L117.792161,92.8550633 L129.622706,92.8550633 L120.806622,81.1515443 C121.954147,80.7543544 123.025171,80.1420506 124.513276,78.8440253 C127.51891,76.1921772 128.313351,71.5793418 128.313351,69.5111646 C128.313351,64.8880506 125.393045,61.4895443 123.666608,60.2098734 C121.250184,58.418481 118.266618,58.2811899 114.315747,58.2811899 L101.809927,58.2811899 L101.809927,92.8550633 L111.560951,92.8550633 L111.560951,83.7079494 Z" id="Fill-25"></path>
                        <polygon id="Fill-26" points="131.835959 92.8550633 141.202268 92.8550633 141.202268 58.2811899 131.835959 58.2811899"></polygon>
                        <path d="M190.309662,79.6725443 L192.807737,72.1200633 L195.306547,79.6725443 L190.309662,79.6725443 Z M179.987818,78.7548228 L179.983404,78.6777342 L169.042926,78.6784684 L168.859764,79.1358608 C168.822248,79.2291013 168.377215,80.2943924 167.455516,81.4059367 C165.971825,82.7399367 164.027652,83.5225696 161.937096,83.5225696 C157.418347,83.5225696 153.741852,79.9273038 153.741852,75.5068228 C153.741852,71.0878101 157.418347,67.4910759 161.937096,67.4910759 C163.02136,67.4910759 164.072523,67.7069241 165.043506,68.0975063 C167.428299,69.3771772 168.751632,71.7647215 168.769286,71.7977595 L168.977459,72.1832025 L179.584713,72.1832025 L179.749486,72.0180127 L180.210703,72.0180127 L180.059171,71.4167215 C180.178337,70.8917848 180.112869,70.2354304 180.034896,70.0232532 C179.669306,69.024038 176.841686,61.9142658 169.641699,58.9415823 C167.280445,57.8917089 164.668354,57.3087722 161.937096,57.3087722 C158.909394,57.3087722 156.051615,58.0260633 153.522645,59.2866456 C146.811828,61.9590506 142.80873,67.7245443 142.80873,75.4392785 C142.80873,82.2436329 146.372679,87.8321899 152.054401,90.9120633 C154.920272,92.6784937 158.306943,93.7048734 161.937096,93.7048734 C168.303655,93.7048734 173.990526,90.5956329 177.358072,85.682519 L174.372299,92.8546962 L185.68793,92.8546962 L187.872642,87.3549747 L197.875974,87.3549747 L200.062893,92.8546962 L211.361604,92.8546962 L197.592035,58.2808228 L188.761974,58.2808228 L180.240862,78.7548228 L179.987818,78.7548228 Z" id="Fill-27"></path>
                        <path d="M210.700821,107.159038 C176.036726,100.904582 141.198296,97.7329367 107.152835,97.7329367 C42.7516481,97.7329367 2.60811932,109.226481 2.21089898,109.342481 L2.53456,110.747696 C29.7309125,106.543797 57.8702956,104.413215 86.1722447,104.413215 C146.904292,104.413215 187.842262,114.17557 189.419374,114.99638 L189.910014,115.265823 L190.304292,114.869367 C191.780628,113.381924 203.597933,109.565671 210.670662,108.584076 L215.150424,107.962228 L210.700821,107.159038 Z" id="Fill-28"></path>
                    </g>
                </g>
                <path d="M66.6423183,26.623762 C73.9960437,26.623762 80.2095997,20.6629772 80.2095997,13.6068 L80.2095997,11.6377367 L66.5327149,11.6377367 L66.5327149,17.066243 L72.5631081,17.066243 C71.1963759,19.8774076 69.0197556,20.380319 66.6423183,20.380319 C61.230559,20.380319 59.5865081,16.5288253 59.5865081,13.3454329 C59.5865081,10.1348759 61.1592064,6.09836962 66.4128132,6.09836962 C69.2735353,6.09836962 71.3346675,7.20404051 72.3085929,8.69368608 L72.5197081,9.01672405 L79.2967285,9.01672405 L78.9546776,8.0644962 C77.5504302,4.15500253 72.711698,-0.000440506329 66.5113827,-0.000440506329 C58.9943556,-0.000440506329 52.877898,5.97209114 52.877898,13.3123949 C52.877898,20.6526987 59.0532031,26.623762 66.6423183,26.623762" id="Fill-30" fill="#FEFEFE" mask="url(#mask-2)"></path>
                <path d="M175.180422,55.1319367 C182.502517,55.1319367 188.68812,49.3407468 188.68812,42.4857342 L188.68812,40.5732025 L175.07229,40.5732025 L175.07229,45.8475316 L181.073995,45.8475316 C179.715354,48.5772025 177.548297,49.0661646 175.180422,49.0661646 C169.792937,49.0661646 168.157714,45.3247975 168.157714,42.232443 C168.157714,39.1121899 169.723056,35.1909494 174.951653,35.1909494 C177.801341,35.1909494 179.85291,36.2657848 180.822422,37.7128481 L181.032066,38.0263418 L187.780398,38.0263418 L187.439083,37.1012785 C186.041456,33.3033797 181.22332,29.2668734 175.050222,29.2668734 C167.567768,29.2668734 161.479263,35.0676076 161.479263,42.1994051 C161.479263,49.3312025 167.625144,55.1319367 175.180422,55.1319367" id="Fill-31" fill="#FEFEFE" mask="url(#mask-2)"></path>
                <path d="M94.7572061,6.21018481 C98.5646366,6.21018481 101.661484,9.40899494 101.661484,13.3427165 C101.661484,17.2419316 98.5646366,20.4150456 94.7572061,20.4150456 C90.9497756,20.4150456 87.8529281,17.2419316 87.8529281,13.3427165 C87.8529281,9.40899494 90.9497756,6.21018481 94.7572061,6.21018481 M94.7557349,26.6239823 C102.14624,26.6239823 108.158979,20.6815519 108.158979,13.3786911 C108.158979,6.0009443 102.14624,-0.000220253165 94.7557349,-0.000220253165 C87.3652298,-0.000220253165 81.3524908,6.0009443 81.3524908,13.3786911 C81.3524908,20.6815519 87.3652298,26.6239823 94.7557349,26.6239823" id="Fill-32" fill="#FEFEFE" mask="url(#mask-2)"></path>
                <path d="M123.030173,6.21018481 C126.836868,6.21018481 129.934451,9.40899494 129.934451,13.3427165 C129.934451,17.2419316 126.836868,20.4150456 123.030173,20.4150456 C119.223478,20.4150456 116.125895,17.2419316 116.125895,13.3427165 C116.125895,9.40899494 119.223478,6.21018481 123.030173,6.21018481 M123.033851,26.6239823 C130.424356,26.6239823 136.437095,20.6815519 136.437095,13.3786911 C136.437095,6.0009443 130.424356,-0.000220253165 123.033851,-0.000220253165 C115.64261,-0.000220253165 109.629871,6.0009443 109.629871,13.3786911 C109.629871,20.6815519 115.64261,26.6239823 123.033851,26.6239823" id="Fill-33" fill="#FEFEFE" mask="url(#mask-2)"></path>
                <path d="M144.605122,6.1040962 C147.547495,6.1040962 149.87859,6.4168557 151.702125,7.95642532 C153.26379,9.22141266 154.234037,11.2991342 154.234037,13.3783241 C154.234037,15.9685013 152.849651,18.3442987 150.714959,19.4264759 C148.834047,20.3574127 147.280475,20.5211342 144.711783,20.5211342 L144.455061,20.5211342 L144.455061,6.1040962 L144.605122,6.1040962 Z M153.955983,24.4754127 C158.001746,22.4307291 160.61678,18.0748557 160.61678,13.3783241 C160.61678,9.57308354 158.816783,5.68561519 156.034769,3.47867848 C154.425292,2.19533671 151.506458,0.491311392 144.781664,0.491311392 L138.072319,0.491311392 L138.072319,26.1331848 L144.889061,26.1331848 C148.778878,26.1331848 151.830119,25.5744759 153.955983,24.4754127 L153.955983,24.4754127 Z" id="Fill-34" fill="#FEFEFE" mask="url(#mask-2)"></path>
                <polygon id="Fill-35" fill="#FEFEFE" mask="url(#mask-2)" points="46.5287722 41.9059544 46.5287722 55.0917772 53.2248773 55.0917772 53.2248773 29.8896759 44.2535824 29.8896759 39.0198366 44.4381316 33.7257722 29.8896759 24.7559485 29.8896759 24.7559485 55.0917772 31.4520536 55.0917772 31.4520536 41.9808405 36.5614841 55.0917772 41.4200773 55.0917772"></polygon>
                <path d="M67.7291573,49.3165924 C63.9776319,49.3165924 60.9256556,46.2668203 60.9256556,42.516643 C60.9256556,38.7348962 63.9776319,35.6579595 67.7291573,35.6579595 C71.4814183,35.6579595 74.5333946,38.7348962 74.5333946,42.516643 C74.5333946,46.2668203 71.4814183,49.3165924 67.7291573,49.3165924 M67.7335708,29.4079089 C60.2901031,29.4079089 54.2346997,35.3055544 54.2346997,42.5555544 C54.2346997,49.7336051 60.2901031,55.5739848 67.7335708,55.5739848 C75.1763031,55.5739848 81.232442,49.7336051 81.232442,42.5555544 C81.232442,35.3055544 75.1763031,29.4079089 67.7335708,29.4079089" id="Fill-36" fill="#FEFEFE" mask="url(#mask-2)"></path>
                <path d="M89.6597658,35.4051823 L91.8481556,35.4051823 C95.3142708,35.4051823 95.4900776,37.8242962 95.4900776,38.3095873 C95.4900776,39.2016127 95.1347861,41.2771316 91.8481556,41.2771316 L89.6597658,41.2771316 L89.6597658,35.4051823 Z M98.8855759,44.1529038 C100.778257,42.3783975 101.449854,39.7045241 101.449854,37.9549797 C101.449854,34.6262203 99.4828776,32.5778658 98.3110776,31.6542709 C96.7420573,30.4171823 94.8287793,29.8893089 91.914359,29.8893089 L82.9636607,29.8893089 L82.9636607,55.0914101 L89.6597658,55.0914101 L89.6597658,47.4346759 L95.1046268,55.0914101 L102.383322,55.0914101 L95.5305353,46.0265241 C96.554481,45.7299165 97.7078912,45.2468278 98.8855759,44.1529038 L98.8855759,44.1529038 Z" id="Fill-37" fill="#FEFEFE" mask="url(#mask-2)"></path>
                <polygon id="Fill-38" fill="#FEFEFE" mask="url(#mask-2)" points="129.750553 55.0919241 135.711064 55.0919241 135.711064 29.8898228 129.750553 29.8898228"></polygon>
                <polygon id="Fill-39" fill="#FEFEFE" mask="url(#mask-2)" points="110.768569 41.0226658 119.906108 55.0917038 126.828041 55.0917038 126.828041 29.8896025 120.131936 29.8896025 120.131936 43.9373494 111.095908 29.8896025 104.282844 29.8896025 104.282844 55.0917038 110.768569 55.0917038"></polygon>
                <polygon id="Fill-40" fill="#FEFEFE" mask="url(#mask-2)" points="144.90186 41.0226658 154.039399 55.0917038 160.961332 55.0917038 160.961332 29.8896025 154.265226 29.8896025 154.265226 43.9373494 145.229199 29.8896025 138.416135 29.8896025 138.416135 55.0917038 144.90186 55.0917038"></polygon>
                <path d="M200.143146,80.6804228 L192.939481,80.6804228 L196.541681,69.8872835 L200.143146,80.6804228 Z M192.897553,58.923081 L178.749153,92.6203468 L188.720119,92.6203468 L190.961471,87.0266506 L202.257976,87.0266506 L204.5008,92.6203468 L214.472502,92.6203468 L200.934644,58.923081 L192.897553,58.923081 Z" id="Fill-41" fill="#FEFEFE" mask="url(#mask-2)"></path>
                <path d="M21.3939932,80.6804228 L14.1903288,80.6804228 L17.7925288,69.8872835 L21.3939932,80.6804228 Z M14.1484,58.923081 L0,92.6203468 L9.9709661,92.6203468 L12.2123186,87.0266506 L23.5088237,87.0266506 L25.7516475,92.6203468 L35.7233492,92.6203468 L22.1854915,58.923081 L14.1484,58.923081 Z" id="Fill-42" fill="#FEFEFE" mask="url(#mask-2)"></path>
                <polygon id="Fill-43" fill="#FEFEFE" mask="url(#mask-2)" points="55.3289681 78.8192101 48.1333953 58.9230076 36.6103275 58.9230076 36.6103275 92.6202734 45.1498292 92.6202734 45.1498292 73.7372354 52.0776461 92.6202734 58.4949614 92.6202734 65.4213071 73.6300456 65.4213071 92.6202734 73.9615444 92.6202734 73.9615444 58.9230076 62.437741 58.9230076"></polygon>
                <polygon id="Fill-44" fill="#FEFEFE" mask="url(#mask-2)" points="78.3522268 92.6201266 99.0201895 92.6201266 99.0201895 84.9281519 87.1889081 84.9281519 87.1889081 78.7272911 98.4905624 78.7272911 98.4905624 71.7694937 87.1889081 71.7694937 87.1889081 65.8806582 99.0201895 65.8806582 99.0201895 58.9235949 78.3522268 58.9235949"></polygon>
                <path d="M112.42439,65.8807316 L115.909631,65.8807316 C121.241946,65.8807316 121.511908,69.3878962 121.511908,70.0919722 C121.511908,71.3841241 120.966098,74.3898456 115.909631,74.3898456 L112.42439,74.3898456 L112.42439,65.8807316 Z M125.964454,78.5570354 C128.65599,76.2039975 129.612997,71.9354911 129.612997,69.6110861 C129.612997,65.1994152 126.814064,61.963162 125.145003,60.7370861 C122.916156,59.0998709 120.182692,58.9229342 116.005258,58.9229342 L103.929024,58.9229342 L103.929024,92.6202 L112.42439,92.6202 L112.42439,81.6317696 L119.97599,92.6202 L130.215447,92.6202 L121.419959,81.0458962 C122.97721,80.6589848 124.140183,80.1355165 125.964454,78.5570354 L125.964454,78.5570354 Z" id="Fill-45" fill="#FEFEFE" mask="url(#mask-2)"></path>
                <polygon id="Fill-46" fill="#FEFEFE" mask="url(#mask-2)" points="134.736403 92.6201266 142.837492 92.6201266 142.837492 58.9235949 134.736403 58.9235949"></polygon>
                <path d="M182.669202,79.6688 L172.672491,79.6688 C172.672491,79.6688 170.491457,85.108319 165.187829,85.108319 C159.884202,85.108319 155.027816,81.3691544 155.027816,75.7277367 C155.027816,69.4453823 160.031321,66.6334835 164.946555,66.6334835 C169.862524,66.6334835 172.544497,71.5950532 172.544497,71.5950532 L182.655962,71.5950532 C182.77807,71.4731797 182.82147,70.6398886 182.725843,70.3807241 C181.536389,67.1584203 176.643223,58.2682684 165.792487,58.2682684 C152.612128,58.2682684 145.995467,66.2238127 145.995467,75.6411038 C145.995467,85.3645468 153.909714,93.2760405 165.792487,93.2760405 C177.494304,93.2760405 182.480891,81.4278886 182.596379,80.9154329 C182.712602,80.4029772 182.669202,79.6688 182.669202,79.6688" id="Fill-47" fill="#FEFEFE" mask="url(#mask-2)"></path>
                <path d="M164.866302,84.5972582 C159.806156,84.5972582 155.703753,80.6187519 155.703753,75.7107772 C155.703753,70.8020684 159.806156,66.8228278 164.866302,66.8228278 C168.325061,66.8228278 171.333637,68.6824987 172.893095,71.4275873 L182.65221,71.4275873 C180.674936,63.6798152 173.463915,57.9356127 164.866302,57.9356127 C154.74601,57.9356127 146.541939,65.8933595 146.541939,75.7107772 C146.541939,85.5274608 154.74601,93.4844734 164.866302,93.4844734 C173.554393,93.4844734 180.824261,87.6183975 182.710322,79.7480177 L173.021088,79.7480177 C171.504295,82.6237899 168.425837,84.5972582 164.866302,84.5972582" id="Fill-48" fill="#FEFEFE" mask="url(#mask-2)"></path>
                <path d="M1.19644237,110.827575 C1.19644237,110.827575 87.5065373,85.8655494 214.763429,108.625043 C207.653185,109.603701 195.1481,113.519068 193.431225,115.232638 C190.734541,113.764284 106.631225,94.6756759 1.19644237,110.827575" id="Fill-49" fill="#FEFEFE" mask="url(#mask-2)"></path>
            </g>
        </g>
    </g>
</svg>
