<svg xmlns="http://www.w3.org/2000/svg" xmlns:xlink="http://www.w3.org/1999/xlink" width="210" height="77" version="1.1"><rect id="backgroundrect" width="100%" height="100%" x="0" y="0" fill="none" stroke="none"/>
    <!-- Generator: Sketch 43.1 (39012) - http://www.bohemiancoding.com/sketch -->
    <desc>Created with Sketch.</desc>
    <defs/>
    
<g class="currentLayer"><title>Layer 1</title><g id="Page-1" stroke="none" stroke-width="1" fill="none" fill-rule="evenodd">
        <g id="Page-2">
            <g id="The_Sun_Newspaper">
                <polygon id="Fill-2" stroke="#FFFFFF" points="0.59796142578125,75.97618865966797 209.112548828125,75.97618865966797 209.112548828125,1.3154754638671875 0.59796142578125,1.3154754638671875 "/>
                <path d="M54.74830509999998,7.621428570000006 L56.07830510000002,7.760714289999996 C56.78779659999998,7.576190479999994 57.45220340000003,7.944047620000006 58.11661019999997,7.897619050000003 C58.427457600000025,8.035714290000001 58.82610169999998,7.805952379999994 59.09186440000002,8.082142860000005 C59.57949150000002,8.035714290000001 60.067118600000015,8.128571429999994 60.55474579999998,8.220238100000003 C62.814915299999996,8.358333329999994 64.85322029999998,9.095238100000003 67.06949150000003,9.510714289999996 C68.31050849999997,9.970238100000003 69.68440680000003,10.384523810000005 70.88152539999999,10.938095239999996 C72.34322029999998,11.582142900000008 73.93898309999997,12.503571399999998 75.26898310000001,13.470238100000003 C78.14966099999998,15.451190499999996 80.36593219999997,18.490476200000003 81.1644068,22.173809500000004 C81.11932200000001,22.3130952 80.94254239999998,22.404761899999997 80.76457629999999,22.451190499999996 C76.5989831,23.3714286 72.34322029999998,24.108333299999998 68.2666102,25.029761899999997 C67.06949150000003,25.444047600000005 65.740678,25.535714299999995 64.499661,25.8119048 C64.32169490000001,25.950000000000003 63.9230508,25.904761899999997 63.70118639999998,25.950000000000003 C62.41627119999998,26.272619 61.17525419999998,26.548809500000004 59.8452542,26.733333299999998 C59.668474600000025,26.779761899999997 59.57949150000002,26.548809500000004 59.535593199999994,26.410714299999995 C59.224745799999994,25.535714299999995 58.82610169999998,24.7071429 58.20559320000001,23.970238100000003 C57.62898310000003,23.464285700000005 57.142542400000025,22.865476200000003 56.43305079999999,22.5428571 C55.590678000000025,22.035714299999995 54.74830509999998,21.759523799999997 53.86203390000003,21.483333299999998 C52.84288140000001,21.2071429 51.9566102,21.160714299999995 50.8923729,20.930952399999995 L50.051186400000006,20.884523799999997 L46.770677999999975,20.838095199999998 C44.95423729999999,21.069047600000005 42.91474579999999,21.345238100000003 41.23118640000001,22.173809500000004 C40.077966100000026,22.819047600000005 39.10389829999997,23.970238100000003 39.14779659999999,25.397619 C39.63542369999999,27.5619048 42.072372900000005,27.654761899999997 43.84610170000002,28.298809500000004 C46.415932199999986,28.8511905 49.1637288,29.220238100000003 51.734745799999985,29.680952399999995 C52.62101689999997,29.772619 53.59627119999999,30.0035714 54.52644070000002,30.048809500000004 C54.704406800000015,30.233333299999998 55.05915249999998,30.141666700000002 55.2810169,30.233333299999998 C56.698813599999994,30.4178571 57.983728799999994,30.785714299999995 59.3576271,30.970238100000003 C59.668474600000025,31.108333299999998 60.0220339,31.0619048 60.33288140000002,31.2464286 C61.13016950000002,31.2464286 61.75067799999999,31.614285699999996 62.460169500000006,31.798809500000004 C63.96694919999999,32.075 65.42983049999998,32.5821429 66.84762710000001,33.0892857 C70.39389829999999,34.2857143 73.93898309999997,36.5428571 75.80050849999998,39.95 C76.46610169999997,41.377381 76.99762709999999,42.897619 76.99762709999999,44.6011905 C77.13050850000002,45.614285699999996 76.95372880000002,46.6738095 76.82084750000001,47.6404762 C76.50999999999999,48.8845238 76.28813560000003,50.2654762 75.6676271,51.4166667 C73.45135590000001,56.575 68.88711860000001,60.3047619 64.0120339,62.6535714 C62.10542370000002,63.8511905 59.8452542,64.45 57.71796610000001,65.2785714 C56.47694919999998,65.7392857 55.146949199999995,66.1083333 53.818135600000005,66.3845238 C53.285423700000024,66.7059524 52.66491530000002,66.6607143 52.08949150000001,66.8440476 C48.854067799999996,67.5357143 45.529660999999976,68.0416667 42.20525420000001,68.3642857 C41.629830500000025,68.3178571 41.009322,68.5488095 40.38881359999999,68.502381 C39.76830510000002,68.6404762 39.2367797,68.5488095 38.57118639999999,68.6404762 C37.419152499999996,68.502381 35.9562712,68.6869048 34.84813559999998,68.6404762 C32.89881359999998,68.5488095 31.037288100000012,68.5488095 29.0428814,68.3178571 C27.18135589999997,68.1345238 25.274745800000005,67.7654762 23.36932200000001,67.4428571 C22.615932199999975,67.2130952 21.773559299999988,67.2595238 21.064067799999975,66.9369048 C17.475084700000025,66.0154762 14.017796599999997,64.7261905 10.959152500000016,62.6071429 C10.33864410000001,62.1011905 9.674237290000008,61.6869048 9.186610169999994,61.0880952 C7.679830509999988,59.752381 6.262033900000006,58.0488095 5.463559320000002,56.1607143 C4.666271189999975,54.502381 4.134745759999987,52.5690476 4.0457627100000195,50.5880952 C4.1786440700000185,50.3119048 4.62237288,50.5880952 4.799152540000023,50.3583333 C6.262033900000006,50.2654762 7.724915249999981,50.0821429 9.186610169999994,49.8511905 C9.807118639999999,49.6214286 10.64949150000001,49.7595238 11.269999999999982,49.575 C12.023389800000018,49.5285714 12.820677999999987,49.3904762 13.619152499999984,49.2988095 L14.327457600000002,49.2071429 C16.0561017,49.022619 17.696949200000006,48.8380952 19.42559319999998,48.6083333 C20.044915300000014,48.4238095 20.84338980000001,48.4702381 21.463898299999983,48.2857143 C22.21728810000002,48.1940476 23.059661000000006,48.0095238 23.813050799999985,48.0547619 C24.521355900000003,47.9178571 25.274745800000005,47.8714286 25.940338999999994,47.7333333 C26.515762699999982,47.6869048 27.04847460000002,47.5952381 27.579999999999984,47.6404762 C27.75677969999998,49.114285699999996 28.377288099999987,50.5416667 29.352542400000004,51.5095238 C30.105932199999984,52.2464286 30.992203399999994,53.0285714 31.96745759999999,53.397619 C32.41118640000002,53.8119048 33.120678,53.8583333 33.696101699999986,54.0880952 C34.44949150000002,54.4571429 35.380847500000016,54.3642857 36.222033899999985,54.6404762 C36.62186439999999,54.5488095 37.10949149999999,54.7785714 37.5081356,54.7333333 C37.9957627,54.9166667 38.61627120000003,54.6404762 39.05881360000001,54.9166667 C40.299830499999985,54.9630952 41.7627119,54.9166667 42.91474579999999,54.8714286 C44.377627099999984,54.7333333 45.92830509999999,54.5488095 47.30338979999999,54.1797619 C48.72118640000002,53.7202381 50.2279661,52.9833333 50.84847460000003,51.4630952 C51.11423730000001,50.7261905 51.025254200000006,49.897619 50.626610200000016,49.252381 C49.82932199999999,48.0095238 48.322542399999975,47.5952381 47.036440700000014,47.1345238 C44.20084750000001,46.5357143 41.27508469999998,46.0297619 38.34932200000003,45.614285699999996 C37.19728809999998,45.4761905 36.00135590000002,45.2 34.893220299999996,45.0154762 C33.65220340000002,44.8321429 32.41118640000002,44.5095238 31.170169499999986,44.1869048 C25.89525420000001,42.8511905 20.310677999999996,41.377381 16.455932200000007,37.4178571 C14.72728810000001,35.4833333 13.574067800000023,32.9964286 13.752033900000015,30.1869048 C13.884915299999989,25.766666700000002 16.0561017,22.1285714 18.716101700000024,19.089285700000005 C20.93237290000002,16.740476200000003 23.7240678,14.483333299999998 26.737627099999997,12.964285700000005 C30.105932199999984,11.167857100000006 34.05084750000003,9.878571429999994 37.9957627,9.049999999999997 C39.14779659999999,8.865476189999995 40.299830499999985,8.589285709999999 41.540847499999984,8.451190479999994 C42.8269492,8.174999999999997 44.244745799999976,8.128571429999994 45.529660999999976,7.990476189999995 C45.8405085,7.760714289999996 46.19525420000002,7.944047620000006 46.45983050000001,7.852380949999997 C47.30338979999999,7.852380949999997 48.14457629999998,7.667857139999995 48.941864399999986,7.760714289999996 C49.29661020000003,7.805952379999994 49.6513559,7.483333329999994 50.051186400000006,7.714285709999999 C51.60186440000001,7.483333329999994 53.152542400000016,7.852380949999997 54.74830509999998,7.621428570000006 " id="Fill-3" fill="#FFFFFF"/>
                <path d="M193.278305,23.695238099999997 C196.144746,24.1035714 198.92339,25.010714300000004 200.996102,26.779761899999997 C202.759153,28.1869048 203.59678,30.5464286 203.554068,32.9964286 C203.729661,33.2678571 203.421186,33.4047619 203.508983,33.6309524 C203.421186,36.4440476 202.684407,39.0333333 202.009322,41.6154762 C201.029322,45.3738095 195.136271,67.847619 195.136271,67.847619 L172.185763,67.8928571 C172.185763,67.8928571 172.507288,66.7047619 172.638983,66.3416667 C173.874068,61.7142857 175.109153,57.0869048 176.255254,52.4130952 C177.446441,48.1035714 178.504746,43.7940476 179.606949,39.3928571 C179.871525,37.9869048 179.827627,36.261904799999996 178.636441,35.4916667 C177.88661,34.9916667 176.961186,34.9011905 176.034576,34.8559524 C175.638305,34.7654762 175.240847,34.9464286 174.755593,34.9011905 C172.374407,34.9916667 170.081017,36.0357143 168.670339,37.9869048 C167.379492,39.9619048 166.030508,45.6809524 166.030508,45.6809524 L160.447119,67.8714286 L137.262881,67.825 C137.572542,65.7833333 148.824746,24.194047600000005 148.824746,24.194047600000005 L170.257797,24.1488095 L168.934915,30.092857100000003 L169.067797,30.138095199999995 C170.34678,28.7309524 171.845254,27.4154762 173.565593,26.508333300000004 C176.519831,24.739285699999996 179.960508,23.967857100000003 183.487797,23.469047599999996 C184.546102,23.377381 185.51661000000001,23.241666699999996 186.574915,23.241666699999996 C187.589322,23.0607143 188.824407,23.423809500000004 189.970508,23.286904800000002 C189.970508,23.286904800000002 192.395593,23.514285700000002 193.278305,23.695238099999997 " id="Fill-4" fill="#FFFFFF"/>
                <path d="M144.264068,24.173809500000004 L132.79118600000004,67.8059524 L111.012881,67.7607143 C111.012881,67.7607143 112.15898300000003,63.5011905 112.70237299999997,60.8297619 L112.52559300000001,60.8297619 C110.26423699999998,63.6571429 107.16288099999997,65.6630952 103.88237300000003,66.8035714 C101.04678000000001,67.897619 97.81016950000003,68.3535714 94.70881359999998,68.672619 C94.13220339999998,68.7630952 89.92152540000001,68.672619 89.92152540000001,68.672619 C86.73000000000002,68.3988095 83.58355929999999,67.8059524 80.92474579999998,66.1642857 C79.06322030000001,64.9333333 77.5564407,62.8809524 77.3784746,60.5559524 L77.29067800000001,59.6904762 L77.46745759999999,57.6380952 C78.13186439999998,53.8083333 79.37288139999998,50.1607143 80.17135589999998,46.4214286 C80.52610170000003,45.4190476 80.74677969999999,44.3702381 81.01372879999997,43.3214286 C82.69728809999998,36.9833333 85.99084749999997,24.178571399999996 85.99084749999997,24.178571399999996 C85.99084749999997,24.178571399999996 108.71355900000003,24.0797619 109.06830500000001,24.1714286 C107.51644099999999,31.147619 105.38915299999996,37.9869048 103.660508,44.9178571 C103.394746,45.8285714 103.261864,46.7869048 102.952203,47.6071429 C102.55237299999999,49.7964286 101.53322000000003,51.802381 101.66610200000002,54.127381 C101.79898300000002,54.7654762 102.020847,55.3130952 102.55237299999999,55.7690476 C103.08508499999999,56.1797619 103.83847500000002,56.2702381 104.502881,56.4071429 C105.92186400000003,56.7261905 107.33966099999998,56.3154762 108.66966100000002,56.0416667 C111.32847500000003,55.3130952 113.41186399999998,53.2154762 114.20915300000001,50.525 C114.78576299999997,48.8845238 115.09542399999998,47.1059524 115.62813599999998,45.4190476 C116.647288,41.2238095 117.755424,37.075 118.86355900000001,32.8797619 C119.61694899999998,29.9619048 120.370339,27.089285700000005 121.078644,24.1714286 L144.264068,24.173809500000004 " id="Fill-5" fill="#FFFFFF"/>
                <polyline id="Fill-6" fill="#FFFFFF" points="106.8983154296875,18.83928680419922 109.22015380859375,10.3797607421875 105.86016845703125,10.3797607421875 106.5933837890625,7.621429443359375 118.01763916015625,7.621429443359375 117.16220092773438,10.3797607421875 114.04660034179688,10.3797607421875 111.4803466796875,18.884521484375 106.8983154296875,18.83928680419922 "/>
                <polyline id="Fill-7" fill="#FFFFFF" points="116.42898559570312,18.90119171142578 119.54458618164062,7.621429443359375 124.4315185546875,7.621429443359375 123.27117919921875,11.851188659667969 127.1199951171875,11.851188659667969 128.342041015625,7.621429443359375 133.10678100585938,7.621429443359375 130.05288696289062,18.83928680419922 125.28695678710938,18.83928680419922 126.32626342773438,14.609519958496094 122.47744750976562,14.609519958496094 121.25543212890625,18.90119171142578 116.42898559570312,18.90119171142578 "/>
                <polyline id="Fill-8" fill="#FFFFFF" points="132.55746459960938,18.83928680419922 135.612548828125,7.621429443359375 147.64779663085938,7.621429443359375 146.91458129882812,10.134521484375 139.70574951171875,10.134521484375 139.21694946289062,11.913093566894531 145.14202880859375,11.913093566894531 144.4705047607422,14.303573608398438 138.60592651367188,14.303573608398438 138.055419921875,16.2642822265625 145.2642364501953,16.2642822265625 144.59271240234375,18.77857208251953 132.55746459960938,18.83928680419922 "/>
            </g>
        </g>
    </g></g></svg>