<?xml version="1.0" encoding="UTF-8"?>
<svg width="23px" height="15px" viewBox="0 0 23 15" version="1.1" xmlns="https://www.w3.org/2000/svg" xmlns:xlink="https://www.w3.org/1999/xlink">
    <!-- Generator: Sketch 45.2 (43514) - https://www.bohemiancoding.com/sketch -->
    <title>canada</title>
    <desc>Created with Sketch.</desc>
    <defs></defs>
    <g id="Page-1" stroke="none" stroke-width="1" fill="none" fill-rule="evenodd">
        <g id="canada" fill-rule="nonzero">
            <rect id="Rectangle-path" fill="#F5F5F5" x="5.15523437" y="0.0123660714" width="12.6895312" height="14.9754464"></rect>
            <g id="Group" fill="#FF4B55">
                <path d="M1.7225293,0.0121875 C0.771173828,0.0121875 0,0.778571429 0,1.72401786 L0,13.2757589 C0,14.2211607 0.771173828,14.9875893 1.7225293,14.9875893 L5.15518945,14.9875893 L5.15518945,0.0121875 L1.7225293,0.0121875 Z" id="Shape"></path>
                <path d="M21.2774707,0.0121875 L17.8448105,0.0121875 L17.8448105,14.9875446 L21.2774707,14.9875446 C22.2287813,14.9875446 23,14.2211607 23,13.2757143 L23,1.72401786 C23,0.778571429 22.2288262,0.0121875 21.2774707,0.0121875 Z" id="Shape"></path>
                <path d="M13.9064199,9.23022321 L16.2595625,7.89397321 L15.7196016,7.62566964 C15.5681699,7.55040179 15.4814707,7.38790179 15.5038867,7.22107143 L15.6795762,5.91205357 L14.6833437,6.20008929 C14.4632715,6.26375 14.2348887,6.12919643 14.1853848,5.90683036 L14.0899707,5.47825893 L13.1545625,6.56620536 C13.024918,6.71700893 12.7778477,6.60183036 12.8116738,6.40633929 L13.2111641,4.09794643 L12.5995527,4.26415179 C12.4208984,4.31272321 12.2322266,4.23191964 12.145123,4.06950893 L11.5010781,2.86991071 L11.5010781,2.868125 L11.5006289,2.86901786 L11.5001348,2.868125 L11.5001348,2.86991071 L10.8560898,4.06950893 C10.7688965,4.231875 10.5802246,4.31267857 10.4015703,4.26415179 L9.78995898,4.09794643 L10.1894492,6.40633929 C10.2232754,6.60178571 9.97620508,6.71700893 9.84651563,6.56625 L8.91110742,5.47830357 L8.81569336,5.906875 C8.76618945,6.12928571 8.53780664,6.26375 8.31773438,6.20013393 L7.32150195,5.91209821 L7.49719141,7.22111607 C7.51960742,7.38790179 7.4329082,7.55044643 7.28147656,7.62571429 L6.74151562,7.89397321 L9.0946582,9.23026786 C9.3384043,9.36870536 9.44522852,9.66227679 9.34689453,9.92357143 L9.14573437,10.4582589 L11.1620527,10.2871875 C11.2736387,10.2777232 11.3686035,10.3670089 11.3653242,10.4782143 L11.3018047,12.6230357 L11.698375,12.6230357 L11.6347656,10.478125 C11.6314863,10.366875 11.7264512,10.2776339 11.8380371,10.2870982 L13.8552988,10.4582589 L13.6541387,9.92357143 C13.5558945,9.66223214 13.6626738,9.36861607 13.9064199,9.23022321 Z" id="Shape"></path>
            </g>
        </g>
    </g>
</svg>