<?xml version="1.0" encoding="UTF-8"?>
<svg width="23px" height="15px" viewBox="0 0 23 15" version="1.1" xmlns="http://www.w3.org/2000/svg" xmlns:xlink="http://www.w3.org/1999/xlink">
    <!-- Generator: Sketch 45.2 (43514) - http://www.bohemiancoding.com/sketch -->
    <title>china</title>
    <desc>Created with Sketch.</desc>
    <defs></defs>
    <g id="Page-1" stroke="none" stroke-width="1" fill="none" fill-rule="evenodd">
        <g id="china" fill-rule="nonzero">
            <path d="M21.2774707,0.0122767857 L1.7225293,0.0122767857 C0.771173828,0.0122767857 0,0.778660714 0,1.72410714 L0,13.2758929 C0,14.2212946 0.771173828,14.9877232 1.7225293,14.9877232 L21.2774707,14.9877232 C22.2287813,14.9877232 23,14.2213393 23,13.2758929 L23,1.72410714 C23,0.778660714 22.2288262,0.0122767857 21.2774707,0.0122767857 Z" id="Shape" fill="#FF4B55"></path>
            <g id="Group" transform="translate(1.751953, 1.116071)" fill="#FFE15A">
                <path d="M2.0667207,1.23799107 L2.4447832,2.36450893 L3.63970508,2.37370536 C3.79441602,2.37486607 3.85856445,2.57111607 3.73408594,2.66241071 L2.77284766,3.3678125 L3.13325586,4.50004464 C3.17988477,4.64665179 3.0119668,4.76785714 2.8860957,4.67848214 L1.91398633,3.98790179 L0.941876953,4.6784375 C0.816005859,4.76785714 0.648087891,4.6465625 0.694716797,4.5 L1.055125,3.36776786 L0.0938867187,2.66241071 C-0.0305917969,2.57107143 0.0335566406,2.37486607 0.188267578,2.37370536 L1.38318945,2.36450893 L1.76125195,1.23799107 C1.8102168,1.09214286 2.01780078,1.09214286 2.0667207,1.23799107 Z" id="Shape"></path>
                <path d="M6.40581445,1.51558036 L6.67691797,1.88290179 L7.11441211,1.74691964 C7.17105859,1.72933036 7.21764258,1.79352679 7.18296289,1.84133929 L6.91513867,2.21102679 L7.18044727,2.5825 C7.2148125,2.63058036 7.1677793,2.69446429 7.11126758,2.67647321 L6.67467188,2.53758929 L6.40114258,2.90316964 C6.36574414,2.95049107 6.29005078,2.92575893 6.28982617,2.86683036 L6.28780469,2.41125 L5.85341016,2.26566964 C5.79716797,2.24678571 5.7974375,2.16767857 5.85381445,2.14919643 L6.28910742,2.00651786 L6.29422852,1.55098214 C6.29485742,1.4921875 6.37073047,1.46803571 6.40581445,1.51558036 Z" id="Shape"></path>
                <path d="M4.75529492,0.420491071 L5.21098242,0.4696875 L5.4054043,0.0571428571 C5.43060547,0.00375 5.50971289,0.0129017857 5.52179688,0.070625 L5.61550391,0.516517857 L6.07038281,0.572767857 C6.12927539,0.580044643 6.14495313,0.657633929 6.09342773,0.686964286 L5.69564453,0.913303571 L5.78238867,1.360625 C5.79361914,1.41857143 5.72421484,1.45732143 5.68023633,1.41772321 L5.34067188,1.11169643 L4.93942969,1.331875 C4.8875,1.36040179 4.82887695,1.30674107 4.85322461,1.25294643 L5.04113281,0.837410714 L4.706375,0.526160714 C4.66311523,0.486071429 4.6963125,0.414151786 4.75529492,0.420491071 Z" id="Shape"></path>
                <path d="M5.47575195,4.83540179 L5.20469336,5.2028125 L4.76719922,5.06683036 C4.71055273,5.04924107 4.66396875,5.11339286 4.69864844,5.16125 L4.96647266,5.5309375 L4.70116406,5.90241071 C4.66679883,5.95049107 4.71383203,6.014375 4.77034375,5.99638393 L5.20689453,5.8575 L5.48042383,6.22308036 C5.51582227,6.27040179 5.59151562,6.24566964 5.59174023,6.18674107 L5.59376172,5.73116071 L6.02815625,5.58558036 C6.08439844,5.56669643 6.08412891,5.48758929 6.02775195,5.46910714 L5.59245898,5.32642857 L5.58733789,4.87089286 C5.58661914,4.81200893 5.51083594,4.7878125 5.47575195,4.83540179 Z" id="Shape"></path>
                <path d="M7.12618164,3.80629464 L6.67044922,3.85549107 L6.47602734,3.44294643 C6.45082617,3.38955357 6.37176367,3.39870536 6.35963477,3.45642857 L6.26588281,3.90232143 L5.81100391,3.95857143 C5.75211133,3.96584821 5.73643359,4.0434375 5.78795898,4.07276786 L6.18574219,4.29910714 L6.09899805,4.74642857 C6.08776758,4.804375 6.15717188,4.843125 6.20115039,4.80352679 L6.54071484,4.4975 L6.94195703,4.71767857 C6.99388672,4.74620536 7.05250977,4.69254464 7.02816211,4.63875 L6.84025391,4.22321429 L7.17501172,3.91196429 C7.21845117,3.871875 7.18525391,3.79995536 7.12618164,3.80629464 Z" id="Shape"></path>
            </g>
        </g>
    </g>
</svg>