<?xml version="1.0" encoding="UTF-8"?>
<svg width="23px" height="15px" viewBox="0 0 23 15" version="1.1" xmlns="http://www.w3.org/2000/svg" xmlns:xlink="http://www.w3.org/1999/xlink">
    <!-- Generator: Sketch 45.2 (43514) - http://www.bohemiancoding.com/sketch -->
    <title>ghana</title>
    <desc>Created with Sketch.</desc>
    <defs></defs>
    <g id="Page-1" stroke="none" stroke-width="1" fill="none" fill-rule="evenodd">
        <g id="ghana" fill-rule="nonzero">
            <path d="M21.2774707,0.0123214286 L1.7225293,0.0123214286 C0.771173828,0.0123214286 0,0.778705357 0,1.72415179 L0,5.00410714 L23,5.00410714 L23,1.72415179 C23,0.778705357 22.2288262,0.0123214286 21.2774707,0.0123214286 Z" id="Shape" fill="#FF4B55"></path>
            <path d="M0,13.2758482 C0,14.22125 0.771173828,14.9876786 1.7225293,14.9876786 L21.2774707,14.9876786 C22.2287813,14.9876786 23,14.2212946 23,13.2758482 L23,9.99589286 L0,9.99589286 L0,13.2758482 Z" id="Shape" fill="#73AF00"></path>
            <rect id="Rectangle-path" fill="#FFE15A" x="0" y="5.00401786" width="23" height="4.99151786"></rect>
            <path d="M11.6671992,5.6209375 L12.0810645,6.85410714 L13.3890996,6.86419643 C13.5584102,6.86553571 13.628668,7.08026786 13.4924648,7.18026786 L12.4402148,7.9525 L12.8347637,9.19191964 C12.8858398,9.35236607 12.7020195,9.48513393 12.5641992,9.38723214 L11.5,8.63125 L10.4358008,9.38714286 C10.2980703,9.48504464 10.1142051,9.35227679 10.1652363,9.19183036 L10.5597852,7.95241071 L9.50753516,7.18017857 C9.37133203,7.08022321 9.4415,6.86544643 9.61090039,6.86410714 L10.9189355,6.85401786 L11.3328008,5.62084821 C11.3863926,5.46125 11.6136074,5.46125 11.6671992,5.6209375 Z" id="Shape" fill="#464655"></path>
        </g>
    </g>
</svg>