<?xml version="1.0" encoding="UTF-8"?>
<svg width="24px" height="17px" viewBox="0 0 24 17" version="1.1" xmlns="http://www.w3.org/2000/svg" xmlns:xlink="http://www.w3.org/1999/xlink">
    <!-- Generator: Sketch 46.2 (44496) - http://www.bohemiancoding.com/sketch -->
    <title>slovenia</title>
    <desc>Created with Sketch.</desc>
    <defs></defs>
    <g id="Page-1" stroke="none" stroke-width="1" fill="none" fill-rule="evenodd">
        <g id="slovenia" transform="translate(1.000000, 1.000000)" fill-rule="nonzero">
            <path d="M2.5,0 C2.5,0 0,0 0,2.5 L0,12.5 C1.32877034e-07,15 2.5,15 2.5,15 L20,15 C20,15 22.5,15 22.5,12.5 L22.5,2.5 C22.5,0 20,0 20,0 L2.5,0 L2.5,0 L2.5,0 L2.5,0 Z" id="rounded" stroke="#C6C6C6" stroke-width="0.5" fill="#FFFFFF"></path>
            <path d="M0,10 L0,12.5 C1.32877034e-07,15 2.5,15 2.5,15 L20,15 C20,15 22.5,15 22.5,12.5 L22.5,10 L0,10 Z" id="rounded" fill="#F1453D"></path>
            <rect id="Rectangle-1" fill="#2B98F0" x="0" y="5" width="22.5" height="5"></rect>
            <path d="M5.6194288,5.05747554 L5.81488295,2.16765693 C4.2911369,1.44411436 2.52374605,1.44411436 1,2.16765693 L1.19545415,5.05747554 C1.28327445,6.35591063 2.16416315,7.4642361 3.40744148,7.84057618 C4.6507198,7.4642361 5.5316085,6.35591063 5.61942879,5.05747554" id="Shape" fill="#2B98F0"></path>
            <path d="M1.97751116,6.2382574 C2.01508439,6.29732209 2.05492185,6.354889 2.09691659,6.41084125 L2.09691659,6.41084125 C2.17858315,6.40051114 2.25873106,6.37302844 2.33231708,6.32839315 C2.52380615,6.21224104 2.75973044,6.21224104 2.95121951,6.32839315 C3.14270859,6.44454525 3.37863288,6.44454525 3.57012195,6.32839315 C3.76161103,6.21224104 3.99753531,6.21224104 4.18902439,6.32839315 C4.38051346,6.44454525 4.61643775,6.44454525 4.80792683,6.32839315 L4.80792683,6.3703039 C4.85220961,6.30897316 4.89394018,6.24578736 4.93298326,6.1808943 C4.74089543,6.26950306 4.51597235,6.26059329 4.3304878,6.15416499 C4.12805649,6.03801289 3.87865083,6.03801289 3.67621951,6.15416499 C3.4737882,6.2703171 3.22438254,6.2703171 3.02195123,6.15416499 C2.8195199,6.03801289 2.57011425,6.03801289 2.36768293,6.15416499 C2.2476166,6.22305729 2.11102502,6.25108809 1.97751116,6.2382574 Z M1.86427596,6.04264215 C1.75792164,5.8397521 1.67692259,5.62224054 1.625,5.39417421 L2.53125,4.21472474 L2.89375,4.68650453 L3.4375,3.625 L3.98125,4.68650453 L4.34375,4.21472474 L5.25,5.39417421 C5.19393019,5.6404569 5.10395358,5.87443141 4.9847561,6.09097661 L4.9847561,5.97955594 C4.78232478,6.09570804 4.53291913,6.09570804 4.3304878,5.97955594 C4.12805649,5.86340384 3.87865083,5.86340384 3.67621951,5.97955594 C3.4737882,6.09570804 3.22438254,6.09570804 3.02195123,5.97955594 C2.8195199,5.86340384 2.57011425,5.86340384 2.36768292,5.97955594 C2.21331019,6.06813274 2.0316196,6.08916147 1.86427596,6.04264215 Z M2.21542796,6.55785889 C2.53468178,6.92704799 2.95412331,7.21263481 3.4375,7.375 C3.9152207,7.21453464 4.33049371,6.93371441 4.64832419,6.57078411 C4.49476079,6.61103079 4.32987241,6.58843681 4.18902439,6.5030022 C3.99753531,6.3868501 3.76161103,6.3868501 3.57012195,6.5030022 C3.37863288,6.61915431 3.14270859,6.61915431 2.95121951,6.5030022 C2.75973044,6.3868501 2.52380615,6.3868501 2.33231708,6.5030022 C2.29483441,6.52573817 2.2556492,6.54402374 2.21542796,6.55785889 L2.21542796,6.55785889 Z" id="Shape" fill="#FFFFFF"></path>
            <path d="M3.39473684,2.77884615 L3.43423975,2.89196746 L3.56578948,2.86538461 L3.47374266,2.95192307 L3.56578948,3.03846154 L3.43423975,3.01187869 L3.39473684,3.125 L3.35523393,3.01187869 L3.22368421,3.03846154 L3.31573101,2.95192307 L3.22368421,2.86538461 L3.35523393,2.89196746 L3.39473684,2.77884615 Z M2.79605264,2 L2.83555554,2.11312131 L2.96710526,2.08653846 L2.87505845,2.17307693 L2.96710526,2.25961539 L2.83555554,2.23303254 L2.79605264,2.34615385 L2.75654973,2.23303254 L2.625,2.25961539 L2.71704681,2.17307693 L2.625,2.08653846 L2.75654973,2.11312131 L2.79605264,2 Z M4.07894736,2 L4.11845027,2.11312131 L4.25,2.08653846 L4.15795319,2.17307693 L4.25,2.25961539 L4.11845027,2.23303254 L4.07894736,2.34615385 L4.03944446,2.23303254 L3.90789474,2.25961539 L3.99994155,2.17307693 L3.90789474,2.08653846 L4.03944446,2.11312131 L4.07894736,2 Z" id="Shape" fill="#FFDD00"></path>
            <path d="M1.17105359,2.125 L1.37340266,5.08000416 C1.45605464,6.28701243 2.27388207,7.32217696 3.4375,7.69263405 C4.60111792,7.32217696 5.41894535,6.28701243 5.50159735,5.08000416 L5.70394641,2.125 C5.76053339,2.15153988 5.81755901,2.17715376 5.875,2.20183118 L5.67710548,5.09177694 C5.58818867,6.39026914 4.69630149,7.49864338 3.4375,7.875 C2.17869851,7.49864338 1.28681132,6.39026914 1.19789453,5.09177694 L1,2.20183118 C1.05744099,2.17715376 1.11446662,2.15153988 1.17105359,2.125" id="Shape" fill="#F1453D"></path>
        </g>
    </g>
</svg>