<?xml version="1.0" encoding="UTF-8"?>
<svg width="23px" height="15px" viewBox="0 0 23 15" version="1.1" xmlns="http://www.w3.org/2000/svg" xmlns:xlink="http://www.w3.org/1999/xlink">
    <!-- Generator: Sketch 46.2 (44496) - http://www.bohemiancoding.com/sketch -->
    <title>uk</title>
    <desc>Created with Sketch.</desc>
    <defs></defs>
    <g id="Page-1" stroke="none" stroke-width="1" fill="none" fill-rule="evenodd">
        <g id="uk" fill-rule="nonzero">
            <path d="M21.2774707,0.0123214286 L1.7225293,0.0123214286 C0.771173828,0.0123214286 0,0.778705357 0,1.72415179 L0,13.2758929 C0,14.2212946 0.771173828,14.9877232 1.7225293,14.9877232 L21.2774707,14.9877232 C22.2287813,14.9877232 23,14.2213393 23,13.2758929 L23,1.72415179 C23,0.778705357 22.2288262,0.0123214286 21.2774707,0.0123214286 Z" id="Shape" fill="#41479B"></path>
            <path d="M22.9761465,1.44116071 C22.8403926,0.630491071 22.13175,0.0122767857 21.2774707,0.0122767857 L20.8292852,0.0122767857 L13.4827617,4.795625 L13.4827617,0.0123214286 L9.51723828,0.0123214286 L9.51723828,4.79566964 L2.17071484,0.0123214286 L1.7225293,0.0123214286 C0.86825,0.0123214286 0.159607422,0.630491071 0.0238535156,1.44120536 L6.30294336,5.52959821 L0,5.52959821 L0,9.47049107 L6.30294336,9.47049107 L0.0238535156,13.5587946 C0.159607422,14.3694643 0.86825,14.9876786 1.7225293,14.9876786 L2.17071484,14.9876786 L9.51723828,10.2043304 L9.51723828,14.9876786 L13.4827617,14.9876786 L13.4827617,10.2043304 L20.8292852,14.9876786 L21.2774707,14.9876786 C22.13175,14.9876786 22.8403926,14.3695089 22.9761465,13.5587946 L16.6970566,9.47040179 L23,9.47040179 L23,5.52950893 L16.6970566,5.52950893 L22.9761465,1.44116071 Z" id="Shape" fill="#F5F5F5"></path>
            <g id="Group" fill="#FF4B55">
                <polygon id="Shape" points="12.689666 0.0123214286 10.310334 0.0123214286 10.310334 6.31772321 0 6.31772321 0 8.68227679 10.310334 8.68227679 10.310334 14.9876786 12.689666 14.9876786 12.689666 8.68227679 23 8.68227679 23 6.31772321 12.689666 6.31772321"></polygon>
                <path d="M1.11374805,14.8773214 L9.49540625,9.47044643 L8.03867969,9.47044643 L0.414359375,14.3888393 C0.600919922,14.6052232 0.840667969,14.7747768 1.11374805,14.8773214 Z" id="Shape"></path>
                <path d="M15.5603984,9.47044643 L14.1036719,9.47044643 L22.2217734,14.7072768 C22.4489434,14.5590179 22.6385137,14.35875 22.7737285,14.1235714 L15.5603984,9.47044643 Z" id="Shape"></path>
                <path d="M0.181888672,0.958705357 L7.26741602,5.52955357 L8.72414258,5.52955357 L0.695166016,0.350089286 C0.479585937,0.509553571 0.303177734,0.718035714 0.181888672,0.958705357 Z" id="Shape"></path>
                <path d="M14.9394883,5.52955357 L22.5777793,0.602098214 C22.3891523,0.386428571 22.1475176,0.217857143 21.8725508,0.117276786 L13.4827617,5.52955357 L14.9394883,5.52955357 Z" id="Shape"></path>
            </g>
        </g>
    </g>
</svg>