<?xml version="1.0" encoding="UTF-8"?>
<svg width="80px" height="80px" viewBox="0 0 80 80" version="1.1" xmlns="http://www.w3.org/2000/svg" xmlns:xlink="http://www.w3.org/1999/xlink">
    <!-- Generator: Sketch 41.2 (35397) - http://www.bohemiancoding.com/sketch -->
    <title>icon_location_inFlight_whiteOn Copy 2</title>
    <desc>Created with Sketch.</desc>
    <defs></defs>
    <g id="Other-Icons" stroke="none" stroke-width="1" fill="none" fill-rule="evenodd">
        <g id="icon_location_inFlight_whiteOn-Copy-2">
            <path d="M17.5005,62.7861 C17.5015,62.0661 18.0855,61.4811 18.8065,61.4801 C18.9815,61.4801 19.1455,61.5151 19.2985,61.5781 C19.5685,61.6901 19.8725,61.6791 20.1335,61.5461 C20.3945,61.4131 20.5835,61.1761 20.6525,60.8911 C20.9295,59.7601 21.9465,58.9161 23.1625,58.9181 C23.4245,58.9181 23.6755,58.9581 23.9205,59.0311 C24.2385,59.1261 24.5815,59.0581 24.8385,58.8491 C25.0955,58.6411 25.2325,58.3201 25.2055,57.9901 C25.1945,57.8631 25.1875,57.7551 25.1875,57.6611 C25.1875,56.5911 25.6195,55.6301 26.3205,54.9271 C27.0245,54.2241 27.9855,53.7941 29.0565,53.7931 C30.1275,53.7941 31.0885,54.2241 31.7915,54.9261 C32.4935,55.6301 32.9235,56.5911 32.9245,57.6611 C32.9245,57.8631 32.9045,58.0671 32.8705,58.2791 C32.8255,58.5571 32.9015,58.8461 33.0785,59.0651 C33.2545,59.2861 33.5195,59.4221 33.8015,59.4371 C35.0255,59.5071 36.0015,60.5201 36.0005,61.7631 C36.0025,62.8321 35.2725,63.7281 34.2875,64.0011 L18.6385,64.0661 C17.9945,63.9811 17.4995,63.4471 17.5005,62.7861 L17.5005,62.7861 Z M18.5535,66.0661 L34.4415,66.0001 L34.6675,65.9731 C36.5795,65.5211 37.9985,63.8101 38.0005,61.7631 C37.9995,59.8071 36.6995,58.1731 34.9225,57.6341 C34.9075,54.4061 32.2895,51.7941 29.0565,51.7931 C26.0655,51.7941 23.6035,54.0321 23.2385,56.9241 C23.2125,56.9231 23.1885,56.9181 23.1625,56.9181 C21.3485,56.9191 19.7945,57.9771 19.0505,59.5051 C18.9685,59.4991 18.8905,59.4801 18.8065,59.4801 C16.9795,59.4811 15.5015,60.9611 15.5005,62.7861 C15.5015,64.4921 16.7925,65.8801 18.4385,66.0601 L18.5535,66.0661 Z" id="Fill-1" fill="#F1718D"></path>
            <path d="M72.9776,39.6171 C72.5066,20.4201 56.8106,5.0011 37.4996,5.0001 C17.8936,5.0011 2.0006,20.8931 1.9996,40.5001 C1.9986,42.7981 2.0816,44.5711 2.5186,46.8021 C2.6236,47.3441 3.1496,47.6971 3.6916,47.5921 C4.2336,47.4861 4.5876,46.9611 4.4816,46.4191 C4.0766,44.3371 4.0006,42.7621 3.9996,40.5001 C4.0006,31.2461 7.7486,22.8771 13.8116,16.8111 C19.8766,10.7481 28.2466,7.0011 37.4996,7.0001 C46.7536,7.0011 55.1236,10.7481 61.1886,16.8111 C66.8596,22.4841 70.5026,30.1721 70.9516,38.7131 C69.4306,35.7941 66.3836,33.7991 62.8616,33.7971 C62.4066,33.7971 61.9596,33.8321 61.5226,33.8971 C61.3526,27.3981 56.0436,22.1821 49.5036,22.1811 C42.8576,22.1821 37.4706,27.5681 37.4706,34.2161 C37.4706,34.7111 37.5136,35.1791 37.5686,35.6211 C37.6366,36.1691 38.1366,36.5581 38.6846,36.4901 C39.2326,36.4231 39.6216,35.9231 39.5536,35.3751 C39.5036,34.9751 39.4706,34.5931 39.4706,34.2161 C39.4706,31.4411 40.5916,28.9391 42.4096,27.1201 C44.2276,25.3031 46.7296,24.1821 49.5036,24.1811 C52.2786,24.1821 54.7816,25.3031 56.6006,27.1201 C58.4176,28.9391 59.5386,31.4411 59.5396,34.2161 C59.5396,34.4861 59.5206,34.7671 59.4956,35.0671 L59.3736,36.5371 L60.7836,36.1061 C61.4426,35.9061 62.1386,35.7971 62.8616,35.7971 C66.2146,35.7951 69.0216,38.1181 69.7826,41.2351 L70.0586,42.3681 L71.1356,41.9231 C71.4196,41.8051 71.7596,41.7231 72.1396,41.6681 C72.3946,41.6311 72.5856,41.6031 72.7346,41.6041 C73.9066,41.6041 74.9566,42.0761 75.7246,42.8431 C76.4916,43.6101 76.9626,44.6611 76.9626,45.8321 C76.9646,47.9891 75.3356,49.7481 73.2366,50.0011 L70.3766,49.9871 L37.4576,49.8501 C34.6136,49.1371 32.4976,46.5731 32.4996,43.5101 C32.4996,43.1871 32.5326,42.8581 32.5836,42.5171 C32.6656,41.9711 32.2896,41.4621 31.7446,41.3791 C31.1976,41.2971 30.6886,41.6731 30.6056,42.2191 C30.5446,42.6221 30.4996,43.0531 30.4996,43.5101 C30.5016,47.5521 33.3066,50.9301 37.0776,51.8221 L37.3036,51.8491 L68.9756,51.9811 C64.2876,64.8251 51.9666,74.0021 37.5006,74.0001 C23.2086,74.0011 11.0176,65.0471 6.2036,52.4471 C6.1036,52.1781 5.9756,51.9641 5.9196,51.8751 C5.8686,51.7881 5.8776,51.8171 5.8226,51.6651 C5.6456,51.1411 5.0776,50.8611 4.5546,51.0381 C4.0316,51.2151 3.7506,51.7821 3.9276,52.3051 C4.0166,52.5781 4.1426,52.8081 4.2126,52.9191 C4.2786,53.0281 4.2746,53.0111 4.3346,53.1601 C9.4346,66.5131 22.3556,75.9991 37.5006,76.0001 C53.0826,75.9981 66.3096,65.9561 71.0866,51.9901 L73.3696,52.0011 L73.4276,51.9951 C76.5326,51.6491 78.9616,49.0391 78.9626,45.8321 C78.9626,42.4731 76.3046,39.7451 72.9776,39.6171" id="Fill-3" fill="#F1718D"></path>
            <path d="M33.8574,58.4394 L34.8444,58.5984 C34.8924,58.3044 34.9244,57.9924 34.9244,57.6624 C34.9234,54.4194 32.2974,51.7934 29.0564,51.7934 C25.8154,51.7934 23.1884,54.4194 23.1874,57.6624 C23.1874,57.8474 23.2004,58.0124 23.2114,58.1564 L24.2084,58.0744 L24.5024,57.1184 C24.0754,56.9874 23.6254,56.9184 23.1624,56.9184 C21.0034,56.9204 19.1974,58.4094 18.7084,60.4184 L19.6804,60.6554 L20.0634,59.7314 C19.6794,59.5724 19.2534,59.4804 18.8064,59.4804 C16.9804,59.4804 15.5004,60.9604 15.5004,62.7874 C15.5024,64.4924 16.7924,65.8774 18.4384,66.0604 L18.4954,66.0664 L34.5564,66.0004 L34.6684,65.9734 C36.5794,65.5224 37.9984,63.8104 38.0004,61.7614 C37.9994,59.4514 36.1904,57.5704 33.9144,57.4414 L33.8574,58.4394 L34.8444,58.5984 L33.8574,58.4394 L33.8004,59.4374 C35.0254,59.5074 36.0024,60.5214 36.0004,61.7614 C36.0024,62.8614 35.2334,63.7844 34.2074,64.0284 L34.4374,65.0014 L34.4334,64.0014 L18.5454,64.0664 L18.5494,65.0664 L18.6604,64.0724 C18.0044,63.9974 17.4994,63.4534 17.5004,62.7874 C17.5024,62.0644 18.0844,61.4814 18.8064,61.4804 C18.9794,61.4804 19.1434,61.5154 19.2974,61.5794 L20.3754,62.0254 L20.6514,60.8924 C20.9294,59.7604 21.9464,58.9174 23.1624,58.9184 C23.4274,58.9184 23.6794,58.9584 23.9154,59.0304 L25.3264,59.4624 L25.2054,57.9924 C25.1944,57.8624 25.1874,57.7534 25.1874,57.6624 C25.1884,56.5894 25.6194,55.6294 26.3204,54.9264 C27.0244,54.2254 27.9844,53.7934 29.0564,53.7934 C30.1284,53.7934 31.0884,54.2254 31.7914,54.9264 C32.4934,55.6294 32.9234,56.5894 32.9244,57.6624 C32.9244,57.8614 32.9044,58.0664 32.8704,58.2804 L32.6934,59.3754 L33.8004,59.4374 L33.8574,58.4394 Z" id="Fill-6" fill="#F1718D"></path>
            <path d="M39.9361,21.999 L39.8101,21.992 C39.7921,21.991 39.7761,22 39.7581,22 L29.9901,22 C29.9791,21.999 29.9701,21.992 29.9581,21.991 C28.8661,21.919 27.9981,21.008 28.0001,19.895 C28.0021,18.734 28.9421,17.793 30.1041,17.791 C30.5961,17.792 31.0381,17.958 31.3991,18.24 C31.6511,18.438 31.9791,18.504 32.2881,18.417 C32.5971,18.33 32.8431,18.103 32.9551,17.803 C33.3911,16.631 34.5211,15.791 35.8451,15.793 C36.3901,15.793 36.8951,15.933 37.3381,16.179 C37.7211,16.393 38.1991,16.331 38.5161,16.028 C38.7011,15.853 38.9371,15.75 39.2051,15.75 C39.7551,15.751 40.2021,16.197 40.2031,16.749 C40.2031,16.871 40.1811,16.987 40.1381,17.099 C39.9491,17.598 40.1861,18.159 40.6761,18.371 C41.3491,18.664 41.8201,19.329 41.8191,20.108 C41.8171,21.149 40.9781,21.992 39.9361,21.999 M42.1851,16.95 C42.1891,16.883 42.2031,16.817 42.2031,16.749 C42.2031,15.092 40.8611,13.751 39.2051,13.75 C38.6651,13.75 38.1641,13.904 37.7271,14.154 C37.1431,13.922 36.5071,13.793 35.8451,13.793 C34.0711,13.794 32.5201,14.711 31.6111,16.089 C31.1431,15.902 30.6371,15.791 30.1041,15.791 C27.8361,15.792 26.0001,17.629 26.0001,19.895 C26.0011,22.068 27.6861,23.843 29.8241,23.987 L29.8241,23.986 C29.8471,23.988 29.8681,24 29.8911,24 L39.7581,24 C39.7691,24 39.7771,23.994 39.7881,23.994 L39.8751,23.999 L39.9271,24 C42.0781,23.999 43.8191,22.258 43.8191,20.108 C43.8181,18.803 43.1701,17.655 42.1851,16.95" id="Fill-8" fill="#F1718D"></path>
            <polygon id="Fill-10" fill="#F1718D" points="6.1392 34.7851 6.1392 34.7851 6.1402 34.7851"></polygon>
            <path d="M2.5127,36.8369 C2.5127,36.8359 2.5137,36.8349 2.5137,36.8339 L2.5137,36.8309 L2.5127,36.8369 Z" id="Fill-12" fill="#F1718D"></path>
            <path d="M41.2413,35.4707 C40.9023,35.2157 40.5353,35.0547 40.1243,34.9037 C39.7133,34.7557 39.2603,34.6317 38.7833,34.5227 C37.3383,34.1977 35.6873,34.0207 34.5763,34.0187 C34.3153,34.0187 34.0833,34.0277 33.8643,34.0547 C33.6813,34.0787 33.5293,34.1177 33.3423,34.1687 C32.6583,34.3597 31.5663,34.7527 30.2533,35.2487 C26.8953,36.5207 22.2183,38.4427 20.9393,38.9707 C20.0173,38.6657 17.4143,37.8097 14.6543,36.9497 C12.9353,36.4147 11.1593,35.8787 9.6843,35.4737 C8.9463,35.2717 8.2843,35.1017 7.7333,34.9797 C7.4573,34.9177 7.2103,34.8677 6.9873,34.8327 C6.7623,34.7967 6.5713,34.7737 6.3623,34.7727 L6.1393,34.7847 C5.4413,34.8757 4.7573,34.9387 4.0943,35.1567 C3.7633,35.2697 3.4243,35.4287 3.1203,35.7087 C2.8163,35.9847 2.5843,36.4007 2.5133,36.8337 L2.4953,37.0437 C2.5043,37.3807 2.5943,37.5617 2.6743,37.7397 C2.8343,38.0617 3.0433,38.3487 3.3073,38.6847 C4.2213,39.8327 5.8213,41.4337 7.2223,42.7867 C7.7493,43.2957 8.2443,43.7657 8.6583,44.1547 C7.0783,44.8037 4.5293,45.8167 2.9673,46.2767 C2.4373,46.4327 2.1343,46.9897 2.2913,47.5187 C2.4473,48.0477 3.0043,48.3507 3.5333,48.1947 C4.8633,47.8007 6.6773,47.1067 8.1833,46.5047 C9.6853,45.9047 10.8653,45.3987 10.8703,45.3967 C11.1843,45.2627 11.4063,44.9807 11.4633,44.6447 C11.5203,44.3087 11.4033,43.9687 11.1513,43.7397 C11.1513,43.7387 11.0453,43.6417 10.8553,43.4667 C10.1933,42.8557 8.5293,41.3047 7.0463,39.8057 C6.3043,39.0567 5.6073,38.3187 5.1153,37.7367 C4.9003,37.4817 4.7343,37.2647 4.6193,37.0967 C4.7063,37.0587 4.8333,37.0137 5.0043,36.9767 C5.3473,36.8977 5.8283,36.8397 6.3683,36.7727 C6.3933,36.7717 6.5103,36.7807 6.6703,36.8077 C7.3033,36.9067 8.5503,37.2257 9.9943,37.6377 C12.1693,38.2587 14.8413,39.0967 16.9633,39.7787 C18.0243,40.1187 18.9493,40.4207 19.6093,40.6377 C20.2683,40.8547 20.6593,40.9857 20.6603,40.9857 C20.8873,41.0617 21.1383,41.0527 21.3603,40.9607 C21.3623,40.9597 22.0823,40.6607 23.1903,40.2077 C24.8513,39.5287 27.3773,38.5047 29.6133,37.6367 C30.7303,37.2027 31.7763,36.8077 32.5973,36.5167 C33.0073,36.3707 33.3623,36.2507 33.6343,36.1667 C33.8983,36.0837 34.1083,36.0367 34.1133,36.0387 C34.2043,36.0277 34.3713,36.0177 34.5763,36.0177 C35.4743,36.0157 37.0773,36.1857 38.3403,36.4737 C38.8993,36.5997 39.3983,36.7507 39.7173,36.8927 C39.7213,36.9887 39.6493,37.0587 39.5503,37.1377 C39.2133,37.4127 38.6843,37.7467 38.0623,38.1087 C37.4393,38.4707 36.7193,38.8647 35.9773,39.2947 C35.5603,39.5367 34.8563,39.8797 34.0213,40.2517 C33.1853,40.6267 32.2113,41.0367 31.2173,41.4427 C29.6493,42.0827 28.0303,42.7127 26.8053,43.1827 C25.5803,43.6527 24.7523,43.9587 24.7503,43.9597 C24.6023,44.0147 24.4633,44.1097 24.3573,44.2267 C24.3573,44.2267 24.2943,44.2957 24.1773,44.4227 C23.7693,44.8647 22.7203,45.9867 21.6643,46.9897 C21.1373,47.4897 20.6073,47.9617 20.1753,48.2917 C19.9613,48.4567 19.7703,48.5857 19.6373,48.6607 L19.5193,48.7187 C19.4333,48.7107 19.1393,48.6357 18.8083,48.4757 C18.2323,48.2127 17.5263,47.7767 16.9853,47.4117 C16.7133,47.2307 16.4803,47.0657 16.3163,46.9477 L16.1273,46.8077 C15.7693,46.5367 15.3773,46.4937 15.0413,46.6497 C15.0413,46.6497 14.9503,46.6917 14.7763,46.7697 C13.5663,47.3177 8.3803,49.6037 4.4903,50.6447 C3.9573,50.7877 3.6413,51.3357 3.7843,51.8697 C3.9273,52.4037 4.4763,52.7197 5.0093,52.5757 C8.9073,51.5267 13.7553,49.4167 15.3413,48.7077 C15.6393,48.9197 16.0523,49.2017 16.5123,49.4897 C16.9703,49.7737 17.4723,50.0627 17.9733,50.2927 C18.4833,50.5187 18.9623,50.7117 19.5543,50.7227 L19.7213,50.7157 C20.1653,50.6637 20.4313,50.5087 20.7303,50.3387 C21.2343,50.0317 21.7643,49.5977 22.3233,49.1017 C23.7073,47.8677 25.1983,46.2667 25.6733,45.7497 C26.4653,45.4537 29.2763,44.3957 31.9723,43.2937 C32.9803,42.8827 33.9713,42.4657 34.8383,42.0777 C35.7063,41.6897 36.4433,41.3357 36.9803,41.0257 C38.1023,40.3727 39.2193,39.7847 40.1143,39.1957 C40.5623,38.8967 40.9593,38.6017 41.2913,38.2467 C41.4563,38.0687 41.6083,37.8717 41.7283,37.6357 C41.8473,37.4017 41.9343,37.1167 41.9343,36.8087 C41.9343,36.6237 41.9023,36.4357 41.8423,36.2607 C41.7003,35.8687 41.4623,35.6437 41.2413,35.4707 Z" id="Fill-14" fill="#FFFFFF"></path>
        </g>
    </g>
</svg>