<?xml version="1.0" encoding="UTF-8"?>
<svg width="80px" height="80px" viewBox="0 0 80 80" version="1.1" xmlns="http://www.w3.org/2000/svg" xmlns:xlink="http://www.w3.org/1999/xlink">
    <!-- Generator: Sketch 41.2 (35397) - http://www.bohemiancoding.com/sketch -->
    <title>icon_location_inFlight_whiteOn Copy 3</title>
    <desc>Created with Sketch.</desc>
    <defs>
        <polygon id="path-1" points="0.874922603 26 68.087 26 68.087 0.985322603 0.874922603 0.985322603 0.874922603 26"></polygon>
        <polygon id="path-3" points="0 0.0002 0 42.6106812 70.9776 42.6106812 70.9776 0.0002 8.13151629e-20 0.0002"></polygon>
    </defs>
    <g id="Other-Icons" stroke="none" stroke-width="1" fill="none" fill-rule="evenodd">
        <g id="icon_location_inFlight_whiteOn-Copy-3">
            <polygon id="Fill-10" fill="#F1718D" points="6.1392 34.7851 6.1392 34.7851 6.1402 34.7851"></polygon>
            <path d="M2.5127,36.8369 C2.5127,36.8359 2.5137,36.8349 2.5137,36.8339 L2.5137,36.8309 L2.5127,36.8369 Z" id="Fill-12" fill="#F1718D"></path>
            <g id="Page-1" transform="translate(2.000000, 5.000000)">
                <g id="Group-3" transform="translate(1.000000, 44.999900)">
                    <mask id="mask-2" fill="white">
                        <use xlink:href="#path-1"></use>
                    </mask>
                    <g id="Clip-2"></g>
                    <path d="M66,1.6524 C61.258,14.3914 48.892,24.0024 34.5,24.0004 C20.209,24.0014 8.017,15.0474 3.203,2.4474 C3.104,2.1774 2.975,1.9644 2.919,1.8754 C2.869,1.7884 2.878,1.8174 2.822,1.6654 C2.646,1.1414 2.078,0.8614 1.555,1.0384 C1.031,1.2154 0.751,1.7824 0.928,2.3054 C1.016,2.5784 1.143,2.8084 1.213,2.9194 C1.278,3.0284 1.274,3.0104 1.334,3.1604 C6.434,16.5134 19.355,25.9994 34.5,26.0004 C50.083,25.9984 63.31,15.9564 68.087,1.9904 C68.087,1.9904 66.818,1.8054 66,1.6524" id="Fill-1" fill="#FEFEFE" mask="url(#mask-2)"></path>
                </g>
                <g id="Group-6" transform="translate(0.000000, -0.000100)">
                    <mask id="mask-4" fill="white">
                        <use xlink:href="#path-3"></use>
                    </mask>
                    <g id="Clip-5"></g>
                    <path d="M70.9776,34.6172 C70.5066,15.4202 54.8106,0.0012 35.4996,0.0002 C15.8936,0.0012 0.0006,15.8932 -0.0004,35.5002 C-0.0014,37.7982 0.0816,39.5712 0.5186,41.8022 C0.6236,42.3442 1.1496,42.6972 1.6916,42.5922 C2.2336,42.4862 2.5876,41.9612 2.4816,41.4192 C2.0766,39.3372 2.0006,37.7622 1.9996,35.5002 C2.0006,26.2462 5.7486,17.8772 11.8116,11.8112 C17.8766,5.7482 26.2466,2.0012 35.4996,2.0002 C44.7536,2.0012 53.1236,5.7482 59.1886,11.8112 C64.8596,17.4842 68.5516,26.2772 68.9996,34.8182 L70.9776,34.6172 Z" id="Fill-4" fill="#FEFEFE" mask="url(#mask-4)"></path>
                </g>
                <path d="M15.5005,57.7861 C15.5015,57.0661 16.0855,56.4811 16.8065,56.4801 C16.9815,56.4801 17.1455,56.5151 17.2985,56.5781 C17.5685,56.6901 17.8725,56.6791 18.1335,56.5461 C18.3945,56.4131 18.5835,56.1761 18.6525,55.8911 C18.9295,54.7601 19.9465,53.9161 21.1625,53.9181 C21.4245,53.9181 21.6755,53.9581 21.9205,54.0311 C22.2385,54.1261 22.5815,54.0581 22.8385,53.8491 C23.0955,53.6411 23.2325,53.3201 23.2055,52.9901 C23.1945,52.8631 23.1875,52.7551 23.1875,52.6611 C23.1875,51.5911 23.6195,50.6301 24.3205,49.9271 C25.0245,49.2241 25.9855,48.7941 27.0565,48.7931 C28.1275,48.7941 29.0885,49.2241 29.7915,49.9261 C30.4935,50.6301 30.9235,51.5911 30.9245,52.6611 C30.9245,52.8631 30.9045,53.0671 30.8705,53.2791 C30.8255,53.5571 30.9015,53.8461 31.0785,54.0651 C31.2545,54.2861 31.5195,54.4221 31.8015,54.4371 C33.0255,54.5071 34.0015,55.5201 34.0005,56.7631 C34.0025,57.8321 33.2725,58.7281 32.2875,59.0011 L16.6385,59.0661 C15.9945,58.9811 15.4995,58.4471 15.5005,57.7861 L15.5005,57.7861 Z M16.5535,61.0661 L32.4415,61.0001 L32.6675,60.9731 C34.5795,60.5211 35.9985,58.8101 36.0005,56.7631 C35.9995,54.8071 34.6995,53.1731 32.9225,52.6341 C32.9075,49.4061 30.2895,46.7941 27.0565,46.7931 C24.0655,46.7941 21.6035,49.0321 21.2385,51.9241 C21.2125,51.9231 21.1885,51.9181 21.1625,51.9181 C19.3485,51.9191 17.7945,52.9771 17.0505,54.5051 C16.9685,54.4991 16.8905,54.4801 16.8065,54.4801 C14.9795,54.4811 13.5015,55.9611 13.5005,57.7861 C13.5015,59.4921 14.7925,60.8801 16.4385,61.0601 L16.5535,61.0661 Z" id="Fill-7" fill="#EF718C"></path>
                <path d="M70.9776,34.6171 C70.6076,34.6191 69.4996,34.6931 69.4996,34.6931 L68.9996,33.5681 C67.4786,30.6491 64.3836,28.7991 60.8616,28.7971 C60.4066,28.7971 59.9596,28.8321 59.5226,28.8971 C59.3526,22.3981 54.0436,17.1821 47.5036,17.1811 C40.8576,17.1821 35.4706,22.5681 35.4706,29.2161 C35.4706,29.7111 35.5136,30.1791 35.5686,30.6211 C35.6366,31.1691 36.1366,31.5581 36.6846,31.4901 C37.2326,31.4231 37.6216,30.9231 37.5536,30.3751 C37.5036,29.9751 37.4706,29.5931 37.4706,29.2161 C37.4706,26.4411 38.5916,23.9391 40.4096,22.1201 C42.2276,20.3031 44.7296,19.1821 47.5036,19.1811 C50.2786,19.1821 52.7816,20.3031 54.6006,22.1201 C56.4176,23.9391 57.5386,26.4411 57.5396,29.2161 C57.5396,29.4861 57.5206,29.7671 57.4956,30.0671 L57.3736,31.5371 L58.7836,31.1061 C59.4426,30.9061 60.1386,30.7971 60.8616,30.7971 C64.2146,30.7951 67.0216,33.1181 67.7826,36.2351 L68.0586,37.3681 L69.1356,36.9231 C69.4196,36.8051 69.7596,36.7231 70.1396,36.6681 C70.3946,36.6311 70.5856,36.6031 70.7346,36.6041 C71.9066,36.6041 72.9566,37.0761 73.7246,37.8431 C74.4916,38.6101 74.9626,39.6611 74.9626,40.8321 C74.9646,42.9891 73.3356,44.7481 71.2366,45.0011 L68.3766,44.9871 L35.4576,44.8501 C32.6136,44.1371 30.4976,41.5731 30.4996,38.5101 C30.4996,38.1871 30.5326,37.8581 30.5836,37.5171 C30.6656,36.9711 30.2896,36.4621 29.7446,36.3791 C29.1976,36.2971 28.6886,36.6731 28.6056,37.2191 C28.5446,37.6221 28.4996,38.0531 28.4996,38.5101 C28.5016,42.5521 31.3066,45.9301 35.0776,46.8221 L35.3036,46.8491 L66.9756,46.9811 C66.9516,47.0481 71.3696,47.0011 71.3696,47.0011 L71.4276,46.9951 C74.5326,46.6491 76.9616,44.0391 76.9626,40.8321 C76.9626,37.4731 74.3076,34.5951 70.9776,34.6171" id="Fill-9" fill="#EF718C"></path>
                <path d="M37.9361,16.999 L37.8101,16.992 C37.7921,16.991 37.7761,17 37.7581,17 L27.9901,17 C27.9791,16.999 27.9701,16.992 27.9581,16.991 C26.8661,16.919 25.9981,16.008 26.0001,14.895 C26.0021,13.734 26.9421,12.793 28.1041,12.791 C28.5961,12.792 29.0381,12.958 29.3991,13.24 C29.6511,13.438 29.9791,13.504 30.2881,13.417 C30.5971,13.33 30.8431,13.103 30.9551,12.803 C31.3911,11.631 32.5211,10.791 33.8451,10.793 C34.3901,10.793 34.8951,10.933 35.3381,11.179 C35.7211,11.393 36.1991,11.331 36.5161,11.028 C36.7011,10.853 36.9371,10.75 37.2051,10.75 C37.7551,10.751 38.2021,11.197 38.2031,11.749 C38.2031,11.871 38.1811,11.987 38.1381,12.099 C37.9491,12.598 38.1861,13.159 38.6761,13.371 C39.3491,13.664 39.8201,14.329 39.8191,15.108 C39.8171,16.149 38.9781,16.992 37.9361,16.999 M40.1851,11.95 C40.1891,11.883 40.2031,11.817 40.2031,11.749 C40.2031,10.092 38.8611,8.751 37.2051,8.75 C36.6651,8.75 36.1641,8.904 35.7271,9.154 C35.1431,8.922 34.5071,8.793 33.8451,8.793 C32.0711,8.794 30.5201,9.711 29.6111,11.089 C29.1431,10.902 28.6371,10.791 28.1041,10.791 C25.8361,10.792 24.0001,12.629 24.0001,14.895 C24.0011,17.068 25.6861,18.843 27.8241,18.987 L27.8241,18.986 C27.8471,18.988 27.8681,19 27.8911,19 L37.7581,19 C37.7691,19 37.7771,18.994 37.7881,18.994 L37.8751,18.999 L37.9271,19 C40.0781,18.999 41.8191,17.258 41.8191,15.108 C41.8181,13.803 41.1701,12.655 40.1851,11.95" id="Fill-13" fill="#EF718C"></path>
                <polygon id="Fill-15" fill="#FEFEFE" points="4.1392 29.7851 4.1392 29.7851 4.1402 29.7851"></polygon>
                <path d="M0.5127,31.8369 C0.5127,31.8359 0.5137,31.8349 0.5137,31.8339 L0.5137,31.8309 L0.5127,31.8369 Z" id="Fill-17" fill="#FEFEFE"></path>
                <path d="M39.8423,31.2607 L39.8403,31.2547 C39.7003,30.8687 39.4623,30.6437 39.2413,30.4707 C38.9023,30.2157 38.5353,30.0547 38.1243,29.9037 C37.7133,29.7557 37.2603,29.6317 36.7833,29.5227 L36.7813,29.5227 C35.3383,29.1977 33.6873,29.0207 32.5763,29.0187 C32.3153,29.0187 32.0833,29.0277 31.8643,29.0547 L31.8613,29.0547 C31.6813,29.0787 31.5293,29.1177 31.3423,29.1687 C30.6583,29.3597 29.5663,29.7527 28.2533,30.2487 C24.8953,31.5207 20.2183,33.4427 18.9393,33.9707 C18.0173,33.6657 15.4143,32.8097 12.6543,31.9497 C10.9353,31.4147 9.1593,30.8787 7.6843,30.4737 C6.9463,30.2717 6.2843,30.1017 5.7333,29.9797 C5.4573,29.9177 5.2103,29.8677 4.9873,29.8327 C4.7623,29.7967 4.5713,29.7737 4.3623,29.7727 L4.1393,29.7847 C3.4413,29.8757 2.7573,29.9387 2.0943,30.1567 C1.7633,30.2697 1.4243,30.4287 1.1203,30.7087 C0.8163,30.9847 0.5843,31.4007 0.5133,31.8337 L0.4953,32.0437 C0.5043,32.3807 0.5943,32.5617 0.6743,32.7397 C0.8343,33.0617 1.0433,33.3487 1.3073,33.6847 C2.2213,34.8327 3.8213,36.4337 5.2223,37.7867 C5.7493,38.2957 6.2443,38.7657 6.6583,39.1547 C5.0783,39.8037 2.5293,40.8167 0.9673,41.2767 C0.4373,41.4327 0.1343,41.9897 0.2913,42.5187 C0.4473,43.0477 1.0043,43.3507 1.5333,43.1947 C2.8633,42.8007 4.6773,42.1067 6.1833,41.5047 C7.6853,40.9047 8.8653,40.3987 8.8703,40.3967 C9.1843,40.2627 9.4063,39.9807 9.4633,39.6447 C9.5203,39.3087 9.4033,38.9687 9.1513,38.7397 C9.1513,38.7387 9.0453,38.6417 8.8553,38.4667 C8.1933,37.8557 6.5293,36.3047 5.0463,34.8057 C4.3043,34.0567 3.6073,33.3187 3.1153,32.7367 C2.9003,32.4817 2.7343,32.2647 2.6193,32.0967 C2.7063,32.0587 2.8333,32.0137 3.0043,31.9767 C3.3473,31.8977 3.8283,31.8397 4.3683,31.7727 C4.3933,31.7717 4.5103,31.7807 4.6703,31.8077 C5.3033,31.9067 6.5503,32.2257 7.9943,32.6377 C10.1693,33.2587 12.8413,34.0967 14.9633,34.7787 C16.0243,35.1187 16.9493,35.4207 17.6093,35.6377 C18.2683,35.8547 18.6593,35.9857 18.6603,35.9857 C18.8873,36.0617 19.1383,36.0527 19.3603,35.9607 C19.3623,35.9597 20.0823,35.6607 21.1903,35.2077 C22.8513,34.5287 25.3773,33.5047 27.6133,32.6367 C28.7303,32.2027 29.7763,31.8077 30.5973,31.5167 C31.0073,31.3707 31.3623,31.2507 31.6343,31.1667 C31.8983,31.0837 32.1083,31.0367 32.1133,31.0387 C32.2043,31.0277 32.3713,31.0177 32.5763,31.0177 C33.4743,31.0157 35.0773,31.1857 36.3403,31.4737 L36.3423,31.4737 C36.8993,31.5997 37.3983,31.7507 37.7173,31.8927 C37.7433,31.9037 37.7603,31.9137 37.7843,31.9247 C37.7213,31.9887 37.6493,32.0587 37.5503,32.1377 C37.2133,32.4127 36.6843,32.7467 36.0623,33.1087 C35.4393,33.4707 34.7193,33.8647 33.9773,34.2947 L33.9773,34.2947 C33.5603,34.5367 32.8563,34.8797 32.0213,35.2517 C31.1853,35.6267 30.2113,36.0367 29.2173,36.4427 C27.6493,37.0827 26.0303,37.7127 24.8053,38.1827 C23.5803,38.6527 22.7523,38.9587 22.7503,38.9597 C22.6023,39.0147 22.4633,39.1097 22.3573,39.2267 C22.3573,39.2267 22.2943,39.2957 22.1773,39.4227 C21.7693,39.8647 20.7203,40.9867 19.6643,41.9897 C19.1373,42.4897 18.6073,42.9617 18.1753,43.2917 C17.9613,43.4567 17.7703,43.5857 17.6373,43.6607 L17.5193,43.7187 C17.4333,43.7107 17.1393,43.6357 16.8083,43.4757 C16.2323,43.2127 15.5263,42.7767 14.9853,42.4117 C14.7133,42.2307 14.4803,42.0657 14.3163,41.9477 L14.1273,41.8077 L14.0643,41.7607 C13.7693,41.5367 13.3773,41.4937 13.0413,41.6497 C13.0413,41.6497 12.9503,41.6917 12.7763,41.7697 C11.5663,42.3177 6.3803,44.6037 2.4903,45.6447 C1.9573,45.7877 1.6413,46.3357 1.7843,46.8697 C1.9273,47.4037 2.4763,47.7197 3.0093,47.5757 C6.9073,46.5267 11.7553,44.4167 13.3413,43.7077 C13.6393,43.9197 14.0523,44.2017 14.5123,44.4897 C14.9703,44.7737 15.4723,45.0627 15.9733,45.2927 C16.4833,45.5187 16.9623,45.7117 17.5543,45.7227 L17.7213,45.7157 L17.7253,45.7157 C18.1653,45.6637 18.4313,45.5087 18.7303,45.3387 C19.2343,45.0317 19.7643,44.5977 20.3233,44.1017 C21.7073,42.8677 23.1983,41.2667 23.6733,40.7497 C24.4653,40.4537 27.2763,39.3957 29.9723,38.2937 C30.9803,37.8827 31.9713,37.4657 32.8383,37.0777 C33.7063,36.6897 34.4433,36.3357 34.9803,36.0257 L34.9813,36.0257 C36.1023,35.3727 37.2193,34.7847 38.1143,34.1957 C38.5623,33.8967 38.9593,33.6017 39.2913,33.2467 C39.4563,33.0687 39.6083,32.8717 39.7283,32.6357 C39.8473,32.4017 39.9343,32.1167 39.9343,31.8087 C39.9343,31.6237 39.9023,31.4357 39.8423,31.2607" id="Fill-19" fill="#EF718C"></path>
                <path d="M68.9517,33.7129 L70.9777,34.6169" id="Fill-21" fill="#FEFEFE"></path>
            </g>
        </g>
    </g>
</svg>