<?xml version="1.0" encoding="iso-8859-1"?>
<!-- Generator: Adobe Illustrator 19.0.0, SVG Export Plug-In . SVG Version: 6.00 Build 0)  -->
<svg xmlns="http://www.w3.org/2000/svg" xmlns:xlink="http://www.w3.org/1999/xlink" version="1.1" id="Capa_1" x="0px" y="0px" viewBox="0 0 121.669 121.669" style="enable-background:new 0 0 121.669 121.669;" xml:space="preserve" width="512px" height="512px">
<g>
	<path d="M60.835,121.669c-33.544,0-60.834-27.29-60.834-60.835C0.001,27.29,27.291,0,60.835,0s60.834,27.29,60.834,60.834   C121.669,94.379,94.379,121.669,60.835,121.669z M60.835,6C30.6,6,6.001,30.599,6.001,60.834c0,30.236,24.599,54.835,54.834,54.835   s54.834-24.599,54.834-54.835C115.669,30.599,91.071,6,60.835,6z" fill="#ff738e"/>
	<rect x="44.335" y="87.82" width="33" height="6" fill="#ff738e"/>
	<rect x="17.101" y="56.835" width="19.07" height="6" fill="#ff738e"/>
	<rect x="85.101" y="56.835" width="19.07" height="6" fill="#ff738e"/>
</g>
<g>
</g>
<g>
</g>
<g>
</g>
<g>
</g>
<g>
</g>
<g>
</g>
<g>
</g>
<g>
</g>
<g>
</g>
<g>
</g>
<g>
</g>
<g>
</g>
<g>
</g>
<g>
</g>
<g>
</g>
</svg>
