<?xml version="1.0" encoding="iso-8859-1"?>
<!-- Generator: Adobe Illustrator 19.0.0, SVG Export Plug-In . SVG Version: 6.00 Build 0)  -->
<svg xmlns="http://www.w3.org/2000/svg" xmlns:xlink="http://www.w3.org/1999/xlink" version="1.1" id="Layer_1" x="0px" y="0px" viewBox="0 0 512 512" style="enable-background:new 0 0 512 512;" xml:space="preserve" width="512px" height="512px">
<g>
	<g>
		<g>
			<path d="M74.257,266.507l-12.101,12.099l24.006,12.104l12.103,24.006l12.099-12.099l-7.027-13.935l26.012-22.383l22.09,43.814     l15.483-15.483l-14.648-48.055l8.835-7.602c0.144-0.136,0.293-0.276,0.433-0.415c15.592-15.592-8.564-38.997-23.643-22.795     c-4.229,4.91-5.553,6.454-7.599,8.833l-48.055-14.648l-15.484,15.483l43.814,22.09l-22.383,26.012L74.257,266.507z" fill="#ff738e"/>
			<path d="M494.153,202.231c9.857,0,17.847-7.991,17.847-17.847V97.015c0-9.857-7.991-17.847-17.847-17.847     c-18.099,0-458.573,0-476.305,0C7.991,79.167,0,87.158,0,97.015v317.971c0,9.857,7.991,17.847,17.847,17.847     c8.794,0,458.775,0,476.305,0c9.857,0,17.847-7.991,17.847-17.847v-87.369c0-9.857-7.991-17.847-17.847-17.847     c-29.648,0-53.768-24.12-53.768-53.768C440.384,226.352,464.504,202.231,494.153,202.231z M206.051,397.139H35.695V114.863     h170.357V397.139z M374.494,337.157h-82.506c-9.857,0-17.847-7.991-17.847-17.847s7.991-17.847,17.847-17.847h82.506     c9.857,0,17.847,7.991,17.847,17.847S384.35,337.157,374.494,337.157z M274.14,256.001c0-9.857,7.991-17.847,17.847-17.847     h70.608c9.857,0,17.847,7.991,17.847,17.847s-7.991,17.847-17.847,17.847h-70.608C282.13,273.849,274.14,265.858,274.14,256.001z      M374.494,210.54h-82.506c-9.857,0-17.847-7.991-17.847-17.848c0-9.857,7.991-17.847,17.847-17.847h82.506     c9.857,0,17.847,7.991,17.847,17.847C392.341,202.549,384.35,210.54,374.494,210.54z" fill="#ff738e"/>
		</g>
	</g>
</g>
<g>
</g>
<g>
</g>
<g>
</g>
<g>
</g>
<g>
</g>
<g>
</g>
<g>
</g>
<g>
</g>
<g>
</g>
<g>
</g>
<g>
</g>
<g>
</g>
<g>
</g>
<g>
</g>
<g>
</g>
</svg>
