<?xml version="1.0" encoding="UTF-8"?>
<svg width="20px" height="27px" viewBox="0 0 20 27" version="1.1" xmlns="http://www.w3.org/2000/svg" xmlns:xlink="http://www.w3.org/1999/xlink">
    <!-- Generator: Sketch 42 (36781) - http://www.bohemiancoding.com/sketch -->
    <title>icon_travel_train_smal_white</title>
    <desc>Created with Sketch.</desc>
    <defs>
        <polygon id="path-1" points="0 27 19.954 27 19.954 0 10 0 0 0"></polygon>
    </defs>
    <g id="Page-1" stroke="none" stroke-width="1" fill="none" fill-rule="evenodd">
        <g id="icon_travel_train_smal_white">
            <g id="Group-2">
                <path d="M12.1958,1.8897 C12.1388,2.3277 12.5598,2.6577 12.9428,2.6757 C13.3488,2.6957 13.7168,2.2977 13.7268,1.9037 C13.7388,1.4367 13.3338,1.1107 12.9498,1.1097 C12.5158,1.1067 12.1968,1.4447 12.1958,1.8897 L12.1958,1.8897 Z M7.7658,1.8967 C7.7658,1.4387 7.4358,1.0917 6.9918,1.1107 C6.6018,1.1277 6.2318,1.4357 6.2358,1.8967 C6.2398,2.3047 6.6418,2.7207 7.0378,2.6777 C7.4498,2.6337 7.8208,2.2917 7.7658,1.8967 L7.7658,1.8967 Z M18.0498,12.9827 C18.0498,10.4087 18.0568,7.8337 18.0458,5.2587 C18.0408,4.2747 17.5518,3.5627 16.7138,3.0717 C16.1118,2.7197 15.4548,2.7187 14.7928,2.7487 C14.7278,2.7517 14.6528,2.8267 14.6078,2.8887 C14.3738,3.2077 14.1018,3.4727 13.7308,3.6407 C12.8718,4.0297 11.7838,3.6957 11.3118,2.8937 C11.2678,2.8187 11.1428,2.7497 11.0538,2.7487 C10.3418,2.7367 9.6308,2.7477 8.9188,2.7377 C8.7618,2.7357 8.6888,2.7967 8.6148,2.9217 C8.3098,3.4377 7.8378,3.7287 7.2578,3.7887 C6.4498,3.8717 5.8028,3.5607 5.3478,2.8737 C5.3108,2.8177 5.2378,2.7487 5.1798,2.7487 C4.6518,2.7407 4.1178,2.6987 3.6088,2.9017 C2.6048,3.3017 1.9108,4.1787 1.9108,5.3007 C1.9138,10.4417 1.9068,15.5817 1.9238,20.7227 C1.9248,21.0787 2.0188,21.4747 2.1928,21.7837 C2.7108,22.7037 3.5378,23.1947 4.5978,23.1987 C8.1308,23.2107 11.6628,23.2017 15.1958,23.2047 C15.7698,23.2057 16.3128,23.0977 16.8028,22.7907 C17.5708,22.3107 18.0398,21.6297 18.0448,20.7067 C18.0578,18.1317 18.0498,15.5577 18.0498,12.9827 L18.0498,12.9827 Z M13.4088,-0.0003 C13.6348,0.1137 13.8768,0.2047 14.0858,0.3447 C14.4318,0.5757 14.6498,0.9147 14.7758,1.3117 C14.8038,1.3997 14.8298,1.4887 14.8398,1.5197 C15.3898,1.5957 15.9198,1.6107 16.4138,1.7477 C17.8568,2.1487 18.8018,3.0647 19.0998,4.5667 C19.1698,4.9127 19.2048,5.2717 19.2048,5.6247 C19.2118,10.5627 19.2118,15.5007 19.2088,20.4397 C19.2078,21.6227 18.8128,22.6437 17.8988,23.4277 C17.7048,23.5947 17.4778,23.7247 17.2398,23.8907 C17.4078,24.0427 17.5678,24.1967 17.7378,24.3377 C18.2548,24.7727 18.7748,25.2027 19.2948,25.6347 C19.4408,25.7557 19.5928,25.8717 19.7338,25.9987 C20.0248,26.2617 20.0438,26.6767 19.6908,26.9167 C19.6648,26.9357 19.6508,26.9717 19.6318,26.9997 L19.1568,26.9997 C18.9798,26.8507 18.8038,26.6997 18.6268,26.5507 C17.8948,25.9417 17.1708,25.3227 16.4258,24.7297 C16.2198,24.5647 16.0708,24.3057 15.7398,24.3067 C11.9008,24.3127 8.0618,24.3097 4.2228,24.3147 C4.1168,24.3147 3.9898,24.3437 3.9098,24.4077 C3.5698,24.6737 3.2428,24.9587 2.9108,25.2367 C2.2088,25.8247 1.5068,26.4117 0.8048,26.9997 L0.3308,26.9997 C0.2408,26.8907 0.1328,26.7907 0.0678,26.6687 C-0.0412,26.4667 -0.0232,26.2567 0.1538,26.0987 C0.5958,25.7077 1.0448,25.3267 1.4928,24.9437 C1.8998,24.5967 2.3088,24.2527 2.6978,23.9237 C2.3448,23.6207 1.9808,23.3657 1.6878,23.0437 C1.1568,22.4637 0.8128,21.7757 0.8088,20.9727 C0.7838,15.7767 0.7618,10.5807 0.7598,5.3847 C0.7598,4.4527 1.0228,3.5937 1.6878,2.8757 C2.3498,2.1607 3.1398,1.7387 4.1038,1.6357 C4.4318,1.6007 4.7618,1.5827 5.0558,1.5597 C5.2168,1.2627 5.3538,0.9587 5.5338,0.6837 C5.7538,0.3487 6.0968,0.1687 6.4738,0.0517 C6.5028,0.0417 6.5268,0.0177 6.5528,-0.0003 L7.4498,-0.0003 C8.2048,0.2707 8.7688,0.7187 8.8908,1.5737 L11.0558,1.5737 C11.1078,1.4037 11.1408,1.2347 11.2078,1.0807 C11.4608,0.5047 11.9468,0.2027 12.5118,-0.0003 L13.4088,-0.0003 Z" id="Fill-1" fill="#ff738e"></path>
                <path d="M12.5122,0 C11.9472,0.203 11.4602,0.505 11.2082,1.081 C11.1402,1.234 11.1072,1.404 11.0562,1.574 L8.8902,1.574 C8.7692,0.719 8.2042,0.271 7.4502,0 L12.5122,0 Z" id="Fill-4" fill="#ff738e"></path>
                <mask id="mask-2" fill="white">
                    <use xlink:href="#path-1"></use>
                </mask>
                <g id="Clip-7"></g>
                <path d="M6.785,7 L13.185,7 L13.185,5.977 L6.785,5.977 L6.785,7 Z M9.98,8.121 L8.373,8.121 C7.135,8.121 5.896,8.12 4.658,8.122 C4.3,8.122 4.077,8.306 4.076,8.609 C4.073,10.076 4.078,11.543 4.072,13.009 C4.071,13.257 4.218,13.377 4.41,13.438 C4.571,13.49 4.751,13.498 4.923,13.498 C8.295,13.501 11.667,13.5 15.041,13.5 C15.102,13.5 15.165,13.509 15.225,13.499 C15.698,13.417 15.904,13.38 15.894,12.797 C15.872,11.463 15.887,10.127 15.887,8.792 C15.887,8.283 15.728,8.121 15.224,8.121 L9.98,8.121 Z M5.657,7.014 C5.657,6.615 5.675,6.246 5.652,5.88 C5.621,5.37 6.177,4.841 6.687,4.845 C8.884,4.861 11.081,4.86 13.277,4.845 C13.786,4.841 14.342,5.371 14.31,5.883 C14.287,6.249 14.305,6.617 14.305,7.014 C14.701,7.014 15.077,7.03 15.451,7.01 C16.166,6.973 16.979,7.61 16.998,8.351 C17.002,8.559 17.044,8.765 17.045,8.973 C17.049,10.273 17.055,11.573 17.043,12.874 C17.04,13.368 16.916,13.821 16.515,14.173 C16.208,14.443 15.857,14.602 15.462,14.603 C11.807,14.611 8.152,14.612 4.497,14.604 C3.776,14.602 3.002,14.009 2.966,13.229 C2.955,12.996 2.918,12.762 2.917,12.529 C2.912,11.246 2.907,9.963 2.917,8.68 C2.923,7.976 3.211,7.425 3.886,7.137 C4.048,7.068 4.232,7.026 4.409,7.019 C4.811,7.002 5.215,7.014 5.657,7.014 L5.657,7.014 Z" id="Fill-6" fill="#ff738e"></path>
                <path d="M5.1255,18.4043 C4.5365,18.4043 4.0825,18.8523 4.0725,19.4253 C4.0645,19.9073 4.4445,20.4553 5.0975,20.4913 C5.6505,20.5213 6.2085,19.9743 6.1785,19.4273 C6.1485,18.8903 5.7135,18.3763 5.1255,18.4043 M7.2915,19.4233 C7.3635,20.6313 6.2815,21.6643 5.0845,21.6213 C3.8445,21.5773 2.9185,20.6813 2.9355,19.4323 C2.9525,18.1913 3.7995,17.2723 5.1205,17.2563 C6.2885,17.2413 7.3145,18.1733 7.2915,19.4233" id="Fill-8" fill="#ff738e"></path>
                <path d="M14.8267,18.4043 C14.2357,18.3813 13.7637,18.9103 13.7947,19.4353 C13.8317,20.0743 14.1727,20.4663 14.8507,20.4833 C15.4837,20.4993 15.8887,19.9443 15.8887,19.4423 C15.8877,18.8523 15.4307,18.4033 14.8267,18.4043 M12.6707,19.4243 C12.6467,18.1743 13.6737,17.2413 14.8417,17.2563 C16.1597,17.2723 17.0077,18.1893 17.0267,19.4323 C17.0457,20.6713 16.1047,21.6333 14.7717,21.6213 C13.6657,21.6103 12.6057,20.6463 12.6707,19.4243" id="Fill-9" fill="#ff738e"></path>
            </g>
        </g>
    </g>
</svg>
