<?xml version="1.0" encoding="UTF-8"?>
<svg width="68px" height="45px" viewBox="0 0 68 45" version="1.1" xmlns="http://www.w3.org/2000/svg" xmlns:xlink="http://www.w3.org/1999/xlink">
    <!-- Generator: Sketch 42 (36781) - http://www.bohemiancoding.com/sketch -->
    <title>icon_onboarding_typeofdate_party_blueoff</title>
    <desc>Created with Sketch.</desc>
    <defs>
        <polygon id="path-1" points="39.1488764 2.39008049 34.1246907 2.39008049 34.1246907 6.88184967 39.1488764 6.88184967 39.1488764 2.39008049"></polygon>
        <polygon id="path-3" points="65.4672264 28.6533385 65.4672264 25.5866786 62.0371558 25.5866786 62.0371558 28.6533385 65.4672264 28.6533385"></polygon>
    </defs>
    <g id="Page-1" stroke="none" stroke-width="1" fill="none" fill-rule="evenodd">
        <g id="icon_onboarding_typeofdate_party_blueoff">
            <path d="M33.3712859,24.9272458 C33.5595149,24.7092312 33.7565606,24.497063 33.9622104,24.2912726 C34.3194419,23.9337968 34.6959,23.6030015 35.0888228,23.2985677 C34.0942469,21.7980834 33.5139448,19.9998621 33.5139448,18.0682384 C33.5139448,18.0516561 33.5144759,18.0352864 33.5145822,18.0187041 L31.6554486,18.0187041 L31.6554486,24.658634 L31.0747217,24.658634 L29.8255267,24.658634 C29.8255267,24.658634 28.2594653,24.4998267 28.1560031,24.4230805 C26.4287998,26.2302308 23.9966937,27.3575073 21.3063569,27.3575073 C18.7500748,27.3575073 16.4272732,26.3396101 14.720465,24.6880782 L14.720465,24.5594592 L14.5895969,24.5594592 C14.5721762,24.5419202 14.5551803,24.5240624 14.5378658,24.5064171 C14.5148152,24.5240624 14.4916583,24.5416013 14.4688202,24.5594592 L13.0955555,24.5594592 L11.8326576,24.5594592 L11.2542676,24.5594592 L11.2542676,17.9196356 L5.31219973,17.9196356 L5.31219973,27.2253805 C5.31219973,29.0369952 6.77979138,30.5055905 8.59016809,30.5055905 L8.99955562,30.5055905 L9.91605684,30.5055905 L10.8333016,30.5055905 C10.7200668,31.1043598 10.6600502,31.72205 10.6600502,32.3537713 L10.6600502,43.1907202 L30.5428578,43.1907202 L30.5428578,32.5519083 C30.5428578,31.8927625 30.5976694,31.2421204 30.7039997,30.6047653 C30.8291316,29.8537791 31.0267084,29.1215011 31.2930121,28.4161162 C31.4363084,28.0364244 31.5989374,27.6643859 31.7816428,27.3017016 C31.9421474,26.983024 32.1181606,26.6717873 32.3081955,26.3680976 C32.6166702,25.8753061 32.963173,25.4032424 33.3469606,24.9559459 C33.3552461,24.9463792 33.3631066,24.9367062 33.3712859,24.9272458" id="Fill-1" fill="#66CCFF"></path>
            <path d="M15.4609104,22.8446595 C15.6637984,23.0831893 15.880283,23.3097076 16.1104706,23.5216632 C17.477468,24.780854 19.3018663,25.5505484 21.3063144,25.5505484 C23.3474097,25.5505484 25.2010196,24.7516224 26.5759839,23.4511885 C26.8038345,23.2356188 27.019788,23.0076124 27.2200204,22.7656811 C27.4136669,22.531722 27.5922295,22.2849011 27.7575141,22.028726 C28.5308253,20.8299118 28.9814278,19.4030911 28.9814278,17.8700801 C28.9814278,15.0442885 27.4553067,12.5765042 25.1839176,11.2427995 L23.1732023,11.2937156 C21.2273899,11.3430373 20.7113534,11.4721878 19.5051792,11.8384862 C18.0414116,12.283019 16.0838083,13.4472868 16.0644755,13.4588732 L14.4463644,14.4262795 C13.9258665,15.4623534 13.6310947,16.6315109 13.6310947,17.8700801 C13.6310947,19.4375313 14.1014549,20.8946465 14.9070582,22.1097241 C15.0770167,22.3661117 15.2622714,22.6111257 15.4609104,22.8446595" id="Fill-3" fill="#66CCFF"></path>
            <path d="M19.2276157,10.9230271 C20.4786165,10.5431227 21.0940787,10.4024922 22.853999,10.345836 C22.9490695,10.3428597 23.0467956,10.3399897 23.148877,10.3373323 L22.2819824,9.34324551 L21.4457866,8.38434294 L16.8074066,3.06525589 L15.9037585,10.0781809 L15.7403859,11.3464069 L15.5739328,12.6375929 C15.5739328,12.6375929 15.6691096,12.5808305 15.8335444,12.4871831 C16.4355162,12.1441636 17.9728971,11.3039945 19.2276157,10.9230271" id="Fill-5" fill="#66CCFF"></path>
            <path d="M35.3209755,18.0187466 C35.3208692,18.0353289 35.3197008,18.0516986 35.3197008,18.0682809 C35.3197008,19.6357321 35.7900609,21.0928473 36.5956642,22.3080312 C36.7656227,22.5643126 36.9508775,22.8093265 37.1495165,23.0428603 C37.2922816,23.2105965 37.4412077,23.3728053 37.5975696,23.5275733 C37.6635347,23.5929458 37.7308808,23.6569364 37.7990766,23.719864 C39.1660741,24.9790548 40.9904724,25.7487492 42.9949204,25.7487492 C45.0360158,25.7487492 46.8896257,24.9498232 48.2645899,23.6493893 C48.4924406,23.4338196 48.7083941,23.2058132 48.9086264,22.9638819 C49.1022729,22.7299228 49.2808356,22.4832082 49.4461202,22.2269268 C50.2194314,21.0282189 50.6700338,19.601292 50.6700338,18.0682809 C50.6700338,13.8265109 47.2336854,10.3878126 42.9949204,10.3878126 C38.7726202,10.3878126 35.3477439,13.7999368 35.3209755,18.0187466" id="Fill-7" fill="#66CCFF"></path>
            <path d="M54.0372623,21.7087092 L58.7908953,21.7087092 C58.9620223,21.7087092 59.1280505,21.6838357 59.2861119,21.6387659 L59.2861119,25.1541042 L59.2861119,27.5227137 C59.2861119,29.3343284 57.8185202,30.8029236 56.0081435,30.8029236 L55.2447112,30.8029236 L54.3406382,30.8029236 L53.4372025,30.8029236 C53.4407079,30.8909373 53.4430449,30.9790573 53.4430449,31.0676024 L53.4430449,43.3888785 L33.5603435,43.3888785 L32.657439,43.3888785 L32.3486456,43.3888785 L32.3486456,32.5519296 C32.3486456,31.885343 32.4150356,31.2342757 32.5410174,30.6046803 C32.5671485,30.4736165 32.5961477,30.3435093 32.62759,30.2142525 C32.7727983,29.6154832 32.9718622,29.0377606 33.2206389,28.4872499 C33.8414124,27.1137902 34.7671551,25.9079604 35.9111882,24.9558609 C35.9406123,24.9315189 35.9701426,24.9074959 35.9996729,24.8834728 C36.0743484,24.8226711 36.1499799,24.7631449 36.2264612,24.7046817 C36.2832911,24.7627197 36.3409708,24.82012 36.3992878,24.8767761 C36.4266936,24.903244 36.453887,24.9297119 36.4815052,24.9558609 C36.8296015,25.2856995 37.2028728,25.5891766 37.5974952,25.863741 C39.1304147,26.9297906 40.9909291,27.5557719 42.9949523,27.5557719 C45.6852891,27.5557719 48.1173953,26.4284954 49.8445985,24.6212388 C49.9480608,24.6979851 51.5141221,24.8567923 51.5141221,24.8567923 L54.0378996,24.8567923 L54.0372623,21.7087092 Z" id="Fill-9" fill="#66CCFF"></path>
            <path d="M59.0289647,8.49329706 L59.4958194,7.58977508 L59.9307007,6.7475863 L62.7988567,7.07381088 C63.2942857,7.13004184 63.7415952,6.77384158 63.7980002,6.27796746 C63.8542989,5.78219964 63.4982359,5.33458422 63.0028069,5.27824696 L59.5164269,4.88176026 C59.1453862,4.83956047 58.7837995,5.03270158 58.6123539,5.36466618 L57.4630095,7.58977508 L56.9961548,8.49329706 L56.7125365,9.04242583 C56.6537946,9.15616331 56.6219274,9.27670377 56.6139606,9.39681904 L52.0565234,9.39681904 L53.7196736,18.2168943 L54.0372835,19.9016971 L58.7909166,19.9016971 L59.1085265,18.2168943 L60.7715704,9.39681904 L58.5622161,9.39681904 L59.0289647,8.49329706 Z" id="Fill-11" fill="#66CCFF"></path>
            <polygon id="Fill-13" fill="#66CCFF" points="7.02969334 6.9127076 2.86592253 9.73956214 7.39425433 11.9345891"></polygon>
            <polygon id="Fill-15" fill="#66CCFF" points="35.1072845 8.61994959 31.6782655 7.7004831 32.5969975 11.131847"></polygon>
            <polygon id="Fill-17" fill="#66CCFF" points="45.8441047 2.78935217 41.3479588 3.03596052 43.809489 6.80917461"></polygon>
            <mask id="mask-2" fill="white">
                <use xlink:href="#path-1"></use>
            </mask>
            <g id="Clip-20"></g>
            <polygon id="Fill-19" fill="#66CCFF" mask="url(#mask-2)" points="39.1488764 2.39006986 34.1246907 2.66569721 36.8753628 6.88184967"></polygon>
            <mask id="mask-4" fill="white">
                <use xlink:href="#path-3"></use>
            </mask>
            <g id="Clip-23"></g>
            <polygon id="Fill-22" fill="#66CCFF" mask="url(#mask-4)" points="62.0371558 25.7748238 63.915091 28.6533385 65.467237 25.5866786"></polygon>
            <polygon id="Fill-25" fill="#66CCFF" mask="url(#mask-4)" points="5.51298446 36.730857 7.37796033 33.0462943 3.25667914 33.2723874"></polygon>
            <polygon id="Fill-27" fill="#66CCFF" mask="url(#mask-4)" points="4.31599861 3.14446819 1.29966012 3.30997216 2.9510194 5.84121557"></polygon>
        </g>
    </g>
</svg>