<?xml version="1.0" encoding="UTF-8"?>
<svg width="60px" height="54px" viewBox="0 0 60 54" version="1.1" xmlns="http://www.w3.org/2000/svg" xmlns:xlink="http://www.w3.org/1999/xlink">
    <!-- Generator: Sketch 42 (36781) - http://www.bohemiancoding.com/sketch -->
    <title>icon_relationship_femaletrans_white</title>
    <desc>Created with Sketch.</desc>
    <defs></defs>
    <g id="Page-1" stroke="none" stroke-width="1" fill="none" fill-rule="evenodd">
        <g id="icon_relationship_femaletrans_white">
            <g id="Group-15">
                <path d="M33.0671863,22.4999657 C33.0671863,19.6998651 32.3667047,16.8997646 30.9657416,14.5001486 C30.5660939,13.8001234 29.6646905,13.4994857 28.9642089,13.8999703 C28.2637274,14.2993577 27.9639916,15.2001737 28.3636393,15.9001989 C29.4648666,17.9004275 30.0654362,20.2001966 30.0654362,22.4999657 C30.0654362,29.8996045 23.9609262,36.0001372 16.5564629,36.0001372 C9.15199967,36.0001372 3.04748964,29.8996045 3.04748964,22.4999657 C3.04748964,15.1003269 9.15199967,8.99979427 16.5564629,8.99979427 C18.3581717,8.99979427 20.1587826,9.40027888 21.8594815,10.100304 C22.659875,10.3998446 23.4602685,10.100304 23.8610142,9.30043203 C24.161848,8.50056004 23.8610142,7.69959083 23.0606207,7.30020344 C21.059088,6.4004846 18.8577315,6 16.6563749,6 C7.55011475,6 0.145651504,13.4007361 0.145651504,22.4999657 C0.145651504,31.0999611 6.74972126,38.2000594 15.1554998,38.9000846 L15.1554998,46.1000297 L11.6530921,46.1000297 C10.8526986,46.1000297 10.1522171,46.7989576 10.1522171,47.5999269 C10.1522171,48.3997988 10.8526986,49.099824 11.6530921,49.099824 L15.1554998,49.099824 L15.1554998,52.5001029 C15.1554998,53.2999749 15.8559814,54 16.6563749,54 C17.4567684,54 18.1572499,53.2999749 18.1572499,52.5001029 L18.1572499,49.099824 L21.6596576,49.099824 C22.4600511,49.099824 23.1605327,48.3997988 23.1605327,47.5999269 C23.1605327,46.7989576 22.4600511,46.1000297 21.6596576,46.1000297 L18.1572499,46.1000297 L18.1572499,38.9000846 C26.4631165,38.2000594 33.0671863,31.0999611 33.0671863,22.4999657" id="Fill-1" fill="#FFFFFF"></path>
                <path d="M59.2863526,1.4338375 C59.289806,1.2359789 59.2932784,1.03703317 59.1960186,0.936375931 C59.1004855,0.736789391 59.0032257,0.636132149 58.9066237,0.435439486 C58.809345,0.335869379 58.6131176,0.23239706 58.4168713,0.130011875 C58.220625,0.0276266901 58.1205508,0.0258797585 57.9225778,0.0224238722 L50.9809188,0.000207264273 C50.187939,-0.0136352695 49.48184,0.667842364 49.4680075,1.46036389 C49.454175,2.25288541 50.1360624,2.95859222 50.9290422,2.97243476 L54.3017485,2.93235047 L50.8702398,6.34146658 L48.4338116,3.92064647 C47.849184,3.31559689 46.9572178,3.30002642 46.3518319,3.88430269 C45.7464651,4.46749184 45.7308869,5.36002979 46.3155145,5.96507937 L48.7519427,8.38589948 L47.338018,9.84778404 C44.4055695,7.41830523 40.7601153,6.06602124 36.8924764,6.09746581 C32.5277296,6.12023269 28.4327071,7.83328085 25.303357,10.9497058 C22.1750946,14.0661497 20.5164813,18.2011051 20.5393796,22.562245 C20.5916885,25.2383254 21.2372586,28.0248088 22.4864688,30.3270325 C22.8703279,31.0264493 23.7581829,31.3399138 24.4590829,30.9563112 C25.1600018,30.5716215 25.4725395,29.6842674 25.0886803,28.9848505 C24.0305174,27.0828871 23.4752814,24.7938652 23.414339,22.6124313 C23.3776082,19.0438129 24.824397,15.6990103 27.3472926,13.1657555 C29.8712569,10.6336069 33.267106,9.20523201 36.8371465,9.2675519 C40.4067191,9.23199164 43.7534871,10.6780211 46.2882629,13.1995174 C48.8230387,15.7210138 50.2501215,19.1159837 50.1878658,22.6828742 C50.2256844,26.2515115 48.7788956,29.5963141 46.2560001,32.1295689 C43.7320358,34.6617175 40.3351178,36.0889863 36.7661651,36.0266854 C34.8821584,35.9937975 33.1034061,35.6658686 31.4305659,34.9428634 C30.6427662,34.632233 29.8446064,34.9151783 29.4337402,35.7007691 C29.1218605,36.4880878 29.4060752,37.2858121 30.1921292,37.696459 C32.1613089,38.5225092 34.2363439,38.9567445 36.4162223,38.9947972 L36.7142696,39 C41.0779476,38.976127 45.1740579,37.2630978 48.3023203,34.1466539 C51.4316704,31.030229 53.0902647,26.8963607 53.0673664,22.5352209 C53.0358347,18.6687275 51.7118306,14.9786786 49.2829671,12.0621058 L50.6968918,10.6002213 L53.1344078,13.0210604 C53.4261682,13.3241192 53.8203875,13.4299603 54.1184348,13.4351631 C54.5154685,13.4420939 54.9148679,13.2511471 55.2170264,12.9584559 C55.8224123,12.3741796 55.8379715,11.4827288 55.2533249,10.8787663 L52.9159021,8.45858702 L56.3474108,5.04947091 L56.387595,8.42023068 C56.3737625,9.2127522 57.0556499,9.91845901 57.8486296,9.93230155 C58.6416094,9.94614408 59.3477084,9.26466645 59.3615409,8.47214492 L59.2863526,1.4338375 Z" id="Fill-7" fill="#FFFFFF"></path>
                <rect id="Rectangle-2-Copy-21" opacity="0.496942935" x="0" y="0" width="60" height="54"></rect>
            </g>
        </g>
    </g>
</svg>