<?xml version="1.0" encoding="UTF-8"?>
<svg width="44px" height="26px" viewBox="0 0 44 26" version="1.1" xmlns="http://www.w3.org/2000/svg" xmlns:xlink="http://www.w3.org/1999/xlink">
    <!-- Generator: Sketch 42 (36781) - http://www.bohemiancoding.com/sketch -->
    <title>icon_swipe_gallery_outlineWhiteOff</title>
    <desc>Created with Sketch.</desc>
    <defs></defs>
    <g id="Page-1" stroke="none" stroke-width="1" fill="none" fill-rule="evenodd">
        <g id="icon_swipe_gallery_outlineWhiteOff">
            <g id="Group-3" transform="translate(5.000000, 0.000000)">
                <g id="Group-2">
                    <path d="M4.24934751,4.26529925 L4.24934751,2.8954562 L7.29480459,2.8954562 L7.29480459,4.22574451 C7.9827128,4.2895005 8.5408253,4.33096358 9.0430272,3.73035611 C9.84140176,2.77531736 10.7618945,1.91370065 11.6421027,1.02293835 C12.2949651,0.362304829 13.0691328,0.056536292 14.0563751,0.0783954896 C16.4179885,0.130614684 18.7817697,0.106847143 21.1443768,0.0875902314 C21.7857681,0.0822989177 22.3516484,0.244768271 22.7954107,0.66026651 C23.6670381,1.47634322 24.5765112,2.27316301 25.3243043,3.18803982 C26.0129351,4.03074659 26.7616314,4.37051832 27.8782177,4.28273456 C29.1787942,4.18055148 30.4949064,4.2536757 31.8042443,4.2603549 C33.567551,4.26937616 34.6819696,5.33587947 34.6835051,7.02693128 C34.6879309,12.0567153 34.6882019,17.0864125 34.6830534,22.1160231 C34.6814276,23.608347 33.7468443,24.781544 32.3748215,25.0352668 C32.1701472,25.073 31.9561694,25.0754288 31.7464369,25.0755155 C22.2348594,25.0774239 12.7233723,25.0778576 3.21179477,25.0765564 C1.35211225,25.076383 0.00203818894,23.7760209 0.00140592037,21.9840872 C-0.000490885357,17.02656 -0.000400561275,12.0692063 0.00140592037,7.11176578 C0.00194786486,5.53625545 1.19151603,4.34024507 2.83505303,4.2682485 C3.28378307,4.24864462 3.73440991,4.26529925 4.24934751,4.26529925" id="Path" stroke="#FFFFFF" stroke-width="1.5"></path>
                    <path d="M23.6163121,15.0075722 C23.6172153,11.4851706 20.8127429,8.65100173 17.3314721,8.65594185 C13.8684468,8.66088198 11.0880006,11.4700757 11.0688518,14.9835119 C11.0496128,18.4963993 13.8563433,21.3548113 17.3302075,21.3602088 C20.8066008,21.3656979 23.6154088,18.5269549 23.6163121,15.0075722 M17.3324657,22.8234926 C13.0677238,22.8143442 9.60370491,19.2921255 9.62366653,14.9853416 C9.64371848,10.6567845 13.1162278,7.16548741 17.3745567,7.19265811 C21.6323436,7.21973732 25.0586973,10.702069 25.0614974,15.0051021 C25.0642071,19.317741 21.5896203,22.832641 17.3324657,22.8234926" id="Fill-4" fill="#FFFFFF"></path>
                    <path d="M20.2315616,15.055958 C20.2093419,16.6454894 18.9019008,17.9415407 17.327281,17.9350454 C15.7373062,17.928367 14.4432331,16.5975519 14.453801,14.9798434 C14.4642786,13.3616776 15.7688293,12.0707494 17.37994,12.0841975 C18.9742504,12.0974626 20.2543233,13.4315712 20.2315616,15.055958 Z" id="Fill-8" fill="#FFFFFF"></path>
                </g>
                <polygon id="Fill-6" fill="#FFFFFF" points="28 11 31 11 31 8 28 8"></polygon>
            </g>
        </g>
    </g>
</svg>