<?xml version="1.0" encoding="UTF-8"?>
<svg width="68px" height="45px" viewBox="0 0 68 45" version="1.1" xmlns="http://www.w3.org/2000/svg" xmlns:xlink="http://www.w3.org/1999/xlink">
    <!-- Generator: Sketch 42 (36781) - http://www.bohemiancoding.com/sketch -->
    <title>icon_onboarding_typeofdate_romance_blueoff</title>
    <desc>Created with Sketch.</desc>
    <defs></defs>
    <g id="Page-1" stroke="none" stroke-width="1" fill="none" fill-rule="evenodd">
        <g id="icon_onboarding_typeofdate_romance_blueoff" fill="#66CCFF">
            <path d="M42.0141612,7.57219648 L42.0287213,7.57243695 L42.0287213,7.00144282 L42.0005984,7 C42.0003989,7.19117302 42.0001995,7.38246628 42,7.5736393 L42.0141612,7.57219648 Z" id="Fill-1"></path>
            <path d="M11.7810299,22.7820205 C12.0058851,23.0550733 12.249269,23.3118944 12.5085517,23.5517625 C13.8906759,24.8308182 15.7349425,25.6124633 17.7610299,25.6124633 C19.825131,25.6124633 21.6995218,24.8005191 23.0898943,23.4787801 C23.3457103,23.2354252 23.5853885,22.9753578 23.8065379,22.6994194 C24.0201563,22.4328592 24.2178759,22.1527126 24.3955126,21.8588592 C25.1104828,20.6775543 25.5222989,19.2902874 25.5222989,17.8062317 C25.5222989,13.4949795 22.0475034,10 17.7610299,10 C13.4747954,10 10,13.4949795 10,17.8062317 C10,19.3274399 10.4340506,20.7458475 11.1822529,21.9461496 C11.3643126,22.2380792 11.5635862,22.5177449 11.7810299,22.7820205" id="Fill-3"></path>
            <path d="M34.0909305,34.1836854 C34.3459747,34.1361335 34.5982716,34.0494201 34.8397241,33.9209179 L35.6372966,33.4964897 L36.6533885,32.9556745 L37.6694805,32.4148592 L37.6694805,43.0238798 L59,43.0238798 L59,32.0095484 C59,28.8322287 57.530492,26.0016657 55.239623,24.162437 C53.4600276,25.9968563 50.9780138,27.1388446 48.2345655,27.1388446 C45.6285885,27.1388446 43.258823,26.1077126 41.5024184,24.4322434 L41.2750529,24 L41.1610115,24.0607185 L41.1423632,24.0705777 L38.2902529,25.5886598 L36.5691126,26.5047273 L34.0909305,27.8237847 L34.0909305,34.1836854 Z M32.0679041,34.262005 C31.7590401,34.2240793 31.4517358,34.1298284 31.1602759,33.9746628 L30.362823,33.5502346 L29.346731,33.0094194 L28.3306391,32.4686041 L28.3306391,43.0776246 L7,43.0776246 L7,32.0632933 C7,28.8859736 8.46950805,26.0554106 10.760377,24.2161818 C12.5399724,26.0506012 15.0219862,27.1925894 17.7654345,27.1925894 C20.3714115,27.1925894 22.741177,26.1614575 24.4975816,24.4859883 L24.7249471,24.0538651 L24.839108,24.1145836 L24.8576368,24.1244428 L27.7096276,25.6425249 L29.4308874,26.5585924 L32.0679041,27.9621652 L32.0679041,34.262005 Z" id="Combined-Shape"></path>
            <path d="M41.1267862,21.8588592 C41.304423,22.1525924 41.5022621,22.432739 41.7158805,22.6994194 C41.9369103,22.9753578 42.1765885,23.2354252 42.4325241,23.4787801 C43.8228966,24.8005191 45.6971678,25.6124633 47.761269,25.6124633 C49.7873563,25.6124633 51.631623,24.8308182 53.0137471,23.5517625 C53.2730299,23.3118944 53.5165333,23.0549531 53.741269,22.7820205 C53.9588322,22.5176246 54.1581057,22.2379589 54.340046,21.9461496 C55.0882483,20.7458475 55.5224184,19.3273196 55.5224184,17.8062317 C55.5224184,13.4949795 52.0475034,10 47.761269,10 C43.4749149,10 40,13.4949795 40,17.8062317 C40,19.2902874 40.4119356,20.6775543 41.1267862,21.8588592" id="Fill-7"></path>
            <path d="M27.7496571,13.7909385 C29.4288387,15.5808711 31.1088571,17.3703227 32.7864847,19.1619385 C32.846972,19.2265045 32.8753031,19.2363637 32.9416479,19.1654253 C34.564526,17.4309209 36.1902732,15.6990617 37.8151835,13.966481 C38.6893812,13.0344224 39.5735008,12.111742 40.4335927,11.166698 C41.2193306,10.3031731 41.6442962,9.27336373 41.7230732,8.10251916 C41.7231927,7.91134614 41.7233122,7.72017312 41.7234318,7.52900009 C41.7124341,7.28143704 41.6797996,7.03651916 41.6260065,6.79496784 C41.3722226,5.6562259 40.8103835,4.70517018 39.8843053,3.9943432 C39.4319651,3.64710567 38.9529674,3.39124643 38.4495835,3.22339892 C38.4495835,3.22339892 37.3454992,3.02978516 36.8320312,3.02978516 C36.3183697,3.02978516 35.368195,3.22339892 35.368195,3.22339892 C34.7349904,3.42827869 34.1585674,3.76313206 33.6395237,4.22411153 C33.378926,4.45556314 33.1568203,4.72488866 32.9171421,4.97690039 C32.8773352,5.01886226 32.855818,5.02391212 32.8146962,4.97822297 C32.673041,4.8205954 32.5252893,4.66861886 32.3826778,4.51183294 C31.9445628,4.03005288 31.431018,3.65456021 30.8325996,3.39990332 C29.9456111,3.02236666 29.0227605,2.92353382 28.0731329,3.05555141 C26.982926,3.20704702 26.0444157,3.66526109 25.3000387,4.4891086 C24.2603973,5.63975376 23.8406916,6.99431681 24.0539513,8.53271857 C24.1952479,9.55182707 24.629418,10.4449297 25.3247835,11.1997626 C26.1263008,12.0697802 26.9403697,12.928135 27.7496571,13.7909385 Z" id="Fill-9"></path>
        </g>
    </g>
</svg>