<?xml version="1.0" encoding="UTF-8"?>
<svg width="68px" height="45px" viewBox="0 0 68 45" version="1.1" xmlns="http://www.w3.org/2000/svg" xmlns:xlink="http://www.w3.org/1999/xlink">
    <!-- Generator: Sketch 42 (36781) - http://www.bohemiancoding.com/sketch -->
    <title>icon_onboarding_typeofdate_party_whiteon</title>
    <desc>Created with Sketch.</desc>
    <defs>
        <polygon id="path-1" points="37.1488764 0.390080487 32.1246907 0.390080487 32.1246907 4.88184967 37.1488764 4.88184967 37.1488764 0.390080487"></polygon>
        <polygon id="path-3" points="63.4672264 26.6533385 63.4672264 23.5866786 60.0371558 23.5866786 60.0371558 26.6533385 63.4672264 26.6533385"></polygon>
    </defs>
    <g id="Page-1" stroke="none" stroke-width="1" fill="none" fill-rule="evenodd">
        <g id="icon_onboarding_typeofdate_party_whiteon">
            <g id="Group-2" transform="translate(2.000000, 2.000000)">
                <path d="M31.3712859,22.9272458 C31.5595149,22.7092312 31.7565606,22.497063 31.9622104,22.2912726 C32.3194419,21.9337968 32.6959,21.6030015 33.0888228,21.2985677 C32.0942469,19.7980834 31.5139448,17.9998621 31.5139448,16.0682384 C31.5139448,16.0516561 31.5144759,16.0352864 31.5145822,16.0187041 L29.6554486,16.0187041 L29.6554486,22.658634 L29.0747217,22.658634 L27.8255267,22.658634 C27.8255267,22.658634 26.2594653,22.4998267 26.1560031,22.4230805 C24.4287998,24.2302308 21.9966937,25.3575073 19.3063569,25.3575073 C16.7500748,25.3575073 14.4272732,24.3396101 12.720465,22.6880782 L12.720465,22.5594592 L12.5895969,22.5594592 C12.5721762,22.5419202 12.5551803,22.5240624 12.5378658,22.5064171 C12.5148152,22.5240624 12.4916583,22.5416013 12.4688202,22.5594592 L11.0955555,22.5594592 L9.8326576,22.5594592 L9.25426758,22.5594592 L9.25426758,15.9196356 L3.31219973,15.9196356 L3.31219973,25.2253805 C3.31219973,27.0369952 4.77979138,28.5055905 6.59016809,28.5055905 L6.99955562,28.5055905 L7.91605684,28.5055905 L8.83330162,28.5055905 C8.72006677,29.1043598 8.66005017,29.72205 8.66005017,30.3537713 L8.66005017,41.1907202 L28.5428578,41.1907202 L28.5428578,30.5519083 C28.5428578,29.8927625 28.5976694,29.2421204 28.7039997,28.6047653 C28.8291316,27.8537791 29.0267084,27.1215011 29.2930121,26.4161162 C29.4363084,26.0364244 29.5989374,25.6643859 29.7816428,25.3017016 C29.9421474,24.983024 30.1181606,24.6717873 30.3081955,24.3680976 C30.6166702,23.8753061 30.963173,23.4032424 31.3469606,22.9559459 C31.3552461,22.9463792 31.3631066,22.9367062 31.3712859,22.9272458" id="Fill-1" fill="#ff738e"></path>
                <path d="M13.4609104,20.8446595 C13.6637984,21.0831893 13.880283,21.3097076 14.1104706,21.5216632 C15.477468,22.780854 17.3018663,23.5505484 19.3063144,23.5505484 C21.3474097,23.5505484 23.2010196,22.7516224 24.5759839,21.4511885 C24.8038345,21.2356188 25.019788,21.0076124 25.2200204,20.7656811 C25.4136669,20.531722 25.5922295,20.2849011 25.7575141,20.028726 C26.5308253,18.8299118 26.9814278,17.4030911 26.9814278,15.8700801 C26.9814278,13.0442885 25.4553067,10.5765042 23.1839176,9.24279949 L21.1732023,9.29371561 C19.2273899,9.34303728 18.7113534,9.47218778 17.5051792,9.83848622 C16.0414116,10.283019 14.0838083,11.4472868 14.0644755,11.4588732 L12.4463644,12.4262795 C11.9258665,13.4623534 11.6310947,14.6315109 11.6310947,15.8700801 C11.6310947,17.4375313 12.1014549,18.8946465 12.9070582,20.1097241 C13.0770167,20.3661117 13.2622714,20.6111257 13.4609104,20.8446595" id="Fill-3" fill="#ff738e"></path>
                <path d="M17.2276157,8.92302712 C18.4786165,8.5431227 19.0940787,8.40249216 20.853999,8.34583602 C20.9490695,8.34285971 21.0467956,8.3399897 21.148877,8.33733228 L20.2819824,7.34324551 L19.4457866,6.38434294 L14.8074066,1.06525589 L13.9037585,8.07818092 L13.7403859,9.34640689 L13.5739328,10.6375929 C13.5739328,10.6375929 13.6691096,10.5808305 13.8335444,10.4871831 C14.4355162,10.1441636 15.9728971,9.3039945 17.2276157,8.92302712" id="Fill-5" fill="#ff738e"></path>
                <path d="M33.3209755,16.0187466 C33.3208692,16.0353289 33.3197008,16.0516986 33.3197008,16.0682809 C33.3197008,17.6357321 33.7900609,19.0928473 34.5956642,20.3080312 C34.7656227,20.5643126 34.9508775,20.8093265 35.1495165,21.0428603 C35.2922816,21.2105965 35.4412077,21.3728053 35.5975696,21.5275733 C35.6635347,21.5929458 35.7308808,21.6569364 35.7990766,21.719864 C37.1660741,22.9790548 38.9904724,23.7487492 40.9949204,23.7487492 C43.0360158,23.7487492 44.8896257,22.9498232 46.2645899,21.6493893 C46.4924406,21.4338196 46.7083941,21.2058132 46.9086264,20.9638819 C47.1022729,20.7299228 47.2808356,20.4832082 47.4461202,20.2269268 C48.2194314,19.0282189 48.6700338,17.601292 48.6700338,16.0682809 C48.6700338,11.8265109 45.2336854,8.38781258 40.9949204,8.38781258 C36.7726202,8.38781258 33.3477439,11.7999368 33.3209755,16.0187466" id="Fill-7" fill="#ff738e"></path>
                <path d="M52.0372623,19.7087092 L56.7908953,19.7087092 C56.9620223,19.7087092 57.1280505,19.6838357 57.2861119,19.6387659 L57.2861119,23.1541042 L57.2861119,25.5227137 C57.2861119,27.3343284 55.8185202,28.8029236 54.0081435,28.8029236 L53.2447112,28.8029236 L52.3406382,28.8029236 L51.4372025,28.8029236 C51.4407079,28.8909373 51.4430449,28.9790573 51.4430449,29.0676024 L51.4430449,41.3888785 L31.5603435,41.3888785 L30.657439,41.3888785 L30.3486456,41.3888785 L30.3486456,30.5519296 C30.3486456,29.885343 30.4150356,29.2342757 30.5410174,28.6046803 C30.5671485,28.4736165 30.5961477,28.3435093 30.62759,28.2142525 C30.7727983,27.6154832 30.9718622,27.0377606 31.2206389,26.4872499 C31.8414124,25.1137902 32.7671551,23.9079604 33.9111882,22.9558609 C33.9406123,22.9315189 33.9701426,22.9074959 33.9996729,22.8834728 C34.0743484,22.8226711 34.1499799,22.7631449 34.2264612,22.7046817 C34.2832911,22.7627197 34.3409708,22.82012 34.3992878,22.8767761 C34.4266936,22.903244 34.453887,22.9297119 34.4815052,22.9558609 C34.8296015,23.2856995 35.2028728,23.5891766 35.5974952,23.863741 C37.1304147,24.9297906 38.9909291,25.5557719 40.9949523,25.5557719 C43.6852891,25.5557719 46.1173953,24.4284954 47.8445985,22.6212388 C47.9480608,22.6979851 49.5141221,22.8567923 49.5141221,22.8567923 L52.0378996,22.8567923 L52.0372623,19.7087092 Z" id="Fill-9" fill="#ff738e"></path>
                <path d="M57.0289647,6.49329706 L57.4958194,5.58977508 L57.9307007,4.7475863 L60.7988567,5.07381088 C61.2942857,5.13004184 61.7415952,4.77384158 61.7980002,4.27796746 C61.8542989,3.78219964 61.4982359,3.33458422 61.0028069,3.27824696 L57.5164269,2.88176026 C57.1453862,2.83956047 56.7837995,3.03270158 56.6123539,3.36466618 L55.4630095,5.58977508 L54.9961548,6.49329706 L54.7125365,7.04242583 C54.6537946,7.15616331 54.6219274,7.27670377 54.6139606,7.39681904 L50.0565234,7.39681904 L51.7196736,16.2168943 L52.0372835,17.9016971 L56.7909166,17.9016971 L57.1085265,16.2168943 L58.7715704,7.39681904 L56.5622161,7.39681904 L57.0289647,6.49329706 Z" id="Fill-11" fill="#ff738e"></path>
                <polygon id="Fill-13" fill="#ff738e" points="5.02969334 4.9127076 0.865922535 7.73956214 5.39425433 9.93458907"></polygon>
                <polygon id="Fill-15" fill="#ff738e" points="33.1072845 6.61994959 29.6782655 5.7004831 30.5969975 9.13184699"></polygon>
                <polygon id="Fill-17" fill="#ff738e" points="43.8441047 0.789352166 39.3479588 1.03596052 41.809489 4.80917461"></polygon>
                <mask id="mask-2" fill="white">
                    <use xlink:href="#path-1"></use>
                </mask>
                <g id="Clip-20"></g>
                <polygon id="Fill-19" fill="#ff738e" mask="url(#mask-2)" points="37.1488764 0.390069858 32.1246907 0.66569721 34.8753628 4.88184967"></polygon>
                <mask id="mask-4" fill="white">
                    <use xlink:href="#path-3"></use>
                </mask>
                <g id="Clip-23"></g>
                <polygon id="Fill-22" fill="#ff738e" mask="url(#mask-4)" points="60.0371558 23.7748238 61.915091 26.6533385 63.467237 23.5866786"></polygon>
                <polygon id="Fill-25" fill="#ff738e" mask="url(#mask-4)" points="3.51298446 34.730857 5.37796033 31.0462943 1.25667914 31.2723874"></polygon>
                <polygon id="Fill-27" fill="#ff738e" mask="url(#mask-4)" points="2.31599861 1.14446819 -0.700339878 1.30997216 0.951019401 3.84121557"></polygon>
            </g>
        </g>
    </g>
</svg>
