<?xml version="1.0" encoding="UTF-8"?>
<svg width="78px" height="54px" viewBox="0 0 78 54" version="1.1" xmlns="http://www.w3.org/2000/svg" xmlns:xlink="http://www.w3.org/1999/xlink">
    <!-- Generator: Sketch 42 (36781) - http://www.bohemiancoding.com/sketch -->
    <title>icon_relationship_femalebisexual_white</title>
    <desc>Created with Sketch.</desc>
    <defs></defs>
    <g id="Page-1" stroke="none" stroke-width="1" fill="none" fill-rule="evenodd">
        <g id="icon_relationship_femalebisexual_white">
            <g id="Group-24">
                <rect id="Rectangle-2-Copy-39" opacity="0.496942935" x="0" y="0" width="78" height="54"></rect>
                <path d="M32.837037,22.6 C32.837037,19.8 32.1404938,17 30.7474074,14.6 C30.3493827,13.9 29.4538272,13.6 28.757284,14 C28.0607407,14.4 27.7622222,15.3 28.1602469,16 C29.2548148,18 29.8518519,20.3 29.8518519,22.5 C29.8518519,30 23.7819753,36.1 16.4185185,36.1 C9.05506173,36.1 2.98518519,30 2.98518519,22.6 C2.98518519,15.2 9.05506173,9.1 16.4185185,9.1 C18.2096296,9.1 20.0007407,9.4 21.5928395,10.1 C22.3888889,10.4 23.1849383,10.1 23.582963,9.3 C23.9809877,8.5 23.582963,7.7 22.7869136,7.3 C20.7967901,6.5 18.6076543,6 16.4185185,6 C7.36345679,6 0,13.4 0,22.5 C0,31.1001953 6.56740741,38.2 14.9259259,38.9 L14.9259259,46.1 L11.4432099,46.1 C10.6471605,46.1 9.95061728,46.8 9.95061728,47.6 C9.95061728,48.4 10.6471605,49.1 11.4432099,49.1 L14.9259259,49.1 L14.9259259,52.5 C14.9259259,53.3 15.6224691,54 16.4185185,54 C17.2145679,54 17.9111111,53.3 17.9111111,52.5 L17.9111111,49.1 L21.3938272,49.1 C22.1898765,49.1 22.8864198,48.4 22.8864198,47.6 C22.8864198,46.8 22.1898765,46.1 21.3938272,46.1 L17.9111111,46.1 L17.9111111,38.9 C26.2696296,38.3 32.837037,31.2 32.837037,22.6" id="Fill-1-Copy-3" fill="#ff738e"></path>
                <path d="M48.3989333,30.9723871 C48.5959556,31.0714839 48.8919704,31.1705806 49.0891852,31.1705806 C49.5822222,31.1705806 50.0752593,30.8732903 50.3710815,30.3778065 C51.7515852,27.9003871 52.441837,25.1256774 52.441837,22.3509677 C52.5404444,13.3331613 45.2434963,6 36.2702222,6 C27.2969481,6 20,13.3331613 20,22.3509677 C20,25.1256774 20.6902519,27.9003871 22.0707556,30.2787097 C22.4651852,30.9723871 23.3526519,31.2696774 24.0429037,30.8732903 C24.7331556,30.4769032 25.0289778,29.5850323 24.6345481,28.8913548 C23.5498667,26.9094194 22.9582222,24.6301935 22.9582222,22.4500645 C22.9582222,15.0178065 28.9732741,8.97290323 36.2702222,8.97290323 C43.5671704,8.97290323 49.5822222,15.0178065 49.5822222,22.3509677 C49.5822222,24.6301935 48.9903852,26.9094194 47.8072889,28.9904516 C47.4128593,29.684129 47.7086815,30.576 48.3989333,30.9723871" id="Fill-3-Copy-2" fill="#ff738e"></path>
                <path d="M41.2412354,35.2117275 C37.987191,36.4972409 34.2401095,36.4972409 31.0846725,35.1128418 C30.2958132,34.8161849 29.506954,35.1128418 29.1125243,35.903927 C28.8167021,36.6950122 29.1125243,37.4860973 29.9013836,37.8816399 C31.4791021,38.5738394 33.0568206,38.969382 34.7331466,39.0682676 L34.7331466,46.1880341 L31.2818873,46.1880341 C30.493028,46.1880341 29.8027762,46.8802336 29.8027762,47.6713187 C29.8027762,48.4624039 30.493028,49.1546034 31.2818873,49.1546034 L34.7331466,49.1546034 L34.7331466,52.5167153 C34.7331466,53.3078005 35.4233984,54 36.2122577,54 C37.0011169,54 37.6913688,53.3078005 37.6913688,52.5167153 L37.6913688,49.1546034 L41.142628,49.1546034 C41.9314873,49.1546034 42.6217391,48.4624039 42.6217391,47.6713187 C42.6217391,46.8802336 41.9314873,46.1880341 41.142628,46.1880341 L37.6913688,46.1880341 L37.6913688,39.0682676 C39.2690873,38.969382 40.8468058,38.5738394 42.3259169,37.9805255 C43.1149688,37.6838686 43.4105984,36.7938978 43.1149688,36.0028126 C42.818954,35.2117275 41.9314873,34.9150705 41.2412354,35.2117275" id="Fill-5-Copy-2" fill="#ff738e"></path>
                <path d="M78,1.39108712 C78,1.19236039 78,0.993633657 77.9011273,0.894270291 C77.703382,0.496816828 77.5056366,0.198726731 77.110339,0.0993633657 C76.9124005,0 76.7146551,0 76.6157824,0 L69.595822,0 C68.8048405,0 68.1127318,0.69554356 68.1127318,1.49045049 C68.1127318,2.28535741 68.8048405,2.98090097 69.595822,2.98090097 L72.9574932,2.98090097 L66.0364054,9.93633657 C63.7623337,7.94906925 60.8950259,6.6573455 57.6322274,6.16052867 C54.962665,5.76307521 52.1942299,6.16052867 49.6237333,7.15416233 C48.8325587,7.45225243 48.437068,8.34652272 48.733686,9.04206628 C49.0303041,9.73760984 49.9201582,10.2344267 50.612267,9.93633657 C52.6885933,9.14142964 54.962665,8.84333955 57.137864,9.14142964 C64.4544425,10.1350633 69.595822,16.8917722 68.6070952,24.1452979 C67.6183683,31.4981869 60.8950259,36.6650819 53.6773201,35.6714483 C50.1179036,35.1746314 46.9539777,33.3860909 44.7787787,30.5045533 C42.6035797,27.6228216 41.6148529,24.1452979 42.1094094,20.5682167 C42.3069617,18.7796761 42.9001978,16.9911355 43.8889246,15.500685 C44.2844153,14.8051415 44.0866699,13.9108712 43.3945612,13.4140544 C42.7024524,13.0166009 41.8125982,13.2153276 41.3182348,13.9108712 C40.2306353,15.7987751 39.4396539,17.8854058 39.1430358,20.1707632 C37.9565636,29.1134661 44.2844153,37.3606255 53.1829567,38.5529859 C53.8750655,38.6523492 54.5671743,38.6523492 55.2592831,38.6523492 C63.3670361,38.6523492 70.3868035,32.5911839 71.3755303,24.3440246 C71.9689595,19.6739464 70.5847419,15.2025949 67.8163068,11.8242405 L74.8360742,4.76944155 L74.8360742,8.24715935 C74.8360742,9.04206628 75.6747168,9.73760984 76.4656982,9.73760984 C77.2568728,9.73760984 78,9.04206628 78,8.24715935 L78,1.39108712 Z" id="Fill-7-Copy-2" fill="#ff738e"></path>
            </g>
        </g>
    </g>
</svg>
