<?xml version="1.0" encoding="UTF-8"?>
<svg width="32px" height="32px" viewBox="0 0 32 32" version="1.1" xmlns="http://www.w3.org/2000/svg" xmlns:xlink="http://www.w3.org/1999/xlink">
    <!-- Generator: Sketch 42 (36781) - http://www.bohemiancoding.com/sketch -->
    <title>icon_swipe_friends_pink</title>
    <desc>Created with Sketch.</desc>
    <defs></defs>
    <g id="Page-1" stroke="none" stroke-width="1" fill="none" fill-rule="evenodd">
        <g id="icon_swipe_friends_pink" stroke-width="2" stroke="#FF738E">
            <g id="Fill-1">
                <path d="M2.15102784,31.7506533 C1.59274232,31.7506533 0.962633166,31.7093321 0.544910454,31.2165883 C0.127187741,30.7238444 0.185351663,30.0844771 0.272597546,29.5237533 C0.425057523,28.5435974 0.570907964,27.6078728 0.967480159,26.6899208 C1.54515366,25.352981 2.47974213,24.2013201 3.74612934,23.2678171 C5.5329074,21.9499828 7.52193728,21.1426649 9.23204471,20.5272905 C10.0939283,20.2171596 10.9734373,19.9350204 11.8247456,19.6622118 L12.5262377,19.4369448 C12.7967881,19.349415 12.7967881,19.3391958 12.7954662,19.0863814 L12.7954662,18.6469552 C12.79811,17.9071729 12.79811,17.9071729 12.2429089,17.380217 L12.0873645,17.2318162 C10.5473425,15.762471 9.7048469,13.8643631 9.14259565,12.3750237 C8.52350239,10.7359507 8.20404145,9.23905799 8.16526551,7.79903746 C8.09432315,5.1633689 9.22675708,2.95157556 11.4409518,1.4031425 C12.7536058,0.485190503 14.2980342,-3.41060513e-13 15.9085579,-3.41060513e-13 C19.1326899,-3.41060513e-13 22.073493,1.96475495 23.2257556,4.88878307 C23.775669,6.28437223 23.8673213,7.82525196 23.5059999,9.59895204 C22.9587303,12.2870496 21.9734687,14.4699626 20.4938138,16.2716544 C20.1280861,16.717301 19.692738,17.0874143 19.2763371,17.4206495 C19.0771698,17.5801581 19.0789323,17.6619118 19.0806949,17.7565506 C19.0873044,18.0462431 19.0859825,18.3363799 19.0846606,18.6260724 L19.0833387,19.0766065 C19.08422,19.2712158 19.1163864,19.328088 19.116827,19.3285323 C19.116827,19.3285323 19.1608906,19.3756295 19.3419919,19.4320574 C21.0939597,19.9798961 23.1543726,20.6681379 25.1539777,21.621635 C26.4018582,22.216571 28.0066537,23.0754293 29.352796,24.4479141 C30.754899,25.8777155 31.5326212,27.7047332 31.6656932,29.8778712 C31.6899281,30.2697559 31.6753872,30.8402546 31.2748492,31.2694616 C30.874752,31.6991129 30.3076537,31.748876 29.9159285,31.748876 C26.4014176,31.7502089 15.0101016,31.7506533 7.65060292,31.7506533 L2.15102784,31.7506533 Z"></path>
            </g>
        </g>
    </g>
</svg>