<?xml version="1.0" encoding="UTF-8"?>
<svg width="86px" height="72px" viewBox="0 0 86 72" version="1.1" xmlns="http://www.w3.org/2000/svg" xmlns:xlink="http://www.w3.org/1999/xlink">
    <!-- Generator: Sketch 42 (36781) - http://www.bohemiancoding.com/sketch -->
    <title>icon_location_inflight_whiteon</title>
    <desc>Created with Sketch.</desc>
    <defs></defs>
    <g id="Page-1" stroke="none" stroke-width="1" fill="none" fill-rule="evenodd">
        <g id="icon_location_inflight_whiteon">
            <g id="icon_inflight">
                <rect id="Rectangle" x="0" y="0" width="86" height="72"></rect>
                <g transform="translate(8.000000, 1.000000)" stroke="#FFFFFF" stroke-width="2">
                    <path d="M0.504225,31.4582029 C0.6712875,30.4954493 1.877175,30.3889275 3.3058125,30.2083478 C4.73445,30.0267536 18.2017125,34.530087 18.2017125,34.530087 C18.2017125,34.530087 29.9457,29.6493623 31.37535,29.4677681 C32.207625,29.3632754 34.3166625,29.5428406 36.0055125,29.9253043 C35.9528625,29.4982029 35.913375,29.0670435 35.913375,28.6247246 C35.913375,22.4413913 40.915125,17.4297971 47.0853,17.4297971 C53.2564875,17.4297971 58.2582375,22.4413913 58.2582375,28.6247246 C58.2582375,28.9442899 58.236975,29.2587826 58.21065,29.5722609 C58.970025,29.3409565 59.7749625,29.2141449 60.610275,29.2141449 C64.4830875,29.2141449 67.7230875,31.8974783 68.600925,35.506029 C68.9958,35.3426957 69.42105,35.2453043 69.8574375,35.1813913 C69.85845,35.1205217 69.8625,35.0606667 69.8625,34.9997971 C69.8625,15.6696522 54.223425,-0.000202898551 34.93125,-0.000202898551 C15.639075,-0.000202898551 0,15.6696522 0,34.9997971 C0,37.3128406 0.2298375,39.5711014 0.6561,41.7583478 C3.2167125,41.0005217 7.5704625,39.0344348 7.5704625,39.0344348 C7.5704625,39.0344348 0.33615,32.4209565 0.504225,31.4582029 Z" id="Stroke-1"></path>
                    <path d="M31.8304688,59.8550725 L15.7438688,59.922029 C14.5784813,59.7921739 13.6692563,58.8131884 13.6692563,57.6089855 C13.6692563,56.3175362 14.7141563,55.2695652 16.0040813,55.2695652 C16.3179563,55.2695652 16.6166438,55.3334783 16.8890063,55.446087 C17.2767938,53.8533333 18.7054313,52.6704348 20.4145313,52.6704348 C20.7830813,52.6704348 21.1374563,52.7262319 21.4736063,52.8276812 C21.4624688,52.6907246 21.4523438,52.5517391 21.4523438,52.4097101 C21.4523438,49.6827536 23.6595938,47.4711594 26.3822063,47.4711594 C29.1048188,47.4711594 31.3110563,49.6827536 31.3110563,52.4097101 C31.3110563,52.6795652 31.2847313,52.9423188 31.2432188,53.1989855 C33.0161063,53.2994203 34.4255063,54.7673913 34.4255063,56.5701449 C34.4255063,58.1669565 33.3178313,59.502029 31.8304688,59.8550725 Z M28.8557438,38.0526087 C28.8557438,37.657971 28.8952313,37.2724638 28.9519313,36.8950725 C25.7564813,38.2027536 22.3747313,39.4607246 22.3747313,39.4607246 C22.3747313,39.4607246 18.0513563,44.2450725 16.8444563,44.3526087 C15.6385688,44.4581159 12.6152438,42.1592754 12.6152438,42.1592754 C12.6152438,42.1592754 6.47645625,44.9481159 1.83616875,46.195942 C6.49771875,60.0326087 19.5488438,70 34.9317563,70 C50.5202063,70 63.7191563,59.7657971 68.2146563,45.6389855 L34.7363438,45.4989855 C31.3667438,44.6995652 28.8557438,41.6723188 28.8557438,38.0526087 Z" id="Stroke-3"></path>
                    <path d="M68.2142513,45.6392899 L71.1950513,45.6524783 C73.8376763,45.3562464 75.9001387,43.1355217 75.9001387,40.4085652 C75.9001387,37.4797246 73.5308888,35.1058116 70.6067888,35.1058116 C70.3506263,35.1058116 70.1045888,35.1453768 69.8575388,35.1808841" id="Stroke-5"></path>
                    <path d="M31.2431175,53.1994928 C31.28463,52.9418116 31.310955,52.679058 31.310955,52.4102174 C31.310955,49.6822464 29.1047175,47.4716667 26.382105,47.4716667 C23.6594925,47.4716667 21.4522425,49.6822464 21.4522425,52.4102174 C21.4522425,52.5512319 21.4623675,52.6902174 21.473505,52.8281884 C21.1383675,52.7257246 20.78298,52.670942 20.41443,52.670942 C18.70533,52.670942 17.2766925,53.8538406 16.888905,55.4465942 C16.6165425,55.3339855 16.317855,55.2700725 16.00398,55.2700725 C14.714055,55.2700725 13.669155,56.317029 13.669155,57.6094928 C13.669155,58.8126812 14.57838,59.7916667 15.7437675,59.9225362 L31.8303675,59.8555797 C33.31773,59.5025362 34.425405,58.1664493 34.425405,56.5696377 C34.425405,54.7678986 33.016005,53.2999275 31.2431175,53.1994928 Z" id="Stroke-7"></path>
                    <path d="M68.6008237,35.5062319 C67.7229862,31.8966667 64.4839988,29.2143478 60.6101738,29.2143478 C59.7748613,29.2143478 58.9699237,29.3411594 58.2105488,29.5714493 C58.2368737,29.2589855 58.2581362,28.9444928 58.2581362,28.6249275 C58.2581362,22.4415942 53.2563862,17.43 47.0851987,17.43 C40.9150237,17.43 35.9132738,22.4415942 35.9132738,28.6249275 C35.9132738,29.0662319 35.9527613,29.4984058 36.0064237,29.9255072 C37.2163612,30.2004348 38.2136737,30.5768116 38.3695987,31.0272464 C38.7391612,32.1097101 36.3830737,33.2094203 33.8973862,34.6550725 C32.9314612,35.216087 30.9793612,36.0662319 28.9523362,36.8950725 C28.8946237,37.2724638 28.8561487,37.657971 28.8561487,38.0526087 C28.8561487,41.6723188 31.3671487,44.6995652 34.7367487,45.4989855 L68.2140487,45.6389855" id="Stroke-9"></path>
                    <path d="M69.8575388,35.1812899 C69.4211513,35.2452029 68.9959013,35.3425942 68.6010263,35.5059275" id="Stroke-11"></path>
                    <path d="M38.549115,11.619087 C38.6331525,11.396913 38.68074,11.1564783 38.68074,10.9048841 C38.68074,9.78386957 37.7745525,8.87691304 36.657765,8.87691304 C36.115065,8.87691304 35.6240025,9.09198551 35.260515,9.43995652 C34.6661775,9.10821739 33.98274,8.92053623 33.255765,8.92053623 C31.47984,8.92053623 29.9641275,10.0435797 29.379915,11.6201014 C28.8463275,11.2001014 28.17504,10.9474928 27.4430025,10.9474928 C25.706565,10.9474928 24.3002025,12.3576377 24.3002025,14.0964783 C24.3002025,15.7632899 25.5921525,17.1247391 27.22734,17.2353188 L27.22734,17.2464783 L37.2176775,17.2464783 L37.2176775,17.2373478 C37.2743775,17.2414058 37.3310775,17.2464783 37.38879,17.2464783 C39.006765,17.2464783 40.31694,15.9327101 40.31694,14.3125652 C40.31694,13.1053188 39.5889525,12.0695217 38.549115,11.619087 Z" id="Stroke-13"></path>
                </g>
            </g>
        </g>
    </g>
</svg>