<?xml version="1.0" encoding="UTF-8"?>
<svg width="68px" height="45px" viewBox="0 0 68 45" version="1.1" xmlns="http://www.w3.org/2000/svg" xmlns:xlink="http://www.w3.org/1999/xlink">
    <!-- Generator: Sketch 42 (36781) - http://www.bohemiancoding.com/sketch -->
    <title>icon_onboarding_typeofdate_social_whiteon</title>
    <desc>Created with Sketch.</desc>
    <defs></defs>
    <g id="Page-1" stroke="none" stroke-width="1" fill="none" fill-rule="evenodd">
        <g id="icon_onboarding_typeofdate_social_whiteon" fill="#FFFFFF">
            <path d="M14.1014562,24.6897561 C12.2087312,26.2456676 11.0000212,28.6164784 11.0000212,31.2710584 L11.0000212,40.5893943 L21.6500515,40.5893943 L21.6500515,32.9490442 C21.6500515,30.660687 22.2554686,28.4676335 23.3919534,26.5540658 C22.3776142,26.9963173 21.2591858,27.2415367 20.0855263,27.2415367 C17.7413938,27.2415367 15.6192475,26.2628008 14.1014562,24.6897561" id="Fill-1"></path>
            <path d="M24.8364361,17.2989087 C24.8364361,16.3887058 24.9564574,15.5052736 25.18163,14.6657453 C23.9803551,13.1698 22.1439232,12.2124808 20.085505,12.2124808 C16.4678723,12.2124808 13.5353169,15.1690339 13.5353169,18.8162704 C13.5353169,20.7394756 14.3499746,22.4710027 15.6510903,23.6778247 C16.8173148,24.7604307 18.3754673,25.4211309 20.085505,25.4211309 C21.8274069,25.4211309 23.4110506,24.7358017 24.5857722,23.6167875 C25.1189641,23.1081447 25.5671851,22.5106233 25.9081306,21.8467106 C25.2230533,20.4792646 24.8364361,18.9340614 24.8364361,17.2989087" id="Fill-3"></path>
            <path d="M54.4508702,24.6137381 C52.9277683,26.2317576 50.7758822,27.2415474 48.3935128,27.2415474 C47.868818,27.2415474 47.3547445,27.1922893 46.8566031,27.0980566 C47.5384939,28.4622901 47.88475,29.8907732 47.88475,31.3449561 L47.88475,40.589405 L57.3101384,40.589405 L57.3101384,29.9946434 C57.3101384,27.8819019 56.1396653,25.9565551 54.4508702,24.6137381" id="Fill-5"></path>
            <path d="M52.8927284,23.6167875 C54.1556073,22.4131781 54.9437116,20.7073508 54.9437116,18.8162704 C54.9437116,15.1690339 52.0111562,12.2124808 48.3935235,12.2124808 C46.8236875,12.2124808 45.38237,12.7693108 44.2533202,13.6977177 C44.6781743,14.8167319 44.9107819,16.0310496 44.9107819,17.2989087 C44.9107819,19.3602505 44.2968677,21.2791723 43.2432296,22.8789878 C43.5087634,23.0749491 43.7679244,23.2816187 44.0185883,23.4989966 C44.0547009,23.5300505 44.0908135,23.5611045 44.125864,23.5943002 C44.4540638,23.8823526 44.762083,24.1843258 45.0499216,24.4970073 C46.0292104,25.0838204 47.1720679,25.4211309 48.3935235,25.4211309 C50.1354253,25.4211309 51.719069,24.7358017 52.8927284,23.6167875" id="Fill-7"></path>
            <path d="M27.3239462,20.6120365 C27.49495,21.0071716 27.6946314,21.3851735 27.9219284,21.7449713 C27.973973,21.8284958 28.0281419,21.9098787 28.083373,21.9901907 C28.2575631,22.2461183 28.4455611,22.4924085 28.6463046,22.7269196 C28.8512967,22.965714 29.0700966,23.1927293 29.30058,23.4058239 C30.7663266,24.7668449 32.7238419,25.5978066 34.8736037,25.5978066 C37.0626645,25.5978066 39.053106,24.7357909 40.5273497,23.330866 C40.7036642,23.1627462 40.8725437,22.9871306 41.0329261,22.8040192 C41.0807222,22.749407 41.1285183,22.6947948 41.1741901,22.6391118 C41.3420074,22.4388672 41.5002656,22.2289851 41.6479024,22.0126781 C41.6733936,21.9773408 41.6978228,21.9409327 41.7211897,21.9045246 C41.9049391,21.6282512 42.0727565,21.3391279 42.2225176,21.0392964 C42.7875735,19.915999 43.105152,18.6449274 43.105152,17.298898 C43.105152,16.6028605 43.0201812,15.9260978 42.8587366,15.2803892 C42.7684551,14.9109539 42.6526824,14.5522269 42.5135426,14.2042081 C42.3892728,13.8915267 42.2458846,13.5884827 42.0855021,13.2972177 C40.6856079,10.7357997 37.9803493,8.99998929 34.8736037,8.99998929 C31.3536874,8.99998929 28.3499689,11.2273093 27.1741852,14.359478 C27.0244241,14.7567548 26.9044028,15.1679524 26.8173077,15.590929 C26.7025971,16.1424049 26.6420554,16.7131556 26.6420554,17.298898 C26.6420554,18.4757367 26.8852844,19.5958217 27.3239462,20.6109656 L27.3239462,20.6120365 Z" id="Fill-9"></path>
            <path d="M42.511429,24.6051394 C42.3807864,24.5001983 42.2480194,24.3984698 42.1131283,24.2999537 C40.257578,26.2338671 37.6999562,27.4182017 34.8736143,27.4182017 C32.0748879,27.4182017 29.539571,26.2574253 27.7190712,24.3877615 C27.3929957,24.6329809 27.08179,24.8964043 26.7865164,25.1780318 C24.7355332,27.1237243 23.4556602,29.8853869 23.4556602,32.9490227 L23.4556602,38.9308363 L23.4556602,42.9999786 L46.0791413,42.9999786 L46.0791413,38.9308363 L46.0791413,33.0034606 C46.0791413,30.9785269 45.2230603,27.4321224 43.8752107,25.9019108 C43.4631022,25.4339594 43.0053219,24.9992037 42.511429,24.6051394 Z" id="Fill-12"></path>
        </g>
    </g>
</svg>