<?xml version="1.0" encoding="UTF-8"?>
<svg width="26px" height="26px" viewBox="0 0 26 26" version="1.1" xmlns="http://www.w3.org/2000/svg" xmlns:xlink="http://www.w3.org/1999/xlink">
    <!-- Generator: Sketch 42 (36781) - http://www.bohemiancoding.com/sketch -->
    <title>logo_facebook_small_white</title>
    <desc>Created with Sketch.</desc>
    <defs></defs>
    <g id="Page-1" stroke="none" stroke-width="1" fill="none" fill-rule="evenodd">
        <g id="logo_facebook_small_white" fill="#FFFFFF">
            <path d="M1.4349517,0 C0.642269965,0 0,0.642269965 0,1.4349517 L0,24.5650483 C0,25.3575352 0.642269965,26 1.4349517,26 L13.887371,26 L13.887371,15.9314709 L10.499112,15.9314709 L10.499112,12.0075161 L13.887371,12.0075161 L13.887371,9.11374553 C13.887371,5.75549094 15.9384849,3.92687734 18.9342511,3.92687734 C20.3692028,3.92687734 21.6025988,4.03374373 21.9619699,4.08147804 L21.9619699,7.59102115 L19.8842612,7.59199532 C18.2549626,7.59199532 17.9395266,8.36616784 17.9395266,9.50224434 L17.9395266,12.0075161 L21.8251965,12.0075161 L21.3192129,15.9314709 L17.9395266,15.9314709 L17.9395266,26 L24.5650483,26 C25.3575352,26 26,25.3575352 26,24.5650483 L26,1.4349517 C26,0.642269965 25.3575352,0 24.5650483,0 L1.4349517,0 Z"></path>
        </g>
    </g>
</svg>