<?xml version="1.0" encoding="UTF-8"?>
<svg width="25px" height="25px" viewBox="0 0 25 25" version="1.1" xmlns="http://www.w3.org/2000/svg" xmlns:xlink="http://www.w3.org/1999/xlink">
    <!-- Generator: Sketch 42 (36781) - http://www.bohemiancoding.com/sketch -->
    <title>navigationItem_profile_edit_whiteoutline</title>
    <desc>Created with Sketch.</desc>
    <defs></defs>
    <g id="Page-1" stroke="none" stroke-width="1" fill="none" fill-rule="evenodd">
        <g id="navigationItem_profile_edit_whiteoutline" fill="#FFFFFF">
            <path d="M10.2516131,20.2943332 C9.61557704,18.7852292 8.56198113,17.153576 6.82776032,16.160129 C6.43539683,15.9353708 6.06191912,15.7737091 5.72510745,15.6572481 L19.3522994,1.88546907 C19.9005857,1.98085179 21.0163665,2.299978 22.2214632,3.3663457 C23.4513877,4.45466802 23.9016522,5.9063948 24.0540282,6.60064076 L10.2516131,20.2943332 Z M4.76405183,17.0123007 C5.11845952,17.0938465 5.60244204,17.2535249 6.12686776,17.5661938 C7.35190966,18.2965542 8.29555352,19.5253677 8.94001906,21.2249604 L4.16334601,22.7420899 C3.86149605,22.365033 3.53716742,22.0935059 3.22440056,21.8984971 L4.76405183,17.0123007 Z M25.9599253,6.8334244 C25.9491005,6.71687115 25.670282,3.95607655 23.4416224,1.98394204 C21.2250773,0.0225542302 19.0978021,0 19.008348,0 L18.6242298,0 L3.31855306,15.4680047 L0,26 L10.4705038,22.6743811 L26,7.26716669 L25.9599253,6.8334244 Z" id="Fill-1"></path>
        </g>
    </g>
</svg>