<?xml version="1.0" encoding="utf-8"?>
<!-- Generator: Adobe Illustrator 21.0.2, SVG Export Plug-In . SVG Version: 6.00 Build 0)  -->
<svg version="1.1" id="Layer_1" xmlns="http://www.w3.org/2000/svg" xmlns:xlink="http://www.w3.org/1999/xlink" x="0px" y="0px"
	 viewBox="0 0 35 36" style="enable-background:new 0 0 35 36;" xml:space="preserve">
<style type="text/css">
	.st0{fill:#ff738e;}
</style>
<title>navigationItem_trips_whiteOutline</title>
<desc>Created with Sketch.</desc>
<g id="Symbols">
	<g id="navigationItem_trips_whiteOutline">
		<path id="Fill-1" class="st0" d="M12.2,24.1c-0.2-0.2-0.5-0.2-0.7,0s-0.2,0.5,0,0.7l0.4,0.4c0.2,0.2,0.5,0.2,0.7,0s0.2-0.5,0-0.7
			L12.2,24.1z"/>
		<path id="Fill-3" class="st0" d="M10.2,22.1c-0.2-0.2-0.5-0.2-0.7,0s-0.2,0.5,0,0.7l0.4,0.4c0.2,0.2,0.5,0.2,0.7,0s0.2-0.5,0-0.7
			L10.2,22.1z"/>
		<path id="Fill-5" class="st0" d="M14.2,26.1c-0.2-0.2-0.5-0.2-0.7,0s-0.2,0.5,0,0.7l0.4,0.4c0.2,0.2,0.5,0.2,0.7,0s0.2-0.5,0-0.7
			L14.2,26.1z"/>
		<path id="Fill-10" class="st0" d="M8.2,20.1c-0.2-0.2-0.5-0.2-0.7,0s-0.2,0.5,0,0.7l0.4,0.4c0.2,0.2,0.5,0.2,0.7,0
			c0.2-0.2,0.2-0.5,0-0.7L8.2,20.1z"/>
		<path id="Fill-7" class="st0" d="M33.1,11.3L16.3,28.2L16,27.9c-0.2-0.2-0.5-0.2-0.7,0s-0.2,0.5,0,0.7l0.3,0.3l-4.4,4.4
			c-0.1,0.1-0.3,0.1-0.5,0l-2.4-2.4c0.8-1.3,0.6-3-0.5-4.1S5,25.5,3.7,26.3L1.5,24c-0.1-0.1-0.1-0.3,0-0.5l4.4-4.4L6,19.3
			c0.2,0.2,0.5,0.2,0.7,0s0.2-0.5,0-0.7l-0.2-0.2L23.4,1.6c0.1-0.1,0.3-0.1,0.5,0l9.2,9.3C33.3,11,33.3,11.2,33.1,11.3 M34.1,9.8
			l-9.2-9.3c-0.7-0.7-1.8-0.7-2.5,0l-21.9,22c-0.7,0.7-0.7,1.8,0,2.5L3,27.4c0.4,0.4,1.1,0.5,1.5,0.1C5.3,27,6.3,27.1,7,27.7
			c0.7,0.7,0.7,1.7,0.2,2.5c-0.3,0.5-0.3,1.1,0.1,1.5l2.4,2.4c0.7,0.7,1.8,0.7,2.5,0l6.5-6.5l1.9-1.9l13.5-13.6
			C34.8,11.6,34.8,10.5,34.1,9.8"/>
		<path id="Fill-12" class="st0" d="M23.6,10.1L21.8,12l-5.5-1.1c-0.4-0.1-0.6,0.4-0.4,0.7l0,0l3.6,2.8L17,17.3
			c0,0.1-0.1,0.1-0.2,0.1l-1.4-0.2c-0.1,0-0.2,0.1-0.1,0.2l0,0l1,0.7c0.2,0.1,0.3,0.3,0.5,0.5l0.7,1l0,0c0.1,0.1,0.2,0,0.2-0.1
			L17.6,18c0-0.1,0-0.1,0.1-0.2l2.9-2.5l2.8,3.5l0,0c0.3,0.3,0.7,0,0.7-0.4l-1.2-5.5l1.9-1.8c0.3-0.3,0.3-0.8,0-1.1
			C24.4,9.7,23.9,9.8,23.6,10.1"/>
	</g>
</g>
</svg>
