<?xml version="1.0" encoding="UTF-8"?>
<svg width="24px" height="22px" viewBox="0 0 24 22" version="1.1" xmlns="http://www.w3.org/2000/svg" xmlns:xlink="http://www.w3.org/1999/xlink">
    <!-- Generator: Sketch 42 (36781) - http://www.bohemiancoding.com/sketch -->
    <title>navigationItem_match_chat_whiteoutline</title>
    <desc>Created with Sketch.</desc>
    <defs></defs>
    <g id="Page-1" stroke="none" stroke-width="1" fill="none" fill-rule="evenodd">
        <g id="navigationItem_match_chat_whiteoutline">
            <path d="M21.2727273,0 L2.18181818,0 C0.981818182,0 0,0.99 0,2.2 L0,14.85 C0,16.06 0.604363636,17.05 1.34181818,17.05 L3.30763636,17.05 L2.45454545,22 L7.15090909,17.05 L21.2727273,17.05 C22.4727273,17.05 23.4545455,16.06 23.4545455,14.85 L23.4545455,2.2 C23.4545455,0.99 22.4727273,0 21.2727273,0 Z" id="Stroke-1" stroke="#ff738e" stroke-width="2" stroke-linecap="round" stroke-linejoin="round"></path>
            <path d="M7.48505455,8.44877 C7.48505455,9.39367 6.72578182,10.16037 5.7876,10.16037 C4.85050909,10.16037 4.09123636,9.39367 4.09123636,8.44877 C4.09123636,7.50387 4.85050909,6.73717 5.7876,6.73717 C6.72578182,6.73717 7.48505455,7.50387 7.48505455,8.44877" id="Fill-3" fill="#ff738e"></path>
            <path d="M13.4244,8.44877 C13.4244,9.39367 12.6651273,10.16037 11.7269455,10.16037 C10.7898545,10.16037 10.0305818,9.39367 10.0305818,8.44877 C10.0305818,7.50387 10.7898545,6.73717 11.7269455,6.73717 C12.6651273,6.73717 13.4244,7.50387 13.4244,8.44877" id="Fill-5" fill="#ff738e"></path>
            <path d="M19.3636364,8.44877 C19.3636364,9.39367 18.6043636,10.16037 17.6661818,10.16037 C16.7290909,10.16037 15.9698182,9.39367 15.9698182,8.44877 C15.9698182,7.50387 16.7290909,6.73717 17.6661818,6.73717 C18.6043636,6.73717 19.3636364,7.50387 19.3636364,8.44877" id="Fill-7" fill="#ff738e"></path>
        </g>
    </g>
</svg>
