<?xml version="1.0" encoding="UTF-8"?>
<svg width="90px" height="90px" viewBox="0 0 90 90" version="1.1" xmlns="http://www.w3.org/2000/svg" xmlns:xlink="http://www.w3.org/1999/xlink">
    <!-- Generator: Sketch 41.2 (35397) - http://www.bohemiancoding.com/sketch -->
    <title>plane 1</title>
    <desc>Created with Sketch.</desc>
    <defs></defs>
    <g id="Other-Icons" stroke="none" stroke-width="1" fill="none" fill-rule="evenodd">
        <g id="plane-1">
            <g id="Group-2" transform="translate(7.000000, 10.000000)">
                <path d="M16,57.993 C16.001,57.273 16.585,56.688 17.306,56.687 C17.481,56.687 17.645,56.722 17.798,56.785 C18.068,56.897 18.372,56.886 18.633,56.753 C18.894,56.62 19.083,56.383 19.152,56.098 C19.429,54.967 20.446,54.123 21.662,54.125 C21.924,54.125 22.175,54.165 22.42,54.238 C22.738,54.333 23.081,54.265 23.338,54.056 C23.595,53.848 23.732,53.527 23.705,53.197 C23.694,53.07 23.687,52.962 23.687,52.868 C23.687,51.798 24.119,50.837 24.82,50.134 C25.524,49.431 26.485,49.001 27.556,49 C28.627,49.001 29.588,49.431 30.291,50.133 C30.993,50.837 31.423,51.798 31.424,52.868 C31.424,53.07 31.404,53.274 31.37,53.486 C31.325,53.764 31.401,54.053 31.578,54.272 C31.754,54.493 32.019,54.629 32.301,54.644 C33.525,54.714 34.501,55.727 34.5,56.97 C34.502,58.039 33.772,58.935 32.787,59.208 L17.138,59.273 C16.494,59.188 15.999,58.654 16,57.993 L16,57.993 Z M17.053,61.273 L32.941,61.207 L33.167,61.18 C35.079,60.728 36.498,59.017 36.5,56.97 C36.499,55.014 35.199,53.38 33.422,52.841 C33.407,49.613 30.789,47.001 27.556,47 C24.565,47.001 22.103,49.239 21.738,52.131 C21.712,52.13 21.688,52.125 21.662,52.125 C19.848,52.126 18.294,53.184 17.55,54.712 C17.468,54.706 17.39,54.687 17.306,54.687 C15.479,54.688 14.001,56.168 14,57.993 C14.001,59.699 15.292,61.087 16.938,61.267 L17.053,61.273 Z" id="Fill-1" fill="#F1718D"></path>
                <path d="M70.9780089,34.617 C70.5070089,15.42 54.8110089,0.001 35.5000089,0 C15.8940089,0.001 0.00100887243,15.893 8.87243081e-06,35.5 C-0.000991127569,37.798 0.0820088724,39.571 0.519008872,41.802 C0.624008872,42.344 1.15000887,42.697 1.69200887,42.592 C2.23400887,42.486 2.58800887,41.961 2.48200887,41.419 C2.07700887,39.337 2.00100887,37.762 2.00000887,35.5 C2.00100887,26.246 5.74900887,17.877 11.8120089,11.811 C17.8770089,5.748 26.2470089,2.001 35.5000089,2 C44.7540089,2.001 53.1240089,5.748 59.1890089,11.811 C64.8600089,17.484 68.5030089,25.172 68.9520089,33.713 C67.4310089,30.794 64.3840089,28.799 60.8620089,28.797 C60.4070089,28.797 59.9600089,28.832 59.5230089,28.897 C59.3530089,22.398 54.0440089,17.182 47.5040089,17.181 C40.8580089,17.182 35.4710089,22.568 35.4710089,29.216 C35.4710089,29.711 35.5140089,30.179 35.5690089,30.621 C35.6370089,31.169 36.1370089,31.558 36.6850089,31.49 C37.2330089,31.423 37.6220089,30.923 37.5540089,30.375 C37.5040089,29.975 37.4710089,29.593 37.4710089,29.216 C37.4710089,26.441 38.5920089,23.939 40.4100089,22.12 C42.2280089,20.303 44.7300089,19.182 47.5040089,19.181 C50.2790089,19.182 52.7820089,20.303 54.6010089,22.12 C56.4180089,23.939 57.5390089,26.441 57.5400089,29.216 C57.5400089,29.486 57.5210089,29.767 57.4960089,30.067 L57.3740089,31.537 L58.7840089,31.106 C59.4430089,30.906 60.1390089,30.797 60.8620089,30.797 C64.2150089,30.795 67.0220089,33.118 67.7830089,36.235 L68.0590089,37.368 L69.1360089,36.923 C69.4200089,36.805 69.7600089,36.723 70.1400089,36.668 C70.3950089,36.631 70.5860089,36.603 70.7350089,36.604 C71.9070089,36.604 72.9570089,37.076 73.7250089,37.843 C74.4920089,38.61 74.9630089,39.661 74.9630089,40.832 C74.9650089,42.989 73.3360089,44.748 71.2370089,45.001 L68.3770089,44.987 L35.4580089,44.85 C32.6140089,44.137 30.4980089,41.573 30.5000089,38.51 C30.5000089,38.187 30.5330089,37.858 30.5840089,37.517 C30.6660089,36.971 30.2900089,36.462 29.7450089,36.379 C29.1980089,36.297 28.6890089,36.673 28.6060089,37.219 C28.5450089,37.622 28.5000089,38.053 28.5000089,38.51 C28.5020089,42.552 31.3070089,45.93 35.0780089,46.822 L35.3040089,46.849 L66.9760089,46.981 C62.2880089,59.825 49.9670089,69.002 35.5010089,69 C21.2090089,69.001 9.01800887,60.047 4.20400887,47.447 C4.10400887,47.178 3.97600887,46.964 3.92000887,46.875 C3.86900887,46.788 3.87800887,46.817 3.82300887,46.665 C3.64600887,46.141 3.07800887,45.861 2.55500887,46.038 C2.03200887,46.215 1.75100887,46.782 1.92800887,47.305 C2.01700887,47.578 2.14300887,47.808 2.21300887,47.919 C2.27900887,48.028 2.27500887,48.011 2.33500887,48.16 C7.43500887,61.513 20.3560089,70.999 35.5010089,71 C51.0830089,70.998 64.3100089,60.956 69.0870089,46.99 L71.3700089,47.001 L71.4280089,46.995 C74.5330089,46.649 76.9620089,44.039 76.9630089,40.832 C76.9630089,37.473 74.3050089,34.745 70.9780089,34.617" id="Fill-3" fill="#F1718D"></path>
                <path d="M32.357,53.646 L33.344,53.805 C33.392,53.511 33.424,53.199 33.424,52.869 C33.423,49.626 30.797,47 27.556,47 C24.315,47 21.688,49.626 21.687,52.869 C21.687,53.054 21.7,53.219 21.711,53.363 L22.708,53.281 L23.002,52.325 C22.575,52.194 22.125,52.125 21.662,52.125 C19.503,52.127 17.697,53.616 17.208,55.625 L18.18,55.862 L18.563,54.938 C18.179,54.779 17.753,54.687 17.306,54.687 C15.48,54.687 14,56.167 14,57.994 C14.002,59.699 15.292,61.084 16.938,61.267 L16.995,61.273 L33.056,61.207 L33.168,61.18 C35.079,60.729 36.498,59.017 36.5,56.968 C36.499,54.658 34.69,52.777 32.414,52.648 L32.357,53.646 L33.344,53.805 L32.357,53.646 L32.3,54.644 C33.525,54.714 34.502,55.728 34.5,56.968 C34.502,58.068 33.733,58.991 32.707,59.235 L32.937,60.208 L32.933,59.208 L17.045,59.273 L17.049,60.273 L17.16,59.279 C16.504,59.204 15.999,58.66 16,57.994 C16.002,57.271 16.584,56.688 17.306,56.687 C17.479,56.687 17.643,56.722 17.797,56.786 L18.875,57.232 L19.151,56.099 C19.429,54.967 20.446,54.124 21.662,54.125 C21.927,54.125 22.179,54.165 22.415,54.237 L23.826,54.669 L23.705,53.199 C23.694,53.069 23.687,52.96 23.687,52.869 C23.688,51.796 24.119,50.836 24.82,50.133 C25.524,49.432 26.484,49 27.556,49 C28.628,49 29.588,49.432 30.291,50.133 C30.993,50.836 31.423,51.796 31.424,52.869 C31.424,53.068 31.404,53.273 31.37,53.487 L31.193,54.582 L32.3,54.644 L32.357,53.646 Z" id="Fill-6" fill="#F1718D"></path>
                <path d="M37.936,17.249 L37.81,17.242 C37.792,17.241 37.776,17.25 37.758,17.25 L27.99,17.25 C27.979,17.249 27.97,17.242 27.958,17.241 C26.866,17.169 25.998,16.258 26,15.145 C26.002,13.984 26.942,13.043 28.104,13.041 C28.596,13.042 29.038,13.208 29.399,13.49 C29.651,13.688 29.979,13.754 30.288,13.667 C30.597,13.58 30.843,13.353 30.955,13.053 C31.391,11.881 32.521,11.041 33.845,11.043 C34.39,11.043 34.895,11.183 35.338,11.429 C35.721,11.643 36.199,11.581 36.516,11.278 C36.701,11.103 36.937,11 37.205,11 C37.755,11.001 38.202,11.447 38.203,11.999 C38.203,12.121 38.181,12.237 38.138,12.349 C37.949,12.848 38.186,13.409 38.676,13.621 C39.349,13.914 39.82,14.579 39.819,15.358 C39.817,16.399 38.978,17.242 37.936,17.249 M40.185,12.2 C40.189,12.133 40.203,12.067 40.203,11.999 C40.203,10.342 38.861,9.001 37.205,9 C36.665,9 36.164,9.154 35.727,9.404 C35.143,9.172 34.507,9.043 33.845,9.043 C32.071,9.044 30.52,9.961 29.611,11.339 C29.143,11.152 28.637,11.041 28.104,11.041 C25.836,11.042 24,12.879 24,15.145 C24.001,17.318 25.686,19.093 27.824,19.237 L27.824,19.236 C27.847,19.238 27.868,19.25 27.891,19.25 L37.758,19.25 C37.769,19.25 37.777,19.244 37.788,19.244 L37.875,19.249 L37.927,19.25 C40.078,19.249 41.819,17.508 41.819,15.358 C41.818,14.053 41.17,12.905 40.185,12.2" id="Fill-8" fill="#F1718D"></path>
                <polygon id="Fill-10" fill="#F1718D" points="4 30 4 30 4.001 30"></polygon>
                <path d="M1,32.006 C1,32.005 1.001,32.004 1.001,32.003 L1.001,32 L1,32.006 Z" id="Fill-12" fill="#F1718D"></path>
                <path d="M38.9914288,30.452 C38.6524288,30.197 38.2854288,30.036 37.8744288,29.885 C37.4634288,29.737 37.0104288,29.613 36.5334288,29.504 C35.0884288,29.179 33.4374288,29.002 32.3264288,29 C32.0654288,29 31.8334288,29.009 31.6144288,29.036 C31.4314288,29.06 31.2794288,29.099 31.0924288,29.15 C30.4084288,29.341 29.3164288,29.734 28.0034288,30.23 C24.6454288,31.502 19.9684288,33.424 18.6894288,33.952 C17.7674288,33.647 15.1644288,32.791 12.4044288,31.931 C10.6854288,31.396 8.90942884,30.86 7.43442884,30.455 C6.69642884,30.253 6.03442884,30.083 5.48342884,29.961 C5.20742884,29.899 4.96042884,29.849 4.73742884,29.814 C4.51242884,29.778 4.32142884,29.755 4.11242884,29.754 L3.88942884,29.766 C3.19142884,29.857 2.50742884,29.92 1.84442884,30.138 C1.51342884,30.251 1.17442884,30.41 0.870428836,30.69 C0.566428836,30.966 0.334428836,31.382 0.263428836,31.815 L0.245428836,32.025 C0.254428836,32.362 0.344428836,32.543 0.424428836,32.721 C0.584428836,33.043 0.793428836,33.33 1.05742884,33.666 C1.97142884,34.814 3.57142884,36.415 4.97242884,37.768 C5.49942884,38.277 5.99442884,38.747 6.40842884,39.136 C4.82842884,39.785 2.27942884,40.798 0.717428836,41.258 C0.187428836,41.414 -0.115571164,41.971 0.0414288364,42.5 C0.197428836,43.029 0.754428836,43.332 1.28342884,43.176 C2.61342884,42.782 4.42742884,42.088 5.93342884,41.486 C7.43542884,40.886 8.61542884,40.38 8.62042884,40.378 C8.93442884,40.244 9.15642884,39.962 9.21342884,39.626 C9.27042884,39.29 9.15342884,38.95 8.90142884,38.721 C8.90142884,38.72 8.79542884,38.623 8.60542884,38.448 C7.94342884,37.837 6.27942884,36.286 4.79642884,34.787 C4.05442884,34.038 3.35742884,33.3 2.86542884,32.718 C2.65042884,32.463 2.48442884,32.246 2.36942884,32.078 C2.45642884,32.04 2.58342884,31.995 2.75442884,31.958 C3.09742884,31.879 3.57842884,31.821 4.11842884,31.754 C4.14342884,31.753 4.26042884,31.762 4.42042884,31.789 C5.05342884,31.888 6.30042884,32.207 7.74442884,32.619 C9.91942884,33.24 12.5914288,34.078 14.7134288,34.76 C15.7744288,35.1 16.6994288,35.402 17.3594288,35.619 C18.0184288,35.836 18.4094288,35.967 18.4104288,35.967 C18.6374288,36.043 18.8884288,36.034 19.1104288,35.942 C19.1124288,35.941 19.8324288,35.642 20.9404288,35.189 C22.6014288,34.51 25.1274288,33.486 27.3634288,32.618 C28.4804288,32.184 29.5264288,31.789 30.3474288,31.498 C30.7574288,31.352 31.1124288,31.232 31.3844288,31.148 C31.6484288,31.065 31.8584288,31.018 31.8634288,31.02 C31.9544288,31.009 32.1214288,30.999 32.3264288,30.999 C33.2244288,30.997 34.8274288,31.167 36.0904288,31.455 C36.6494288,31.581 37.1484288,31.732 37.4674288,31.874 C37.4714288,31.97 37.3994288,32.04 37.3004288,32.119 C36.9634288,32.394 36.4344288,32.728 35.8124288,33.09 C35.1894288,33.452 34.4694288,33.846 33.7274288,34.276 C33.3104288,34.518 32.6064288,34.861 31.7714288,35.233 C30.9354288,35.608 29.9614288,36.018 28.9674288,36.424 C27.3994288,37.064 25.7804288,37.694 24.5554288,38.164 C23.3304288,38.634 22.5024288,38.94 22.5004288,38.941 C22.3524288,38.996 22.2134288,39.091 22.1074288,39.208 C22.1074288,39.208 22.0444288,39.277 21.9274288,39.404 C21.5194288,39.846 20.4704288,40.968 19.4144288,41.971 C18.8874288,42.471 18.3574288,42.943 17.9254288,43.273 C17.7114288,43.438 17.5204288,43.567 17.3874288,43.642 L17.2694288,43.7 C17.1834288,43.692 16.8894288,43.617 16.5584288,43.457 C15.9824288,43.194 15.2764288,42.758 14.7354288,42.393 C14.4634288,42.212 14.2304288,42.047 14.0664288,41.929 L13.8774288,41.789 C13.5194288,41.518 13.1274288,41.475 12.7914288,41.631 C12.7914288,41.631 12.7004288,41.673 12.5264288,41.751 C11.3164288,42.299 6.13042884,44.585 2.24042884,45.626 C1.70742884,45.769 1.39142884,46.317 1.53442884,46.851 C1.67742884,47.385 2.22642884,47.701 2.75942884,47.557 C6.65742884,46.508 11.5054288,44.398 13.0914288,43.689 C13.3894288,43.901 13.8024288,44.183 14.2624288,44.471 C14.7204288,44.755 15.2224288,45.044 15.7234288,45.274 C16.2334288,45.5 16.7124288,45.693 17.3044288,45.704 L17.4714288,45.697 C17.9154288,45.645 18.1814288,45.49 18.4804288,45.32 C18.9844288,45.013 19.5144288,44.579 20.0734288,44.083 C21.4574288,42.849 22.9484288,41.248 23.4234288,40.731 C24.2154288,40.435 27.0264288,39.377 29.7224288,38.275 C30.7304288,37.864 31.7214288,37.447 32.5884288,37.059 C33.4564288,36.671 34.1934288,36.317 34.7304288,36.007 C35.8524288,35.354 36.9694288,34.766 37.8644288,34.177 C38.3124288,33.878 38.7094288,33.583 39.0414288,33.228 C39.2064288,33.05 39.3584288,32.853 39.4784288,32.617 C39.5974288,32.383 39.6844288,32.098 39.6844288,31.79 C39.6844288,31.605 39.6524288,31.417 39.5924288,31.242 C39.4504288,30.85 39.2124288,30.625 38.9914288,30.452 Z" id="Fill-14" fill="#FFFFFF"></path>
            </g>
            <rect id="Rectangle" x="0" y="0" width="90" height="90"></rect>
        </g>
    </g>
</svg>