<?xml version="1.0" encoding="UTF-8"?>
<svg width="80px" height="80px" viewBox="0 0 80 80" version="1.1" xmlns="http://www.w3.org/2000/svg" xmlns:xlink="http://www.w3.org/1999/xlink">
    <!-- Generator: Sketch 41.2 (35397) - http://www.bohemiancoding.com/sketch -->
    <title>train 1</title>
    <desc>Created with Sketch.</desc>
    <defs>
        <polygon id="path-1" points="71.3384 0.661 0.0004 0.661 0.0004 71.9998 71.3384 71.9998 71.3384 0.661"></polygon>
        <polygon id="path-3" points="0 72.3387 71.339 72.3387 71.339 0.9997 0 0.9997"></polygon>
    </defs>
    <g id="Other-Icons" stroke="none" stroke-width="1" fill="none" fill-rule="evenodd">
        <g id="train-1">
            <g id="Page-1" transform="translate(4.000000, 4.000000)">
                <g id="Group-3" transform="translate(0.000000, 0.338700)">
                    <mask id="mask-2" fill="white">
                        <use xlink:href="#path-1"></use>
                    </mask>
                    <g id="Clip-2"></g>
                    <path d="M35.6694,0.6608 C15.9694,0.6608 0.0004,16.6308 0.0004,36.3308 C0.0004,56.0298 15.9694,71.9998 35.6694,71.9998 C55.3694,71.9998 71.3384,56.0298 71.3384,36.3308 C71.3384,16.6308 55.3694,0.6608 35.6694,0.6608 M35.6694,2.7618 C54.1794,2.7618 69.2394,17.8198 69.2394,36.3308 C69.2394,54.8408 54.1794,69.8998 35.6694,69.8998 C17.1594,69.8998 2.1004,54.8408 2.1004,36.3308 C2.1004,17.8198 17.1594,2.7618 35.6694,2.7618" id="Fill-1" fill="#EF718C" mask="url(#mask-2)"></path>
                </g>
                <mask id="mask-4" fill="white">
                    <use xlink:href="#path-3"></use>
                </mask>
                <g id="Clip-5"></g>
                <path d="M47.574,30.1997 L53.87,30.1997 L53.87,23.9047 L47.574,23.9047 L47.574,30.1997 Z M17.449,30.2127 L23.75,30.2127 L23.75,23.8887 L17.449,23.8887 L17.449,30.2127 Z M32.516,30.4227 L38.834,30.4227 L38.834,21.7307 L32.516,21.7307 L32.516,30.4227 Z M58.196,56.0537 L58.196,45.4187 L50.017,45.4187 C49.206,47.5277 48.69,49.6087 47.646,51.3797 C46.62,53.1197 45.059,54.5447 43.777,56.0537 L58.196,56.0537 Z M13.127,56.0047 L27.985,56.0047 C24.192,53.2927 22.191,49.7817 21.672,45.4297 L13.127,45.4297 L13.127,56.0047 Z M35.648,56.1147 C42.161,56.1037 47.537,50.7077 47.511,44.2057 C47.486,37.7927 42.059,32.4177 35.635,32.4447 C29.19,32.4717 23.837,37.8457 23.841,44.2847 C23.846,50.7147 29.247,56.1257 35.648,56.1147 L35.648,56.1147 Z M53.912,32.4377 C51.576,32.4377 49.303,32.3997 47.032,32.4537 C45.841,32.4807 45.314,32.0757 45.346,30.8237 C45.407,28.3607 45.362,25.8947 45.369,23.4297 C45.373,21.8357 45.525,21.6907 47.171,21.6867 C49.398,21.6827 51.625,21.6857 53.969,21.6857 C53.969,20.1727 53.888,18.7877 53.995,17.4187 C54.074,16.4067 53.666,16.0227 52.767,15.7427 C48.129,14.2977 43.391,13.4237 38.546,13.1657 C31.635,12.7977 24.886,13.7197 18.314,15.8847 C17.959,16.0017 17.445,16.3827 17.431,16.6617 C17.347,18.2987 17.39,19.9417 17.39,21.6857 C19.697,21.6857 21.84,21.6807 23.983,21.6867 C25.903,21.6927 25.993,21.7807 25.994,23.6367 C25.995,25.9217 25.991,28.2067 25.986,30.4927 C25.981,32.3607 25.907,32.4327 23.976,32.4367 C21.8,32.4397 19.625,32.4367 17.452,32.4367 L17.452,43.1407 L21.675,43.1407 C22.382,37.6007 25.243,33.6497 30.3,31.2877 C30.3,28.5687 30.293,25.8817 30.305,23.1937 C30.309,22.3717 30.006,21.9037 29.163,21.6317 C28.748,21.4977 28.488,20.8807 28.158,20.4817 C28.572,20.1667 28.982,19.5837 29.402,19.5767 C33.568,19.5077 37.737,19.5067 41.903,19.5707 C42.336,19.5777 42.761,20.1347 43.188,20.4357 C42.873,20.8487 42.628,21.5097 42.228,21.6237 C41.293,21.8887 41.039,22.4237 41.047,23.2887 C41.068,25.6187 41.095,27.9507 41.04,30.2797 C41.021,31.0677 41.289,31.4427 41.982,31.7997 C45.776,33.7497 48.194,36.8337 49.269,40.9597 C49.456,41.6797 49.575,42.4177 49.717,43.1097 L53.912,43.1097 L53.912,32.4377 Z M15.144,17.6337 C14.304,17.2187 13.417,17.0727 13.187,16.6047 C12.742,15.6997 13.609,15.3017 14.333,14.9967 C20.214,12.5287 26.373,11.2697 32.717,10.9687 C40.766,10.5877 48.61,11.6757 56.145,14.6447 C56.436,14.7597 56.734,14.8597 57.017,14.9927 C57.717,15.3197 58.612,15.7037 58.16,16.6107 C57.926,17.0807 57.033,17.2217 56.201,17.6277 L56.201,43.2107 C57.18,43.2107 58.15,43.2217 59.121,43.2067 C60.019,43.1917 60.429,43.6107 60.426,44.5097 C60.417,48.6327 60.411,52.7567 60.431,56.8797 C60.436,57.9397 59.918,58.2817 58.929,58.2737 C55.76,58.2497 52.591,58.2647 49.156,58.2647 C49.583,58.7347 49.826,59.0247 50.092,59.2917 C52.624,61.8297 55.157,64.3677 57.698,66.8967 C58.274,67.4707 58.596,68.0907 57.896,68.7377 C57.256,69.3317 56.678,68.9877 56.15,68.4587 C53.019,65.3157 49.897,62.1627 46.721,59.0637 C46.297,58.6507 45.589,58.3117 45.01,58.3067 C38.78,58.2507 32.55,58.2507 26.321,58.2957 C25.775,58.2997 25.104,58.5957 24.71,58.9787 C21.662,61.9517 18.668,64.9797 15.657,67.9897 C15.403,68.2437 15.18,68.6247 14.877,68.7077 C14.423,68.8307 13.63,68.9227 13.488,68.7017 C13.249,68.3297 13.3,67.6727 13.434,67.1917 C13.529,66.8517 13.961,66.6037 14.246,66.3187 C16.839,63.7237 19.433,61.1307 22.298,58.2647 L20.603,58.2647 C17.958,58.2677 15.313,58.2327 12.67,58.2897 C11.425,58.3167 10.891,57.9057 10.91,56.5887 C10.965,52.6447 10.949,48.7007 10.908,44.7567 C10.896,43.5847 11.376,43.1267 12.517,43.1917 C13.36,43.2407 14.207,43.2017 15.144,43.2017 L15.144,17.6337 Z" id="Fill-4" fill="#EF718C" mask="url(#mask-4)"></path>
                <path d="M35.6396,49.6616 C38.5166,49.6866 41.0606,47.1586 41.0586,44.2756 C41.0556,41.4326 38.6306,38.9656 35.7726,38.8966 C32.8876,38.8296 30.3416,41.2986 30.2936,44.2096 C30.2476,47.0966 32.7376,49.6366 35.6396,49.6616 M28.1486,44.3326 C28.1206,40.2326 31.4286,36.7856 35.4226,36.7506 C39.7956,36.7116 43.2056,39.9836 43.2126,44.2246 C43.2186,48.4056 39.9276,51.7726 35.7936,51.8156 C31.5466,51.8586 28.1776,48.5616 28.1486,44.3326" id="Fill-6" fill="#EE708C" mask="url(#mask-4)"></path>
                <path d="M21.2168,51.4185 C21.2168,52.9975 19.9368,54.2765 18.3578,54.2765 C16.7788,54.2765 15.4988,52.9975 15.4988,51.4185 C15.4988,49.8395 16.7788,48.5595 18.3578,48.5595 C19.9368,48.5595 21.2168,49.8395 21.2168,51.4185" id="Fill-7" fill="#FEFEFE" mask="url(#mask-4)"></path>
                <path d="M21.2168,51.4185 C21.2168,52.9975 19.9368,54.2765 18.3578,54.2765 C16.7788,54.2765 15.4988,52.9975 15.4988,51.4185 C15.4988,49.8395 16.7788,48.5595 18.3578,48.5595 C19.9368,48.5595 21.2168,49.8395 21.2168,51.4185 Z" id="Stroke-8" stroke="#EE708C" stroke-width="2" mask="url(#mask-4)"></path>
                <path d="M55.9668,51.4185 C55.9668,52.9975 54.6868,54.2765 53.1078,54.2765 C51.5288,54.2765 50.2488,52.9975 50.2488,51.4185 C50.2488,49.8395 51.5288,48.5595 53.1078,48.5595 C54.6868,48.5595 55.9668,49.8395 55.9668,51.4185" id="Fill-9" fill="#FEFEFE" mask="url(#mask-4)"></path>
                <path d="M55.9668,51.4185 C55.9668,52.9975 54.6868,54.2765 53.1078,54.2765 C51.5288,54.2765 50.2488,52.9975 50.2488,51.4185 C50.2488,49.8395 51.5288,48.5595 53.1078,48.5595 C54.6868,48.5595 55.9668,49.8395 55.9668,51.4185 Z" id="Stroke-10" stroke="#EE708C" stroke-width="2" mask="url(#mask-4)"></path>
            </g>
        </g>
    </g>
</svg>