<?xml version="1.0" encoding="UTF-8"?>
<svg width="90px" height="90px" viewBox="0 0 90 90" version="1.1" xmlns="http://www.w3.org/2000/svg" xmlns:xlink="http://www.w3.org/1999/xlink">
    <!-- Generator: Sketch 41.2 (35397) - http://www.bohemiancoding.com/sketch -->
    <title>train 6</title>
    <desc>Created with Sketch.</desc>
    <defs></defs>
    <g id="Other-Icons" stroke="none" stroke-width="1" fill="none" fill-rule="evenodd">
        <g id="train-6">
            <g id="Page-1" transform="translate(9.000000, 5.000000)">
                <path d="M57.0425,19.447 C64.4865,25.608 69.2385,34.912 69.2385,45.308 C69.2385,63.818 54.1795,78.878 35.6695,78.878 C17.1595,78.878 2.1005,63.818 2.1005,45.308 C2.1005,26.798 17.1595,11.739 35.6695,11.739 C37.4775,11.739 39.2505,11.886 40.9805,12.163 C41.9705,11.417 43.0875,11.014 44.2665,10.688 C41.5115,10.007 38.6345,9.638 35.6695,9.638 C15.9695,9.638 0.0005,25.608 0.0005,45.308 C0.0005,65.008 15.9695,80.977 35.6695,80.977 C55.3685,80.977 71.3385,65.008 71.3385,45.308 C71.3385,35.523 67.3955,26.665 61.0145,20.222 C60.4815,19.685 57.0425,19.447 57.0425,19.447" id="Fill-1" fill="#FEFEFE"></path>
                <path d="M58.1958,64.6931 L43.7778,64.6931 C45.0578,63.1831 46.6198,61.7581 47.6468,60.0181 C48.6908,58.2481 49.2068,56.1671 50.0168,54.0571 L58.1958,54.0571 L58.1958,64.6931 Z M23.8418,52.9231 C23.8368,46.4851 29.1908,41.1101 35.6348,41.0841 C42.0588,41.0561 47.4868,46.4301 47.5108,52.8441 C47.5368,59.3461 42.1608,64.7431 35.6488,64.7541 C29.2468,64.7631 23.8458,59.3521 23.8418,52.9231 L23.8418,52.9231 Z M13.1268,64.6431 L13.1268,54.0681 L21.6718,54.0681 C22.1908,58.4211 24.1918,61.9311 27.9858,64.6431 L13.1268,64.6431 Z M17.4488,38.8511 L23.7498,38.8511 L23.7498,32.5261 L17.4488,32.5261 L17.4488,38.8511 Z M32.5158,39.0601 L38.8338,39.0601 L38.8338,30.3681 L32.5158,30.3681 L32.5158,39.0601 Z M47.5738,38.8391 L53.8698,38.8391 L53.8698,32.5441 L47.5738,32.5441 L47.5738,38.8391 Z M60.4258,53.1471 C60.4278,52.2501 60.0178,51.8311 59.1208,51.8451 C58.1508,51.8611 57.1798,51.8481 56.2018,51.8481 L56.2018,26.2661 C57.0328,25.8611 57.9248,25.7191 58.1608,25.2491 C58.6128,24.3421 57.7168,23.9591 57.0168,23.6301 C56.7338,23.4991 56.4358,23.3981 56.1448,23.2831 C53.5288,22.2531 50.8738,21.4631 48.1868,20.8711 C47.4288,21.5041 46.6008,22.0661 45.8048,22.6621 C48.1508,23.0911 50.4708,23.6661 52.7668,24.3801 C53.6658,24.6611 54.0738,25.0451 53.9948,26.0571 C53.8878,27.4261 53.9688,28.8111 53.9688,30.3251 C51.6258,30.3251 49.3978,30.3211 47.1708,30.3261 C45.5248,30.3291 45.3738,30.4741 45.3688,32.0691 C45.3618,34.5331 45.4068,36.9991 45.3458,39.4631 C45.3148,40.7141 45.8408,41.1201 47.0318,41.0911 C49.3028,41.0381 51.5758,41.0761 53.9118,41.0761 L53.9118,51.7491 L49.7168,51.7491 C49.5748,51.0561 49.4568,50.3181 49.2688,49.5981 C48.1938,45.4711 45.7768,42.3881 41.9818,40.4371 C41.2888,40.0811 41.0208,39.7061 41.0398,38.9181 C41.0948,36.5891 41.0678,34.2571 41.0468,31.9271 C41.0388,31.0621 41.2938,30.5281 42.2278,30.2621 C42.6288,30.1481 42.8728,29.4871 43.1888,29.0751 C42.7598,28.7731 42.3368,28.2161 41.9038,28.2101 C37.7368,28.1441 33.5688,28.1451 29.4018,28.2151 C28.9828,28.2221 28.5718,28.8051 28.1578,29.1211 C28.4878,29.5191 28.7478,30.1361 29.1628,30.2701 C30.0068,30.5431 30.3088,31.0101 30.3048,31.8331 C30.2928,34.5201 30.2998,37.2081 30.2998,39.9261 C25.2428,42.2891 22.3828,46.2401 21.6748,51.7801 L17.4518,51.7801 L17.4518,41.0761 C19.6248,41.0761 21.7998,41.0791 23.9758,41.0751 C25.9068,41.0721 25.9808,41.0001 25.9858,39.1311 C25.9908,36.8451 25.9948,34.5601 25.9938,32.2741 C25.9928,30.4201 25.9038,30.3311 23.9838,30.3261 C21.8408,30.3191 19.6968,30.3241 17.3898,30.3241 C17.3898,28.5801 17.3468,26.9371 17.4308,25.3001 C17.4458,25.0201 17.9588,24.6401 18.3138,24.5231 C23.7788,22.7221 28.3678,21.7961 34.0688,21.7411 C34.5798,20.9821 36.0568,20.2211 36.5568,19.5531 C35.2818,19.5381 34.0038,19.5471 32.7168,19.6071 C26.3738,19.9081 20.2138,21.1671 14.3328,23.6351 C13.6088,23.9391 12.7418,24.3381 13.1868,25.2431 C13.4168,25.7121 14.3038,25.8571 15.1438,26.2721 L15.1438,51.8401 C14.2078,51.8401 13.3598,51.8801 12.5168,51.8311 C11.3758,51.7641 10.8968,52.2231 10.9078,53.3951 C10.9488,57.3391 10.9648,61.2841 10.9098,65.2271 C10.8908,66.5451 11.4248,66.9551 12.6708,66.9281 C15.3138,66.8711 58.9278,66.9131 58.9278,66.9131 C59.9178,66.9211 60.4358,66.5791 60.4298,65.5181 C60.4118,61.3941 60.4178,57.2711 60.4258,53.1471 L60.4258,53.1471 Z" id="Fill-3" fill="#EF718C"></path>
                <path d="M35.6396,58.3005 C38.5166,58.3255 41.0606,55.7965 41.0586,52.9135 C41.0556,50.0715 38.6306,47.6035 35.7726,47.5355 C32.8876,47.4675 30.3416,49.9375 30.2936,52.8485 C30.2466,55.7345 32.7376,58.2755 35.6396,58.3005 M28.1486,52.9705 C28.1206,48.8715 31.4286,45.4245 35.4226,45.3895 C39.7956,45.3505 43.2056,48.6225 43.2126,52.8635 C43.2186,57.0435 39.9276,60.4105 35.7936,60.4535 C31.5466,60.4975 28.1776,57.1995 28.1486,52.9705" id="Fill-5" fill="#EE708C"></path>
                <path d="M56.7642,60.0564 C56.7642,61.6984 55.4342,63.0284 53.7932,63.0284 C52.1522,63.0284 50.8222,61.6984 50.8222,60.0564 C50.8222,58.4154 52.1522,57.0854 53.7932,57.0854 C55.4342,57.0854 56.7642,58.4154 56.7642,60.0564 Z" id="Stroke-7" stroke="#FEFEFE" stroke-width="2"></path>
                <path d="M20.3936,60.0564 C20.3936,61.6984 19.0636,63.0284 17.4226,63.0284 C15.7816,63.0284 14.4516,61.6984 14.4516,60.0564 C14.4516,58.4154 15.7816,57.0854 17.4226,57.0854 C19.0636,57.0854 20.3936,58.4154 20.3936,60.0564 Z" id="Stroke-9" stroke="#FEFEFE" stroke-width="2"></path>
                <path d="M61.4185,-0.0002 C57.4985,-0.0002 54.0895,2.1828 52.3365,5.3968 C51.8345,5.2978 51.3145,5.2428 50.7825,5.2428 C46.6785,5.2428 43.3025,8.3568 42.8865,12.3518 C42.3955,12.2138 41.8795,12.1348 41.3445,12.1348 C38.2005,12.1348 35.6515,14.6838 35.6515,17.8268 C35.6515,18.5718 35.7995,19.2828 36.0595,19.9358 C36.0225,19.9338 35.9885,19.9248 35.9515,19.9248 C34.4625,19.9248 33.2545,21.1318 33.2545,22.6208 C33.2545,24.1098 34.4625,25.3168 35.9515,25.3168 C37.3695,25.3168 38.5185,24.2198 38.6265,22.8298 C39.4345,23.2698 40.3605,23.5198 41.3445,23.5198 C43.7415,23.5198 45.7885,22.0358 46.6275,19.9388 C47.8375,20.6858 49.2565,21.1228 50.7825,21.1228 C52.7915,21.1228 54.6215,20.3698 56.0205,19.1398 C57.5925,20.1058 59.4375,20.6738 61.4185,20.6738 C67.1275,20.6738 71.7555,16.0458 71.7555,10.3368 C71.7555,4.6278 67.1275,-0.0002 61.4185,-0.0002 Z" id="Stroke-11" stroke="#FEFEFE" stroke-width="2" stroke-linecap="round" stroke-linejoin="round"></path>
                <path d="M46.3208,66.9002 C46.5688,67.0292 47.0158,67.5282 47.1948,67.7032 C50.3698,70.8002 55.4918,75.9552 58.6238,79.0972 C59.1508,79.6272 59.7288,79.9702 60.3698,79.3772 C61.0698,78.7282 60.7478,78.1102 60.1718,77.5362 C57.6308,75.0062 53.0978,70.4682 50.5658,67.9302 C50.2998,67.6632 50.0568,67.3742 49.6288,66.9032 L46.3208,66.9002 Z" id="Fill-13" fill="#EF718C"></path>
                <path d="M21.71,66.9031 C21.282,67.3741 21.039,67.6641 20.773,67.9301 C18.241,70.4681 13.709,75.0071 11.168,77.5361 C10.591,78.1101 10.27,78.7281 10.969,79.3771 C11.61,79.9701 12.188,79.6271 12.715,79.0971 C15.847,75.9551 20.969,70.8001 24.144,67.7031 C24.323,67.5291 24.77,67.0291 25.018,66.9001 L21.71,66.9031 Z" id="Fill-15" fill="#EF718C"></path>
            </g>
            <rect id="Rectangle" x="0" y="0" width="90" height="90"></rect>
        </g>
    </g>
</svg>