<?xml version="1.0" encoding="UTF-8"?>
<svg width="80px" height="80px" viewBox="0 0 80 80" version="1.1" xmlns="http://www.w3.org/2000/svg" xmlns:xlink="http://www.w3.org/1999/xlink">
    <!-- Generator: Sketch 41.2 (35397) - http://www.bohemiancoding.com/sketch -->
    <title>train 5</title>
    <desc>Created with Sketch.</desc>
    <defs>
        <polygon id="path-1" points="0 71.3387 71.339 71.3387 71.339 -0.0003 0 -0.0003"></polygon>
    </defs>
    <g id="Other-Icons" stroke="none" stroke-width="1" fill="none" fill-rule="evenodd">
        <g id="train-5">
            <g id="Page-1" transform="translate(4.000000, 4.000000)">
                <path d="M21.3973,57.5955 C19.8993,58.8495 17.9803,60.5325 16.5883,61.7375 C15.5813,62.6095 14.9343,63.3775 15.7303,64.4285 C16.1503,64.4285 17.2083,64.0005 17.6273,64.0005 C19.6193,62.2805 22.2153,60.1215 24.2303,58.4285 C24.4333,58.2575 22.7293,57.5875 21.3973,57.5955 Z" id="Fill-1" fill="#FEFEFE"></path>
                <path d="M54.6912,61.6629 C53.1802,60.3909 51.6642,59.1269 50.0862,57.8049 C50.1032,57.7949 50.1172,57.7839 50.1342,57.7739 C49.3002,58.1639 47.5712,57.8869 46.7312,58.2619 C46.9112,58.3449 47.9722,59.0969 48.1112,59.2119 C50.0042,60.7799 51.8532,62.3989 53.7172,64.0009 L54.9772,64.0009 C55.7882,62.9299 55.7472,62.5529 54.6912,61.6629" id="Fill-3" fill="#FEFEFE"></path>
                <path d="M24.9935,56.4325 C21.8585,56.4085 19.5595,54.0135 19.6335,50.9785 C19.7535,45.9825 19.6655,40.9825 19.6655,35.9835 C19.6655,30.9505 19.7155,25.9155 19.6475,20.8825 C19.6055,17.7925 22.3575,15.3205 25.9995,15.7585 C26.2235,15.7865 26.4545,16.0335 26.6185,16.2305 C28.4655,18.4515 31.1565,18.4305 32.9545,16.2055 C33.1515,15.9615 33.5525,15.7865 33.8745,15.7575 C34.6025,15.6915 35.3425,15.7615 36.0755,15.7305 C37.2255,15.6825 38.1575,15.7655 39.0435,16.8395 C40.3095,18.3735 42.9935,18.2745 44.2505,16.6955 C45.1235,15.5965 46.1185,15.6105 47.1925,15.7845 C49.9395,16.2275 51.7225,18.3985 51.7055,21.0585 C51.6405,31.0555 51.6805,41.0525 51.6795,51.0495 C51.6785,54.1565 49.5275,56.4165 46.3865,56.4365 C39.2555,56.4815 32.1235,56.4895 24.9935,56.4325 M29.7535,12.5375 C30.6175,12.5295 31.2665,13.1805 31.2685,14.0555 C31.2705,14.8875 30.5735,15.5595 29.7195,15.5475 C28.9305,15.5365 28.2865,14.8815 28.2715,14.0755 C28.2535,13.1715 28.8565,12.5465 29.7535,12.5375 M41.5265,12.5385 C42.4285,12.5115 43.0595,13.1115 43.0745,14.0095 C43.0885,14.8665 42.4225,15.5545 41.5875,15.5475 C40.7765,15.5405 40.1065,14.9085 40.0765,14.1205 C40.0425,13.2475 40.6695,12.5645 41.5265,12.5385 M54.0665,50.8285 C54.0955,41.0065 54.0875,31.1825 54.0715,21.3595 C54.0655,18.3565 52.9605,15.8285 50.2025,14.4545 C48.7575,13.7355 47.0485,13.5445 45.2765,13.0665 C45.3025,13.1315 45.2055,12.9085 45.1245,12.6795 C44.6525,11.3375 43.6755,10.5375 42.3155,10.3155 C40.7195,10.0545 39.0525,10.4255 38.4665,11.9525 C37.8215,13.6315 36.7295,13.4865 35.4665,13.4385 C35.1175,13.4245 34.7645,13.4085 34.4185,13.4425 C33.8155,13.5025 33.5245,13.3155 33.3125,12.6785 C32.8735,11.3615 31.8685,10.5355 30.4985,10.3155 C28.8995,10.0585 27.5135,10.5275 26.5745,11.9195 C26.2745,12.3665 26.1185,12.9105 25.9005,13.4015 C25.7655,13.4145 25.6615,13.4395 25.5595,13.4325 C21.3865,13.1595 17.1815,15.9575 17.2425,21.8765 C17.3395,31.4195 17.2475,40.9635 17.2945,50.5075 C17.3005,51.7035 17.5205,52.9455 17.8945,54.0815 C18.4405,55.7365 19.6795,56.9145 21.2515,57.8115 C21.1345,57.9115 23.3135,58.6785 24.6215,58.7015 C32.0225,58.6935 39.4235,58.6865 46.8245,58.7165 C47.0795,58.7175 48.5635,58.5955 50.1345,57.7745 C52.8995,56.2095 54.0565,53.8015 54.0665,50.8285" id="Fill-5" fill="#EF718C"></path>
                <mask id="mask-2" fill="white">
                    <use xlink:href="#path-1"></use>
                </mask>
                <g id="Clip-8"></g>
                <path d="M29.406,24.1247 L41.977,24.1247 L41.977,22.2537 L29.406,22.2537 L29.406,24.1247 Z M35.785,26.4387 C32.328,26.4387 28.871,26.4327 25.414,26.4417 C24.235,26.4437 23.922,26.7647 23.92,27.9187 C23.915,30.3627 23.918,32.8077 23.918,35.2517 C23.919,36.8937 24.17,37.1447 25.87,37.1457 C32.4,37.1487 38.93,37.1467 45.46,37.1467 C45.634,37.1467 45.81,37.1577 45.983,37.1427 C47.137,37.0427 47.425,36.7327 47.426,35.5817 C47.429,33.0677 47.429,30.5537 47.426,28.0397 C47.425,26.7347 47.143,26.4427 45.842,26.4397 C42.49,26.4337 39.138,26.4377 35.785,26.4387 L35.785,26.4387 Z M27.074,24.1937 C27.074,23.3577 27.063,22.6957 27.076,22.0357 C27.1,20.7817 27.914,19.9487 29.168,19.9447 C33.5,19.9337 37.832,19.9347 42.164,19.9447 C43.424,19.9477 44.243,20.7757 44.269,22.0237 C44.283,22.7127 44.271,23.4027 44.271,24.1937 C45.072,24.1937 45.762,24.1837 46.451,24.1957 C48.31,24.2297 49.678,25.4697 49.71,27.2967 C49.762,30.2657 49.763,33.2357 49.706,36.2037 C49.67,38.0647 48.293,39.3717 46.369,39.3787 C39.243,39.4067 32.116,39.4067 24.99,39.3797 C22.982,39.3717 21.65,38.0097 21.627,36.0087 C21.595,33.1797 21.597,30.3497 21.626,27.5197 C21.646,25.4927 22.967,24.2167 24.986,24.1947 C25.642,24.1887 26.299,24.1937 27.074,24.1937 L27.074,24.1937 Z" id="Fill-7" fill="#EF718C" mask="url(#mask-2)"></path>
                <path d="M25.9896,46.9461 C24.8196,46.9581 23.9046,47.8531 23.9196,48.9701 C23.9356,50.0701 24.9036,51.0071 26.0196,51.0021 C27.1456,50.9971 28.1056,50.0531 28.1126,48.9451 C28.1186,47.8671 27.1296,46.9351 25.9896,46.9461 M25.9776,53.2961 C23.5216,53.2851 21.5686,51.3511 21.6446,48.9011 C21.7146,46.6331 23.2146,44.6301 25.9756,44.5961 C28.5756,44.5651 30.3626,46.6011 30.3646,48.9561 C30.3656,51.4241 28.4546,53.3051 25.9776,53.2961" id="Fill-9" fill="#FEFEFE" mask="url(#mask-2)"></path>
                <path d="M45.367,46.9461 C44.223,46.9311 43.237,47.8501 43.233,48.9341 C43.23,50.0371 44.19,50.9921 45.314,51.0011 C46.431,51.0101 47.403,50.0821 47.426,48.9811 C47.449,47.8651 46.535,46.9621 45.367,46.9461 M45.294,53.2961 C42.84,53.2881 40.944,51.3661 40.984,48.8821 C41.021,46.5681 42.758,44.5901 45.339,44.5971 C48.101,44.6051 49.667,46.6291 49.702,48.9741 C49.74,51.4281 47.773,53.3021 45.294,53.2961" id="Fill-10" fill="#FEFEFE" mask="url(#mask-2)"></path>
                <path d="M35.6693,69.2391 C17.1593,69.2391 2.1003,54.1791 2.1003,35.6701 C2.1003,17.1591 17.1593,2.1001 35.6693,2.1001 C54.1793,2.1001 69.2393,17.1591 69.2393,35.6701 C69.2393,54.1791 54.1793,69.2391 35.6693,69.2391 M35.6693,0.0001 C15.9693,0.0001 0.0003,15.9691 0.0003,35.6701 C0.0003,55.3691 15.9693,71.3391 35.6693,71.3391 C55.3693,71.3391 71.3383,55.3691 71.3383,35.6701 C71.3383,15.9691 55.3693,0.0001 35.6693,0.0001" id="Fill-11" fill="#EF718C" mask="url(#mask-2)"></path>
            </g>
        </g>
    </g>
</svg>