<?xml version="1.0" encoding="UTF-8"?>
<svg width="80px" height="80px" viewBox="0 0 80 80" version="1.1" xmlns="http://www.w3.org/2000/svg" xmlns:xlink="http://www.w3.org/1999/xlink">
    <!-- Generator: Sketch 41.2 (35397) - http://www.bohemiancoding.com/sketch -->
    <title>train 3</title>
    <desc>Created with Sketch.</desc>
    <defs>
        <polygon id="path-1" points="0 71.3387 71.339 71.3387 71.339 -0.0003 0 -0.0003"></polygon>
    </defs>
    <g id="Other-Icons" stroke="none" stroke-width="1" fill="none" fill-rule="evenodd">
        <g id="train-3">
            <g id="Page-1" transform="translate(4.000000, 4.000000)">
                <path d="M43.0739,14.0093 C43.0589,13.1123 42.4279,12.5123 41.5269,12.5383 C40.6689,12.5653 40.0429,13.2473 40.0759,14.1203 C40.1069,14.9073 40.7769,15.5403 41.5869,15.5473 C42.4229,15.5553 43.0889,14.8653 43.0739,14.0093 Z M29.7529,12.5373 C28.8569,12.5463 28.2539,13.1713 28.2709,14.0743 C28.2869,14.8823 28.9309,15.5363 29.7189,15.5473 C30.5739,15.5593 31.2709,14.8883 31.2689,14.0563 C31.2669,13.1803 30.6169,12.5293 29.7529,12.5373 Z M19.6659,35.9833 C19.6659,40.9823 19.7529,45.9833 19.6329,50.9783 C19.5599,54.0133 21.8589,56.4083 24.9929,56.4333 C32.1239,56.4883 39.2559,56.4813 46.3859,56.4373 C49.5279,56.4173 51.6789,54.1553 51.6789,51.0503 C51.6809,41.0523 51.6409,31.0553 51.7059,21.0583 C51.7229,18.3993 49.9399,16.2273 47.1919,15.7833 C46.1179,15.6103 45.1239,15.5973 44.2499,16.6953 C42.9939,18.2743 40.3089,18.3733 39.0439,16.8403 C38.1569,15.7663 37.2259,15.6823 36.0749,15.7313 C35.3419,15.7613 34.6029,15.6913 33.8749,15.7573 C33.5529,15.7863 33.1519,15.9613 32.9539,16.2053 C31.1569,18.4313 28.4659,18.4503 26.6189,16.2303 C26.4539,16.0323 26.2229,15.7853 25.9999,15.7593 C22.3569,15.3203 19.6049,17.7933 19.6469,20.8833 C19.7159,25.9153 19.6659,30.9493 19.6659,35.9833 Z M16.3679,64.0003 C15.5729,62.9493 15.5809,62.6103 16.5889,61.7373 C18.0899,60.4383 19.6239,59.1783 21.2519,57.8123 C19.6789,56.9143 18.4399,55.7373 17.8949,54.0813 C17.5199,52.9453 17.2999,51.7033 17.2939,50.5073 C17.2469,40.9643 17.3389,31.4193 17.2419,21.8773 C17.1809,15.9573 21.3859,13.1583 25.5589,13.4323 C25.6619,13.4393 25.7659,13.4143 25.9009,13.4023 C26.1189,12.9093 26.2739,12.3653 26.5739,11.9193 C27.5129,10.5273 28.8999,10.0593 30.4989,10.3153 C31.8689,10.5343 32.8739,11.3613 33.3129,12.6783 C33.5249,13.3153 33.8159,13.5023 34.4179,13.4423 C34.7639,13.4073 35.1169,13.4253 35.4669,13.4383 C36.7289,13.4863 37.8219,13.6313 38.4669,11.9513 C39.0529,10.4253 40.7199,10.0543 42.3159,10.3153 C43.6749,10.5373 44.6529,11.3383 45.1249,12.6793 C45.2049,12.9083 45.3029,13.1323 45.2769,13.0673 C47.0479,13.5453 48.7569,13.7353 50.2019,14.4543 C52.9609,15.8293 54.0659,18.3563 54.0709,21.3603 C54.0879,31.1833 54.0949,41.0063 54.0659,50.8293 C54.0569,53.8213 52.8889,56.2403 50.0859,57.8053 C51.6639,59.1263 53.1809,60.3913 54.6909,61.6633 C55.7469,62.5533 55.7879,62.9303 54.9769,64.0003 L53.7179,64.0003 C51.8539,62.3993 50.0039,60.7803 48.1109,59.2123 C47.7719,58.9313 47.2579,58.7183 46.8239,58.7163 C39.3899,58.6873 31.9559,58.6943 24.5219,58.7013 C24.2159,58.7013 23.8209,58.6863 23.6179,58.8563 C21.6029,60.5493 19.6199,62.2803 17.6279,64.0003 L16.3679,64.0003 Z" id="Fill-1" fill="#EF718C"></path>
                <mask id="mask-2" fill="white">
                    <use xlink:href="#path-1"></use>
                </mask>
                <g id="Clip-4"></g>
                <path d="M29.406,24.1247 L41.977,24.1247 L41.977,22.2547 L29.406,22.2547 L29.406,24.1247 Z M35.785,26.4377 C32.328,26.4377 28.871,26.4317 25.414,26.4407 C24.236,26.4437 23.922,26.7637 23.92,27.9187 C23.915,30.3627 23.918,32.8067 23.919,35.2517 C23.919,36.8927 24.17,37.1437 25.87,37.1447 C32.4,37.1487 38.929,37.1467 45.46,37.1467 C45.634,37.1467 45.81,37.1577 45.983,37.1427 C47.136,37.0427 47.425,36.7327 47.426,35.5817 C47.428,33.0677 47.428,30.5537 47.426,28.0397 C47.425,26.7347 47.143,26.4417 45.842,26.4397 C42.49,26.4337 39.138,26.4377 35.785,26.4377 L35.785,26.4377 Z M27.074,24.1937 C27.074,23.3567 27.063,22.6967 27.076,22.0367 C27.1,20.7817 27.914,19.9487 29.168,19.9457 C33.5,19.9337 37.832,19.9337 42.164,19.9447 C43.424,19.9487 44.243,20.7747 44.269,22.0227 C44.283,22.7127 44.272,23.4027 44.272,24.1937 C45.072,24.1937 45.762,24.1827 46.451,24.1957 C48.31,24.2297 49.677,25.4697 49.71,27.2967 C49.761,30.2647 49.763,33.2357 49.706,36.2047 C49.671,38.0647 48.293,39.3717 46.369,39.3797 C39.243,39.4067 32.116,39.4067 24.989,39.3797 C22.982,39.3717 21.65,38.0097 21.627,36.0087 C21.595,33.1787 21.597,30.3487 21.626,27.5197 C21.646,25.4937 22.967,24.2177 24.986,24.1947 C25.642,24.1877 26.299,24.1937 27.074,24.1937 L27.074,24.1937 Z" id="Fill-3" fill="#EF718C" mask="url(#mask-2)"></path>
                <path d="M25.9895,46.9468 C24.8195,46.9578 23.9045,47.8528 23.9195,48.9698 C23.9355,50.0698 24.9035,51.0068 26.0205,51.0018 C27.1455,50.9978 28.1055,50.0528 28.1125,48.9458 C28.1185,47.8668 27.1295,46.9348 25.9895,46.9468 M25.9775,53.2958 C23.5225,53.2858 21.5685,51.3508 21.6445,48.9008 C21.7145,46.6338 23.2155,44.6308 25.9765,44.5968 C28.5755,44.5658 30.3625,46.6008 30.3645,48.9558 C30.3655,51.4238 28.4545,53.3058 25.9775,53.2958" id="Fill-5" fill="#EF718C" mask="url(#mask-2)"></path>
                <path d="M45.3674,46.9468 C44.2234,46.9308 43.2374,47.8498 43.2334,48.9338 C43.2294,50.0378 44.1904,50.9918 45.3144,51.0018 C46.4314,51.0108 47.4034,50.0818 47.4254,48.9818 C47.4484,47.8648 46.5344,46.9618 45.3674,46.9468 M45.2934,53.2958 C42.8394,53.2888 40.9434,51.3668 40.9834,48.8818 C41.0214,46.5688 42.7584,44.5908 45.3394,44.5968 C48.1014,44.6048 49.6674,46.6298 49.7024,48.9748 C49.7394,51.4278 47.7734,53.3028 45.2934,53.2958" id="Fill-6" fill="#EF718C" mask="url(#mask-2)"></path>
                <path d="M35.6691,-0.0005 C15.9701,-0.0005 0.0001,15.9695 0.0001,35.6695 C0.0001,55.3685 15.9701,71.3385 35.6691,71.3385 C55.3691,71.3385 71.3381,55.3685 71.3381,35.6695 C71.3381,15.9695 55.3691,-0.0005 35.6691,-0.0005 M35.6691,2.1005 C54.1791,2.1005 69.2391,17.1585 69.2391,35.6695 C69.2391,54.1795 54.1791,69.2385 35.6691,69.2385 C17.1591,69.2385 2.1001,54.1795 2.1001,35.6695 C2.1001,17.1585 17.1591,2.1005 35.6691,2.1005" id="Fill-7" fill="#FEFEFE" mask="url(#mask-2)"></path>
            </g>
        </g>
    </g>
</svg>