<?xml version="1.0" encoding="UTF-8"?>
<svg width="80px" height="92px" viewBox="0 0 80 92" version="1.1" xmlns="http://www.w3.org/2000/svg" xmlns:xlink="http://www.w3.org/1999/xlink">
    <!-- Generator: Sketch 41.2 (35397) - http://www.bohemiancoding.com/sketch -->
    <title>train 2</title>
    <desc>Created with Sketch.</desc>
    <defs></defs>
    <g id="Other-Icons" stroke="none" stroke-width="1" fill="none" fill-rule="evenodd">
        <g id="train-2">
            <g id="Page-1" transform="translate(2.000000, 4.000000)">
                <path d="M59.3661,21.0104 C58.5981,21.3014 57.8101,21.5394 57.0421,21.7964 C64.4861,27.9574 69.2391,37.2614 69.2391,47.6574 C69.2391,66.1674 54.1791,81.2274 35.6691,81.2274 C17.1591,81.2274 2.1001,66.1674 2.1001,47.6574 C2.1001,29.1474 17.1591,14.0884 35.6691,14.0884 C37.4771,14.0884 39.2501,14.2364 40.9811,14.5124 C41.9701,13.7664 43.0871,13.3644 44.2661,13.0374 C41.5121,12.3564 38.6341,11.9884 35.6691,11.9884 C15.9701,11.9884 0.0001,27.9574 0.0001,47.6574 C0.0001,67.3574 15.9701,83.3264 35.6691,83.3264 C55.3691,83.3264 71.3391,67.3574 71.3391,47.6574 C71.3391,37.0564 66.7091,27.5414 59.3661,21.0104" id="Fill-1" fill="#FEFEFE"></path>
                <path d="M58.1962,67.0426 L43.7772,67.0426 C45.0582,65.5326 46.6202,64.1076 47.6462,62.3676 C48.6902,60.5976 49.2062,58.5166 50.0172,56.4066 L58.1962,56.4066 L58.1962,67.0426 Z M35.6482,67.1036 C29.2462,67.1126 23.8452,61.7016 23.8412,55.2726 C23.8372,48.8346 29.1902,43.4596 35.6342,43.4336 C42.0592,43.4056 47.4862,48.7796 47.5112,55.1936 C47.5372,61.6956 42.1612,67.0926 35.6482,67.1036 L35.6482,67.1036 Z M13.1272,66.9926 L13.1272,56.4176 L21.6722,56.4176 C22.1902,60.7706 24.1922,64.2806 27.9852,66.9926 L13.1272,66.9926 Z M17.4482,41.2006 L23.7492,41.2006 L23.7492,34.8756 L17.4482,34.8756 L17.4482,41.2006 Z M32.5162,41.4096 L38.8342,41.4096 L38.8342,32.7176 L32.5162,32.7176 L32.5162,41.4096 Z M47.5742,41.1886 L53.8702,41.1886 L53.8702,34.8936 L47.5742,34.8936 L47.5742,41.1886 Z M60.4262,55.4966 C60.4282,54.5996 60.0182,54.1806 59.1212,54.1946 C58.1502,54.2106 57.1792,54.1976 56.2022,54.1976 L56.2022,28.6156 C57.0332,28.2106 57.9252,28.0686 58.1602,27.5986 C58.6122,26.6916 57.7172,26.3086 57.0162,25.9796 C56.7342,25.8486 56.4362,25.7476 56.1452,25.6326 C53.5292,24.6026 50.8732,23.8126 48.1872,23.2206 C47.4282,23.8536 46.6002,24.4156 45.8052,25.0116 C48.1512,25.4406 50.4712,26.0156 52.7672,26.7296 C53.6662,27.0106 54.0742,27.3946 53.9952,28.4066 C53.8882,29.7756 53.9682,31.1606 53.9682,32.6746 C51.6252,32.6746 49.3982,32.6706 47.1712,32.6756 C45.5252,32.6786 45.3732,32.8236 45.3682,34.4186 C45.3622,36.8826 45.4072,39.3486 45.3452,41.8126 C45.3142,43.0636 45.8412,43.4696 47.0312,43.4406 C49.3022,43.3876 51.5762,43.4256 53.9112,43.4256 L53.9112,54.0986 L49.7172,54.0986 C49.5742,53.4056 49.4562,52.6676 49.2692,51.9476 C48.1942,47.8206 45.7762,44.7376 41.9822,42.7866 C41.2892,42.4306 41.0212,42.0556 41.0402,41.2676 C41.0952,38.9386 41.0682,36.6066 41.0472,34.2766 C41.0392,33.4116 41.2932,32.8776 42.2282,32.6116 C42.6282,32.4976 42.8732,31.8366 43.1882,31.4246 C42.7602,31.1226 42.3362,30.5656 41.9032,30.5596 C37.7372,30.4936 33.5682,30.4946 29.4022,30.5646 C28.9822,30.5716 28.5722,31.1546 28.1582,31.4706 C28.4882,31.8686 28.7472,32.4856 29.1622,32.6196 C30.0062,32.8926 30.3082,33.3596 30.3052,34.1826 C30.2932,36.8696 30.3002,39.5576 30.3002,42.2756 C25.2422,44.6386 22.3822,48.5896 21.6752,54.1296 L17.4512,54.1296 L17.4512,43.4256 C19.6252,43.4256 21.8002,43.4286 23.9752,43.4246 C25.9072,43.4216 25.9812,43.3496 25.9862,41.4806 C25.9912,39.1946 25.9942,36.9096 25.9932,34.6236 C25.9922,32.7696 25.9032,32.6806 23.9832,32.6756 C21.8402,32.6686 19.6972,32.6736 17.3892,32.6736 C17.3892,30.9296 17.3462,29.2866 17.4302,27.6496 C17.4452,27.3696 17.9592,26.9896 18.3142,26.8726 C23.7792,25.0716 28.3672,24.1456 34.0682,24.0906 C34.5792,23.3316 36.0562,22.5706 36.5572,21.9026 C35.2812,21.8876 34.0032,21.8966 32.7172,21.9566 C26.3732,22.2576 20.2142,23.5166 14.3332,25.9846 C13.6092,26.2886 12.7412,26.6876 13.1862,27.5926 C13.4172,28.0616 14.3032,28.2066 15.1442,28.6216 L15.1442,54.1896 C14.2072,54.1896 13.3602,54.2296 12.5162,54.1806 C11.3762,54.1136 10.8962,54.5726 10.9082,55.7446 C10.9492,59.6886 10.9652,63.6336 10.9092,67.5766 C10.8912,68.8946 11.4252,69.3046 12.6702,69.2776 C15.3132,69.2206 17.9582,69.2556 20.6032,69.2536 C21.0632,69.2526 21.5242,69.2536 22.2982,69.2536 C19.4332,72.1186 16.8392,74.7126 14.2462,77.3076 C13.9612,77.5926 13.5292,77.8396 13.4342,78.1806 C13.3002,78.6596 13.2492,79.3166 13.4882,79.6896 C13.6302,79.9106 14.4232,79.8186 14.8772,79.6946 C15.1792,79.6126 15.4032,79.2306 15.6562,78.9786 C18.6682,75.9686 21.6622,72.9396 24.7102,69.9676 C25.1042,69.5826 25.7752,69.2876 26.3202,69.2836 C32.5502,69.2386 38.7802,69.2386 45.0092,69.2946 C45.5892,69.3006 46.2972,69.6386 46.7212,70.0526 C49.8972,73.1496 53.0182,76.3046 56.1502,79.4466 C56.6772,79.9766 57.2562,80.3196 57.8962,79.7266 C58.5952,79.0776 58.2742,78.4596 57.6982,77.8856 C55.1572,75.3556 52.6242,72.8176 50.0922,70.2796 C49.8262,70.0126 49.5832,69.7236 49.1552,69.2526 C52.5912,69.2526 55.7592,69.2366 58.9282,69.2626 C59.9182,69.2706 60.4352,68.9286 60.4302,67.8676 C60.4112,63.7436 60.4172,59.6206 60.4262,55.4966 L60.4262,55.4966 Z" id="Fill-3" fill="#EF718C"></path>
                <path d="M35.6396,60.65 C38.5166,60.675 41.0606,58.146 41.0586,55.263 C41.0556,52.421 38.6306,49.953 35.7726,49.885 C32.8876,49.817 30.3416,52.287 30.2936,55.198 C30.2476,58.084 32.7376,60.625 35.6396,60.65 M28.1486,55.32 C28.1206,51.221 31.4286,47.774 35.4226,47.739 C39.7956,47.7 43.2056,50.972 43.2126,55.213 C43.2186,59.393 39.9276,62.76 35.7936,62.803 C31.5466,62.847 28.1776,59.549 28.1486,55.32" id="Fill-5" fill="#EE708C"></path>
                <path d="M56.7636,62.4059 C56.7636,64.0479 55.4336,65.3779 53.7926,65.3779 C52.1526,65.3779 50.8216,64.0479 50.8216,62.4059 C50.8216,60.7649 52.1526,59.4349 53.7926,59.4349 C55.4336,59.4349 56.7636,60.7649 56.7636,62.4059 Z" id="Stroke-7" stroke="#FEFEFE" stroke-width="2"></path>
                <path d="M20.3935,62.4059 C20.3935,64.0479 19.0635,65.3779 17.4225,65.3779 C15.7815,65.3779 14.4515,64.0479 14.4515,62.4059 C14.4515,60.7649 15.7815,59.4349 17.4225,59.4349 C19.0635,59.4349 20.3935,60.7649 20.3935,62.4059 Z" id="Stroke-9" stroke="#FEFEFE" stroke-width="2"></path>
                <path d="M64.7636,-0.0003 C60.4036,-0.0003 56.6096,2.4277 54.6596,6.0047 C54.1006,5.8947 53.5226,5.8337 52.9306,5.8337 C48.3646,5.8337 44.6086,9.2977 44.1466,13.7417 C43.5996,13.5877 43.0256,13.4997 42.4306,13.4997 C38.9326,13.4997 36.0966,16.3357 36.0966,19.8337 C36.0966,20.6627 36.2616,21.4527 36.5516,22.1787 C36.5106,22.1777 36.4716,22.1667 36.4306,22.1667 C34.7736,22.1667 33.4306,23.5097 33.4306,25.1667 C33.4306,26.8237 34.7736,28.1667 36.4306,28.1667 C38.0076,28.1667 39.2856,26.9457 39.4076,25.3987 C40.3056,25.8887 41.3356,26.1667 42.4306,26.1667 C45.0966,26.1667 47.3746,24.5167 48.3086,22.1837 C49.6546,23.0137 51.2336,23.4997 52.9306,23.4997 C55.1656,23.4997 57.2016,22.6627 58.7576,21.2937 C60.5076,22.3687 62.5596,22.9997 64.7636,22.9997 C71.1156,22.9997 76.2636,17.8517 76.2636,11.4997 C76.2636,5.1487 71.1156,-0.0003 64.7636,-0.0003 Z" id="Stroke-11" stroke="#FEFEFE" stroke-width="2" stroke-linecap="round" stroke-linejoin="round"></path>
            </g>
        </g>
    </g>
</svg>