<?xml version="1.0" encoding="UTF-8"?>
<svg width="300px" height="85px" viewBox="0 0 300 85" version="1.1" xmlns="http://www.w3.org/2000/svg" xmlns:xlink="http://www.w3.org/1999/xlink">
    <!-- Generator: Sketch 41.2 (35397) - http://www.bohemiancoding.com/sketch -->
    <title>icons_mobile_28pxgap</title>
    <desc>Created with Sketch.</desc>
    <defs>
        <path d="M22.799,0.63 C16.457,0.931 10.297,2.19 4.416,4.658 C3.692,4.962 2.825,5.361 3.27,6.266 C3.5,6.735 4.386,6.88 5.226,7.295 L5.226,32.863 C4.291,32.863 3.443,32.903 2.599,32.854 C1.458,32.787 0.98,33.246 0.991,34.418 C1.032,38.362 1.047,42.308 0.992,46.25 C0.973,47.568 1.507,47.979 2.754,47.951 C5.397,47.894 49.01,47.936 49.01,47.936 C50.001,47.944 50.518,47.602 50.512,46.54 C50.495,42.417 50.5,38.294 50.508,34.17 C50.51,33.273 50.1,32.854 49.203,32.868 C48.234,32.884 47.262,32.871 46.285,32.871 L46.285,7.29 C47.116,6.884 48.007,6.742 48.244,6.272 C48.696,5.365 47.799,4.982 47.099,4.653 C46.817,4.522 46.518,4.421 46.228,4.306 C43.612,3.276 40.957,2.486 38.27,1.894 C37.512,2.527 36.683,3.089 35.887,3.685 C38.234,4.114 40.554,4.689 42.849,5.403 C43.749,5.684 44.157,6.068 44.078,7.08 C43.97,8.449 44.051,9.834 44.051,11.348 C41.708,11.348 39.481,11.344 37.253,11.349 C35.608,11.352 35.457,11.497 35.452,13.092 C35.445,15.556 35.49,18.022 35.428,20.486 C35.398,21.737 35.923,22.143 37.115,22.114 C39.385,22.061 41.659,22.099 43.994,22.099 L43.994,32.772 L39.799,32.772 C39.658,32.079 39.539,31.341 39.351,30.621 C38.277,26.495 35.86,23.411 32.065,21.46 C31.372,21.104 31.104,20.729 31.122,19.941 C31.177,17.612 31.151,15.28 31.13,12.95 C31.122,12.085 31.376,11.551 32.31,11.285 C32.711,11.171 32.956,10.51 33.272,10.098 C32.842,9.796 32.419,9.239 31.986,9.234 C27.819,9.167 23.652,9.168 19.485,9.238 C19.066,9.245 18.655,9.828 18.241,10.144 C18.571,10.542 18.83,11.159 19.245,11.293 C20.089,11.566 20.391,12.033 20.387,12.856 C20.376,15.543 20.382,18.231 20.382,20.949 C15.326,23.312 12.465,27.263 11.757,32.803 L7.534,32.803 L7.534,22.099 C9.708,22.099 11.882,22.103 14.059,22.098 C15.99,22.094 16.064,22.023 16.069,20.154 C16.074,17.868 16.078,15.583 16.076,13.297 C16.075,11.443 15.987,11.354 14.067,11.349 C11.924,11.342 9.78,11.348 7.472,11.348 C7.472,9.603 7.429,7.96 7.513,6.323 C7.529,6.043 8.041,5.663 8.397,5.546 C13.861,3.745 18.451,2.819 24.152,2.764 C24.662,2.005 26.139,1.244 26.64,0.576 C26.291,0.572 25.943,0.57 25.594,0.57 C24.665,0.57 23.735,0.587 22.799,0.63 Z M22.599,20.083 L28.917,20.083 L28.917,11.392 L22.599,11.392 L22.599,20.083 Z M7.532,19.874 L13.833,19.874 L13.833,13.549 L7.532,13.549 L7.532,19.874 Z M37.656,19.862 L43.952,19.862 L43.952,13.567 L37.656,13.567 L37.656,19.862 Z M13.924,33.946 C13.92,27.508 19.274,22.133 25.717,22.107 C32.141,22.079 37.57,27.453 37.594,33.867 C37.62,40.369 32.244,45.766 25.732,45.777 L25.716,45.777 C19.321,45.778 13.928,40.369 13.924,33.946 Z M37.73,41.04 C38.774,39.271 39.29,37.19 40.099,35.081 L48.279,35.081 L48.279,45.717 L33.861,45.717 C35.14,44.206 36.702,42.781 37.73,41.04 Z M3.21,35.091 L11.754,35.091 C12.274,39.444 14.275,42.954 18.069,45.665 L3.21,45.665 L3.21,35.091 Z" id="path-1"></path>
        <path d="M7.506,0.413 C3.511,0.448 0.204,3.895 0.231,7.993 C0.261,12.223 3.629,15.52 7.876,15.476 C12.01,15.434 15.301,12.067 15.295,7.886 C15.289,3.67 11.919,0.412 7.582,0.412 C7.557,0.412 7.531,0.412 7.506,0.413 Z M7.723,13.323 C4.821,13.299 2.33,10.757 2.376,7.871 C2.424,4.96 4.97,2.491 7.855,2.558 C10.713,2.627 13.138,5.094 13.141,7.937 C13.143,10.805 10.624,13.324 7.765,13.323 L7.723,13.323 Z" id="path-3"></path>
        <path d="M0.083,36.331 C0.083,56.031 16.052,72 35.752,72 C55.451,72 71.421,56.031 71.421,36.331 C71.421,26.546 67.478,17.688 61.097,11.245 C60.564,10.708 57.125,10.47 57.125,10.47 C64.569,16.631 69.32,25.935 69.32,36.331 C69.32,54.841 54.262,69.901 35.752,69.901 C17.243,69.901 2.183,54.841 2.183,36.331 C2.183,17.821 17.243,2.762 35.752,2.762 C37.56,2.762 39.333,2.909 41.063,3.186 C42.053,2.44 43.17,2.037 44.349,1.711 C41.594,1.03 38.718,0.661 35.752,0.661 C16.052,0.661 0.083,16.631 0.083,36.331 Z" id="path-5"></path>
        <path d="M47.278,68.6189 C50.453,71.7159 55.575,76.8719 58.707,80.0129 C59.234,80.5429 59.812,80.8849 60.453,80.2929 C61.153,79.6439 60.831,79.0259 60.255,78.4519 C57.713,75.9219 53.18,71.3839 50.649,68.8459 C50.383,68.5789 50.14,68.2899 49.711,67.8189 L46.404,67.8169 C46.652,67.9449 47.099,68.4449 47.278,68.6189 Z" id="path-7"></path>
        <path d="M21.792,67.8189 C21.365,68.2899 21.122,68.5799 20.856,68.8459 C18.324,71.3839 13.791,75.9229 11.251,78.4519 C10.674,79.0259 10.353,79.6439 11.052,80.2929 C11.693,80.8849 12.271,80.5429 12.798,80.0129 C15.931,76.8719 21.052,71.7159 24.227,68.6189 C24.406,68.4459 24.853,67.9449 25.101,67.8169 L21.792,67.8189 Z" id="path-9"></path>
        <polygon id="path-11" points="0.874922603 26 68.087 26 68.087 0.985322603 0.874922603 0.985322603 0.874922603 26"></polygon>
        <polygon id="path-13" points="0 0.0002 0 42.6106812 70.9776 42.6106812 70.9776 0.0002 8.13151629e-20 0.0002"></polygon>
    </defs>
    <g id="Other-Icons" stroke="none" stroke-width="1" fill="none" fill-rule="evenodd">
        <g id="icons_mobile_28pxgap">
            <g id="Page-1">
                <g id="Group-2" transform="translate(226.000000, 1.000000)">
                    <g id="Group-6" transform="translate(10.000000, 19.892900)">
                        <mask id="mask-2" fill="white">
                            <use xlink:href="#path-1"></use>
                        </mask>
                        <use id="Clip-5" fill="#EC708B" xlink:href="#path-1"></use>
                    </g>
                    <g id="Group-9" transform="translate(28.000000, 45.892900)">
                        <mask id="mask-4" fill="white">
                            <use xlink:href="#path-3"></use>
                        </mask>
                        <g id="Clip-8"></g>
                        <polygon id="Fill-7" fill="#EC708B" mask="url(#mask-4)" points="-4.769 20.477 20.295 20.477 20.295 -4.588 -4.769 -4.588"></polygon>
                    </g>
                    <g id="Group">
                        <g id="Group-3" transform="translate(-0.000000, 9.892900)">
                            <mask id="mask-6" fill="white">
                                <use xlink:href="#path-5"></use>
                            </mask>
                            <use id="Clip-2" fill="#FFFFFF" xlink:href="#path-5"></use>
                        </g>
                        <g id="Group-16" transform="translate(14.000000, 0.892900)" stroke="#FEFEFE" stroke-width="2">
                            <path d="M42.8472,60.0798 C42.8472,61.7218 41.5172,63.0518 39.8752,63.0518 C38.2352,63.0518 36.9052,61.7218 36.9052,60.0798 C36.9052,58.4388 38.2352,57.1088 39.8752,57.1088 C41.5172,57.1088 42.8472,58.4388 42.8472,60.0798 Z" id="Stroke-10"></path>
                            <path d="M6.4761,60.0798 C6.4761,61.7218 5.1461,63.0518 3.5051,63.0518 C1.8651,63.0518 0.5351,61.7218 0.5351,60.0798 C0.5351,58.4388 1.8651,57.1088 3.5051,57.1088 C5.1461,57.1088 6.4761,58.4388 6.4761,60.0798 Z" id="Stroke-12"></path>
                            <path d="M47.5015,0.0226 C43.5815,0.0226 40.1725,2.2056 38.4195,5.4196 C37.9175,5.3206 37.3975,5.2656 36.8655,5.2656 C32.7615,5.2656 29.3855,8.3796 28.9695,12.3746 C28.4785,12.2366 27.9625,12.1576 27.4275,12.1576 C24.2835,12.1576 21.7335,14.7066 21.7335,17.8496 C21.7335,18.5946 21.8825,19.3056 22.1425,19.9586 C22.1055,19.9566 22.0705,19.9476 22.0345,19.9476 C20.5455,19.9476 19.3375,21.1546 19.3375,22.6436 C19.3375,24.1326 20.5455,25.3396 22.0345,25.3396 C23.4525,25.3396 24.6015,24.2426 24.7095,22.8526 C25.5175,23.2926 26.4425,23.5426 27.4275,23.5426 C29.8245,23.5426 31.8715,22.0586 32.7105,19.9616 C33.9205,20.7086 35.3395,21.1456 36.8655,21.1456 C38.8745,21.1456 40.7045,20.3926 42.1035,19.1626 C43.6755,20.1286 45.5205,20.6966 47.5015,20.6966 C53.2105,20.6966 57.8385,16.0686 57.8385,10.3596 C57.8385,4.6506 53.2105,0.0226 47.5015,0.0226 Z" id="Stroke-14" stroke-linecap="round" stroke-linejoin="round"></path>
                        </g>
                    </g>
                    <mask id="mask-8" fill="white">
                        <use xlink:href="#path-7"></use>
                    </mask>
                    <use id="Clip-18" fill="#ED718C" xlink:href="#path-7"></use>
                    <mask id="mask-10" fill="white">
                        <use xlink:href="#path-9"></use>
                    </mask>
                    <use id="Clip-21" fill="#EC708B" xlink:href="#path-9"></use>
                </g>
            </g>
            <polygon id="Fill-10" fill="#F1718D" points="1 37 1 37 1.001 37"></polygon>
            <g id="Page-1" transform="translate(2.000000, 12.000000)">
                <g id="Group-3" transform="translate(1.000000, 44.999900)">
                    <mask id="mask-12" fill="white">
                        <use xlink:href="#path-11"></use>
                    </mask>
                    <g id="Clip-2"></g>
                    <path d="M66,1.6524 C61.258,14.3914 48.892,24.0024 34.5,24.0004 C20.209,24.0014 8.017,15.0474 3.203,2.4474 C3.104,2.1774 2.975,1.9644 2.919,1.8754 C2.869,1.7884 2.878,1.8174 2.822,1.6654 C2.646,1.1414 2.078,0.8614 1.555,1.0384 C1.031,1.2154 0.751,1.7824 0.928,2.3054 C1.016,2.5784 1.143,2.8084 1.213,2.9194 C1.278,3.0284 1.274,3.0104 1.334,3.1604 C6.434,16.5134 19.355,25.9994 34.5,26.0004 C50.083,25.9984 63.31,15.9564 68.087,1.9904 C68.087,1.9904 66.818,1.8054 66,1.6524" id="Fill-1" fill="#FEFEFE" mask="url(#mask-12)"></path>
                </g>
                <g id="Group-6" transform="translate(0.000000, -0.000100)">
                    <mask id="mask-14" fill="white">
                        <use xlink:href="#path-13"></use>
                    </mask>
                    <g id="Clip-5"></g>
                    <path d="M70.9776,34.6172 C70.5066,15.4202 54.8106,0.0012 35.4996,0.0002 C15.8936,0.0012 0.0006,15.8932 -0.0004,35.5002 C-0.0014,37.7982 0.0816,39.5712 0.5186,41.8022 C0.6236,42.3442 1.1496,42.6972 1.6916,42.5922 C2.2336,42.4862 2.5876,41.9612 2.4816,41.4192 C2.0766,39.3372 2.0006,37.7622 1.9996,35.5002 C2.0006,26.2462 5.7486,17.8772 11.8116,11.8112 C17.8766,5.7482 26.2466,2.0012 35.4996,2.0002 C44.7536,2.0012 53.1236,5.7482 59.1886,11.8112 C64.8596,17.4842 68.5516,26.2772 68.9996,34.8182 L70.9776,34.6172 Z" id="Fill-4" fill="#FEFEFE" mask="url(#mask-14)"></path>
                </g>
                <path d="M15.5005,57.7861 C15.5015,57.0661 16.0855,56.4811 16.8065,56.4801 C16.9815,56.4801 17.1455,56.5151 17.2985,56.5781 C17.5685,56.6901 17.8725,56.6791 18.1335,56.5461 C18.3945,56.4131 18.5835,56.1761 18.6525,55.8911 C18.9295,54.7601 19.9465,53.9161 21.1625,53.9181 C21.4245,53.9181 21.6755,53.9581 21.9205,54.0311 C22.2385,54.1261 22.5815,54.0581 22.8385,53.8491 C23.0955,53.6411 23.2325,53.3201 23.2055,52.9901 C23.1945,52.8631 23.1875,52.7551 23.1875,52.6611 C23.1875,51.5911 23.6195,50.6301 24.3205,49.9271 C25.0245,49.2241 25.9855,48.7941 27.0565,48.7931 C28.1275,48.7941 29.0885,49.2241 29.7915,49.9261 C30.4935,50.6301 30.9235,51.5911 30.9245,52.6611 C30.9245,52.8631 30.9045,53.0671 30.8705,53.2791 C30.8255,53.5571 30.9015,53.8461 31.0785,54.0651 C31.2545,54.2861 31.5195,54.4221 31.8015,54.4371 C33.0255,54.5071 34.0015,55.5201 34.0005,56.7631 C34.0025,57.8321 33.2725,58.7281 32.2875,59.0011 L16.6385,59.0661 C15.9945,58.9811 15.4995,58.4471 15.5005,57.7861 L15.5005,57.7861 Z M16.5535,61.0661 L32.4415,61.0001 L32.6675,60.9731 C34.5795,60.5211 35.9985,58.8101 36.0005,56.7631 C35.9995,54.8071 34.6995,53.1731 32.9225,52.6341 C32.9075,49.4061 30.2895,46.7941 27.0565,46.7931 C24.0655,46.7941 21.6035,49.0321 21.2385,51.9241 C21.2125,51.9231 21.1885,51.9181 21.1625,51.9181 C19.3485,51.9191 17.7945,52.9771 17.0505,54.5051 C16.9685,54.4991 16.8905,54.4801 16.8065,54.4801 C14.9795,54.4811 13.5015,55.9611 13.5005,57.7861 C13.5015,59.4921 14.7925,60.8801 16.4385,61.0601 L16.5535,61.0661 Z" id="Fill-7" fill="#EF718C"></path>
                <path d="M70.9776,34.6171 C70.6076,34.6191 69.4996,34.6931 69.4996,34.6931 L68.9996,33.5681 C67.4786,30.6491 64.3836,28.7991 60.8616,28.7971 C60.4066,28.7971 59.9596,28.8321 59.5226,28.8971 C59.3526,22.3981 54.0436,17.1821 47.5036,17.1811 C40.8576,17.1821 35.4706,22.5681 35.4706,29.2161 C35.4706,29.7111 35.5136,30.1791 35.5686,30.6211 C35.6366,31.1691 36.1366,31.5581 36.6846,31.4901 C37.2326,31.4231 37.6216,30.9231 37.5536,30.3751 C37.5036,29.9751 37.4706,29.5931 37.4706,29.2161 C37.4706,26.4411 38.5916,23.9391 40.4096,22.1201 C42.2276,20.3031 44.7296,19.1821 47.5036,19.1811 C50.2786,19.1821 52.7816,20.3031 54.6006,22.1201 C56.4176,23.9391 57.5386,26.4411 57.5396,29.2161 C57.5396,29.4861 57.5206,29.7671 57.4956,30.0671 L57.3736,31.5371 L58.7836,31.1061 C59.4426,30.9061 60.1386,30.7971 60.8616,30.7971 C64.2146,30.7951 67.0216,33.1181 67.7826,36.2351 L68.0586,37.3681 L69.1356,36.9231 C69.4196,36.8051 69.7596,36.7231 70.1396,36.6681 C70.3946,36.6311 70.5856,36.6031 70.7346,36.6041 C71.9066,36.6041 72.9566,37.0761 73.7246,37.8431 C74.4916,38.6101 74.9626,39.6611 74.9626,40.8321 C74.9646,42.9891 73.3356,44.7481 71.2366,45.0011 L68.3766,44.9871 L35.4576,44.8501 C32.6136,44.1371 30.4976,41.5731 30.4996,38.5101 C30.4996,38.1871 30.5326,37.8581 30.5836,37.5171 C30.6656,36.9711 30.2896,36.4621 29.7446,36.3791 C29.1976,36.2971 28.6886,36.6731 28.6056,37.2191 C28.5446,37.6221 28.4996,38.0531 28.4996,38.5101 C28.5016,42.5521 31.3066,45.9301 35.0776,46.8221 L35.3036,46.8491 L66.9756,46.9811 C66.9516,47.0481 71.3696,47.0011 71.3696,47.0011 L71.4276,46.9951 C74.5326,46.6491 76.9616,44.0391 76.9626,40.8321 C76.9626,37.4731 74.3076,34.5951 70.9776,34.6171" id="Fill-9" fill="#EF718C"></path>
                <path d="M37.9361,16.999 L37.8101,16.992 C37.7921,16.991 37.7761,17 37.7581,17 L27.9901,17 C27.9791,16.999 27.9701,16.992 27.9581,16.991 C26.8661,16.919 25.9981,16.008 26.0001,14.895 C26.0021,13.734 26.9421,12.793 28.1041,12.791 C28.5961,12.792 29.0381,12.958 29.3991,13.24 C29.6511,13.438 29.9791,13.504 30.2881,13.417 C30.5971,13.33 30.8431,13.103 30.9551,12.803 C31.3911,11.631 32.5211,10.791 33.8451,10.793 C34.3901,10.793 34.8951,10.933 35.3381,11.179 C35.7211,11.393 36.1991,11.331 36.5161,11.028 C36.7011,10.853 36.9371,10.75 37.2051,10.75 C37.7551,10.751 38.2021,11.197 38.2031,11.749 C38.2031,11.871 38.1811,11.987 38.1381,12.099 C37.9491,12.598 38.1861,13.159 38.6761,13.371 C39.3491,13.664 39.8201,14.329 39.8191,15.108 C39.8171,16.149 38.9781,16.992 37.9361,16.999 M40.1851,11.95 C40.1891,11.883 40.2031,11.817 40.2031,11.749 C40.2031,10.092 38.8611,8.751 37.2051,8.75 C36.6651,8.75 36.1641,8.904 35.7271,9.154 C35.1431,8.922 34.5071,8.793 33.8451,8.793 C32.0711,8.794 30.5201,9.711 29.6111,11.089 C29.1431,10.902 28.6371,10.791 28.1041,10.791 C25.8361,10.792 24.0001,12.629 24.0001,14.895 C24.0011,17.068 25.6861,18.843 27.8241,18.987 L27.8241,18.986 C27.8471,18.988 27.8681,19 27.8911,19 L37.7581,19 C37.7691,19 37.7771,18.994 37.7881,18.994 L37.8751,18.999 L37.9271,19 C40.0781,18.999 41.8191,17.258 41.8191,15.108 C41.8181,13.803 41.1701,12.655 40.1851,11.95" id="Fill-13" fill="#EF718C"></path>
                <polygon id="Fill-15" fill="#FEFEFE" points="4.1392 29.7851 4.1392 29.7851 4.1402 29.7851"></polygon>
                <path d="M0.5127,31.8369 C0.5127,31.8359 0.5137,31.8349 0.5137,31.8339 L0.5137,31.8309 L0.5127,31.8369 Z" id="Fill-17" fill="#FEFEFE"></path>
                <path d="M39.8423,31.2607 L39.8403,31.2547 C39.7003,30.8687 39.4623,30.6437 39.2413,30.4707 C38.9023,30.2157 38.5353,30.0547 38.1243,29.9037 C37.7133,29.7557 37.2603,29.6317 36.7833,29.5227 L36.7813,29.5227 C35.3383,29.1977 33.6873,29.0207 32.5763,29.0187 C32.3153,29.0187 32.0833,29.0277 31.8643,29.0547 L31.8613,29.0547 C31.6813,29.0787 31.5293,29.1177 31.3423,29.1687 C30.6583,29.3597 29.5663,29.7527 28.2533,30.2487 C24.8953,31.5207 20.2183,33.4427 18.9393,33.9707 C18.0173,33.6657 15.4143,32.8097 12.6543,31.9497 C10.9353,31.4147 9.1593,30.8787 7.6843,30.4737 C6.9463,30.2717 6.2843,30.1017 5.7333,29.9797 C5.4573,29.9177 5.2103,29.8677 4.9873,29.8327 C4.7623,29.7967 4.5713,29.7737 4.3623,29.7727 L4.1393,29.7847 C3.4413,29.8757 2.7573,29.9387 2.0943,30.1567 C1.7633,30.2697 1.4243,30.4287 1.1203,30.7087 C0.8163,30.9847 0.5843,31.4007 0.5133,31.8337 L0.4953,32.0437 C0.5043,32.3807 0.5943,32.5617 0.6743,32.7397 C0.8343,33.0617 1.0433,33.3487 1.3073,33.6847 C2.2213,34.8327 3.8213,36.4337 5.2223,37.7867 C5.7493,38.2957 6.2443,38.7657 6.6583,39.1547 C5.0783,39.8037 2.5293,40.8167 0.9673,41.2767 C0.4373,41.4327 0.1343,41.9897 0.2913,42.5187 C0.4473,43.0477 1.0043,43.3507 1.5333,43.1947 C2.8633,42.8007 4.6773,42.1067 6.1833,41.5047 C7.6853,40.9047 8.8653,40.3987 8.8703,40.3967 C9.1843,40.2627 9.4063,39.9807 9.4633,39.6447 C9.5203,39.3087 9.4033,38.9687 9.1513,38.7397 C9.1513,38.7387 9.0453,38.6417 8.8553,38.4667 C8.1933,37.8557 6.5293,36.3047 5.0463,34.8057 C4.3043,34.0567 3.6073,33.3187 3.1153,32.7367 C2.9003,32.4817 2.7343,32.2647 2.6193,32.0967 C2.7063,32.0587 2.8333,32.0137 3.0043,31.9767 C3.3473,31.8977 3.8283,31.8397 4.3683,31.7727 C4.3933,31.7717 4.5103,31.7807 4.6703,31.8077 C5.3033,31.9067 6.5503,32.2257 7.9943,32.6377 C10.1693,33.2587 12.8413,34.0967 14.9633,34.7787 C16.0243,35.1187 16.9493,35.4207 17.6093,35.6377 C18.2683,35.8547 18.6593,35.9857 18.6603,35.9857 C18.8873,36.0617 19.1383,36.0527 19.3603,35.9607 C19.3623,35.9597 20.0823,35.6607 21.1903,35.2077 C22.8513,34.5287 25.3773,33.5047 27.6133,32.6367 C28.7303,32.2027 29.7763,31.8077 30.5973,31.5167 C31.0073,31.3707 31.3623,31.2507 31.6343,31.1667 C31.8983,31.0837 32.1083,31.0367 32.1133,31.0387 C32.2043,31.0277 32.3713,31.0177 32.5763,31.0177 C33.4743,31.0157 35.0773,31.1857 36.3403,31.4737 L36.3423,31.4737 C36.8993,31.5997 37.3983,31.7507 37.7173,31.8927 C37.7433,31.9037 37.7603,31.9137 37.7843,31.9247 C37.7213,31.9887 37.6493,32.0587 37.5503,32.1377 C37.2133,32.4127 36.6843,32.7467 36.0623,33.1087 C35.4393,33.4707 34.7193,33.8647 33.9773,34.2947 L33.9773,34.2947 C33.5603,34.5367 32.8563,34.8797 32.0213,35.2517 C31.1853,35.6267 30.2113,36.0367 29.2173,36.4427 C27.6493,37.0827 26.0303,37.7127 24.8053,38.1827 C23.5803,38.6527 22.7523,38.9587 22.7503,38.9597 C22.6023,39.0147 22.4633,39.1097 22.3573,39.2267 C22.3573,39.2267 22.2943,39.2957 22.1773,39.4227 C21.7693,39.8647 20.7203,40.9867 19.6643,41.9897 C19.1373,42.4897 18.6073,42.9617 18.1753,43.2917 C17.9613,43.4567 17.7703,43.5857 17.6373,43.6607 L17.5193,43.7187 C17.4333,43.7107 17.1393,43.6357 16.8083,43.4757 C16.2323,43.2127 15.5263,42.7767 14.9853,42.4117 C14.7133,42.2307 14.4803,42.0657 14.3163,41.9477 L14.1273,41.8077 L14.0643,41.7607 C13.7693,41.5367 13.3773,41.4937 13.0413,41.6497 C13.0413,41.6497 12.9503,41.6917 12.7763,41.7697 C11.5663,42.3177 6.3803,44.6037 2.4903,45.6447 C1.9573,45.7877 1.6413,46.3357 1.7843,46.8697 C1.9273,47.4037 2.4763,47.7197 3.0093,47.5757 C6.9073,46.5267 11.7553,44.4167 13.3413,43.7077 C13.6393,43.9197 14.0523,44.2017 14.5123,44.4897 C14.9703,44.7737 15.4723,45.0627 15.9733,45.2927 C16.4833,45.5187 16.9623,45.7117 17.5543,45.7227 L17.7213,45.7157 L17.7253,45.7157 C18.1653,45.6637 18.4313,45.5087 18.7303,45.3387 C19.2343,45.0317 19.7643,44.5977 20.3233,44.1017 C21.7073,42.8677 23.1983,41.2667 23.6733,40.7497 C24.4653,40.4537 27.2763,39.3957 29.9723,38.2937 C30.9803,37.8827 31.9713,37.4657 32.8383,37.0777 C33.7063,36.6897 34.4433,36.3357 34.9803,36.0257 L34.9813,36.0257 C36.1023,35.3727 37.2193,34.7847 38.1143,34.1957 C38.5623,33.8967 38.9593,33.6017 39.2913,33.2467 C39.4563,33.0687 39.6083,32.8717 39.7283,32.6357 C39.8473,32.4017 39.9343,32.1167 39.9343,31.8087 C39.9343,31.6237 39.9023,31.4357 39.8423,31.2607" id="Fill-19" fill="#FFFFFF"></path>
                <path d="M68.9517,33.7129 L70.9777,34.6169" id="Fill-21" fill="#FEFEFE"></path>
            </g>
            <path d="M152.311,71.074 C138.073,71.074 126.547,59.548 126.547,45.31 C126.547,31.073 138.073,19.548 152.311,19.548 C166.548,19.548 178.074,31.073 178.074,45.31 C178.074,59.526 166.548,71.074 152.311,71.074 Z M152.311,8 C131.709,8 115,24.709 115,45.31 C115,65.912 131.709,82.621 152.311,82.621 C172.913,82.621 189.622,65.912 189.622,45.31 C189.622,24.709 172.913,8 152.311,8 Z" id="Fill-44" fill="#E22126"></path>
            <polygon id="Fill-46" fill="#1E4390" points="107 52.872 197.915 52.872 197.915 38 107 38"></polygon>
            <path d="M187.912,42.421 L187.912,46.97 L188.962,46.97 C189.64,46.97 190.165,46.752 190.536,46.336 C190.908,45.921 191.083,45.374 191.083,44.674 C191.083,43.974 190.908,43.405 190.536,43.011 C190.165,42.596 189.64,42.399 188.962,42.399 L187.933,42.399 L187.912,42.421 Z M186.294,41.109 L189.159,41.109 C190.274,41.109 191.148,41.437 191.783,42.115 C192.417,42.793 192.745,43.646 192.745,44.717 C192.745,45.833 192.417,46.708 191.762,47.342 C191.105,47.976 190.186,48.304 188.962,48.304 L186.271,48.304 L186.271,41.109 L186.294,41.109 Z M184.85,41.109 L184.85,48.304 L183.494,48.304 L179.907,43.69 L179.907,48.304 L178.289,48.304 L178.289,41.109 L179.776,41.109 L183.254,45.505 L183.254,41.109 L184.872,41.109 L184.85,41.109 Z M175.249,41.109 L176.867,41.109 L176.867,45.198 C176.867,46.248 176.583,47.058 176.036,47.583 C175.468,48.129 174.681,48.392 173.631,48.392 C172.602,48.392 171.794,48.108 171.225,47.561 C170.656,47.014 170.372,46.227 170.372,45.198 L170.372,41.087 L171.99,41.087 L171.99,45.22 C171.99,45.723 172.143,46.117 172.428,46.423 C172.734,46.73 173.106,46.882 173.587,46.882 C174.09,46.882 174.483,46.73 174.79,46.423 C175.096,46.117 175.249,45.68 175.249,45.111 L175.249,41.087 L175.249,41.109 Z M165.539,46.904 C166.151,46.904 166.654,46.708 167.026,46.292 C167.397,45.877 167.595,45.352 167.595,44.695 C167.595,44.04 167.397,43.493 167.026,43.099 C166.654,42.705 166.151,42.486 165.539,42.486 C164.927,42.486 164.424,42.684 164.052,43.099 C163.68,43.493 163.483,44.04 163.483,44.695 C163.483,45.352 163.68,45.899 164.052,46.292 C164.424,46.708 164.927,46.904 165.539,46.904 L165.539,46.904 Z M165.539,41 C166.654,41 167.529,41.371 168.228,42.115 C168.907,42.858 169.257,43.712 169.257,44.717 C169.257,45.723 168.907,46.576 168.207,47.32 C167.507,48.064 166.633,48.414 165.539,48.414 C164.445,48.414 163.549,48.042 162.849,47.32 C162.149,46.598 161.821,45.723 161.821,44.717 C161.821,43.733 162.171,42.858 162.849,42.115 C163.526,41.371 164.424,41 165.539,41 L165.539,41 Z M157.425,42.421 L157.425,44.061 L158.278,44.061 C158.54,44.061 158.759,43.996 158.912,43.842 C159.065,43.69 159.152,43.493 159.152,43.23 C159.152,42.684 158.847,42.421 158.234,42.421 L157.425,42.421 Z M155.807,41.109 L158.693,41.109 C159.328,41.109 159.831,41.306 160.225,41.721 C160.618,42.115 160.814,42.618 160.814,43.187 C160.814,43.974 160.443,44.565 159.699,44.958 C160.027,45.111 160.334,45.57 160.64,46.27 C160.924,46.992 161.209,47.67 161.493,48.304 L159.722,48.304 C159.612,48.064 159.437,47.604 159.175,46.948 C158.912,46.292 158.693,45.855 158.497,45.658 C158.3,45.461 158.102,45.374 157.906,45.374 L157.447,45.374 L157.447,48.304 L155.828,48.304 L155.828,41.109 L155.807,41.109 Z M154.254,41.59 L154.254,43.165 C153.423,42.727 152.613,42.508 151.826,42.508 C151.06,42.508 150.471,42.727 150.055,43.143 C149.64,43.58 149.442,44.105 149.442,44.783 C149.442,45.417 149.64,45.942 150.055,46.336 C150.471,46.73 151.016,46.926 151.695,46.926 C152.045,46.926 152.417,46.839 152.766,46.664 L152.766,45.833 L151.826,45.833 L151.826,44.521 L154.385,44.521 L154.385,47.473 C154.123,47.757 153.728,47.998 153.204,48.173 C152.679,48.348 152.154,48.435 151.651,48.435 C150.514,48.435 149.596,48.086 148.874,47.386 C148.152,46.686 147.78,45.811 147.78,44.739 C147.78,43.646 148.152,42.749 148.874,42.049 C149.596,41.349 150.536,41.022 151.695,41.022 C152.657,41.022 153.51,41.218 154.254,41.612 L154.254,41.59 Z M143.231,42.421 L143.231,44.061 L144.084,44.061 C144.347,44.061 144.565,43.996 144.718,43.842 C144.871,43.69 144.959,43.493 144.959,43.23 C144.959,42.684 144.653,42.421 144.04,42.421 L143.231,42.421 Z M141.613,41.109 L144.499,41.109 C145.134,41.109 145.637,41.306 146.03,41.721 C146.424,42.115 146.621,42.618 146.621,43.187 C146.621,43.974 146.249,44.565 145.506,44.958 C145.834,45.111 146.14,45.57 146.446,46.27 C146.73,46.992 147.015,47.67 147.299,48.304 L145.528,48.304 C145.418,48.064 145.243,47.604 144.981,46.948 C144.718,46.292 144.499,45.855 144.303,45.658 C144.106,45.461 143.909,45.374 143.712,45.374 L143.253,45.374 L143.253,48.304 L141.635,48.304 L141.635,41.109 L141.613,41.109 Z M140.366,46.992 L140.366,48.304 L135.577,48.304 L135.577,41.109 L140.301,41.109 L140.301,42.421 L137.195,42.421 L137.195,43.93 L140.147,43.93 L140.147,45.242 L137.195,45.242 L137.195,46.97 L140.366,46.97 L140.366,46.992 Z M129.54,42.443 L129.54,46.992 L130.59,46.992 C131.268,46.992 131.793,46.773 132.165,46.358 C132.537,45.942 132.711,45.396 132.711,44.695 C132.711,43.996 132.537,43.427 132.165,43.033 C131.793,42.618 131.268,42.421 130.59,42.421 L129.562,42.421 L129.54,42.443 Z M127.922,41.13 L130.787,41.13 C131.902,41.13 132.777,41.459 133.412,42.137 C134.046,42.815 134.374,43.668 134.374,44.739 C134.374,45.855 134.046,46.73 133.39,47.364 C132.733,47.998 131.815,48.326 130.59,48.326 L127.9,48.326 L127.9,41.13 L127.922,41.13 Z M126.478,41.13 L126.478,48.326 L125.122,48.326 L121.536,43.712 L121.536,48.326 L119.917,48.326 L119.917,41.13 L121.405,41.13 L124.882,45.526 L124.882,41.13 L126.5,41.13 L126.478,41.13 Z M116.877,41.13 L118.496,41.13 L118.496,45.22 C118.496,46.27 118.212,47.079 117.665,47.604 C117.096,48.151 116.309,48.414 115.259,48.414 C114.231,48.414 113.422,48.129 112.853,47.583 C112.285,47.036 112,46.248 112,45.22 L112,41.109 L113.619,41.109 L113.619,45.242 C113.619,45.745 113.772,46.139 114.056,46.445 C114.362,46.752 114.734,46.904 115.215,46.904 C115.718,46.904 116.112,46.752 116.418,46.445 C116.724,46.139 116.877,45.702 116.877,45.133 L116.877,41.109 L116.877,41.13 Z" id="Fill-48" fill="#FEFEFE"></path>
        </g>
    </g>
</svg>