<?xml version="1.0" encoding="UTF-8"?>
<svg width="480px" height="85px" viewBox="0 0 480 85" version="1.1" xmlns="http://www.w3.org/2000/svg" xmlns:xlink="http://www.w3.org/1999/xlink">
    <!-- Generator: Sketch 41.2 (35397) - http://www.bohemiancoding.com/sketch -->
    <title>Artboard</title>
    <desc>Created with Sketch.</desc>
    <defs>
        <path d="M0.083,36.331 C0.083,56.031 16.052,72 35.752,72 C55.451,72 71.421,56.031 71.421,36.331 C71.421,26.546 67.478,17.688 61.097,11.245 C60.564,10.708 57.125,10.47 57.125,10.47 C64.569,16.631 69.32,25.935 69.32,36.331 C69.32,54.841 54.262,69.901 35.752,69.901 C17.243,69.901 2.183,54.841 2.183,36.331 C2.183,17.821 17.243,2.762 35.752,2.762 C37.56,2.762 39.333,2.909 41.063,3.186 C42.053,2.44 43.17,2.037 44.349,1.711 C41.594,1.03 38.718,0.661 35.752,0.661 C16.052,0.661 0.083,16.631 0.083,36.331 Z" id="path-1"></path>
        <path d="M22.799,0.63 C16.457,0.931 10.297,2.19 4.416,4.658 C3.692,4.962 2.825,5.361 3.27,6.266 C3.5,6.735 4.386,6.88 5.226,7.295 L5.226,32.863 C4.291,32.863 3.443,32.903 2.599,32.854 C1.458,32.787 0.98,33.246 0.991,34.418 C1.032,38.362 1.047,42.308 0.992,46.25 C0.973,47.568 1.507,47.979 2.754,47.951 C5.397,47.894 49.01,47.936 49.01,47.936 C50.001,47.944 50.518,47.602 50.512,46.54 C50.495,42.417 50.5,38.294 50.508,34.17 C50.51,33.273 50.1,32.854 49.203,32.868 C48.234,32.884 47.262,32.871 46.285,32.871 L46.285,7.29 C47.116,6.884 48.007,6.742 48.244,6.272 C48.696,5.365 47.799,4.982 47.099,4.653 C46.817,4.522 46.518,4.421 46.228,4.306 C43.612,3.276 40.957,2.486 38.27,1.894 C37.512,2.527 36.683,3.089 35.887,3.685 C38.234,4.114 40.554,4.689 42.849,5.403 C43.749,5.684 44.157,6.068 44.078,7.08 C43.97,8.449 44.051,9.834 44.051,11.348 C41.708,11.348 39.481,11.344 37.253,11.349 C35.608,11.352 35.457,11.497 35.452,13.092 C35.445,15.556 35.49,18.022 35.428,20.486 C35.398,21.737 35.923,22.143 37.115,22.114 C39.385,22.061 41.659,22.099 43.994,22.099 L43.994,32.772 L39.799,32.772 C39.658,32.079 39.539,31.341 39.351,30.621 C38.277,26.495 35.86,23.411 32.065,21.46 C31.372,21.104 31.104,20.729 31.122,19.941 C31.177,17.612 31.151,15.28 31.13,12.95 C31.122,12.085 31.376,11.551 32.31,11.285 C32.711,11.171 32.956,10.51 33.272,10.098 C32.842,9.796 32.419,9.239 31.986,9.234 C27.819,9.167 23.652,9.168 19.485,9.238 C19.066,9.245 18.655,9.828 18.241,10.144 C18.571,10.542 18.83,11.159 19.245,11.293 C20.089,11.566 20.391,12.033 20.387,12.856 C20.376,15.543 20.382,18.231 20.382,20.949 C15.326,23.312 12.465,27.263 11.757,32.803 L7.534,32.803 L7.534,22.099 C9.708,22.099 11.882,22.103 14.059,22.098 C15.99,22.094 16.064,22.023 16.069,20.154 C16.074,17.868 16.078,15.583 16.076,13.297 C16.075,11.443 15.987,11.354 14.067,11.349 C11.924,11.342 9.78,11.348 7.472,11.348 C7.472,9.603 7.429,7.96 7.513,6.323 C7.529,6.043 8.041,5.663 8.397,5.546 C13.861,3.745 18.451,2.819 24.152,2.764 C24.662,2.005 26.139,1.244 26.64,0.576 C26.291,0.572 25.943,0.57 25.594,0.57 C24.665,0.57 23.735,0.587 22.799,0.63 Z M22.599,20.083 L28.917,20.083 L28.917,11.392 L22.599,11.392 L22.599,20.083 Z M7.532,19.874 L13.833,19.874 L13.833,13.549 L7.532,13.549 L7.532,19.874 Z M37.656,19.862 L43.952,19.862 L43.952,13.567 L37.656,13.567 L37.656,19.862 Z M13.924,33.946 C13.92,27.508 19.274,22.133 25.717,22.107 C32.141,22.079 37.57,27.453 37.594,33.867 C37.62,40.369 32.244,45.766 25.732,45.777 L25.716,45.777 C19.321,45.778 13.928,40.369 13.924,33.946 Z M37.73,41.04 C38.774,39.271 39.29,37.19 40.099,35.081 L48.279,35.081 L48.279,45.717 L33.861,45.717 C35.14,44.206 36.702,42.781 37.73,41.04 Z M3.21,35.091 L11.754,35.091 C12.274,39.444 14.275,42.954 18.069,45.665 L3.21,45.665 L3.21,35.091 Z" id="path-3"></path>
        <path d="M7.506,0.413 C3.511,0.448 0.204,3.895 0.231,7.993 C0.261,12.223 3.629,15.52 7.876,15.476 C12.01,15.434 15.301,12.067 15.295,7.886 C15.289,3.67 11.919,0.412 7.582,0.412 C7.557,0.412 7.531,0.412 7.506,0.413 Z M7.723,13.323 C4.821,13.299 2.33,10.757 2.376,7.871 C2.424,4.96 4.97,2.491 7.855,2.558 C10.713,2.627 13.138,5.094 13.141,7.937 C13.143,10.805 10.624,13.324 7.765,13.323 L7.723,13.323 Z" id="path-5"></path>
        <path d="M1.278,1.726 C4.453,4.823 9.575,9.979 12.707,13.12 C13.234,13.65 13.812,13.992 14.453,13.4 C15.153,12.751 14.831,12.133 14.255,11.559 C11.713,9.029 7.18,4.491 4.649,1.953 C4.383,1.686 4.14,1.397 3.711,0.926 L0.404,0.924 C0.652,1.052 1.099,1.552 1.278,1.726 Z" id="path-7"></path>
        <path d="M11.792,0.926 C11.365,1.397 11.122,1.687 10.856,1.953 C8.324,4.491 3.791,9.03 1.251,11.559 C0.674,12.133 0.353,12.751 1.052,13.4 C1.693,13.992 2.271,13.65 2.798,13.12 C5.931,9.979 11.052,4.823 14.227,1.726 C14.406,1.553 14.853,1.052 15.101,0.924 L11.792,0.926 Z" id="path-9"></path>
        <path d="M0,0.959 L0.001,0.959 L0,0.959 Z" id="path-11"></path>
        <path d="M0,0.965 C0,0.964 0.001,0.963 0.001,0.962 L0.001,0.959 L0,0.965 Z" id="path-13"></path>
        <polygon id="path-15" points="0 84.8898994 480 84.8898994 480 -0.0001 0 -0.0001"></polygon>
        <polygon id="path-17" points="0.874922603 26 68.087 26 68.087 0.985322603 0.874922603 0.985322603 0.874922603 26"></polygon>
        <polygon id="path-19" points="0 0.0002 0 42.6106812 70.9776 42.6106812 70.9776 0.0002 8.13151629e-20 0.0002"></polygon>
    </defs>
    <g id="Other-Icons" stroke="none" stroke-width="1" fill="none" fill-rule="evenodd">
        <g id="Artboard">
            <g id="Page-1">
                <g id="Group-3" transform="translate(405.000000, 10.892900)">
                    <mask id="mask-2" fill="white">
                        <use xlink:href="#path-1"></use>
                    </mask>
                    <g id="Clip-2"></g>
                    <polygon id="Fill-1" fill="#FEFEFE" mask="url(#mask-2)" points="-4.916 77 76.422 77 76.422 -4.339 -4.916 -4.339"></polygon>
                </g>
                <g id="Group-6" transform="translate(415.000000, 20.892900)">
                    <mask id="mask-4" fill="white">
                        <use xlink:href="#path-3"></use>
                    </mask>
                    <g id="Clip-5"></g>
                    <polygon id="Fill-4" fill="#ED718C" mask="url(#mask-4)" points="-4.009 52.953 55.512 52.953 55.512 -4.43 -4.009 -4.43"></polygon>
                </g>
                <g id="Group-9" transform="translate(433.000000, 46.892900)">
                    <mask id="mask-6" fill="white">
                        <use xlink:href="#path-5"></use>
                    </mask>
                    <g id="Clip-8"></g>
                    <polygon id="Fill-7" fill="#EC708B" mask="url(#mask-6)" points="-4.769 20.477 20.295 20.477 20.295 -4.588 -4.769 -4.588"></polygon>
                </g>
                <g id="Group-16" transform="translate(419.000000, 1.892900)" stroke="#FEFEFE" stroke-width="2">
                    <path d="M42.8472,60.0798 C42.8472,61.7218 41.5172,63.0518 39.8752,63.0518 C38.2352,63.0518 36.9052,61.7218 36.9052,60.0798 C36.9052,58.4388 38.2352,57.1088 39.8752,57.1088 C41.5172,57.1088 42.8472,58.4388 42.8472,60.0798 Z" id="Stroke-10"></path>
                    <path d="M6.4761,60.0798 C6.4761,61.7218 5.1461,63.0518 3.5051,63.0518 C1.8651,63.0518 0.5351,61.7218 0.5351,60.0798 C0.5351,58.4388 1.8651,57.1088 3.5051,57.1088 C5.1461,57.1088 6.4761,58.4388 6.4761,60.0798 Z" id="Stroke-12"></path>
                    <path d="M47.5015,0.0226 C43.5815,0.0226 40.1725,2.2056 38.4195,5.4196 C37.9175,5.3206 37.3975,5.2656 36.8655,5.2656 C32.7615,5.2656 29.3855,8.3796 28.9695,12.3746 C28.4785,12.2366 27.9625,12.1576 27.4275,12.1576 C24.2835,12.1576 21.7335,14.7066 21.7335,17.8496 C21.7335,18.5946 21.8825,19.3056 22.1425,19.9586 C22.1055,19.9566 22.0705,19.9476 22.0345,19.9476 C20.5455,19.9476 19.3375,21.1546 19.3375,22.6436 C19.3375,24.1326 20.5455,25.3396 22.0345,25.3396 C23.4525,25.3396 24.6015,24.2426 24.7095,22.8526 C25.5175,23.2926 26.4425,23.5426 27.4275,23.5426 C29.8245,23.5426 31.8715,22.0586 32.7105,19.9616 C33.9205,20.7086 35.3395,21.1456 36.8655,21.1456 C38.8745,21.1456 40.7045,20.3926 42.1035,19.1626 C43.6755,20.1286 45.5205,20.6966 47.5015,20.6966 C53.2105,20.6966 57.8385,16.0686 57.8385,10.3596 C57.8385,4.6506 53.2105,0.0226 47.5015,0.0226 Z" id="Stroke-14" stroke-linecap="round" stroke-linejoin="round"></path>
                </g>
                <g id="Group-19" transform="translate(451.000000, 67.892900)">
                    <mask id="mask-8" fill="white">
                        <use xlink:href="#path-7"></use>
                    </mask>
                    <g id="Clip-18"></g>
                    <polygon id="Fill-17" fill="#ED718C" mask="url(#mask-8)" points="-4.596 18.712 19.851 18.712 19.851 -4.076 -4.596 -4.076"></polygon>
                </g>
                <g id="Group-22" transform="translate(415.000000, 67.892900)">
                    <mask id="mask-10" fill="white">
                        <use xlink:href="#path-9"></use>
                    </mask>
                    <g id="Clip-21"></g>
                    <polygon id="Fill-20" fill="#ED718C" mask="url(#mask-10)" points="-4.346 18.712 20.101 18.712 20.101 -4.076 -4.346 -4.076"></polygon>
                </g>
                <g id="Group-37" transform="translate(6.000000, 40.892900)">
                    <mask id="mask-12" fill="white">
                        <use xlink:href="#path-11"></use>
                    </mask>
                    <g id="Clip-36"></g>
                    <polygon id="Fill-35" fill="#F0718D" mask="url(#mask-12)" points="-5 5.959 5.001 5.959 5.001 -4.041 -5 -4.041"></polygon>
                </g>
                <g id="Group-40" transform="translate(3.000000, 42.892900)">
                    <mask id="mask-14" fill="white">
                        <use xlink:href="#path-13"></use>
                    </mask>
                    <g id="Clip-39"></g>
                    <polygon id="Fill-38" fill="#F0718D" mask="url(#mask-14)" points="-5 5.965 5.001 5.965 5.001 -4.041 -5 -4.041"></polygon>
                </g>
                <path d="M238.9165,71.2217 C224.6785,71.2217 213.1525,59.6957 213.1525,45.4577 C213.1525,31.2207 224.6785,19.6957 238.9165,19.6957 C253.1535,19.6957 264.6795,31.2207 264.6795,45.4577 C264.6795,59.6737 253.1535,71.2217 238.9165,71.2217 Z M238.9165,8.1477 C218.3145,8.1477 201.6055,24.8567 201.6055,45.4577 C201.6055,66.0597 218.3145,82.7687 238.9165,82.7687 C259.5185,82.7687 276.2275,66.0597 276.2275,45.4577 C276.2275,24.8567 259.5185,8.1477 238.9165,8.1477 Z" id="Fill-44" fill="#E22126"></path>
                <mask id="mask-16" fill="white">
                    <use xlink:href="#path-15"></use>
                </mask>
                <g id="Clip-47"></g>
                <polygon id="Fill-46" fill="#1E4390" mask="url(#mask-16)" points="193.47 52.4129 284.385 52.4129 284.385 37.5409 193.47 37.5409"></polygon>
                <path d="M274.4771,42.6807 L274.4771,47.2297 L275.5271,47.2297 C276.2051,47.2297 276.7301,47.0117 277.1011,46.5957 C277.4731,46.1807 277.6481,45.6337 277.6481,44.9337 C277.6481,44.2337 277.4731,43.6647 277.1011,43.2707 C276.7301,42.8557 276.2051,42.6587 275.5271,42.6587 L274.4981,42.6587 L274.4771,42.6807 Z M272.8591,41.3687 L275.7241,41.3687 C276.8391,41.3687 277.7131,41.6967 278.3481,42.3747 C278.9821,43.0527 279.3101,43.9057 279.3101,44.9767 C279.3101,46.0927 278.9821,46.9677 278.3271,47.6017 C277.6701,48.2357 276.7511,48.5637 275.5271,48.5637 L272.8361,48.5637 L272.8361,41.3687 L272.8591,41.3687 Z M271.4151,41.3687 L271.4151,48.5637 L270.0591,48.5637 L266.4721,43.9497 L266.4721,48.5637 L264.8541,48.5637 L264.8541,41.3687 L266.3411,41.3687 L269.8191,45.7647 L269.8191,41.3687 L271.4371,41.3687 L271.4151,41.3687 Z M261.8141,41.3687 L263.4321,41.3687 L263.4321,45.4577 C263.4321,46.5077 263.1481,47.3177 262.6011,47.8427 C262.0331,48.3887 261.2461,48.6517 260.1961,48.6517 C259.1671,48.6517 258.3591,48.3677 257.7901,47.8207 C257.2211,47.2737 256.9371,46.4867 256.9371,45.4577 L256.9371,41.3467 L258.5551,41.3467 L258.5551,45.4797 C258.5551,45.9827 258.7081,46.3767 258.9931,46.6827 C259.2991,46.9897 259.6711,47.1417 260.1521,47.1417 C260.6551,47.1417 261.0481,46.9897 261.3551,46.6827 C261.6611,46.3767 261.8141,45.9397 261.8141,45.3707 L261.8141,41.3467 L261.8141,41.3687 Z M252.1041,47.1637 C252.7161,47.1637 253.2191,46.9677 253.5911,46.5517 C253.9621,46.1367 254.1601,45.6117 254.1601,44.9547 C254.1601,44.2997 253.9621,43.7527 253.5911,43.3587 C253.2191,42.9647 252.7161,42.7457 252.1041,42.7457 C251.4921,42.7457 250.9891,42.9437 250.6171,43.3587 C250.2451,43.7527 250.0481,44.2997 250.0481,44.9547 C250.0481,45.6117 250.2451,46.1587 250.6171,46.5517 C250.9891,46.9677 251.4921,47.1637 252.1041,47.1637 L252.1041,47.1637 Z M252.1041,41.2597 C253.2191,41.2597 254.0941,41.6307 254.7931,42.3747 C255.4721,43.1177 255.8221,43.9717 255.8221,44.9767 C255.8221,45.9827 255.4721,46.8357 254.7721,47.5797 C254.0721,48.3237 253.1981,48.6737 252.1041,48.6737 C251.0101,48.6737 250.1141,48.3017 249.4141,47.5797 C248.7141,46.8577 248.3861,45.9827 248.3861,44.9767 C248.3861,43.9927 248.7361,43.1177 249.4141,42.3747 C250.0911,41.6307 250.9891,41.2597 252.1041,41.2597 L252.1041,41.2597 Z M243.9901,42.6807 L243.9901,44.3207 L244.8431,44.3207 C245.1051,44.3207 245.3241,44.2557 245.4771,44.1017 C245.6301,43.9497 245.7171,43.7527 245.7171,43.4897 C245.7171,42.9437 245.4121,42.6807 244.7991,42.6807 L243.9901,42.6807 Z M242.3721,41.3687 L245.2581,41.3687 C245.8931,41.3687 246.3961,41.5657 246.7901,41.9807 C247.1831,42.3747 247.3791,42.8777 247.3791,43.4467 C247.3791,44.2337 247.0081,44.8247 246.2641,45.2177 C246.5921,45.3707 246.8991,45.8297 247.2051,46.5297 C247.4891,47.2517 247.7741,47.9297 248.0581,48.5637 L246.2871,48.5637 C246.1771,48.3237 246.0021,47.8637 245.7401,47.2077 C245.4771,46.5517 245.2581,46.1147 245.0621,45.9177 C244.8651,45.7207 244.6671,45.6337 244.4711,45.6337 L244.0121,45.6337 L244.0121,48.5637 L242.3931,48.5637 L242.3931,41.3687 L242.3721,41.3687 Z M240.8191,41.8497 L240.8191,43.4247 C239.9881,42.9867 239.1781,42.7677 238.3911,42.7677 C237.6251,42.7677 237.0361,42.9867 236.6201,43.4027 C236.2051,43.8397 236.0071,44.3647 236.0071,45.0427 C236.0071,45.6767 236.2051,46.2017 236.6201,46.5957 C237.0361,46.9897 237.5811,47.1857 238.2601,47.1857 C238.6101,47.1857 238.9821,47.0987 239.3311,46.9237 L239.3311,46.0927 L238.3911,46.0927 L238.3911,44.7807 L240.9501,44.7807 L240.9501,47.7327 C240.6881,48.0167 240.2931,48.2577 239.7691,48.4327 C239.2441,48.6077 238.7191,48.6947 238.2161,48.6947 C237.0791,48.6947 236.1611,48.3457 235.4391,47.6457 C234.7171,46.9457 234.3451,46.0707 234.3451,44.9987 C234.3451,43.9057 234.7171,43.0087 235.4391,42.3087 C236.1611,41.6087 237.1011,41.2817 238.2601,41.2817 C239.2221,41.2817 240.0751,41.4777 240.8191,41.8717 L240.8191,41.8497 Z M229.7961,42.6807 L229.7961,44.3207 L230.6491,44.3207 C230.9121,44.3207 231.1301,44.2557 231.2831,44.1017 C231.4361,43.9497 231.5241,43.7527 231.5241,43.4897 C231.5241,42.9437 231.2181,42.6807 230.6051,42.6807 L229.7961,42.6807 Z M228.1781,41.3687 L231.0641,41.3687 C231.6991,41.3687 232.2021,41.5657 232.5951,41.9807 C232.9891,42.3747 233.1861,42.8777 233.1861,43.4467 C233.1861,44.2337 232.8141,44.8247 232.0711,45.2177 C232.3991,45.3707 232.7051,45.8297 233.0111,46.5297 C233.2951,47.2517 233.5801,47.9297 233.8641,48.5637 L232.0931,48.5637 C231.9831,48.3237 231.8081,47.8637 231.5461,47.2077 C231.2831,46.5517 231.0641,46.1147 230.8681,45.9177 C230.6711,45.7207 230.4741,45.6337 230.2771,45.6337 L229.8181,45.6337 L229.8181,48.5637 L228.2001,48.5637 L228.2001,41.3687 L228.1781,41.3687 Z M226.9311,47.2517 L226.9311,48.5637 L222.1421,48.5637 L222.1421,41.3687 L226.8661,41.3687 L226.8661,42.6807 L223.7601,42.6807 L223.7601,44.1897 L226.7121,44.1897 L226.7121,45.5017 L223.7601,45.5017 L223.7601,47.2297 L226.9311,47.2297 L226.9311,47.2517 Z M216.1051,42.7027 L216.1051,47.2517 L217.1551,47.2517 C217.8331,47.2517 218.3581,47.0327 218.7301,46.6177 C219.1021,46.2017 219.2761,45.6557 219.2761,44.9547 C219.2761,44.2557 219.1021,43.6867 218.7301,43.2927 C218.3581,42.8777 217.8331,42.6807 217.1551,42.6807 L216.1271,42.6807 L216.1051,42.7027 Z M214.4871,41.3897 L217.3521,41.3897 C218.4671,41.3897 219.3421,41.7187 219.9771,42.3967 C220.6111,43.0747 220.9391,43.9277 220.9391,44.9987 C220.9391,46.1147 220.6111,46.9897 219.9551,47.6237 C219.2981,48.2577 218.3801,48.5857 217.1551,48.5857 L214.4651,48.5857 L214.4651,41.3897 L214.4871,41.3897 Z M213.0431,41.3897 L213.0431,48.5857 L211.6871,48.5857 L208.1011,43.9717 L208.1011,48.5857 L206.4821,48.5857 L206.4821,41.3897 L207.9701,41.3897 L211.4471,45.7857 L211.4471,41.3897 L213.0651,41.3897 L213.0431,41.3897 Z M203.4421,41.3897 L205.0611,41.3897 L205.0611,45.4797 C205.0611,46.5297 204.7771,47.3387 204.2301,47.8637 C203.6611,48.4107 202.8741,48.6737 201.8241,48.6737 C200.7961,48.6737 199.9871,48.3887 199.4181,47.8427 C198.8501,47.2957 198.5651,46.5077 198.5651,45.4797 L198.5651,41.3687 L200.1841,41.3687 L200.1841,45.5017 C200.1841,46.0047 200.3371,46.3987 200.6211,46.7047 C200.9271,47.0117 201.2991,47.1637 201.7801,47.1637 C202.2831,47.1637 202.6771,47.0117 202.9831,46.7047 C203.2891,46.3987 203.4421,45.9617 203.4421,45.3927 L203.4421,41.3687 L203.4421,41.3897 Z" id="Fill-48" fill="#FEFEFE" mask="url(#mask-16)"></path>
            </g>
            <polygon id="Fill-10" fill="#F1718D" points="1 37 1 37 1.001 37"></polygon>
            <g id="Page-1" transform="translate(2.000000, 12.000000)">
                <g id="Group-3" transform="translate(1.000000, 44.999900)">
                    <mask id="mask-18" fill="white">
                        <use xlink:href="#path-17"></use>
                    </mask>
                    <g id="Clip-2"></g>
                    <path d="M66,1.6524 C61.258,14.3914 48.892,24.0024 34.5,24.0004 C20.209,24.0014 8.017,15.0474 3.203,2.4474 C3.104,2.1774 2.975,1.9644 2.919,1.8754 C2.869,1.7884 2.878,1.8174 2.822,1.6654 C2.646,1.1414 2.078,0.8614 1.555,1.0384 C1.031,1.2154 0.751,1.7824 0.928,2.3054 C1.016,2.5784 1.143,2.8084 1.213,2.9194 C1.278,3.0284 1.274,3.0104 1.334,3.1604 C6.434,16.5134 19.355,25.9994 34.5,26.0004 C50.083,25.9984 63.31,15.9564 68.087,1.9904 C68.087,1.9904 66.818,1.8054 66,1.6524" id="Fill-1" fill="#FEFEFE" mask="url(#mask-18)"></path>
                </g>
                <g id="Group-6" transform="translate(0.000000, -0.000100)">
                    <mask id="mask-20" fill="white">
                        <use xlink:href="#path-19"></use>
                    </mask>
                    <g id="Clip-5"></g>
                    <path d="M70.9776,34.6172 C70.5066,15.4202 54.8106,0.0012 35.4996,0.0002 C15.8936,0.0012 0.0006,15.8932 -0.0004,35.5002 C-0.0014,37.7982 0.0816,39.5712 0.5186,41.8022 C0.6236,42.3442 1.1496,42.6972 1.6916,42.5922 C2.2336,42.4862 2.5876,41.9612 2.4816,41.4192 C2.0766,39.3372 2.0006,37.7622 1.9996,35.5002 C2.0006,26.2462 5.7486,17.8772 11.8116,11.8112 C17.8766,5.7482 26.2466,2.0012 35.4996,2.0002 C44.7536,2.0012 53.1236,5.7482 59.1886,11.8112 C64.8596,17.4842 68.5516,26.2772 68.9996,34.8182 L70.9776,34.6172 Z" id="Fill-4" fill="#FEFEFE" mask="url(#mask-20)"></path>
                </g>
                <path d="M15.5005,57.7861 C15.5015,57.0661 16.0855,56.4811 16.8065,56.4801 C16.9815,56.4801 17.1455,56.5151 17.2985,56.5781 C17.5685,56.6901 17.8725,56.6791 18.1335,56.5461 C18.3945,56.4131 18.5835,56.1761 18.6525,55.8911 C18.9295,54.7601 19.9465,53.9161 21.1625,53.9181 C21.4245,53.9181 21.6755,53.9581 21.9205,54.0311 C22.2385,54.1261 22.5815,54.0581 22.8385,53.8491 C23.0955,53.6411 23.2325,53.3201 23.2055,52.9901 C23.1945,52.8631 23.1875,52.7551 23.1875,52.6611 C23.1875,51.5911 23.6195,50.6301 24.3205,49.9271 C25.0245,49.2241 25.9855,48.7941 27.0565,48.7931 C28.1275,48.7941 29.0885,49.2241 29.7915,49.9261 C30.4935,50.6301 30.9235,51.5911 30.9245,52.6611 C30.9245,52.8631 30.9045,53.0671 30.8705,53.2791 C30.8255,53.5571 30.9015,53.8461 31.0785,54.0651 C31.2545,54.2861 31.5195,54.4221 31.8015,54.4371 C33.0255,54.5071 34.0015,55.5201 34.0005,56.7631 C34.0025,57.8321 33.2725,58.7281 32.2875,59.0011 L16.6385,59.0661 C15.9945,58.9811 15.4995,58.4471 15.5005,57.7861 L15.5005,57.7861 Z M16.5535,61.0661 L32.4415,61.0001 L32.6675,60.9731 C34.5795,60.5211 35.9985,58.8101 36.0005,56.7631 C35.9995,54.8071 34.6995,53.1731 32.9225,52.6341 C32.9075,49.4061 30.2895,46.7941 27.0565,46.7931 C24.0655,46.7941 21.6035,49.0321 21.2385,51.9241 C21.2125,51.9231 21.1885,51.9181 21.1625,51.9181 C19.3485,51.9191 17.7945,52.9771 17.0505,54.5051 C16.9685,54.4991 16.8905,54.4801 16.8065,54.4801 C14.9795,54.4811 13.5015,55.9611 13.5005,57.7861 C13.5015,59.4921 14.7925,60.8801 16.4385,61.0601 L16.5535,61.0661 Z" id="Fill-7" fill="#EF718C"></path>
                <path d="M70.9776,34.6171 C70.6076,34.6191 69.4996,34.6931 69.4996,34.6931 L68.9996,33.5681 C67.4786,30.6491 64.3836,28.7991 60.8616,28.7971 C60.4066,28.7971 59.9596,28.8321 59.5226,28.8971 C59.3526,22.3981 54.0436,17.1821 47.5036,17.1811 C40.8576,17.1821 35.4706,22.5681 35.4706,29.2161 C35.4706,29.7111 35.5136,30.1791 35.5686,30.6211 C35.6366,31.1691 36.1366,31.5581 36.6846,31.4901 C37.2326,31.4231 37.6216,30.9231 37.5536,30.3751 C37.5036,29.9751 37.4706,29.5931 37.4706,29.2161 C37.4706,26.4411 38.5916,23.9391 40.4096,22.1201 C42.2276,20.3031 44.7296,19.1821 47.5036,19.1811 C50.2786,19.1821 52.7816,20.3031 54.6006,22.1201 C56.4176,23.9391 57.5386,26.4411 57.5396,29.2161 C57.5396,29.4861 57.5206,29.7671 57.4956,30.0671 L57.3736,31.5371 L58.7836,31.1061 C59.4426,30.9061 60.1386,30.7971 60.8616,30.7971 C64.2146,30.7951 67.0216,33.1181 67.7826,36.2351 L68.0586,37.3681 L69.1356,36.9231 C69.4196,36.8051 69.7596,36.7231 70.1396,36.6681 C70.3946,36.6311 70.5856,36.6031 70.7346,36.6041 C71.9066,36.6041 72.9566,37.0761 73.7246,37.8431 C74.4916,38.6101 74.9626,39.6611 74.9626,40.8321 C74.9646,42.9891 73.3356,44.7481 71.2366,45.0011 L68.3766,44.9871 L35.4576,44.8501 C32.6136,44.1371 30.4976,41.5731 30.4996,38.5101 C30.4996,38.1871 30.5326,37.8581 30.5836,37.5171 C30.6656,36.9711 30.2896,36.4621 29.7446,36.3791 C29.1976,36.2971 28.6886,36.6731 28.6056,37.2191 C28.5446,37.6221 28.4996,38.0531 28.4996,38.5101 C28.5016,42.5521 31.3066,45.9301 35.0776,46.8221 L35.3036,46.8491 L66.9756,46.9811 C66.9516,47.0481 71.3696,47.0011 71.3696,47.0011 L71.4276,46.9951 C74.5326,46.6491 76.9616,44.0391 76.9626,40.8321 C76.9626,37.4731 74.3076,34.5951 70.9776,34.6171" id="Fill-9" fill="#EF718C"></path>
                <path d="M37.9361,16.999 L37.8101,16.992 C37.7921,16.991 37.7761,17 37.7581,17 L27.9901,17 C27.9791,16.999 27.9701,16.992 27.9581,16.991 C26.8661,16.919 25.9981,16.008 26.0001,14.895 C26.0021,13.734 26.9421,12.793 28.1041,12.791 C28.5961,12.792 29.0381,12.958 29.3991,13.24 C29.6511,13.438 29.9791,13.504 30.2881,13.417 C30.5971,13.33 30.8431,13.103 30.9551,12.803 C31.3911,11.631 32.5211,10.791 33.8451,10.793 C34.3901,10.793 34.8951,10.933 35.3381,11.179 C35.7211,11.393 36.1991,11.331 36.5161,11.028 C36.7011,10.853 36.9371,10.75 37.2051,10.75 C37.7551,10.751 38.2021,11.197 38.2031,11.749 C38.2031,11.871 38.1811,11.987 38.1381,12.099 C37.9491,12.598 38.1861,13.159 38.6761,13.371 C39.3491,13.664 39.8201,14.329 39.8191,15.108 C39.8171,16.149 38.9781,16.992 37.9361,16.999 M40.1851,11.95 C40.1891,11.883 40.2031,11.817 40.2031,11.749 C40.2031,10.092 38.8611,8.751 37.2051,8.75 C36.6651,8.75 36.1641,8.904 35.7271,9.154 C35.1431,8.922 34.5071,8.793 33.8451,8.793 C32.0711,8.794 30.5201,9.711 29.6111,11.089 C29.1431,10.902 28.6371,10.791 28.1041,10.791 C25.8361,10.792 24.0001,12.629 24.0001,14.895 C24.0011,17.068 25.6861,18.843 27.8241,18.987 L27.8241,18.986 C27.8471,18.988 27.8681,19 27.8911,19 L37.7581,19 C37.7691,19 37.7771,18.994 37.7881,18.994 L37.8751,18.999 L37.9271,19 C40.0781,18.999 41.8191,17.258 41.8191,15.108 C41.8181,13.803 41.1701,12.655 40.1851,11.95" id="Fill-13" fill="#EF718C"></path>
                <polygon id="Fill-15" fill="#FEFEFE" points="4.1392 29.7851 4.1392 29.7851 4.1402 29.7851"></polygon>
                <path d="M0.5127,31.8369 C0.5127,31.8359 0.5137,31.8349 0.5137,31.8339 L0.5137,31.8309 L0.5127,31.8369 Z" id="Fill-17" fill="#FEFEFE"></path>
                <path d="M39.8423,31.2607 L39.8403,31.2547 C39.7003,30.8687 39.4623,30.6437 39.2413,30.4707 C38.9023,30.2157 38.5353,30.0547 38.1243,29.9037 C37.7133,29.7557 37.2603,29.6317 36.7833,29.5227 L36.7813,29.5227 C35.3383,29.1977 33.6873,29.0207 32.5763,29.0187 C32.3153,29.0187 32.0833,29.0277 31.8643,29.0547 L31.8613,29.0547 C31.6813,29.0787 31.5293,29.1177 31.3423,29.1687 C30.6583,29.3597 29.5663,29.7527 28.2533,30.2487 C24.8953,31.5207 20.2183,33.4427 18.9393,33.9707 C18.0173,33.6657 15.4143,32.8097 12.6543,31.9497 C10.9353,31.4147 9.1593,30.8787 7.6843,30.4737 C6.9463,30.2717 6.2843,30.1017 5.7333,29.9797 C5.4573,29.9177 5.2103,29.8677 4.9873,29.8327 C4.7623,29.7967 4.5713,29.7737 4.3623,29.7727 L4.1393,29.7847 C3.4413,29.8757 2.7573,29.9387 2.0943,30.1567 C1.7633,30.2697 1.4243,30.4287 1.1203,30.7087 C0.8163,30.9847 0.5843,31.4007 0.5133,31.8337 L0.4953,32.0437 C0.5043,32.3807 0.5943,32.5617 0.6743,32.7397 C0.8343,33.0617 1.0433,33.3487 1.3073,33.6847 C2.2213,34.8327 3.8213,36.4337 5.2223,37.7867 C5.7493,38.2957 6.2443,38.7657 6.6583,39.1547 C5.0783,39.8037 2.5293,40.8167 0.9673,41.2767 C0.4373,41.4327 0.1343,41.9897 0.2913,42.5187 C0.4473,43.0477 1.0043,43.3507 1.5333,43.1947 C2.8633,42.8007 4.6773,42.1067 6.1833,41.5047 C7.6853,40.9047 8.8653,40.3987 8.8703,40.3967 C9.1843,40.2627 9.4063,39.9807 9.4633,39.6447 C9.5203,39.3087 9.4033,38.9687 9.1513,38.7397 C9.1513,38.7387 9.0453,38.6417 8.8553,38.4667 C8.1933,37.8557 6.5293,36.3047 5.0463,34.8057 C4.3043,34.0567 3.6073,33.3187 3.1153,32.7367 C2.9003,32.4817 2.7343,32.2647 2.6193,32.0967 C2.7063,32.0587 2.8333,32.0137 3.0043,31.9767 C3.3473,31.8977 3.8283,31.8397 4.3683,31.7727 C4.3933,31.7717 4.5103,31.7807 4.6703,31.8077 C5.3033,31.9067 6.5503,32.2257 7.9943,32.6377 C10.1693,33.2587 12.8413,34.0967 14.9633,34.7787 C16.0243,35.1187 16.9493,35.4207 17.6093,35.6377 C18.2683,35.8547 18.6593,35.9857 18.6603,35.9857 C18.8873,36.0617 19.1383,36.0527 19.3603,35.9607 C19.3623,35.9597 20.0823,35.6607 21.1903,35.2077 C22.8513,34.5287 25.3773,33.5047 27.6133,32.6367 C28.7303,32.2027 29.7763,31.8077 30.5973,31.5167 C31.0073,31.3707 31.3623,31.2507 31.6343,31.1667 C31.8983,31.0837 32.1083,31.0367 32.1133,31.0387 C32.2043,31.0277 32.3713,31.0177 32.5763,31.0177 C33.4743,31.0157 35.0773,31.1857 36.3403,31.4737 L36.3423,31.4737 C36.8993,31.5997 37.3983,31.7507 37.7173,31.8927 C37.7433,31.9037 37.7603,31.9137 37.7843,31.9247 C37.7213,31.9887 37.6493,32.0587 37.5503,32.1377 C37.2133,32.4127 36.6843,32.7467 36.0623,33.1087 C35.4393,33.4707 34.7193,33.8647 33.9773,34.2947 L33.9773,34.2947 C33.5603,34.5367 32.8563,34.8797 32.0213,35.2517 C31.1853,35.6267 30.2113,36.0367 29.2173,36.4427 C27.6493,37.0827 26.0303,37.7127 24.8053,38.1827 C23.5803,38.6527 22.7523,38.9587 22.7503,38.9597 C22.6023,39.0147 22.4633,39.1097 22.3573,39.2267 C22.3573,39.2267 22.2943,39.2957 22.1773,39.4227 C21.7693,39.8647 20.7203,40.9867 19.6643,41.9897 C19.1373,42.4897 18.6073,42.9617 18.1753,43.2917 C17.9613,43.4567 17.7703,43.5857 17.6373,43.6607 L17.5193,43.7187 C17.4333,43.7107 17.1393,43.6357 16.8083,43.4757 C16.2323,43.2127 15.5263,42.7767 14.9853,42.4117 C14.7133,42.2307 14.4803,42.0657 14.3163,41.9477 L14.1273,41.8077 L14.0643,41.7607 C13.7693,41.5367 13.3773,41.4937 13.0413,41.6497 C13.0413,41.6497 12.9503,41.6917 12.7763,41.7697 C11.5663,42.3177 6.3803,44.6037 2.4903,45.6447 C1.9573,45.7877 1.6413,46.3357 1.7843,46.8697 C1.9273,47.4037 2.4763,47.7197 3.0093,47.5757 C6.9073,46.5267 11.7553,44.4167 13.3413,43.7077 C13.6393,43.9197 14.0523,44.2017 14.5123,44.4897 C14.9703,44.7737 15.4723,45.0627 15.9733,45.2927 C16.4833,45.5187 16.9623,45.7117 17.5543,45.7227 L17.7213,45.7157 L17.7253,45.7157 C18.1653,45.6637 18.4313,45.5087 18.7303,45.3387 C19.2343,45.0317 19.7643,44.5977 20.3233,44.1017 C21.7073,42.8677 23.1983,41.2667 23.6733,40.7497 C24.4653,40.4537 27.2763,39.3957 29.9723,38.2937 C30.9803,37.8827 31.9713,37.4657 32.8383,37.0777 C33.7063,36.6897 34.4433,36.3357 34.9803,36.0257 L34.9813,36.0257 C36.1023,35.3727 37.2193,34.7847 38.1143,34.1957 C38.5623,33.8967 38.9593,33.6017 39.2913,33.2467 C39.4563,33.0687 39.6083,32.8717 39.7283,32.6357 C39.8473,32.4017 39.9343,32.1167 39.9343,31.8087 C39.9343,31.6237 39.9023,31.4357 39.8423,31.2607" id="Fill-19" fill="#FFFFFF"></path>
                <path d="M68.9517,33.7129 L70.9777,34.6169" id="Fill-21" fill="#FEFEFE"></path>
            </g>
        </g>
    </g>
</svg>