<?xml version="1.0" encoding="UTF-8"?>
<svg width="480px" height="85px" viewBox="0 0 480 85" version="1.1" xmlns="http://www.w3.org/2000/svg" xmlns:xlink="http://www.w3.org/1999/xlink">
    <!-- Generator: Sketch 41.2 (35397) - http://www.bohemiancoding.com/sketch -->
    <title>Artboard</title>
    <desc>Created with Sketch.</desc>
    <defs>
        <path d="M0.083,36.331 C0.083,56.031 16.052,72 35.752,72 C55.451,72 71.421,56.031 71.421,36.331 C71.421,26.546 67.478,17.688 61.097,11.245 C60.564,10.708 57.125,10.47 57.125,10.47 C64.569,16.631 69.32,25.935 69.32,36.331 C69.32,54.841 54.262,69.901 35.752,69.901 C17.243,69.901 2.183,54.841 2.183,36.331 C2.183,17.821 17.243,2.762 35.752,2.762 C37.56,2.762 39.333,2.909 41.063,3.186 C42.053,2.44 43.17,2.037 44.349,1.711 C41.594,1.03 38.718,0.661 35.752,0.661 C16.052,0.661 0.083,16.631 0.083,36.331 Z" id="path-1"></path>
        <path d="M22.799,0.63 C16.457,0.931 10.297,2.19 4.416,4.658 C3.692,4.962 2.825,5.361 3.27,6.266 C3.5,6.735 4.386,6.88 5.226,7.295 L5.226,32.863 C4.291,32.863 3.443,32.903 2.599,32.854 C1.458,32.787 0.98,33.246 0.991,34.418 C1.032,38.362 1.047,42.308 0.992,46.25 C0.973,47.568 1.507,47.979 2.754,47.951 C5.397,47.894 49.01,47.936 49.01,47.936 C50.001,47.944 50.518,47.602 50.512,46.54 C50.495,42.417 50.5,38.294 50.508,34.17 C50.51,33.273 50.1,32.854 49.203,32.868 C48.234,32.884 47.262,32.871 46.285,32.871 L46.285,7.29 C47.116,6.884 48.007,6.742 48.244,6.272 C48.696,5.365 47.799,4.982 47.099,4.653 C46.817,4.522 46.518,4.421 46.228,4.306 C43.612,3.276 40.957,2.486 38.27,1.894 C37.512,2.527 36.683,3.089 35.887,3.685 C38.234,4.114 40.554,4.689 42.849,5.403 C43.749,5.684 44.157,6.068 44.078,7.08 C43.97,8.449 44.051,9.834 44.051,11.348 C41.708,11.348 39.481,11.344 37.253,11.349 C35.608,11.352 35.457,11.497 35.452,13.092 C35.445,15.556 35.49,18.022 35.428,20.486 C35.398,21.737 35.923,22.143 37.115,22.114 C39.385,22.061 41.659,22.099 43.994,22.099 L43.994,32.772 L39.799,32.772 C39.658,32.079 39.539,31.341 39.351,30.621 C38.277,26.495 35.86,23.411 32.065,21.46 C31.372,21.104 31.104,20.729 31.122,19.941 C31.177,17.612 31.151,15.28 31.13,12.95 C31.122,12.085 31.376,11.551 32.31,11.285 C32.711,11.171 32.956,10.51 33.272,10.098 C32.842,9.796 32.419,9.239 31.986,9.234 C27.819,9.167 23.652,9.168 19.485,9.238 C19.066,9.245 18.655,9.828 18.241,10.144 C18.571,10.542 18.83,11.159 19.245,11.293 C20.089,11.566 20.391,12.033 20.387,12.856 C20.376,15.543 20.382,18.231 20.382,20.949 C15.326,23.312 12.465,27.263 11.757,32.803 L7.534,32.803 L7.534,22.099 C9.708,22.099 11.882,22.103 14.059,22.098 C15.99,22.094 16.064,22.023 16.069,20.154 C16.074,17.868 16.078,15.583 16.076,13.297 C16.075,11.443 15.987,11.354 14.067,11.349 C11.924,11.342 9.78,11.348 7.472,11.348 C7.472,9.603 7.429,7.96 7.513,6.323 C7.529,6.043 8.041,5.663 8.397,5.546 C13.861,3.745 18.451,2.819 24.152,2.764 C24.662,2.005 26.139,1.244 26.64,0.576 C26.291,0.572 25.943,0.57 25.594,0.57 C24.665,0.57 23.735,0.587 22.799,0.63 Z M22.599,20.083 L28.917,20.083 L28.917,11.392 L22.599,11.392 L22.599,20.083 Z M7.532,19.874 L13.833,19.874 L13.833,13.549 L7.532,13.549 L7.532,19.874 Z M37.656,19.862 L43.952,19.862 L43.952,13.567 L37.656,13.567 L37.656,19.862 Z M13.924,33.946 C13.92,27.508 19.274,22.133 25.717,22.107 C32.141,22.079 37.57,27.453 37.594,33.867 C37.62,40.369 32.244,45.766 25.732,45.777 L25.716,45.777 C19.321,45.778 13.928,40.369 13.924,33.946 Z M37.73,41.04 C38.774,39.271 39.29,37.19 40.099,35.081 L48.279,35.081 L48.279,45.717 L33.861,45.717 C35.14,44.206 36.702,42.781 37.73,41.04 Z M3.21,35.091 L11.754,35.091 C12.274,39.444 14.275,42.954 18.069,45.665 L3.21,45.665 L3.21,35.091 Z" id="path-3"></path>
        <path d="M7.506,0.413 C3.511,0.448 0.204,3.895 0.231,7.993 C0.261,12.223 3.629,15.52 7.876,15.476 C12.01,15.434 15.301,12.067 15.295,7.886 C15.289,3.67 11.919,0.412 7.582,0.412 C7.557,0.412 7.531,0.412 7.506,0.413 Z M7.723,13.323 C4.821,13.299 2.33,10.757 2.376,7.871 C2.424,4.96 4.97,2.491 7.855,2.558 C10.713,2.627 13.138,5.094 13.141,7.937 C13.143,10.805 10.624,13.324 7.765,13.323 L7.723,13.323 Z" id="path-5"></path>
        <path d="M1.278,1.726 C4.453,4.823 9.575,9.979 12.707,13.12 C13.234,13.65 13.812,13.992 14.453,13.4 C15.153,12.751 14.831,12.133 14.255,11.559 C11.713,9.029 7.18,4.491 4.649,1.953 C4.383,1.686 4.14,1.397 3.711,0.926 L0.404,0.924 C0.652,1.052 1.099,1.552 1.278,1.726 Z" id="path-7"></path>
        <path d="M11.792,0.926 C11.365,1.397 11.122,1.687 10.856,1.953 C8.324,4.491 3.791,9.03 1.251,11.559 C0.674,12.133 0.353,12.751 1.052,13.4 C1.693,13.992 2.271,13.65 2.798,13.12 C5.931,9.979 11.052,4.823 14.227,1.726 C14.406,1.553 14.853,1.052 15.101,0.924 L11.792,0.926 Z" id="path-9"></path>
        <path d="M7.738,6.091 C7.712,6.09 7.688,6.083 7.663,6.083 C5.848,6.084 4.294,7.144 3.549,8.672 C3.468,8.665 3.39,8.647 3.307,8.647 C1.479,8.648 0.001,10.126 0,11.951 C0.001,13.658 1.292,15.046 2.938,15.227 L3.053,15.232 L18.941,15.165 L19.167,15.139 C21.079,14.687 22.498,12.977 22.5,10.929 C22.499,8.973 21.199,7.34 19.422,6.801 C19.407,3.572 16.789,0.96 13.557,0.959 C10.565,0.96 8.104,3.198 7.738,6.091 Z M9.338,8.016 C9.595,7.807 9.732,7.486 9.706,7.156 C9.694,7.029 9.687,6.921 9.687,6.827 C9.687,5.758 10.12,4.796 10.82,4.094 C11.524,3.391 12.485,2.96 13.557,2.96 C14.627,2.96 15.588,3.391 16.291,4.093 C16.993,4.796 17.423,5.758 17.424,6.827 C17.424,7.029 17.404,7.233 17.37,7.445 C17.325,7.723 17.4,8.012 17.578,8.231 C17.754,8.452 18.019,8.588 18.301,8.603 C19.525,8.674 20.501,9.686 20.5,10.929 C20.502,11.997 19.772,12.895 18.787,13.166 L3.138,13.232 C2.494,13.148 1.999,12.613 2,11.951 C2.001,11.232 2.585,10.647 3.307,10.646 C3.481,10.646 3.645,10.682 3.798,10.744 C4.068,10.856 4.372,10.845 4.633,10.713 C4.894,10.579 5.083,10.342 5.152,10.057 C5.43,8.926 6.446,8.081 7.663,8.084 C7.924,8.084 8.175,8.124 8.42,8.197 C8.515,8.225 8.612,8.239 8.709,8.239 C8.935,8.239 9.158,8.162 9.338,8.016 Z" id="path-11"></path>
        <path d="M2.78684732e-14,36.46 C-0.001,38.757 0.082,40.53 0.519,42.761 C0.624,43.303 1.15,43.656 1.691,43.551 C2.234,43.445 2.588,42.92 2.482,42.378 C2.078,40.296 2.001,38.721 2,36.46 C2.001,27.205 5.749,18.836 11.812,12.771 C17.877,6.707 26.247,2.96 35.5,2.959 C44.754,2.96 53.124,6.707 59.189,12.771 C64.86,18.443 68.503,26.131 68.952,34.672 C67.431,31.753 64.384,29.758 60.862,29.756 C60.408,29.756 59.96,29.791 59.523,29.856 C59.353,23.357 54.044,18.141 47.504,18.14 C40.858,18.141 35.471,23.527 35.471,30.175 C35.471,30.67 35.514,31.138 35.569,31.581 C35.637,32.128 36.137,32.518 36.685,32.449 C37.232,32.382 37.622,31.882 37.554,31.334 C37.504,30.934 37.471,30.552 37.471,30.175 C37.471,27.4 38.592,24.898 40.41,23.079 C42.228,21.262 44.73,20.142 47.504,20.141 C50.279,20.142 52.783,21.262 54.601,23.079 C56.418,24.898 57.539,27.4 57.54,30.175 C57.54,30.445 57.521,30.727 57.496,31.026 L57.374,32.496 L58.784,32.065 C59.443,31.865 60.139,31.756 60.862,31.756 C64.215,31.754 67.022,34.077 67.783,37.194 L68.059,38.327 L69.136,37.882 C69.42,37.764 69.759,37.683 70.14,37.627 C70.395,37.59 70.586,37.562 70.735,37.563 C71.907,37.563 72.957,38.035 73.725,38.802 C74.493,39.569 74.963,40.62 74.963,41.791 C74.965,43.947 73.336,45.707 71.237,45.96 L68.377,45.946 L35.458,45.81 C32.614,45.096 30.498,42.532 30.5,39.469 C30.5,39.146 30.533,38.818 30.584,38.476 C30.666,37.93 30.29,37.421 29.745,37.338 C29.198,37.256 28.689,37.632 28.606,38.178 C28.545,38.581 28.5,39.012 28.5,39.469 C28.502,43.511 31.307,46.89 35.078,47.781 L35.304,47.809 L66.976,47.94 C62.288,60.784 49.967,69.96 35.501,69.958 C21.209,69.959 9.018,61.006 4.204,48.406 C4.104,48.137 3.976,47.923 3.92,47.834 C3.87,47.747 3.878,47.776 3.823,47.624 C3.646,47.1 3.078,46.82 2.555,46.998 C2.032,47.174 1.751,47.741 1.928,48.264 C2.017,48.538 2.143,48.767 2.213,48.878 C2.279,48.987 2.275,48.969 2.335,49.119 C7.435,62.472 20.356,71.957 35.501,71.959 C51.083,71.956 64.31,61.915 69.087,47.949 L71.37,47.96 L71.428,47.954 C74.533,47.608 76.962,44.998 76.963,41.791 C76.963,38.432 74.305,35.704 70.978,35.577 C70.507,16.379 54.811,0.96 35.5,0.959 C15.894,0.96 0.001,16.852 2.78684732e-14,36.46 Z" id="path-13"></path>
        <path d="M7.734,6.084 C8.171,6.091 8.597,6.159 9.002,6.284 L8.708,7.24 L7.711,7.322 C7.7,7.179 7.687,7.013 7.687,6.828 C7.687,6.576 7.703,6.328 7.734,6.084 C7.71,6.084 7.686,6.083 7.663,6.083 C5.852,6.085 4.29,7.133 3.544,8.655 C3.904,8.682 4.248,8.767 4.563,8.897 L4.18,9.821 L3.208,9.583 C3.287,9.259 3.401,8.948 3.544,8.655 C3.466,8.65 3.386,8.647 3.307,8.647 C1.48,8.647 0,10.125 0,11.953 C0.002,13.658 1.292,15.043 2.938,15.227 L2.995,15.232 L19.057,15.165 L19.168,15.139 C21.079,14.688 22.498,12.977 22.5,10.927 C22.499,8.971 21.202,7.323 19.424,6.785 L19.424,6.828 C19.424,7.158 19.392,7.47 19.344,7.765 L18.357,7.605 L18.3,8.603 C19.525,8.674 20.502,9.687 20.5,10.927 C20.502,11.99 19.785,12.886 18.811,13.167 L18.933,13.166 L18.937,14.166 L18.707,13.194 C18.742,13.186 18.777,13.177 18.811,13.167 L3.111,13.232 C3.127,13.234 3.144,13.237 3.16,13.238 L3.049,14.232 L3.045,13.232 L3.111,13.232 C2.479,13.136 1.999,12.603 2,11.953 C2.002,11.23 2.584,10.647 3.307,10.646 C3.479,10.646 3.643,10.682 3.797,10.745 L4.875,11.191 L5.151,10.059 C5.43,8.926 6.446,8.082 7.663,8.084 C7.927,8.084 8.179,8.124 8.415,8.196 L9.826,8.629 L9.706,7.158 C9.694,7.028 9.687,6.919 9.687,6.828 C9.688,5.756 10.12,4.796 10.82,4.093 C11.524,3.391 12.484,2.96 13.557,2.96 C14.628,2.96 15.588,3.391 16.291,4.093 C16.993,4.796 17.423,5.756 17.424,6.828 C17.424,7.027 17.404,7.232 17.37,7.446 L17.193,8.54 L18.3,8.603 L18.357,7.605 L18.414,6.607 C18.763,6.627 19.101,6.688 19.424,6.785 C19.4,3.562 16.783,0.959 13.557,0.959 C10.567,0.959 8.1,3.193 7.734,6.084 Z M18.357,7.605 L19.344,7.765 L18.357,7.605 Z" id="path-15"></path>
        <path d="M11.727,1.363 C11.143,1.131 10.507,1.002 9.845,1.002 C8.071,1.003 6.52,1.92 5.611,3.298 C5.143,3.111 4.637,3 4.104,3 C1.836,3.001 0,4.838 0,7.104 C0.001,9.277 1.686,11.052 3.824,11.196 L3.824,11.195 C3.847,11.197 3.868,11.209 3.891,11.209 L13.758,11.209 C13.769,11.209 13.777,11.204 13.788,11.204 L13.875,11.208 L13.926,11.209 C16.078,11.208 17.819,9.467 17.819,7.318 C17.818,6.012 17.17,4.864 16.185,4.158 C16.189,4.092 16.203,4.026 16.203,3.958 C16.203,2.301 14.861,0.96 13.206,0.959 C12.665,0.959 12.164,1.113 11.727,1.363 Z M12.516,3.237 C12.702,3.062 12.937,2.959 13.206,2.959 C13.755,2.96 14.202,3.406 14.204,3.958 C14.204,4.08 14.181,4.196 14.138,4.308 C13.949,4.807 14.187,5.368 14.676,5.581 C15.349,5.873 15.82,6.538 15.819,7.318 C15.817,8.358 14.979,9.201 13.936,9.208 L13.81,9.201 C13.792,9.2 13.776,9.209 13.758,9.209 L3.99,9.209 C3.979,9.208 3.971,9.201 3.958,9.2 C2.866,9.128 1.998,8.217 2,7.104 C2.002,5.943 2.942,5.002 4.104,5 C4.596,5.001 5.038,5.167 5.399,5.449 C5.651,5.647 5.979,5.713 6.288,5.626 C6.597,5.539 6.842,5.312 6.955,5.012 C7.391,3.84 8.521,3 9.845,3.002 C10.39,3.002 10.895,3.142 11.338,3.388 C11.49,3.473 11.658,3.515 11.824,3.515 C12.076,3.515 12.325,3.42 12.516,3.237 Z" id="path-17"></path>
        <path d="M0,0.959 L0.001,0.959 L0,0.959 Z" id="path-19"></path>
        <path d="M0,0.965 C0,0.964 0.001,0.963 0.001,0.962 L0.001,0.959 L0,0.965 Z" id="path-21"></path>
        <path d="M31.615,0.996 C31.432,1.019 31.279,1.059 31.093,1.109 C30.408,1.3 29.316,1.693 28.003,2.189 C24.645,3.461 19.969,5.383 18.69,5.911 C17.767,5.606 15.165,4.751 12.404,3.89 C10.685,3.355 8.91,2.819 7.434,2.414 C6.696,2.212 6.034,2.042 5.483,1.92 C5.208,1.858 4.96,1.808 4.737,1.773 C4.512,1.737 4.321,1.714 4.113,1.713 L3.889,1.726 C3.192,1.816 2.508,1.88 1.844,2.097 C1.513,2.21 1.174,2.369 0.871,2.649 C0.566,2.925 0.334,3.341 0.263,3.774 L0.245,3.984 C0.254,4.321 0.344,4.502 0.424,4.68 C0.585,5.003 0.793,5.29 1.058,5.625 C1.971,6.773 3.572,8.374 4.972,9.727 C5.499,10.236 5.994,10.706 6.408,11.095 C4.829,11.744 2.279,12.757 0.718,13.217 C0.188,13.373 -0.116,13.93 0.042,14.459 C0.197,14.988 0.755,15.291 1.283,15.135 C2.613,14.74 4.428,14.047 5.933,13.445 C7.435,12.845 8.615,12.339 8.621,12.337 C8.935,12.203 9.156,11.921 9.214,11.585 C9.27,11.249 9.153,10.909 8.901,10.681 C8.901,10.679 8.795,10.583 8.605,10.407 C7.944,9.796 6.28,8.245 4.796,6.747 C4.054,5.997 3.357,5.259 2.865,4.677 C2.65,4.422 2.484,4.205 2.37,4.038 C2.456,3.999 2.583,3.954 2.754,3.917 C3.097,3.838 3.579,3.78 4.118,3.713 C4.144,3.712 4.26,3.721 4.42,3.748 C5.053,3.847 6.3,4.166 7.745,4.579 C9.919,5.199 12.591,6.038 14.714,6.719 C15.775,7.059 16.699,7.361 17.36,7.578 C18.018,7.795 18.409,7.926 18.411,7.926 C18.638,8.002 18.888,7.993 19.11,7.901 C19.112,7.9 19.833,7.601 20.941,7.148 C22.601,6.469 25.128,5.445 27.363,4.578 C28.481,4.143 29.527,3.748 30.348,3.457 C30.757,3.311 31.113,3.191 31.384,3.107 C31.649,3.024 31.859,2.977 31.863,2.979 C31.955,2.968 32.121,2.959 32.327,2.959 C33.225,2.956 34.828,3.126 36.09,3.414 C36.649,3.54 37.149,3.691 37.467,3.833 C37.471,3.929 37.399,3.999 37.3,4.078 C36.963,4.354 36.434,4.687 35.812,5.049 C35.189,5.411 34.469,5.805 33.728,6.235 C33.31,6.478 32.607,6.82 31.771,7.192 C30.935,7.568 29.961,7.977 28.967,8.383 C27.399,9.023 25.78,9.653 24.555,10.124 C23.33,10.593 22.502,10.899 22.5,10.9 C22.353,10.955 22.213,11.05 22.107,11.167 C22.107,11.167 22.044,11.236 21.927,11.363 C21.519,11.806 20.47,12.927 19.414,13.93 C18.887,14.43 18.358,14.902 17.926,15.232 C17.712,15.398 17.521,15.526 17.387,15.601 L17.27,15.658 C17.183,15.651 16.889,15.577 16.559,15.416 C15.983,15.153 15.276,14.717 14.735,14.353 C14.463,14.171 14.23,14.006 14.066,13.888 L13.878,13.748 C13.519,13.477 13.128,13.435 12.791,13.59 C12.791,13.59 12.7,13.632 12.527,13.71 C11.316,14.258 6.13,16.544 2.24,17.585 C1.708,17.729 1.392,18.276 1.534,18.81 C1.677,19.344 2.227,19.66 2.759,19.516 C6.658,18.467 11.505,16.357 13.091,15.648 C13.389,15.86 13.802,16.143 14.262,16.431 C14.72,16.714 15.222,17.003 15.723,17.234 C16.234,17.459 16.712,17.652 17.304,17.664 L17.471,17.656 C17.916,17.604 18.181,17.449 18.48,17.279 C18.984,16.973 19.514,16.539 20.073,16.042 C21.457,14.808 22.949,13.207 23.424,12.69 C24.216,12.394 27.027,11.336 29.722,10.234 C30.731,9.823 31.721,9.406 32.589,9.018 C33.457,8.63 34.193,8.276 34.73,7.966 C35.853,7.313 36.97,6.725 37.864,6.136 C38.313,5.837 38.709,5.542 39.042,5.187 C39.206,5.009 39.358,4.813 39.479,4.576 C39.597,4.342 39.685,4.057 39.685,3.749 C39.685,3.564 39.653,3.376 39.592,3.202 C39.45,2.809 39.212,2.584 38.991,2.411 C38.653,2.156 38.286,1.996 37.874,1.844 C37.464,1.696 37.01,1.572 36.533,1.463 C35.089,1.138 33.437,0.962 32.327,0.959 C32.066,0.959 31.833,0.968 31.615,0.996 Z" id="path-23"></path>
        <polygon id="path-25" points="0 87.8929 484.421 87.8929 484.421 -0.0001 0 -0.0001"></polygon>
    </defs>
    <g id="Other-Icons" stroke="none" stroke-width="1" fill="none" fill-rule="evenodd">
        <g id="Artboard">
            <g id="Page-1" transform="translate(-3.000000, 0.000000)">
                <g id="Group-3" transform="translate(408.000000, 10.892900)">
                    <mask id="mask-2" fill="white">
                        <use xlink:href="#path-1"></use>
                    </mask>
                    <g id="Clip-2"></g>
                    <polygon id="Fill-1" fill="#FEFEFE" mask="url(#mask-2)" points="-4.916 77 76.422 77 76.422 -4.339 -4.916 -4.339"></polygon>
                </g>
                <g id="Group-6" transform="translate(418.000000, 20.892900)">
                    <mask id="mask-4" fill="white">
                        <use xlink:href="#path-3"></use>
                    </mask>
                    <g id="Clip-5"></g>
                    <polygon id="Fill-4" fill="#ED718C" mask="url(#mask-4)" points="-4.009 52.953 55.512 52.953 55.512 -4.43 -4.009 -4.43"></polygon>
                </g>
                <g id="Group-9" transform="translate(436.000000, 46.892900)">
                    <mask id="mask-6" fill="white">
                        <use xlink:href="#path-5"></use>
                    </mask>
                    <g id="Clip-8"></g>
                    <polygon id="Fill-7" fill="#EC708B" mask="url(#mask-6)" points="-4.769 20.477 20.295 20.477 20.295 -4.588 -4.769 -4.588"></polygon>
                </g>
                <g id="Group-16" transform="translate(422.000000, 1.892900)" stroke="#FEFEFE" stroke-width="2">
                    <path d="M42.8472,60.0798 C42.8472,61.7218 41.5172,63.0518 39.8752,63.0518 C38.2352,63.0518 36.9052,61.7218 36.9052,60.0798 C36.9052,58.4388 38.2352,57.1088 39.8752,57.1088 C41.5172,57.1088 42.8472,58.4388 42.8472,60.0798 Z" id="Stroke-10"></path>
                    <path d="M6.4761,60.0798 C6.4761,61.7218 5.1461,63.0518 3.5051,63.0518 C1.8651,63.0518 0.5351,61.7218 0.5351,60.0798 C0.5351,58.4388 1.8651,57.1088 3.5051,57.1088 C5.1461,57.1088 6.4761,58.4388 6.4761,60.0798 Z" id="Stroke-12"></path>
                    <path d="M47.5015,0.0226 C43.5815,0.0226 40.1725,2.2056 38.4195,5.4196 C37.9175,5.3206 37.3975,5.2656 36.8655,5.2656 C32.7615,5.2656 29.3855,8.3796 28.9695,12.3746 C28.4785,12.2366 27.9625,12.1576 27.4275,12.1576 C24.2835,12.1576 21.7335,14.7066 21.7335,17.8496 C21.7335,18.5946 21.8825,19.3056 22.1425,19.9586 C22.1055,19.9566 22.0705,19.9476 22.0345,19.9476 C20.5455,19.9476 19.3375,21.1546 19.3375,22.6436 C19.3375,24.1326 20.5455,25.3396 22.0345,25.3396 C23.4525,25.3396 24.6015,24.2426 24.7095,22.8526 C25.5175,23.2926 26.4425,23.5426 27.4275,23.5426 C29.8245,23.5426 31.8715,22.0586 32.7105,19.9616 C33.9205,20.7086 35.3395,21.1456 36.8655,21.1456 C38.8745,21.1456 40.7045,20.3926 42.1035,19.1626 C43.6755,20.1286 45.5205,20.6966 47.5015,20.6966 C53.2105,20.6966 57.8385,16.0686 57.8385,10.3596 C57.8385,4.6506 53.2105,0.0226 47.5015,0.0226 Z" id="Stroke-14" stroke-linecap="round" stroke-linejoin="round"></path>
                </g>
                <g id="Group-19" transform="translate(454.000000, 67.892900)">
                    <mask id="mask-8" fill="white">
                        <use xlink:href="#path-7"></use>
                    </mask>
                    <g id="Clip-18"></g>
                    <polygon id="Fill-17" fill="#ED718C" mask="url(#mask-8)" points="-4.596 18.712 19.851 18.712 19.851 -4.076 -4.596 -4.076"></polygon>
                </g>
                <g id="Group-22" transform="translate(418.000000, 67.892900)">
                    <mask id="mask-10" fill="white">
                        <use xlink:href="#path-9"></use>
                    </mask>
                    <g id="Clip-21"></g>
                    <polygon id="Fill-20" fill="#ED718C" mask="url(#mask-10)" points="-4.346 18.712 20.101 18.712 20.101 -4.076 -4.346 -4.076"></polygon>
                </g>
                <g id="Group-25" transform="translate(19.000000, 57.892900)">
                    <mask id="mask-12" fill="white">
                        <use xlink:href="#path-11"></use>
                    </mask>
                    <g id="Clip-24"></g>
                    <polygon id="Fill-23" fill="#F0718D" mask="url(#mask-12)" points="-5 20.232 27.5 20.232 27.5 -4.041 -5 -4.041"></polygon>
                </g>
                <g id="Group-28" transform="translate(5.000000, 10.892900)">
                    <mask id="mask-14" fill="white">
                        <use xlink:href="#path-13"></use>
                    </mask>
                    <g id="Clip-27"></g>
                    <polygon id="Fill-26" fill="#F0718D" mask="url(#mask-14)" points="-5 76.959 81.963 76.959 81.963 -4.041 -5 -4.041"></polygon>
                </g>
                <g id="Group-31" transform="translate(19.000000, 57.892900)">
                    <mask id="mask-16" fill="white">
                        <use xlink:href="#path-15"></use>
                    </mask>
                    <g id="Clip-30"></g>
                    <polygon id="Fill-29" fill="#F0718D" mask="url(#mask-16)" points="-5 20.232 27.5 20.232 27.5 -4.041 -5 -4.041"></polygon>
                </g>
                <g id="Group-34" transform="translate(29.000000, 19.892900)">
                    <mask id="mask-18" fill="white">
                        <use xlink:href="#path-17"></use>
                    </mask>
                    <g id="Clip-33"></g>
                    <polygon id="Fill-32" fill="#F0718D" mask="url(#mask-18)" points="-5 16.209 22.819 16.209 22.819 -4.041 -5 -4.041"></polygon>
                </g>
                <g id="Group-37" transform="translate(9.000000, 40.892900)">
                    <mask id="mask-20" fill="white">
                        <use xlink:href="#path-19"></use>
                    </mask>
                    <g id="Clip-36"></g>
                    <polygon id="Fill-35" fill="#F0718D" mask="url(#mask-20)" points="-5 5.959 5.001 5.959 5.001 -4.041 -5 -4.041"></polygon>
                </g>
                <g id="Group-40" transform="translate(6.000000, 42.892900)">
                    <mask id="mask-22" fill="white">
                        <use xlink:href="#path-21"></use>
                    </mask>
                    <g id="Clip-39"></g>
                    <polygon id="Fill-38" fill="#F0718D" mask="url(#mask-22)" points="-5 5.965 5.001 5.965 5.001 -4.041 -5 -4.041"></polygon>
                </g>
                <g id="Group-43" transform="translate(5.000000, 39.892900)">
                    <mask id="mask-24" fill="white">
                        <use xlink:href="#path-23"></use>
                    </mask>
                    <g id="Clip-42"></g>
                    <polygon id="Fill-41" fill="#FEFEFE" mask="url(#mask-24)" points="-5 24.55 44.685 24.55 44.685 -4.041 -5 -4.041"></polygon>
                </g>
                <path d="M241.9165,71.2217 C227.6785,71.2217 216.1525,59.6957 216.1525,45.4577 C216.1525,31.2207 227.6785,19.6957 241.9165,19.6957 C256.1535,19.6957 267.6795,31.2207 267.6795,45.4577 C267.6795,59.6737 256.1535,71.2217 241.9165,71.2217 Z M241.9165,8.1477 C221.3145,8.1477 204.6055,24.8567 204.6055,45.4577 C204.6055,66.0597 221.3145,82.7687 241.9165,82.7687 C262.5185,82.7687 279.2275,66.0597 279.2275,45.4577 C279.2275,24.8567 262.5185,8.1477 241.9165,8.1477 Z" id="Fill-44" fill="#E22126"></path>
                <mask id="mask-26" fill="white">
                    <use xlink:href="#path-25"></use>
                </mask>
                <g id="Clip-47"></g>
                <polygon id="Fill-46" fill="#1E4390" mask="url(#mask-26)" points="196.47 52.4129 287.385 52.4129 287.385 37.5409 196.47 37.5409"></polygon>
                <path d="M277.4771,42.6807 L277.4771,47.2297 L278.5271,47.2297 C279.2051,47.2297 279.7301,47.0117 280.1011,46.5957 C280.4731,46.1807 280.6481,45.6337 280.6481,44.9337 C280.6481,44.2337 280.4731,43.6647 280.1011,43.2707 C279.7301,42.8557 279.2051,42.6587 278.5271,42.6587 L277.4981,42.6587 L277.4771,42.6807 Z M275.8591,41.3687 L278.7241,41.3687 C279.8391,41.3687 280.7131,41.6967 281.3481,42.3747 C281.9821,43.0527 282.3101,43.9057 282.3101,44.9767 C282.3101,46.0927 281.9821,46.9677 281.3271,47.6017 C280.6701,48.2357 279.7511,48.5637 278.5271,48.5637 L275.8361,48.5637 L275.8361,41.3687 L275.8591,41.3687 Z M274.4151,41.3687 L274.4151,48.5637 L273.0591,48.5637 L269.4721,43.9497 L269.4721,48.5637 L267.8541,48.5637 L267.8541,41.3687 L269.3411,41.3687 L272.8191,45.7647 L272.8191,41.3687 L274.4371,41.3687 L274.4151,41.3687 Z M264.8141,41.3687 L266.4321,41.3687 L266.4321,45.4577 C266.4321,46.5077 266.1481,47.3177 265.6011,47.8427 C265.0331,48.3887 264.2461,48.6517 263.1961,48.6517 C262.1671,48.6517 261.3591,48.3677 260.7901,47.8207 C260.2211,47.2737 259.9371,46.4867 259.9371,45.4577 L259.9371,41.3467 L261.5551,41.3467 L261.5551,45.4797 C261.5551,45.9827 261.7081,46.3767 261.9931,46.6827 C262.2991,46.9897 262.6711,47.1417 263.1521,47.1417 C263.6551,47.1417 264.0481,46.9897 264.3551,46.6827 C264.6611,46.3767 264.8141,45.9397 264.8141,45.3707 L264.8141,41.3467 L264.8141,41.3687 Z M255.1041,47.1637 C255.7161,47.1637 256.2191,46.9677 256.5911,46.5517 C256.9621,46.1367 257.1601,45.6117 257.1601,44.9547 C257.1601,44.2997 256.9621,43.7527 256.5911,43.3587 C256.2191,42.9647 255.7161,42.7457 255.1041,42.7457 C254.4921,42.7457 253.9891,42.9437 253.6171,43.3587 C253.2451,43.7527 253.0481,44.2997 253.0481,44.9547 C253.0481,45.6117 253.2451,46.1587 253.6171,46.5517 C253.9891,46.9677 254.4921,47.1637 255.1041,47.1637 L255.1041,47.1637 Z M255.1041,41.2597 C256.2191,41.2597 257.0941,41.6307 257.7931,42.3747 C258.4721,43.1177 258.8221,43.9717 258.8221,44.9767 C258.8221,45.9827 258.4721,46.8357 257.7721,47.5797 C257.0721,48.3237 256.1981,48.6737 255.1041,48.6737 C254.0101,48.6737 253.1141,48.3017 252.4141,47.5797 C251.7141,46.8577 251.3861,45.9827 251.3861,44.9767 C251.3861,43.9927 251.7361,43.1177 252.4141,42.3747 C253.0911,41.6307 253.9891,41.2597 255.1041,41.2597 L255.1041,41.2597 Z M246.9901,42.6807 L246.9901,44.3207 L247.8431,44.3207 C248.1051,44.3207 248.3241,44.2557 248.4771,44.1017 C248.6301,43.9497 248.7171,43.7527 248.7171,43.4897 C248.7171,42.9437 248.4121,42.6807 247.7991,42.6807 L246.9901,42.6807 Z M245.3721,41.3687 L248.2581,41.3687 C248.8931,41.3687 249.3961,41.5657 249.7901,41.9807 C250.1831,42.3747 250.3791,42.8777 250.3791,43.4467 C250.3791,44.2337 250.0081,44.8247 249.2641,45.2177 C249.5921,45.3707 249.8991,45.8297 250.2051,46.5297 C250.4891,47.2517 250.7741,47.9297 251.0581,48.5637 L249.2871,48.5637 C249.1771,48.3237 249.0021,47.8637 248.7401,47.2077 C248.4771,46.5517 248.2581,46.1147 248.0621,45.9177 C247.8651,45.7207 247.6671,45.6337 247.4711,45.6337 L247.0121,45.6337 L247.0121,48.5637 L245.3931,48.5637 L245.3931,41.3687 L245.3721,41.3687 Z M243.8191,41.8497 L243.8191,43.4247 C242.9881,42.9867 242.1781,42.7677 241.3911,42.7677 C240.6251,42.7677 240.0361,42.9867 239.6201,43.4027 C239.2051,43.8397 239.0071,44.3647 239.0071,45.0427 C239.0071,45.6767 239.2051,46.2017 239.6201,46.5957 C240.0361,46.9897 240.5811,47.1857 241.2601,47.1857 C241.6101,47.1857 241.9821,47.0987 242.3311,46.9237 L242.3311,46.0927 L241.3911,46.0927 L241.3911,44.7807 L243.9501,44.7807 L243.9501,47.7327 C243.6881,48.0167 243.2931,48.2577 242.7691,48.4327 C242.2441,48.6077 241.7191,48.6947 241.2161,48.6947 C240.0791,48.6947 239.1611,48.3457 238.4391,47.6457 C237.7171,46.9457 237.3451,46.0707 237.3451,44.9987 C237.3451,43.9057 237.7171,43.0087 238.4391,42.3087 C239.1611,41.6087 240.1011,41.2817 241.2601,41.2817 C242.2221,41.2817 243.0751,41.4777 243.8191,41.8717 L243.8191,41.8497 Z M232.7961,42.6807 L232.7961,44.3207 L233.6491,44.3207 C233.9121,44.3207 234.1301,44.2557 234.2831,44.1017 C234.4361,43.9497 234.5241,43.7527 234.5241,43.4897 C234.5241,42.9437 234.2181,42.6807 233.6051,42.6807 L232.7961,42.6807 Z M231.1781,41.3687 L234.0641,41.3687 C234.6991,41.3687 235.2021,41.5657 235.5951,41.9807 C235.9891,42.3747 236.1861,42.8777 236.1861,43.4467 C236.1861,44.2337 235.8141,44.8247 235.0711,45.2177 C235.3991,45.3707 235.7051,45.8297 236.0111,46.5297 C236.2951,47.2517 236.5801,47.9297 236.8641,48.5637 L235.0931,48.5637 C234.9831,48.3237 234.8081,47.8637 234.5461,47.2077 C234.2831,46.5517 234.0641,46.1147 233.8681,45.9177 C233.6711,45.7207 233.4741,45.6337 233.2771,45.6337 L232.8181,45.6337 L232.8181,48.5637 L231.2001,48.5637 L231.2001,41.3687 L231.1781,41.3687 Z M229.9311,47.2517 L229.9311,48.5637 L225.1421,48.5637 L225.1421,41.3687 L229.8661,41.3687 L229.8661,42.6807 L226.7601,42.6807 L226.7601,44.1897 L229.7121,44.1897 L229.7121,45.5017 L226.7601,45.5017 L226.7601,47.2297 L229.9311,47.2297 L229.9311,47.2517 Z M219.1051,42.7027 L219.1051,47.2517 L220.1551,47.2517 C220.8331,47.2517 221.3581,47.0327 221.7301,46.6177 C222.1021,46.2017 222.2761,45.6557 222.2761,44.9547 C222.2761,44.2557 222.1021,43.6867 221.7301,43.2927 C221.3581,42.8777 220.8331,42.6807 220.1551,42.6807 L219.1271,42.6807 L219.1051,42.7027 Z M217.4871,41.3897 L220.3521,41.3897 C221.4671,41.3897 222.3421,41.7187 222.9771,42.3967 C223.6111,43.0747 223.9391,43.9277 223.9391,44.9987 C223.9391,46.1147 223.6111,46.9897 222.9551,47.6237 C222.2981,48.2577 221.3801,48.5857 220.1551,48.5857 L217.4651,48.5857 L217.4651,41.3897 L217.4871,41.3897 Z M216.0431,41.3897 L216.0431,48.5857 L214.6871,48.5857 L211.1011,43.9717 L211.1011,48.5857 L209.4821,48.5857 L209.4821,41.3897 L210.9701,41.3897 L214.4471,45.7857 L214.4471,41.3897 L216.0651,41.3897 L216.0431,41.3897 Z M206.4421,41.3897 L208.0611,41.3897 L208.0611,45.4797 C208.0611,46.5297 207.7771,47.3387 207.2301,47.8637 C206.6611,48.4107 205.8741,48.6737 204.8241,48.6737 C203.7961,48.6737 202.9871,48.3887 202.4181,47.8427 C201.8501,47.2957 201.5651,46.5077 201.5651,45.4797 L201.5651,41.3687 L203.1841,41.3687 L203.1841,45.5017 C203.1841,46.0047 203.3371,46.3987 203.6211,46.7047 C203.9271,47.0117 204.2991,47.1637 204.7801,47.1637 C205.2831,47.1637 205.6771,47.0117 205.9831,46.7047 C206.2891,46.3987 206.4421,45.9617 206.4421,45.3927 L206.4421,41.3687 L206.4421,41.3897 Z" id="Fill-48" fill="#FEFEFE" mask="url(#mask-26)"></path>
            </g>
        </g>
    </g>
</svg>