<?xml version="1.0" ?><svg height="32px" version="1.1" viewBox="0 0 32 32" width="32px" xmlns="http://www.w3.org/2000/svg" xmlns:sketch="http://www.bohemiancoding.com/sketch/ns" xmlns:xlink="http://www.w3.org/1999/xlink"><title/><desc/><defs/><g fill="none" fill-rule="evenodd" id="Page-1" stroke="none" stroke-width="1"><g fill="#66ccff" id="london-underground"><path d="M26.586557,19 L24.4878508,19 C23.2367939,22.5455325 19.863356,25 16,25 C12.136644,25 8.76320606,22.5455325 7.5121492,19 L5.41344298,19 C6.72877437,23.660379 11.0144513,27 16,27 C20.9855487,27 25.2712256,23.660379 26.586557,19 Z M28.6520846,19 L30,19 L31,19 L31,18 L31,13 L28.6520846,13 C27.285678,7.2075141 22.0843829,3 16,3 C9.9156171,3 4.71432202,7.2075141 3.34791542,13 L2,13 L1,13 L1,14 L1,18 L1,19 L2,19 L3.34791542,19 C4.71432202,24.7924859 9.9156171,29 16,29 C22.0843829,29 27.285678,24.7924859 28.6520846,19 Z M22.327411,19 L9.67258904,19 C10.8074621,21.3931831 13.243726,23 16,23 C18.756274,23 21.1925379,21.3931831 22.327411,19 Z M26.586557,13 L24.4878508,13 C23.2367939,9.45446754 19.863356,7 16,7 C12.136644,7 8.76320606,9.45446754 7.5121492,13 L5.41344298,13 C6.72877437,8.33962102 11.0144513,5 16,5 C20.9855487,5 25.2712256,8.33962102 26.586557,13 Z M22.327411,13 L9.67258904,13 C10.8074621,10.6068169 13.243726,9 16,9 C18.756274,9 21.1925379,10.6068169 22.327411,13 Z M3,15 L29,15 L29,17 L3,17 L3,15 Z"/></g></g></svg>
