<?xml version="1.0" ?><!DOCTYPE svg  PUBLIC '-//W3C//DTD SVG 1.1//EN'  'http://www.w3.org/Graphics/SVG/1.1/DTD/svg11.dtd'><svg height="43.3492mm" style="shape-rendering:geometricPrecision; text-rendering:geometricPrecision; image-rendering:optimizeQuality; fill-rule:evenodd; clip-rule:evenodd" version="1.1" viewBox="0 0 4335 4335" width="43.3492mm" xml:space="preserve" xmlns="http://www.w3.org/2000/svg" xmlns:xlink="http://www.w3.org/1999/xlink"><defs><style type="text/css">
   <![CDATA[
    .fil0 {fill:#E31E24}
    .fil1 {fill:#184193}
    .fil2 {fill:#FEFEFE;fill-rule:nonzero}
   ]]>
  </style></defs><g id="Layer_x0020_1"><g id="_547178728"><path class="fil0" d="M2163 436c942,0 1706,764 1706,1706 0,942 -764,1706 -1706,1706 -942,0 -1706,-764 -1706,-1706 0,-942 764,-1706 1706,-1706zm0 528c651,0 1178,527 1178,1178 0,650 -527,1178 -1178,1178 -651,0 -1178,-527 -1178,-1178 0,-651 527,-1178 1178,-1178z"/><rect class="fil1" height="680" width="4157" x="85" y="1780"/><path class="fil2" d="M541 1956l74 0 0 187c0,48 -13,85 -38,109 -26,25 -62,37 -110,37 -47,0 -84,-13 -110,-38 -26,-25 -39,-61 -39,-108l0 -188 74 0 0 189c0,23 7,41 20,55 14,14 31,21 53,21 23,0 41,-7 55,-21 14,-14 21,-34 21,-60l0 -184zm439 0l0 329 -62 0 -164 -211 0 211 -74 0 0 -329 68 0 159 201 0 -201 74 0zm66 0l131 0c51,0 91,15 120,46 29,31 44,70 44,119 0,51 -15,91 -45,120 -30,29 -72,44 -128,44l-123 0 0 -329zm74 60l0 208 48 0c31,0 55,-10 72,-29 17,-19 25,-44 25,-76 0,-32 -8,-58 -25,-76 -17,-19 -41,-28 -72,-28l-47 0zm495 208l0 60 -219 0 0 -329 216 0 0 60 -142 0 0 69 135 0 0 60 -135 0 0 79 145 0zm57 -269l132 0c29,0 52,9 70,28 18,18 27,41 27,67 0,36 -17,63 -51,81 15,7 29,28 43,60 13,33 26,64 39,93l-81 0c-5,-11 -13,-32 -25,-62 -12,-30 -22,-50 -31,-59 -9,-9 -18,-13 -27,-13l-21 0 0 134 -74 0 0 -329zm74 60l0 75 39 0c12,0 22,-3 29,-10 7,-7 11,-16 11,-28 0,-25 -14,-37 -42,-37l-37 0zm504 -38l0 72c-38,-20 -75,-30 -111,-30 -35,0 -62,10 -81,29 -19,20 -28,44 -28,75 0,29 9,53 28,71 19,18 44,27 75,27 16,0 33,-4 49,-12l0 -38 -43 0 0 -60 117 0 0 135c-12,13 -30,24 -54,32 -24,8 -48,12 -71,12 -52,0 -94,-16 -127,-48 -33,-32 -50,-72 -50,-121 0,-50 17,-91 50,-123 33,-32 76,-47 129,-47 44,0 83,9 117,27zm71 -22l132 0c29,0 52,9 70,28 18,18 27,41 27,67 0,36 -17,63 -51,81 15,7 29,28 43,60 13,33 26,64 39,93l-81 0c-5,-11 -13,-32 -25,-62 -12,-30 -22,-50 -31,-59 -9,-9 -18,-13 -27,-13l-21 0 0 134 -74 0 0 -329zm74 60l0 75 39 0c12,0 22,-3 29,-10 7,-7 11,-16 11,-28 0,-25 -14,-37 -42,-37l-37 0zm371 -65c51,0 91,17 123,51 31,34 47,73 47,119 0,46 -16,85 -48,119 -32,34 -72,50 -122,50 -50,0 -91,-17 -123,-50 -32,-33 -47,-73 -47,-119 0,-45 16,-85 47,-119 31,-34 72,-51 123,-51zm0 270c28,0 51,-9 68,-28 17,-19 26,-43 26,-73 0,-30 -9,-55 -26,-73 -17,-18 -40,-28 -68,-28 -28,0 -51,9 -68,28 -17,18 -26,43 -26,73 0,30 9,55 26,73 17,19 40,28 68,28zm444 -265l74 0 0 187c0,48 -13,85 -38,109 -26,25 -62,37 -110,37 -47,0 -84,-13 -110,-38 -26,-25 -39,-61 -39,-108l0 -188 74 0 0 189c0,23 7,41 20,55 14,14 31,21 53,21 23,0 41,-7 55,-21 14,-14 21,-34 21,-60l0 -184zm439 0l0 329 -62 0 -164 -211 0 211 -74 0 0 -329 68 0 159 201 0 -201 74 0zm66 0l131 0c51,0 91,15 120,46 29,31 44,70 44,119 0,51 -15,91 -45,120 -30,29 -72,44 -128,44l-123 0 0 -329zm74 60l0 208 48 0c31,0 55,-10 72,-29 17,-19 25,-44 25,-76 0,-32 -8,-58 -25,-76 -17,-19 -41,-28 -72,-28l-47 0z"/></g></g></svg>