
<svg width="23px" height="15px" viewBox="0 0 23 15" version="1.1" xmlns="http://www.w3.org/2000/svg" xmlns:xlink="http://www.w3.org/1999/xlink">
    <!-- Generator: Sketch 43.1 (39012) - http://www.bohemiancoding.com/sketch -->
    <desc>Created with Sketch.</desc>
    <defs></defs>
    <g id="Page-1" stroke="none" stroke-width="1" fill="none" fill-rule="evenodd">
        <g id="Page-3" transform="translate(-1248.000000, -671.000000)" fill-rule="nonzero">
            <g id="1492195039_flag-country-nation-jamaica" transform="translate(1248.000000, 671.000000)">
                <path d="M0,2.5 L0,12.5 C1.32877034e-07,15 2.5,15 2.5,15 L20,15 C20,15 22.5,15 22.5,12.5 L22.5,2.5 C22.5,0 20,0 20,0 L2.5,0 C2.5,0 0,0 0,2.5 Z" id="rounded" fill="#FEE94E"></path>
                <path d="M0.0480781291,1.93179011 L9.25,7.52095614 L0.0551041569,13.1058546 C0.0195177599,12.9222711 1.17407183e-08,12.7208944 0,12.5 L0,2.5 C0,2.29410515 0.0169570763,2.10516738 0.0480781291,1.93179011 L0.0480781291,1.93179011 Z M22.4796586,2.12303171 L13.2500015,7.72904386 L22.4027944,13.2883694 C22.4648154,13.0579815 22.5,12.796583 22.5,12.5 L22.5,2.5 C22.5,2.36743919 22.492971,2.24190734 22.4796586,2.12303171 L22.4796586,2.12303171 Z" id="Triangle-39" fill="#262626"></path>
                <path d="M20.7853862,0.130152876 L11.3125,5.875 L1.79986719,0.10604849 C2.1959234,0 2.5,0 2.5,0 L20,0 C20,0 20.348564,0 20.7853862,0.130152876 L20.7853862,0.130152876 Z M20.7001327,14.8939515 L11.1875,9.125 L1.7146138,14.8698471 C2.15143601,15 2.5,15 2.5,15 L20,15 C20,15 20.3040766,15 20.7001327,14.8939515 L20.7001327,14.8939515 Z" id="Triangle-39" fill="#4EAB53"></path>
            </g>
        </g>
    </g>
</svg>
