
<svg width="23px" height="15px" viewBox="0 0 23 15" version="1.1" xmlns="http://www.w3.org/2000/svg" xmlns:xlink="http://www.w3.org/1999/xlink">
    <!-- Generator: Sketch 43.1 (39012) - http://www.bohemiancoding.com/sketch -->
    <desc>Created with Sketch.</desc>
    <defs></defs>
    <g id="Page-1" stroke="none" stroke-width="1" fill="none" fill-rule="evenodd">
        <g id="Page-3" transform="translate(-957.000000, -682.000000)" fill-rule="nonzero">
            <g id="1492195076_flag-country-nation-morocco" transform="translate(957.000000, 682.000000)">
                <path d="M2.5,0 C2.5,0 0,0 0,2.5 L0,12.5 C1.32877034e-07,15 2.5,15 2.5,15 L20,15 C20,15 22.5,15 22.5,12.5 L22.5,2.5 C22.5,0 20,0 20,0 L2.5,0 L2.5,0 L2.5,0 L2.5,0 Z" id="rounded" fill="#F1453D"></path>
                <path d="M11.2487553,3.70833334 L10.3550833,6.60300448 L7.45625,6.60561581 L9.79996105,8.39438416 L8.90628896,11.2916667 C9.51028304,10.826978 10.6040337,9.99416125 11.25,9.50289834 L13.5962004,11.290361 L12.700039,8.39568984 L15.04375,6.60431015 L12.1474061,6.60431015 L11.2487553,3.70833334 L11.2487553,3.70833334 L11.2487553,3.70833334 L11.2487553,3.70833334 Z M11.2487553,5.69034091 L11.5337845,6.60300448 L10.9662156,6.60431015 L11.2487553,5.69034091 L11.2487553,5.69034091 L11.2487553,5.69034091 L11.2487553,5.69034091 Z M10.164649,7.21536386 L9.99039535,7.78333046 L9.24981751,7.21797521 L10.164649,7.21536386 L10.164649,7.21536386 L10.164649,7.21536386 L10.164649,7.21536386 Z M10.7770259,7.21536386 L11.7229741,7.21536386 L12.0154712,8.16066919 L11.25,8.7456095 L10.4845288,8.16066919 L10.7770259,7.21536386 L10.7770259,7.21536386 L10.7770259,7.21536386 L10.7770259,7.21536386 Z M12.335351,7.21536386 L13.2489379,7.21536386 L12.5108494,7.78333046 L12.335351,7.21536386 L12.335351,7.21536386 L12.335351,7.21536386 L12.335351,7.21536386 Z M10.2953392,8.77433425 L10.7558666,9.12294825 L10.0152887,9.6883035 L10.2953392,8.77433425 L10.2953392,8.77433425 L10.2953392,8.77433425 L10.2953392,8.77433425 Z M12.2071502,8.77433425 L12.4872006,9.6883035 L11.7478675,9.12425391 L11.7478675,9.12294825 L12.2071502,8.77433425 L12.2071502,8.77433425 L12.2071502,8.77433425 L12.2071502,8.77433425 Z" id="star" fill="#4EAB53"></path>
            </g>
        </g>
    </g>
</svg>
