
<svg width="23px" height="15px" viewBox="0 0 23 15" version="1.1" xmlns="http://www.w3.org/2000/svg" xmlns:xlink="http://www.w3.org/1999/xlink">
    <!-- Generator: Sketch 43.1 (39012) - http://www.bohemiancoding.com/sketch -->
    <desc>Created with Sketch.</desc>
    <defs></defs>
    <g id="Page-1" stroke="none" stroke-width="1" fill="none" fill-rule="evenodd">
        <g id="Page-3" transform="translate(-623.000000, -682.000000)" fill-rule="nonzero">
            <g id="1492195488_flag-country-nation-poland" transform="translate(623.000000, 682.000000)">
                <path d="M0,7.5 L0,12.5 C1.32877034e-07,15 2.5,15 2.5,15 L20,15 C20,15 22.5,15 22.5,12.5 L22.5,7.5 L0,7.5 Z" id="rounded" fill="#F1453D"></path>
                <path d="M22.25,7.25 L0.25,7.25 L0.25,2.5 C0.25,1.50445656 0.662448066,0.885784464 1.3618034,0.536106798 C1.61099242,0.411512287 1.88052431,0.330652721 2.15047475,0.285660981 C2.31163246,0.258801363 2.43485154,0.25 2.5,0.25 L20,0.25 C20.0651485,0.25 20.1883675,0.258801363 20.3495253,0.285660981 C20.6194757,0.330652721 20.8890076,0.411512287 21.1381966,0.536106798 C21.8375519,0.885784464 22.25,1.50445656 22.25,2.5 L22.25,7.25 Z" id="rounded" stroke="#C6C6C6" stroke-width="0.5"></path>
            </g>
        </g>
    </g>
</svg>
