
<svg width="23px" height="15px" viewBox="0 0 23 15" version="1.1" xmlns="http://www.w3.org/2000/svg" xmlns:xlink="http://www.w3.org/1999/xlink">
    <!-- Generator: Sketch 43.1 (39012) - http://www.bohemiancoding.com/sketch -->
    <desc>Created with Sketch.</desc>
    <defs></defs>
    <g id="Page-1" stroke="none" stroke-width="1" fill="none" fill-rule="evenodd">
        <g id="Page-3" transform="translate(-334.000000, -678.000000)" fill-rule="nonzero">
            <g id="1492195977_flag-country-nation-romania" transform="translate(334.000000, 678.000000)">
                <path d="M17.5,15 L15,15 L15,0 L17.5,0 L20,0 C20,0 22.5,0 22.5,2.5 L22.5,12.5 C22.5,15 20,15 20,15 L17.5,15 Z" id="Rectangle-1" fill="#F1453D"></path>
                <rect id="Rectangle-1" fill="#FEE94E" x="7.5" y="0" width="7.5" height="15"></rect>
                <path d="M5,15 L7.5,15 L7.5,0 L5,0 L2.5,0 C2.5,0 0,0 0,2.5 L0,12.5 C1.32877034e-07,15 2.5,15 2.5,15 L5,15 Z" id="Rectangle-1" fill="#2B98F0"></path>
            </g>
        </g>
    </g>
</svg>
