<?xml version="1.0" encoding="UTF-8"?>
<svg width="76px" height="93px" viewBox="0 0 76 93" version="1.1" xmlns="http://www.w3.org/2000/svg" xmlns:xlink="http://www.w3.org/1999/xlink">
    <!-- Generator: Sketch 44.1 (41455) - http://www.bohemiancoding.com/sketch -->
    <title>menU</title>
    <desc>Created with Sketch.</desc>
    <defs></defs>
    <g id="Page-1" stroke="none" stroke-width="1" fill="none" fill-rule="evenodd">
        <g id="menU" fill-rule="nonzero">
            <polygon id="Fill-15" fill="#66CCFF" points="0.194774937 24.3283 29.1783604 24.3283 29.1783604 0.0501 0.194774937 0.0501"></polygon>
            <polygon id="Fill-17" fill="#66CCFF" points="46.3235799 24.3283 75.4432385 24.3283 75.4432385 0.0501 46.3235799 0.0501"></polygon>
            <path d="M46.3235799,56.84908 C46.3235799,60.07338 45.664003,62.53198 44.3505189,64.23438 C43.0351449,65.93678 40.8352953,66.78608 37.7509701,66.78608 C34.6666449,66.78608 32.4649054,65.93678 31.1514213,64.23438 C29.8341574,62.53198 29.1783604,60.07338 29.1783604,56.84908 L29.1783604,23.84608 L0.194774937,23.84608 L0.194774937,56.16508 C0.194774937,62.23748 1.08114045,67.52898 2.84820177,72.03578 C4.61715299,76.54638 7.13450666,80.27038 10.4002628,83.21538 C13.6660189,86.16038 17.6121408,88.37008 22.2386286,89.84068 C26.8651164,91.31318 32.0358969,92.04848 37.7509701,92.04848 C43.4660433,92.04848 48.6368238,91.31318 53.2633116,89.84068 C57.8897994,88.37008 61.8586002,86.16038 65.1697141,83.21538 C68.4808279,80.27038 71.0208604,76.54638 72.7898116,72.03578 C74.5587629,67.52898 75.4432385,62.23748 75.4432385,56.16508 L75.4432385,23.84608 L46.3235799,23.84608 L46.3235799,56.84908 Z" id="Fill-13" fill="#FF738E"></path>
        </g>
    </g>
</svg>