
<svg width="35px" height="35px" viewBox="0 0 35 35" version="1.1" xmlns="http://www.w3.org/2000/svg" xmlns:xlink="http://www.w3.org/1999/xlink">
    <!-- Generator: Sketch 43.1 (39012) - http://www.bohemiancoding.com/sketch -->
    <desc>Created with Sketch.</desc>
    <defs></defs>
    <g id="Page-1" stroke="none" stroke-width="1" fill="none" fill-rule="evenodd">
        <g id="Menu" transform="translate(-241.000000, -505.000000)" fill="#fFF">
            <path d="M276,522.5 C276,532.164565 268.164565,540 258.5,540 C256.777756,540 255.114127,539.748301 253.540144,539.282829 C254.205596,538.231209 254.931386,536.883066 255.302039,535.533199 C255.517535,534.755689 256.532952,530.723328 256.532952,530.723328 C257.141513,531.883558 258.918924,532.904147 260.808393,532.904147 C266.435425,532.904147 270.250566,527.775342 270.250566,520.910501 C270.250566,515.721358 265.854448,510.885627 259.172348,510.885627 C250.857649,510.885627 246.664959,516.847109 246.664959,521.817309 C246.664959,524.827357 247.802778,527.504679 250.249089,528.502857 C250.649049,528.666634 251.009359,528.509753 251.124865,528.064969 C251.204167,527.758103 251.397252,526.984041 251.481726,526.661659 C251.598956,526.222047 251.554133,526.068614 251.230027,525.685893 C250.526648,524.853216 250.076692,523.77746 250.076692,522.253473 C250.076692,517.831494 253.383263,513.873264 258.69136,513.873264 C263.390897,513.873264 265.973402,516.743671 265.973402,520.5795 C265.973402,525.625554 263.740863,529.883755 260.425672,529.883755 C258.593094,529.883755 257.224264,528.368387 257.662152,526.513398 C258.187962,524.296375 259.208551,521.901783 259.208551,520.301941 C259.208551,518.871047 258.439661,517.674613 256.848439,517.674613 C254.976209,517.674613 253.472909,519.612353 253.472909,522.205201 C253.472909,523.856763 254.031475,524.973894 254.031475,524.973894 C254.031475,524.973894 252.116146,533.088612 251.779972,534.510886 C251.46621,535.840065 251.426559,537.307162 251.47483,538.527731 C245.30992,535.821101 241,529.666535 241,522.5 C241,512.833711 248.835435,505 258.5,505 C268.164565,505 276,512.833711 276,522.5" id="Pinterest"></path>
        </g>
    </g>
</svg>
