
<svg width="43px" height="35px" viewBox="0 0 43 35" version="1.1" xmlns="http://www.w3.org/2000/svg" xmlns:xlink="http://www.w3.org/1999/xlink">
    <!-- Generator: Sketch 43.1 (39012) - http://www.bohemiancoding.com/sketch -->
    <desc>Created with Sketch.</desc>
    <defs></defs>
    <g id="Page-1" stroke="none" stroke-width="1" fill="none" fill-rule="evenodd">
        <g id="Menu" transform="translate(-88.000000, -505.000000)" fill="#fFF">
            <path d="M126.660014,513.717082 C126.675636,514.096474 126.684563,514.478097 126.684563,514.861952 C126.684563,526.53829 117.79787,540 101.546515,540 C96.5563986,540 91.9121979,538.538226 88,536.032009 C88.6918319,536.112351 89.3948224,536.154754 90.1089715,536.154754 C94.2488044,536.154754 98.0583434,534.742077 101.082318,532.371995 C97.2147548,532.30058 93.9519862,529.745266 92.8294331,526.234777 C93.3672767,526.339667 93.9207422,526.39546 94.4898298,526.39546 C95.2954792,526.39546 96.0765797,526.286106 96.8175094,526.085252 C92.775872,525.272907 89.7318115,521.702162 89.7318115,517.421731 L89.7318115,517.310145 C90.9235478,517.970733 92.2848945,518.367978 93.7332781,518.414844 C91.3631958,516.830326 89.8032264,514.125486 89.8032264,511.06134 C89.8032264,509.441115 90.238411,507.923548 90.9994261,506.617994 C95.3579672,511.962954 101.867882,515.482369 109.210228,515.850603 C109.060703,515.203405 108.982593,514.529427 108.982593,513.835363 C108.982593,508.956832 112.937193,505 117.817956,505 C120.35988,505 122.656316,506.073455 124.267615,507.791877 C126.280622,507.394631 128.170886,506.660397 129.878148,505.647198 C129.219792,507.709303 127.818275,509.441115 125.992731,510.534655 C127.780335,510.322642 129.483135,509.847287 131.067653,509.144296 C129.882612,510.916279 128.38513,512.471785 126.660014,513.717082" id="Twitter"></path>
        </g>
    </g>
</svg>
