<?xml version="1.0" encoding="UTF-8"?>
<svg width="360px" height="14px" viewBox="0 0 360 14" version="1.1" xmlns="http://www.w3.org/2000/svg" xmlns:xlink="http://www.w3.org/1999/xlink">
    <!-- Generator: Sketch 44.1 (41455) - http://www.bohemiancoding.com/sketch -->
    <title>image_statusBar_white_noservice</title>
    <desc>Created with Sketch.</desc>
    <defs></defs>
    <g id="Under-construction" stroke="none" stroke-width="1" fill="none" fill-rule="evenodd">
        <g id="Artboard-2" transform="translate(-7.000000, -105.000000)">
            <g id="image_statusBar_white_noservice" transform="translate(0.000000, 102.000000)">
                <g id="Status-Bar-White">
                    <rect id="Background" x="0" y="0" width="375" height="20"></rect>
                    <g id="Charge" transform="translate(314.000000, 3.000000)" fill="#FFFFFF">
                        <g id="Battery-Icon" transform="translate(28.000000, 1.500000)">
                            <path d="M1.50245835,1.02631579 L1.50245835,1.02631579 C0.947213227,1.02631579 0.5,1.49554092 0.5,2.07901162 L0.5,8.92098838 C0.5,9.50189311 0.949063705,9.97368421 1.50245835,9.97368421 L20.9975417,9.97368421 C21.5527868,9.97368421 22,9.50445908 22,8.92098838 L22,2.07901162 C22,1.49810689 21.5509363,1.02631579 20.9975417,1.02631579 L1.50245835,1.02631579 Z M1.50245835,0.5 L1.50245835,0.5 L20.9975417,0.5 C21.8266197,0.5 22.5,1.20694758 22.5,2.07901162 L22.5,8.92098838 C22.5,9.79681942 21.8273265,10.5 20.9975417,10.5 L1.50245835,10.5 C0.673380308,10.5 0,9.79305242 0,8.92098838 L0,2.07901162 C0,1.20318058 0.672673516,0.5 1.50245835,0.5 L1.50245835,0.5 Z" id="Shape" fill-rule="nonzero"></path>
                            <path d="M1.50966585,1.5 C1.22818517,1.5 1,1.73079681 1,2.00043583 L1,8.99956417 C1,9.27594725 1.22247314,9.5 1.50966585,9.5 L10,9.5 L10,1.5 L1.50966585,1.5 Z" id="Charge"></path>
                            <path d="M24.5,5.73227779 C24.5,6.61389637 23.8480727,7.34324909 23,7.46455558 L23,4 C23.8480727,4.12130649 24.5,4.85065921 24.5,5.73227779 Z" id="+"></path>
                        </g>
                        <text id="51%" font-family=".AppleSystemUIFont" font-size="12" font-weight="normal">
                            <tspan x="0" y="12">51%</tspan>
                        </text>
                    </g>
                    <path d="M305.427765,14.3689464 L305.427765,10.8107321 L307.139765,12.6751786 L305.427765,14.3689464 L305.427765,14.3689464 L305.427765,14.3689464 L305.427765,14.3689464 Z M307.218353,7.34653571 L305.427765,9.14782143 L305.427765,5.73521429 L307.218353,7.34653571 L307.218353,7.34653571 L307.218353,7.34653571 L307.218353,7.34653571 Z M305.857882,10.0108571 L308.514824,7.34653571 L304.550588,3.5 L304.456941,3.5 L304.456941,8.84985714 L301.766118,6.02883929 L301,6.82919643 L304.237647,10.0108571 L301,13.1920357 L301.766118,13.9923929 L304.456941,11.171375 L304.456941,16.52075 L304.628235,16.52075 L308.553412,12.6645714 L305.857882,10.0108571 L305.857882,10.0108571 Z" id="Bluetooth-Icon" fill="#FFFFFF" opacity="0.45"></path>
                    <text id="9:41" font-family=".AppleSystemUIFont" font-size="12" font-weight="normal" fill="#FFFFFF">
                        <tspan x="164" y="15">9:41 AM</tspan>
                    </text>
                    <text id="No-service" font-family=".AppleSystemUIFont" font-size="12" font-weight="normal" fill="#FFFFFF">
                        <tspan x="6.44140625" y="15">No service</tspan>
                    </text>
                </g>
            </g>
        </g>
    </g>
</svg>