<?xml version="1.0" encoding="UTF-8"?>
<svg width="360px" height="14px" viewBox="0 0 360 14" version="1.1" xmlns="http://www.w3.org/2000/svg" xmlns:xlink="http://www.w3.org/1999/xlink">
    <!-- Generator: Sketch 46.2 (44496) - http://www.bohemiancoding.com/sketch -->
    <title>no_network</title>
    <desc>Created with Sketch.</desc>
    <defs></defs>
    <g id="Page-1" stroke="none" stroke-width="1" fill="none" fill-rule="evenodd">
        <g id="no_network" transform="translate(-7.000000, -3.000000)">
            <rect id="Background" x="0" y="0" width="375" height="20"></rect>
            <g id="Charge" transform="translate(314.000000, 4.000000)" fill-rule="nonzero" fill="#FFFFFF">
                <g id="Battery-Icon" transform="translate(28.000000, 0.500000)">
                    <path d="M1.50245835,1.02631579 L1.50245835,1.02631579 C0.947213227,1.02631579 0.5,1.49554092 0.5,2.07901162 L0.5,8.92098838 C0.5,9.50189311 0.949063705,9.97368421 1.50245835,9.97368421 L20.9975417,9.97368421 C21.5527868,9.97368421 22,9.50445908 22,8.92098838 L22,2.07901162 C22,1.49810689 21.5509363,1.02631579 20.9975417,1.02631579 L1.50245835,1.02631579 Z M1.50245835,0.5 L1.50245835,0.5 L20.9975417,0.5 C21.8266197,0.5 22.5,1.20694758 22.5,2.07901162 L22.5,8.92098838 C22.5,9.79681942 21.8273265,10.5 20.9975417,10.5 L1.50245835,10.5 C0.673380308,10.5 0,9.79305242 0,8.92098838 L0,2.07901162 C0,1.20318058 0.672673516,0.5 1.50245835,0.5 L1.50245835,0.5 Z" id="Shape"></path>
                    <path d="M1.50966585,1.5 C1.22818517,1.5 1,1.73079681 1,2.00043583 L1,8.99956417 C1,9.27594725 1.22247314,9.5 1.50966585,9.5 L10,9.5 L10,1.5 L1.50966585,1.5 Z" id="Charge"></path>
                    <path d="M24.5,5.73227779 C24.5,6.61389637 23.8480727,7.34324909 23,7.46455558 L23,4 C23.8480727,4.12130649 24.5,4.85065921 24.5,5.73227779 Z" id="+"></path>
                </g>
                <g id="51%" transform="translate(0.000000, 2.000000)">
                    <path d="M3.7265625,9.19921875 C4.60156687,9.19921875 5.31249727,8.93261985 5.859375,8.39941406 C6.40625273,7.86620827 6.6796875,7.16992617 6.6796875,6.31054687 C6.6796875,5.47851146 6.42578379,4.79883076 5.91796875,4.27148438 C5.41015371,3.74413799 4.75391027,3.48046875 3.94921875,3.48046875 C3.5585918,3.48046875 3.21484523,3.54003847 2.91796875,3.65917969 C2.62109227,3.77832091 2.36914166,3.95898316 2.16210938,4.20117188 L2.06835938,4.20117188 L2.30859375,1.48828125 L6.19921875,1.48828125 L6.19921875,0.544921875 L1.48242188,0.544921875 L1.01953125,5.33789062 L2.00976562,5.33789062 C2.18164148,5.03710787 2.41992035,4.80371177 2.72460937,4.63769531 C3.0292984,4.47167886 3.37304496,4.38867188 3.75585937,4.38867188 C4.31054965,4.38867188 4.76074046,4.56835758 5.10644531,4.92773438 C5.45215017,5.28711117 5.625,5.75780959 5.625,6.33984375 C5.625,6.91797164 5.45215017,7.38476385 5.10644531,7.74023438 C4.76074046,8.0957049 4.30469033,8.2734375 3.73828125,8.2734375 C3.24218502,8.2734375 2.82715011,8.13379046 2.49316406,7.85449219 C2.15917802,7.57519392 1.96875023,7.20703354 1.921875,6.75 L0.884765625,6.75 C0.931640859,7.4804724 1.21679426,8.07128681 1.74023438,8.52246094 C2.26367449,8.97363507 2.92577725,9.19921875 3.7265625,9.19921875 Z M10.3828125,9 L11.4375,9 L11.4375,0.544921875 L10.3886719,0.544921875 L10.0488281,0.788085938 C9.82226449,0.950196123 9.56054836,1.1386708 9.26367188,1.35351562 C8.96679539,1.56836045 8.70507926,1.75683513 8.47851562,1.91894531 L8.13867188,2.16210938 L8.13867188,3.27539062 L8.46386719,3.04101562 C8.68066515,2.88476484 8.93066265,2.70312604 9.21386719,2.49609375 C9.49707173,2.28906146 9.74706923,2.10742266 9.96386719,1.95117188 L10.2890625,1.71679688 L10.3828125,1.71679688 L10.3828125,9 Z M17.0859375,2.43164062 C17.0859375,3.02929986 16.9179704,3.51855278 16.5820312,3.89941406 C16.2460921,4.28027534 15.8144558,4.47070312 15.2871094,4.47070312 C14.759763,4.47070312 14.3271501,4.28027534 13.9892578,3.89941406 C13.6513655,3.51855278 13.4824219,3.02929986 13.4824219,2.43164062 C13.4824219,1.83788766 13.6513655,1.35058784 13.9892578,0.969726562 C14.3271501,0.588865283 14.759763,0.3984375 15.2871094,0.3984375 C15.8144558,0.3984375 16.2460921,0.58788873 16.5820312,0.966796875 C16.9179704,1.34570502 17.0859375,1.83398139 17.0859375,2.43164062 Z M15.2871094,3.72070312 C15.5449232,3.72070312 15.7529289,3.60254024 15.9111328,3.36621094 C16.0693367,3.12988163 16.1484375,2.81836131 16.1484375,2.43164062 C16.1484375,2.0371074 16.0712898,1.72461053 15.9169922,1.49414062 C15.7626945,1.26367072 15.5527357,1.1484375 15.2871094,1.1484375 C15.0253893,1.1484375 14.8154305,1.26464728 14.6572266,1.49707031 C14.4990226,1.72949335 14.4199219,2.04101367 14.4199219,2.43164062 C14.4199219,2.82226758 14.4990226,3.13476445 14.6572266,3.36914062 C14.8154305,3.6035168 15.0253893,3.72070312 15.2871094,3.72070312 Z M15.1933594,9 L14.1152344,9 L17.34375,4.59375 L20.3085938,0.544921875 L21.375,0.544921875 L18.09375,5.03320312 L15.1933594,9 Z M21.9785156,7.10742188 C21.9785156,7.70508111 21.8105486,8.19433403 21.4746094,8.57519531 C21.1386702,8.95605659 20.7070339,9.14648438 20.1796875,9.14648438 C19.6523411,9.14648438 19.2197283,8.95605659 18.8818359,8.57519531 C18.5439436,8.19433403 18.375,7.70508111 18.375,7.10742188 C18.375,6.51366891 18.5439436,6.02636909 18.8818359,5.64550781 C19.2197283,5.26464653 19.6523411,5.07421875 20.1796875,5.07421875 C20.7070339,5.07421875 21.1386702,5.26366998 21.4746094,5.64257812 C21.8105486,6.02148627 21.9785156,6.50976264 21.9785156,7.10742188 Z M20.1796875,8.39648438 C20.4375013,8.39648438 20.645507,8.27832149 20.8037109,8.04199219 C20.9619149,7.80566288 21.0410156,7.49414256 21.0410156,7.10742188 C21.0410156,6.71288865 20.963868,6.40039178 20.8095703,6.16992188 C20.6552727,5.93945197 20.4453138,5.82421875 20.1796875,5.82421875 C19.9179674,5.82421875 19.7080086,5.94042853 19.5498047,6.17285156 C19.3916008,6.4052746 19.3125,6.71679492 19.3125,7.10742188 C19.3125,7.49804883 19.3916008,7.8105457 19.5498047,8.04492188 C19.7080086,8.27929805 19.9179674,8.39648438 20.1796875,8.39648438 Z" id="Shape"></path>
                </g>
            </g>
            <path d="M305.427765,14.3689464 L305.427765,10.8107321 L307.139765,12.6751786 L305.427765,14.3689464 L305.427765,14.3689464 L305.427765,14.3689464 L305.427765,14.3689464 Z M307.218353,7.34653571 L305.427765,9.14782143 L305.427765,5.73521429 L307.218353,7.34653571 L307.218353,7.34653571 L307.218353,7.34653571 L307.218353,7.34653571 Z M305.857882,10.0108571 L308.514824,7.34653571 L304.550588,3.5 L304.456941,3.5 L304.456941,8.84985714 L301.766118,6.02883929 L301,6.82919643 L304.237647,10.0108571 L301,13.1920357 L301.766118,13.9923929 L304.456941,11.171375 L304.456941,16.52075 L304.628235,16.52075 L308.553412,12.6645714 L305.857882,10.0108571 L305.857882,10.0108571 Z" id="Bluetooth-Icon" fill="#FFFFFF" fill-rule="nonzero" opacity="0.45"></path>
            <path d="M167.638672,15.1933594 C166.919918,15.1933594 166.312502,14.9951192 165.816406,14.5986328 C165.32031,14.2021465 165.003907,13.6640659 164.867188,12.984375 L165.951172,12.984375 C166.064454,13.3789082 166.272459,13.689452 166.575195,13.9160156 C166.877931,14.1425793 167.236326,14.2558594 167.650391,14.2558594 C168.337894,14.2558594 168.872068,13.9589873 169.25293,13.3652344 C169.633791,12.7714814 169.83789,11.912115 169.865234,10.7871094 L169.771484,10.7871094 C169.564452,11.1972677 169.263674,11.5166004 168.869141,11.7451172 C168.474607,11.973634 168.025393,12.0878906 167.521484,12.0878906 C166.716793,12.0878906 166.052737,11.8212917 165.529297,11.2880859 C165.005857,10.7548801 164.744141,10.0781291 164.744141,9.2578125 C164.744141,8.40624574 165.021482,7.70801054 165.576172,7.16308594 C166.130862,6.61816134 166.841793,6.34570312 167.708984,6.34570312 C169.013678,6.34570312 169.937497,6.98632172 170.480469,8.26757812 C170.753908,8.90820633 170.890625,9.69335473 170.890625,10.6230469 C170.890625,12.0761791 170.607425,13.2011679 170.041016,13.9980469 C169.474607,14.7949259 168.673833,15.1933594 167.638672,15.1933594 Z M167.708984,11.1738281 C168.267581,11.1738281 168.727537,10.9941424 169.088867,10.6347656 C169.450197,10.2753888 169.630859,9.81640904 169.630859,9.2578125 C169.630859,8.69140342 169.448244,8.21875189 169.083008,7.83984375 C168.717772,7.46093561 168.263675,7.27148438 167.720703,7.27148438 C167.177732,7.27148438 166.723635,7.45800595 166.358398,7.83105469 C165.993162,8.20410343 165.810547,8.66796598 165.810547,9.22265625 C165.810547,9.80078414 165.987303,10.270506 166.34082,10.6318359 C166.694338,10.9931659 167.150388,11.1738281 167.708984,11.1738281 Z M173.421875,14.0332031 C173.632814,14.0332031 173.812499,13.9580086 173.960938,13.8076172 C174.109376,13.6572258 174.183594,13.4785167 174.183594,13.2714844 C174.183594,13.0605458 174.109376,12.8808601 173.960938,12.7324219 C173.812499,12.5839836 173.632814,12.5097656 173.421875,12.5097656 C173.214843,12.5097656 173.036134,12.5839836 172.885742,12.7324219 C172.735351,12.8808601 172.660156,13.0605458 172.660156,13.2714844 C172.660156,13.4785167 172.735351,13.6572258 172.885742,13.8076172 C173.036134,13.9580086 173.214843,14.0332031 173.421875,14.0332031 Z M173.421875,9.52734375 C173.632814,9.52734375 173.812499,9.45214919 173.960938,9.30175781 C174.109376,9.15136644 174.183594,8.97265729 174.183594,8.765625 C174.183594,8.55468645 174.109376,8.37500074 173.960938,8.2265625 C173.812499,8.07812426 173.632814,8.00390625 173.421875,8.00390625 C173.214843,8.00390625 173.036134,8.07812426 172.885742,8.2265625 C172.735351,8.37500074 172.660156,8.55468645 172.660156,8.765625 C172.660156,8.97265729 172.735351,9.15136644 172.885742,9.30175781 C173.036134,9.45214919 173.214843,9.52734375 173.421875,9.52734375 Z M180.007812,15 L180.007812,13.2480469 L175.888672,13.2480469 L175.888672,12.2871094 C176.076173,11.9511702 176.298827,11.5703146 176.556641,11.1445312 C176.814454,10.7187479 177.099608,10.2597681 177.412109,9.76757812 C177.724611,9.27538816 178.057615,8.75781521 178.411133,8.21484375 C178.76465,7.67187229 179.130857,7.11523723 179.509766,6.54492188 L181.039062,6.54492188 L181.039062,12.3046875 L182.240234,12.3046875 L182.240234,13.2480469 L181.039062,13.2480469 L181.039062,15 L180.007812,15 Z M176.966797,12.2402344 L176.966797,12.3105469 L180.013672,12.3105469 L180.013672,7.5234375 L179.943359,7.5234375 C179.728515,7.83984533 179.500001,8.18261534 179.257812,8.55175781 C179.015624,8.92090028 178.765626,9.30761517 178.507812,9.71191406 C178.249999,10.116213 177.992189,10.5312479 177.734375,10.9570312 C177.476561,11.3828146 177.220704,11.8105447 176.966797,12.2402344 Z M185.773438,15 L186.828125,15 L186.828125,6.54492188 L185.779297,6.54492188 L185.439453,6.78808594 C185.212889,6.95019612 184.951173,7.1386708 184.654297,7.35351562 C184.35742,7.56836045 184.095704,7.75683513 183.869141,7.91894531 L183.529297,8.16210938 L183.529297,9.27539062 L183.854492,9.04101562 C184.07129,8.88476484 184.321288,8.70312604 184.604492,8.49609375 C184.887697,8.28906146 185.137694,8.10742266 185.354492,7.95117188 L185.679688,7.71679688 L185.773438,7.71679688 L185.773438,15 Z M198.365234,15 L198.236328,14.6337891 C198.15039,14.3896472 198.051758,14.1084 197.94043,13.7900391 C197.829101,13.4716781 197.730469,13.1904309 197.644531,12.9462891 L197.515625,12.5800781 L194.152344,12.5800781 L193.302734,15 L192.195312,15 L195.3125,6.54492188 L196.355469,6.54492188 L199.472656,15 L198.365234,15 Z M195.787109,7.91015625 L195.652344,8.29101562 C195.5625,8.54492314 195.452149,8.85937313 195.321289,9.234375 L194.928711,10.359375 C194.797851,10.7343769 194.6875,11.0488269 194.597656,11.3027344 L194.462891,11.6835938 L197.205078,11.6835938 L195.880859,7.91015625 L195.787109,7.91015625 Z M209.287109,15 L209.287109,6.54492188 L208.0625,6.54492188 L205.167969,13.5410156 L205.074219,13.5410156 L202.179688,6.54492188 L200.955078,6.54492188 L200.955078,15 L201.939453,15 L201.939453,8.54296875 L202.009766,8.54296875 L204.675781,14.9414062 L205.566406,14.9414062 L208.232422,8.54296875 L208.302734,8.54296875 L208.302734,15 L209.287109,15 Z" id="9:41-AM" fill="#FFFFFF" fill-rule="nonzero"></path>
            <path d="M8.55664063,15 L8.55664063,8.44335938 L8.65039063,8.44335938 L13.2382813,15 L14.2636719,15 L14.2636719,6.54492188 L13.2207031,6.54492188 L13.2207031,13.125 L13.1269531,13.125 L8.5390625,6.54492188 L7.51367188,6.54492188 L7.51367188,15 L8.55664063,15 Z M18.8867188,15.1113281 C17.9882768,15.1113281 17.2783229,14.8193389 16.7568359,14.2353516 C16.235349,13.6513643 15.9746094,12.8535207 15.9746094,11.8417969 C15.9746094,10.8261668 16.235349,10.0273467 16.7568359,9.4453125 C17.2783229,8.86327834 17.9882768,8.57226562 18.8867188,8.57226562 C19.7851607,8.57226562 20.4951146,8.86327834 21.0166016,9.4453125 C21.5380885,10.0273467 21.7988281,10.8261668 21.7988281,11.8417969 C21.7988281,12.8535207 21.5380885,13.6513643 21.0166016,14.2353516 C20.4951146,14.8193389 19.7851607,15.1113281 18.8867188,15.1113281 Z M18.8867188,14.203125 C19.484378,14.203125 19.9453109,13.9960958 20.2695313,13.5820312 C20.5937516,13.1679667 20.7558594,12.5878944 20.7558594,11.8417969 C20.7558594,11.0917931 20.5937516,10.5107442 20.2695313,10.0986328 C19.9453109,9.68652138 19.484378,9.48046875 18.8867188,9.48046875 C18.2890595,9.48046875 17.8281266,9.68652138 17.5039063,10.0986328 C17.1796859,10.5107442 17.0175781,11.0917931 17.0175781,11.8417969 C17.0175781,12.5878944 17.1796859,13.1679667 17.5039063,13.5820312 C17.8281266,13.9960958 18.2890595,14.203125 18.8867188,14.203125 Z M26.6210938,10.4121094 C26.6210938,10.8691429 26.7607408,11.2324205 27.0400391,11.5019531 C27.3193373,11.7714857 27.7539033,11.9785149 28.34375,12.1230469 L29.4277344,12.3867188 C29.7636736,12.4687504 30.0146476,12.5830071 30.1806641,12.7294922 C30.3466805,12.8759773 30.4296875,13.0585927 30.4296875,13.2773438 C30.4296875,13.5664077 30.2929701,13.8027335 30.0195313,13.9863281 C29.7460924,14.1699228 29.3964865,14.2617188 28.9707031,14.2617188 C28.5683574,14.2617188 28.2421888,14.182618 27.9921875,14.0244141 C27.7421863,13.8662101 27.5742192,13.6542982 27.4882813,13.3886719 L26.4511719,13.3886719 C26.5058596,13.912112 26.7578103,14.3300766 27.2070313,14.6425781 C27.6562522,14.9550797 28.2324184,15.1113281 28.9355469,15.1113281 C29.6543005,15.1113281 30.255857,14.9345721 30.7402344,14.5810547 C31.2246118,14.2275373 31.4667969,13.767581 31.4667969,13.2011719 C31.4667969,12.7480446 31.3212905,12.3857435 31.0302734,12.1142578 C30.7392564,11.8427721 30.296878,11.6347663 29.703125,11.4902344 L28.7304688,11.2558594 C28.3593731,11.1660152 28.0839853,11.0498054 27.9042969,10.9072266 C27.7246085,10.7646477 27.6347656,10.5859386 27.6347656,10.3710938 C27.6347656,10.0898423 27.7636706,9.86230556 28.0214844,9.68847656 C28.2792982,9.51464757 28.5957013,9.42773438 28.9707031,9.42773438 C29.3535175,9.42773438 29.6640613,9.50390549 29.9023438,9.65625 C30.1406262,9.80859451 30.2929684,10.0117175 30.359375,10.265625 L31.3554688,10.265625 C31.2890622,9.74609115 31.0419943,9.3339859 30.6142578,9.02929688 C30.1865213,8.72460785 29.6406283,8.57226562 28.9765625,8.57226562 C28.3046841,8.57226562 27.7441429,8.74804512 27.2949219,9.09960938 C26.8457009,9.45117363 26.6210938,9.88866926 26.6210938,10.4121094 Z M35.5683594,9.46289062 C35.0644506,9.46289062 34.6503922,9.6328108 34.3261719,9.97265625 C34.0019515,10.3125017 33.8203127,10.761716 33.78125,11.3203125 L37.2617188,11.3203125 C37.2499999,10.761716 37.0898453,10.3125017 36.78125,9.97265625 C36.4726547,9.6328108 36.0683619,9.46289062 35.5683594,9.46289062 Z M37.2324219,13.3652344 L38.2402344,13.3652344 C38.0878899,13.9082058 37.7792992,14.3349594 37.3144531,14.6455078 C36.8496071,14.9560562 36.2714878,15.1113281 35.5800781,15.1113281 C34.7050737,15.1113281 34.0117213,14.8173858 33.5,14.2294922 C32.9882787,13.6415986 32.7324219,12.8476612 32.7324219,11.8476562 C32.7324219,10.8554638 32.9902318,10.0615264 33.5058594,9.46582031 C34.021487,8.87011421 34.7128863,8.57226562 35.5800781,8.57226562 C36.4316449,8.57226562 37.1015601,8.85644247 37.5898438,9.42480469 C38.0781274,9.9931669 38.3222656,10.7675732 38.3222656,11.7480469 L38.3222656,12.1347656 L33.78125,12.1347656 L33.78125,12.1816406 C33.8085939,12.8066437 33.9853499,13.3027325 34.3115234,13.6699219 C34.6376969,14.0371112 35.0683567,14.2207031 35.6035156,14.2207031 C36.0097677,14.2207031 36.349608,14.1474617 36.6230469,14.0009766 C36.8964857,13.8544915 37.0996087,13.6425795 37.2324219,13.3652344 Z M39.9042969,15 L40.9121094,15 L40.9121094,11.0859375 C40.9121094,10.6406228 41.0683578,10.2734389 41.3808594,9.984375 C41.6933609,9.69531105 42.0898413,9.55078125 42.5703125,9.55078125 C42.6718755,9.55078125 42.7949212,9.55761712 42.9394531,9.57128906 C43.0839851,9.58496101 43.1757811,9.59765619 43.2148438,9.609375 L43.2148438,8.6015625 C43.1523434,8.59374996 43.0732427,8.58691409 42.9775391,8.58105469 C42.8818355,8.57519528 42.7929692,8.57226562 42.7109375,8.57226562 C42.2929667,8.57226562 41.9199235,8.6699209 41.5917969,8.86523438 C41.2636702,9.06054785 41.0527348,9.31249846 40.9589844,9.62109375 L40.8652344,9.62109375 L40.8652344,8.68359375 L39.9042969,8.68359375 L39.9042969,15 Z M49.6308594,8.68359375 L48.5527344,8.68359375 L46.8242188,13.8867188 L46.7304688,13.8867188 L45.0019531,8.68359375 L43.9238281,8.68359375 L46.2617188,15 L47.2929688,15 L47.5302734,14.3613281 C47.6884774,13.9355447 47.8837879,13.4091828 48.1162109,12.7822266 C48.348634,12.1552703 48.580077,11.5283234 48.8105469,10.9013672 C49.0410168,10.2744109 49.2353508,9.748049 49.3935547,9.32226562 L49.6308594,8.68359375 Z M51.0019531,15 L52.0097656,15 L52.0097656,8.68359375 L51.0019531,8.68359375 L51.0019531,15 Z M51.5058594,7.40039062 C51.7011729,7.40039062 51.8671868,7.33105538 52.0039062,7.19238281 C52.1406257,7.05371024 52.2089844,6.88867283 52.2089844,6.69726562 C52.2089844,6.50195215 52.1406257,6.33593818 52.0039062,6.19921875 C51.8671868,6.06249932 51.7011729,5.99414062 51.5058594,5.99414062 C51.3144522,5.99414062 51.1494148,6.06249932 51.0107422,6.19921875 C50.8720696,6.33593818 50.8027344,6.50195215 50.8027344,6.69726562 C50.8027344,6.88867283 50.8720696,7.05371024 51.0107422,7.19238281 C51.1494148,7.33105538 51.3144522,7.40039062 51.5058594,7.40039062 Z M59.1582031,10.6171875 C59.0722652,10.0546847 58.8017601,9.57324419 58.3466797,9.17285156 C57.8915993,8.77245894 57.2793007,8.57226562 56.5097656,8.57226562 C55.6269487,8.57226562 54.9238307,8.86718455 54.4003906,9.45703125 C53.8769505,10.0468779 53.6152344,10.8339795 53.6152344,11.8183594 C53.6152344,12.8222706 53.8779271,13.6220673 54.4033203,14.2177734 C54.9287136,14.8134795 55.6328081,15.1113281 56.515625,15.1113281 C57.2734413,15.1113281 57.8808571,14.9199238 58.3378906,14.5371094 C58.7949242,14.154295 59.0683589,13.673831 59.1582031,13.0957031 L58.1386719,13.0957031 C58.0449214,13.4511737 57.8564467,13.7246084 57.5732422,13.9160156 C57.2900376,14.1074228 56.935549,14.203125 56.5097656,14.203125 C55.9472628,14.203125 55.4980486,13.9882834 55.1621094,13.5585938 C54.8261702,13.1289041 54.6582031,12.5488318 54.6582031,11.8183594 C54.6582031,11.1035121 54.8251936,10.5351584 55.1591797,10.1132812 C55.4931657,9.69140414 55.9433565,9.48046875 56.5097656,9.48046875 C56.9628929,9.48046875 57.3271471,9.59179576 57.6025391,9.81445312 C57.8779311,10.0371105 58.0566402,10.3046859 58.1386719,10.6171875 L59.1582031,10.6171875 Z M63.1660156,9.46289062 C62.6621069,9.46289062 62.2480485,9.6328108 61.9238281,9.97265625 C61.5996078,10.3125017 61.4179689,10.761716 61.3789062,11.3203125 L64.859375,11.3203125 C64.8476562,10.761716 64.6875015,10.3125017 64.3789062,9.97265625 C64.070311,9.6328108 63.6660181,9.46289062 63.1660156,9.46289062 Z M64.8300781,13.3652344 L65.8378906,13.3652344 C65.6855461,13.9082058 65.3769554,14.3349594 64.9121094,14.6455078 C64.4472633,14.9560562 63.8691441,15.1113281 63.1777344,15.1113281 C62.30273,15.1113281 61.6093776,14.8173858 61.0976562,14.2294922 C60.5859349,13.6415986 60.3300781,12.8476612 60.3300781,11.8476562 C60.3300781,10.8554638 60.587888,10.0615264 61.1035156,9.46582031 C61.6191432,8.87011421 62.3105425,8.57226562 63.1777344,8.57226562 C64.0293011,8.57226562 64.6992163,8.85644247 65.1875,9.42480469 C65.6757837,9.9931669 65.9199219,10.7675732 65.9199219,11.7480469 L65.9199219,12.1347656 L61.3789062,12.1347656 L61.3789062,12.1816406 C61.4062501,12.8066437 61.5830062,13.3027325 61.9091797,13.6699219 C62.2353532,14.0371112 62.6660129,14.2207031 63.2011719,14.2207031 C63.6074239,14.2207031 63.9472643,14.1474617 64.2207031,14.0009766 C64.494142,13.8544915 64.697265,13.6425795 64.8300781,13.3652344 Z" id="No-service" fill="#FFFFFF" fill-rule="nonzero"></path>
        </g>
    </g>
</svg>