<?xml version="1.0" encoding="UTF-8"?>
<svg width="66px" height="37px" viewBox="0 0 66 37" version="1.1" xmlns="http://www.w3.org/2000/svg" xmlns:xlink="http://www.w3.org/1999/xlink">
    <!-- Generator: Sketch 43.2 (39069) - http://www.bohemiancoding.com/sketch -->
    <title>navigationItem_match_locationMap_whiteFull</title>
    <desc>Created with Sketch.</desc>
    <defs>
        <path d="M0,17.5 C0,7.83501688 7.83666379,0 17.5044525,0 L46.0163808,0 C55.683823,0 63.5208333,7.83289181 63.5208333,17.5 C63.5208333,27.1649831 55.6841695,35 46.0163808,35 L17.5044525,35 C7.83701035,35 0,27.1671082 0,17.5 Z M41.1452,12.5728 C41.1452,7.2858 36.8592,2.9998 31.5722,2.9998 C26.2862,2.9998 22.0002,7.2858 22.0002,12.5728 C22.0002,19.4998 31.5722,27.1448 31.5722,27.1448 C31.5722,27.1448 41.1452,19.9998 41.1452,12.5728 Z M21.94,21.957 C20.676,24.129 19.413,26.301 18.157,28.477 C17.744,29.193 18.186,29.943 19.02,29.944 C27.316,29.946 35.612,29.946 43.909,29.944 C44.741,29.943 45.174,29.196 44.769,28.474 C44.546,28.077 44.314,27.686 44.085,27.292 C43.063,25.53 42.038,23.769 41.019,22.005 C40.834,21.683 40.588,21.459 40.203,21.427 C39.822,21.395 39.515,21.548 39.311,21.865 C39.091,22.205 39.117,22.551 39.319,22.898 C40.26,24.514 41.196,26.132 42.135,27.748 C42.186,27.838 42.235,27.929 42.298,28.044 L20.629,28.044 C20.705,27.91 20.755,27.814 20.809,27.721 C21.742,26.113 22.676,24.506 23.606,22.895 C23.906,22.374 23.76,21.807 23.269,21.541 C23.116,21.458 22.957,21.418 22.801,21.418 C22.464,21.418 22.144,21.606 21.94,21.957 Z" id="path-1"></path>
        <filter x="-3.1%" y="-2.9%" width="106.3%" height="111.4%" filterUnits="objectBoundingBox" id="filter-2">
            <feOffset dx="0" dy="1" in="SourceAlpha" result="shadowOffsetOuter1"></feOffset>
            <feGaussianBlur stdDeviation="0.5" in="shadowOffsetOuter1" result="shadowBlurOuter1"></feGaussianBlur>
            <feColorMatrix values="0 0 0 0 0   0 0 0 0 0   0 0 0 0 0  0 0 0 0.25 0" type="matrix" in="shadowBlurOuter1"></feColorMatrix>
        </filter>
        <path d="M31.469,9.759 C29.702,9.759 28.27,11.168 28.273,12.906 C28.275,14.634 29.706,16.042 31.463,16.042 C33.219,16.043 34.653,14.635 34.656,12.907 C34.658,11.178 33.23,9.763 31.477,9.759 L31.469,9.759 Z" id="path-3"></path>
    </defs>
    <g id="Symbols" stroke="none" stroke-width="1" fill="none" fill-rule="evenodd">
        <g id="navigationItem_menu_match_locationMap" transform="translate(-185.000000, -1.000000)">
            <g id="navigationItem_match_locationMap_whiteFull" transform="translate(186.000000, 1.000000)">
                <g id="button_white">
                    <use fill="black" fill-opacity="1" filter="url(#filter-2)" xlink:href="#path-1"></use>
                    <use fill="#FFFFFF" fill-rule="evenodd" xlink:href="#path-1"></use>
                </g>
                <mask id="mask-4" fill="white">
                    <use xlink:href="#path-3"></use>
                </mask>
                <use id="circle_small_white" fill="#FFFFFF" fill-rule="evenodd" xlink:href="#path-3"></use>
            </g>
        </g>
    </g>
</svg>