<?xml version="1.0" encoding="UTF-8"?>
<svg width="64px" height="35px" viewBox="0 0 64 35" version="1.1" xmlns="http://www.w3.org/2000/svg" xmlns:xlink="http://www.w3.org/1999/xlink">
    <!-- Generator: Sketch 46.2 (44496) - http://www.bohemiancoding.com/sketch -->
    <title>press_20</title>
    <desc>Created with Sketch.</desc>
    <defs></defs>
    <g id="Page-1" stroke="none" stroke-width="1" fill="none" fill-rule="evenodd">
        <g id="press_20">
            <g id="Combined-Shape">
                <g id="path-1-link" fill-rule="nonzero" fill="#000000">
                    <path d="M0,17.5 C0,7.83501688 7.83666379,0 17.5044525,0 L46.0163808,0 C55.683823,0 63.5208333,7.83289181 63.5208333,17.5 C63.5208333,27.1649831 55.6841695,35 46.0163808,35 L17.5044525,35 C7.83701035,35 0,27.1671082 0,17.5 Z M31.9297,26.513 C31.8797,26.242 31.8407,25.967 31.8157,25.687 C31.6687,24.051 31.9857,22.501 32.7597,21.08 C33.8637,19.058 35.5337,17.712 37.7227,17.08 C38.5097,16.853 39.2357,16.742 39.9407,16.742 C40.0517,16.742 40.1617,16.745 40.2707,16.751 C40.6617,16.77 41.0387,16.818 41.4067,16.888 C41.7617,16.95 42.1027,17.04 42.4387,17.143 L42.4397,17.143 C44.0597,15.549 45.3397,14.291 45.7117,13.928 C46.2217,13.433 46.3087,12.855 46.1657,12.209 C46.1267,12.032 46.0537,11.838 45.9347,11.708 C45.3387,11.062 44.7297,10.429 44.1097,9.805 C43.8727,9.568 43.4927,9.565 43.2127,9.758 C42.6517,10.145 42.0517,10.343 41.3537,10.291 C40.2887,10.211 39.3257,9.359 39.0827,8.322 C38.8937,7.514 39.0597,6.764 39.5527,6.11 C39.8127,5.766 39.7387,5.367 39.4507,5.083 C38.9327,4.575 38.4307,4.052 37.9167,3.54 C37.2257,2.849 36.1687,2.796 35.4397,3.528 C34.2597,4.716 33.0687,5.894 31.8757,7.07 C31.3287,7.61 30.7627,8.13 30.2157,8.67 C27.4117,11.432 24.6117,14.198 21.8117,16.964 C20.7797,17.983 19.7567,19.012 18.7217,20.028 C18.4297,20.315 18.1637,20.613 18.0037,20.993 L17.9997,21.93 C18.1237,22.327 18.3807,22.631 18.6707,22.916 C19.1217,23.361 19.5627,23.815 20.0087,24.265 C20.3347,24.595 20.6657,24.638 21.0467,24.373 C21.5287,24.036 22.0577,23.795 22.6377,23.786 C23.2177,23.777 23.7667,23.965 24.2397,24.331 C24.9077,24.85 25.2647,25.55 25.2797,26.374 C25.2887,26.916 25.1567,27.467 24.7797,27.907 C24.4007,28.348 24.3727,28.709 24.8477,29.161 C25.1737,29.471 25.4877,29.792 25.7967,30.119 C26.2427,30.593 26.6897,31.061 27.3707,31.182 L27.7017,31.183 C28.4037,31.097 28.8257,30.59 29.2837,30.134 C29.8027,29.615 30.3257,29.098 30.8467,28.58 C31.2707,28.158 31.6957,27.737 32.1197,27.314 C32.0457,27.058 31.9837,26.798 31.9337,26.532 L31.9297,26.513 Z M43.8101,20.057 C42.7381,19.207 41.5081,18.815 40.1721,18.748 L39.9411,18.743 C39.3821,18.743 38.8261,18.843 38.2771,19.001 C36.5911,19.488 35.3481,20.514 34.5151,22.039 C33.9281,23.116 33.6961,24.273 33.8081,25.508 C33.8781,26.301 34.0721,27.049 34.4181,27.758 C34.7731,28.487 35.2651,29.109 35.8691,29.656 C36.4601,30.191 37.1371,30.58 37.8731,30.856 C38.3021,31.016 38.7621,31.089 39.2091,31.202 L40.8061,31.202 C40.9161,31.183 41.0271,31.166 41.1361,31.143 C42.2061,30.912 43.1951,30.486 44.0191,29.761 C45.1891,28.733 45.9531,27.463 46.1451,25.885 C46.2611,24.947 46.2251,24.025 45.9331,23.117 C45.5351,21.879 44.8321,20.868 43.8101,20.057 Z" id="path-1"></path>
                </g>
                <g id="path-1-link" fill="#FFFFFF">
                    <path d="M0,17.5 C0,7.83501688 7.83666379,0 17.5044525,0 L46.0163808,0 C55.683823,0 63.5208333,7.83289181 63.5208333,17.5 C63.5208333,27.1649831 55.6841695,35 46.0163808,35 L17.5044525,35 C7.83701035,35 0,27.1671082 0,17.5 Z M31.9297,26.513 C31.8797,26.242 31.8407,25.967 31.8157,25.687 C31.6687,24.051 31.9857,22.501 32.7597,21.08 C33.8637,19.058 35.5337,17.712 37.7227,17.08 C38.5097,16.853 39.2357,16.742 39.9407,16.742 C40.0517,16.742 40.1617,16.745 40.2707,16.751 C40.6617,16.77 41.0387,16.818 41.4067,16.888 C41.7617,16.95 42.1027,17.04 42.4387,17.143 L42.4397,17.143 C44.0597,15.549 45.3397,14.291 45.7117,13.928 C46.2217,13.433 46.3087,12.855 46.1657,12.209 C46.1267,12.032 46.0537,11.838 45.9347,11.708 C45.3387,11.062 44.7297,10.429 44.1097,9.805 C43.8727,9.568 43.4927,9.565 43.2127,9.758 C42.6517,10.145 42.0517,10.343 41.3537,10.291 C40.2887,10.211 39.3257,9.359 39.0827,8.322 C38.8937,7.514 39.0597,6.764 39.5527,6.11 C39.8127,5.766 39.7387,5.367 39.4507,5.083 C38.9327,4.575 38.4307,4.052 37.9167,3.54 C37.2257,2.849 36.1687,2.796 35.4397,3.528 C34.2597,4.716 33.0687,5.894 31.8757,7.07 C31.3287,7.61 30.7627,8.13 30.2157,8.67 C27.4117,11.432 24.6117,14.198 21.8117,16.964 C20.7797,17.983 19.7567,19.012 18.7217,20.028 C18.4297,20.315 18.1637,20.613 18.0037,20.993 L17.9997,21.93 C18.1237,22.327 18.3807,22.631 18.6707,22.916 C19.1217,23.361 19.5627,23.815 20.0087,24.265 C20.3347,24.595 20.6657,24.638 21.0467,24.373 C21.5287,24.036 22.0577,23.795 22.6377,23.786 C23.2177,23.777 23.7667,23.965 24.2397,24.331 C24.9077,24.85 25.2647,25.55 25.2797,26.374 C25.2887,26.916 25.1567,27.467 24.7797,27.907 C24.4007,28.348 24.3727,28.709 24.8477,29.161 C25.1737,29.471 25.4877,29.792 25.7967,30.119 C26.2427,30.593 26.6897,31.061 27.3707,31.182 L27.7017,31.183 C28.4037,31.097 28.8257,30.59 29.2837,30.134 C29.8027,29.615 30.3257,29.098 30.8467,28.58 C31.2707,28.158 31.6957,27.737 32.1197,27.314 C32.0457,27.058 31.9837,26.798 31.9337,26.532 L31.9297,26.513 Z M43.8101,20.057 C42.7381,19.207 41.5081,18.815 40.1721,18.748 L39.9411,18.743 C39.3821,18.743 38.8261,18.843 38.2771,19.001 C36.5911,19.488 35.3481,20.514 34.5151,22.039 C33.9281,23.116 33.6961,24.273 33.8081,25.508 C33.8781,26.301 34.0721,27.049 34.4181,27.758 C34.7731,28.487 35.2651,29.109 35.8691,29.656 C36.4601,30.191 37.1371,30.58 37.8731,30.856 C38.3021,31.016 38.7621,31.089 39.2091,31.202 L40.8061,31.202 C40.9161,31.183 41.0271,31.166 41.1361,31.143 C42.2061,30.912 43.1951,30.486 44.0191,29.761 C45.1891,28.733 45.9531,27.463 46.1451,25.885 C46.2611,24.947 46.2251,24.025 45.9331,23.117 C45.5351,21.879 44.8321,20.868 43.8101,20.057 Z" id="path-1"></path>
                </g>
            </g>
            <path d="M40.585,24.4183 L40.585,24.0433 C40.585,23.4363 40.59,22.8293 40.584,22.2223 C40.579,21.8113 40.336,21.5563 39.992,21.5723 C39.639,21.5893 39.432,21.8333 39.429,22.2313 C39.428,22.4803 39.429,22.7283 39.429,22.9763 L39.429,24.4183 L37.225,24.4183 C36.85,24.4183 36.579,24.6633 36.581,24.9983 C36.582,25.3353 36.849,25.5743 37.231,25.5753 C37.873,25.5783 38.515,25.5763 39.157,25.5763 L39.429,25.5763 C39.429,26.3543 39.428,27.0883 39.431,27.8233 C39.432,28.0433 39.492,28.2423 39.718,28.3303 C39.97,28.4283 40.232,28.4503 40.404,28.2003 C40.5,28.0623 40.573,27.8773 40.577,27.7113 C40.596,27.0073 40.585,26.3023 40.585,25.5763 C41.312,25.5763 42.007,25.5773 42.702,25.5763 C43.115,25.5753 43.387,25.3503 43.392,25.0103 C43.398,24.6093 43.181,24.4183 42.725,24.4183 L40.585,24.4183 Z" id="Combined-Shape_plus" fill="#FFFFFF"></path>
            <path d="M36.2021,11.6024 C36.2141,11.3394 36.3411,11.1864 36.5501,11.0754 C36.8001,10.9434 37.0171,11.0274 37.1971,11.1874 C37.4771,11.4374 37.7461,11.7034 37.9941,11.9854 C38.3231,12.3584 38.1741,12.8744 37.6901,12.9754 C37.5191,13.0104 37.2771,12.9164 37.1301,12.8014 C36.8511,12.5814 36.6031,12.3174 36.3731,12.0444 C36.2761,11.9314 36.2561,11.7514 36.2021,11.6024" id="Fill-8" fill="#FFFFFF"></path>
            <path d="M38.5693,14.0057 C38.5733,13.7027 38.7413,13.5007 38.9793,13.4467 C39.1593,13.4057 39.4173,13.4597 39.5643,13.5717 C39.8593,13.7967 40.1153,14.0787 40.3623,14.3597 C40.5443,14.5677 40.6023,14.8177 40.4583,15.0867 C40.3333,15.3167 40.1303,15.3997 39.8963,15.3647 C39.7543,15.3437 39.6003,15.2717 39.4923,15.1777 C39.2263,14.9397 38.9723,14.6887 38.7393,14.4197 C38.6463,14.3127 38.6233,14.1457 38.5693,14.0057" id="Fill-10" fill="#FFFFFF"></path>
            <path d="M35.1997,10.6039 C35.0827,10.5629 34.9387,10.5539 34.8547,10.4769 C34.5427,10.1889 34.2217,9.9009 33.9587,9.5689 C33.7637,9.3249 33.8397,8.9369 34.0327,8.7869 C34.3077,8.5729 34.6117,8.5969 34.8857,8.8639 C35.1297,9.1009 35.3737,9.3369 35.6047,9.5849 C35.7727,9.7669 35.8727,9.9959 35.7677,10.2339 C35.6677,10.4579 35.4947,10.6239 35.1997,10.6039" id="Fill-12" fill="#FFFFFF"></path>
        </g>
    </g>
</svg>