<?xml version="1.0" encoding="UTF-8"?>
<svg width="64px" height="35px" viewBox="0 0 64 35" version="1.1" xmlns="http://www.w3.org/2000/svg" xmlns:xlink="http://www.w3.org/1999/xlink">
    <!-- Generator: Sketch 46.2 (44496) - http://www.bohemiancoding.com/sketch -->
    <title>press_19</title>
    <desc>Created with Sketch.</desc>
    <defs></defs>
    <g id="Page-1" stroke="none" stroke-width="1" fill="none" fill-rule="evenodd">
        <g id="press_19">
            <g id="path-1-link" fill-rule="nonzero" fill="#000000">
                <path d="M0,17.5 C0,7.83501688 7.83666379,0 17.5044525,0 L46.0163808,0 C55.683823,0 63.5208333,7.83289181 63.5208333,17.5 C63.5208333,27.1649831 55.6841695,35 46.0163808,35 L17.5044525,35 C7.83701035,35 0,27.1671082 0,17.5 Z M23.0197112,16.4451935 C23.0197112,16.1852232 23.0074332,16.0695982 23.021508,15.9569494 C23.663262,10.7995089 28.3307273,6.83686012 33.6260214,6.95144345 C39.0512834,7.06870536 43.5306845,11.1841815 43.952631,16.4386458 C44.3057005,20.838497 42.0194332,24.8896875 38.1000321,26.8087351 C34.1583209,28.7386458 29.5405668,28.0411756 26.2177005,25.0164732 C26.0715615,24.8835863 25.9119465,24.6700446 25.7532299,24.6649851 C25.3850374,24.6535268 24.8976578,24.6243601 24.6759037,24.8318006 C24.4534011,25.0399851 24.4030909,25.5389435 24.4516043,25.8864137 C24.485893,26.1313542 24.7871551,26.3640923 25.0104064,26.5545685 C29.065615,30.0160268 33.6457861,30.8651339 38.513893,28.7169196 C43.4177861,26.5530804 45.9141283,22.5804613 45.921016,17.2295685 C45.9286524,11.3474256 41.5696364,6.22614583 35.8525455,5.20977679 C29.7748984,4.12912202 23.9580856,7.30233631 21.8133155,12.9242113 C21.3955615,14.0193006 21.1832406,15.1917708 20.8583209,16.3944494 C20.4895294,16.0099256 20.1138503,15.5963839 19.7140642,15.207247 C19.2708556,14.7758482 18.7665561,14.7350744 18.3194545,15.1684077 C17.9037968,15.5712351 17.8972086,16.0795685 18.2796257,16.5056101 C19.1932941,17.5230208 20.1297219,18.5209375 21.0785775,19.5060565 C21.5286738,19.9733185 22.0615722,19.9859673 22.543262,19.5536756 C23.5431765,18.6562054 24.5275187,17.7414732 25.5037754,16.8185565 C25.9459358,16.4005506 26.0065775,15.9100744 25.6036471,15.428378 C25.2356043,14.9883482 24.6558396,14.9945982 24.1457005,15.429122 C23.7929305,15.7295685 23.4567807,16.0493601 23.0197112,16.4451935 Z M33.940984,17.2168601 L33.940984,16.3388839 C33.9408342,14.4829315 33.9468235,12.6269792 33.9375401,10.7710268 C33.9337968,10.0344196 33.5671016,9.63084821 32.9548449,9.63813988 C32.3669947,9.64513393 31.993861,10.0335268 31.9905668,10.7198363 C31.9791872,13.1696875 31.9854759,15.6195387 31.987123,18.0693899 C31.9875722,18.7222173 32.3364492,19.1312946 32.9726631,19.1457292 C34.5900749,19.1824851 36.2095829,19.1789137 37.8272941,19.146622 C38.4290695,19.1345685 38.812385,18.7589732 38.7854332,18.1375446 C38.7607273,17.5628423 38.4027166,17.2457292 37.8132193,17.2229613 C37.5396578,17.212247 37.2654973,17.2171577 36.9916364,17.2170089 C36.0020535,17.2165625 35.0124706,17.2168601 33.940984,17.2168601 Z" id="path-1"></path>
            </g>
            <g id="path-1-link" fill="#FFFFFF">
                <path d="M0,17.5 C0,7.83501688 7.83666379,0 17.5044525,0 L46.0163808,0 C55.683823,0 63.5208333,7.83289181 63.5208333,17.5 C63.5208333,27.1649831 55.6841695,35 46.0163808,35 L17.5044525,35 C7.83701035,35 0,27.1671082 0,17.5 Z M23.0197112,16.4451935 C23.0197112,16.1852232 23.0074332,16.0695982 23.021508,15.9569494 C23.663262,10.7995089 28.3307273,6.83686012 33.6260214,6.95144345 C39.0512834,7.06870536 43.5306845,11.1841815 43.952631,16.4386458 C44.3057005,20.838497 42.0194332,24.8896875 38.1000321,26.8087351 C34.1583209,28.7386458 29.5405668,28.0411756 26.2177005,25.0164732 C26.0715615,24.8835863 25.9119465,24.6700446 25.7532299,24.6649851 C25.3850374,24.6535268 24.8976578,24.6243601 24.6759037,24.8318006 C24.4534011,25.0399851 24.4030909,25.5389435 24.4516043,25.8864137 C24.485893,26.1313542 24.7871551,26.3640923 25.0104064,26.5545685 C29.065615,30.0160268 33.6457861,30.8651339 38.513893,28.7169196 C43.4177861,26.5530804 45.9141283,22.5804613 45.921016,17.2295685 C45.9286524,11.3474256 41.5696364,6.22614583 35.8525455,5.20977679 C29.7748984,4.12912202 23.9580856,7.30233631 21.8133155,12.9242113 C21.3955615,14.0193006 21.1832406,15.1917708 20.8583209,16.3944494 C20.4895294,16.0099256 20.1138503,15.5963839 19.7140642,15.207247 C19.2708556,14.7758482 18.7665561,14.7350744 18.3194545,15.1684077 C17.9037968,15.5712351 17.8972086,16.0795685 18.2796257,16.5056101 C19.1932941,17.5230208 20.1297219,18.5209375 21.0785775,19.5060565 C21.5286738,19.9733185 22.0615722,19.9859673 22.543262,19.5536756 C23.5431765,18.6562054 24.5275187,17.7414732 25.5037754,16.8185565 C25.9459358,16.4005506 26.0065775,15.9100744 25.6036471,15.428378 C25.2356043,14.9883482 24.6558396,14.9945982 24.1457005,15.429122 C23.7929305,15.7295685 23.4567807,16.0493601 23.0197112,16.4451935 Z M33.940984,17.2168601 L33.940984,16.3388839 C33.9408342,14.4829315 33.9468235,12.6269792 33.9375401,10.7710268 C33.9337968,10.0344196 33.5671016,9.63084821 32.9548449,9.63813988 C32.3669947,9.64513393 31.993861,10.0335268 31.9905668,10.7198363 C31.9791872,13.1696875 31.9854759,15.6195387 31.987123,18.0693899 C31.9875722,18.7222173 32.3364492,19.1312946 32.9726631,19.1457292 C34.5900749,19.1824851 36.2095829,19.1789137 37.8272941,19.146622 C38.4290695,19.1345685 38.812385,18.7589732 38.7854332,18.1375446 C38.7607273,17.5628423 38.4027166,17.2457292 37.8132193,17.2229613 C37.5396578,17.212247 37.2654973,17.2171577 36.9916364,17.2170089 C36.0020535,17.2165625 35.0124706,17.2168601 33.940984,17.2168601 Z" id="path-1"></path>
            </g>
        </g>
    </g>
</svg>