<?xml version="1.0" encoding="UTF-8"?>
<svg width="28px" height="25px" viewBox="0 0 28 25" version="1.1" xmlns="http://www.w3.org/2000/svg" xmlns:xlink="http://www.w3.org/1999/xlink">
    <!-- Generator: Sketch 46.2 (44496) - http://www.bohemiancoding.com/sketch -->
    <title>press_21</title>
    <desc>Created with Sketch.</desc>
    <defs></defs>
    <g id="Page-1" stroke="none" stroke-width="1" fill="none" fill-rule="evenodd">
        <g id="press_21">
            <g id="Fill-1">
                <g id="path-1-link" fill-rule="nonzero" fill="#000000">
                    <path d="M5.01971123,11.4451935 C5.45678075,11.0493601 5.79293048,10.7295685 6.14570053,10.429122 C6.65583957,9.99459821 7.23560428,9.98834821 7.60364706,10.428378 C8.00657754,10.9100744 7.94593583,11.4005506 7.5037754,11.8185565 C6.52751872,12.7414732 5.54317647,13.6562054 4.54326203,14.5536756 C4.06157219,14.9859673 3.5286738,14.9733185 3.07857754,14.5060565 C2.12972193,13.5209375 1.19329412,12.5230208 0.279625668,11.5056101 C-0.102791444,11.0795685 -0.0962032086,10.5712351 0.319454545,10.1684077 C0.76655615,9.7350744 1.27085561,9.77584821 1.71406417,10.207247 C2.11385027,10.5963839 2.48952941,11.0099256 2.85832086,11.3944494 C3.18324064,10.1917708 3.3955615,9.0193006 3.81331551,7.92421131 C5.95808556,2.30233631 11.7748984,-0.870877976 17.8525455,0.209776786 C23.5696364,1.22614583 27.9286524,6.3474256 27.921016,12.2295685 C27.9141283,17.5804613 25.4177861,21.5530804 20.513893,23.7169196 C15.6457861,25.8651339 11.065615,25.0160268 7.01040642,21.5545685 C6.78715508,21.3640923 6.48589305,21.1313542 6.45160428,20.8864137 C6.40309091,20.5389435 6.45340107,20.0399851 6.67590374,19.8318006 C6.89765775,19.6243601 7.38503743,19.6535268 7.75322995,19.6649851 C7.91194652,19.6700446 8.0715615,19.8835863 8.21770053,20.0164732 C11.5405668,23.0411756 16.1583209,23.7386458 20.1000321,21.8087351 C24.0194332,19.8896875 26.3057005,15.838497 25.952631,11.4386458 C25.5306845,6.18418155 21.0512834,2.06870536 15.6260214,1.95144345 C10.3307273,1.83686012 5.66326203,5.79950893 5.02150802,10.9569494 C5.00743316,11.0695982 5.01971123,11.1852232 5.01971123,11.4451935" id="path-1"></path>
                </g>
                <g id="path-1-link" fill="#FFFFFF">
                    <path d="M5.01971123,11.4451935 C5.45678075,11.0493601 5.79293048,10.7295685 6.14570053,10.429122 C6.65583957,9.99459821 7.23560428,9.98834821 7.60364706,10.428378 C8.00657754,10.9100744 7.94593583,11.4005506 7.5037754,11.8185565 C6.52751872,12.7414732 5.54317647,13.6562054 4.54326203,14.5536756 C4.06157219,14.9859673 3.5286738,14.9733185 3.07857754,14.5060565 C2.12972193,13.5209375 1.19329412,12.5230208 0.279625668,11.5056101 C-0.102791444,11.0795685 -0.0962032086,10.5712351 0.319454545,10.1684077 C0.76655615,9.7350744 1.27085561,9.77584821 1.71406417,10.207247 C2.11385027,10.5963839 2.48952941,11.0099256 2.85832086,11.3944494 C3.18324064,10.1917708 3.3955615,9.0193006 3.81331551,7.92421131 C5.95808556,2.30233631 11.7748984,-0.870877976 17.8525455,0.209776786 C23.5696364,1.22614583 27.9286524,6.3474256 27.921016,12.2295685 C27.9141283,17.5804613 25.4177861,21.5530804 20.513893,23.7169196 C15.6457861,25.8651339 11.065615,25.0160268 7.01040642,21.5545685 C6.78715508,21.3640923 6.48589305,21.1313542 6.45160428,20.8864137 C6.40309091,20.5389435 6.45340107,20.0399851 6.67590374,19.8318006 C6.89765775,19.6243601 7.38503743,19.6535268 7.75322995,19.6649851 C7.91194652,19.6700446 8.0715615,19.8835863 8.21770053,20.0164732 C11.5405668,23.0411756 16.1583209,23.7386458 20.1000321,21.8087351 C24.0194332,19.8896875 26.3057005,15.838497 25.952631,11.4386458 C25.5306845,6.18418155 21.0512834,2.06870536 15.6260214,1.95144345 C10.3307273,1.83686012 5.66326203,5.79950893 5.02150802,10.9569494 C5.00743316,11.0695982 5.01971123,11.1852232 5.01971123,11.4451935" id="path-1"></path>
                </g>
            </g>
            <g id="Fill-3" transform="translate(13.000000, 4.000000)">
                <g id="path-3-link" fill-rule="nonzero" fill="#000000">
                    <path d="M2.940984,8.2168601 C4.0124706,8.2168601 5.0020535,8.2165625 5.9916364,8.2170089 C6.2654973,8.2171577 6.5396578,8.212247 6.8132193,8.2229613 C7.4027166,8.2457292 7.7607273,8.5628423 7.7854332,9.1375446 C7.812385,9.7589732 7.4290695,10.1345685 6.8272941,10.146622 C5.2095829,10.1789137 3.5900749,10.1824851 1.9726631,10.1457292 C1.3364492,10.1312946 0.9875722,9.7222173 0.987123,9.0693899 C0.9854759,6.6195387 0.9791872,4.1696875 0.9905668,1.71983631 C0.993861,1.03352679 1.3669947,0.64513393 1.9548449,0.63813988 C2.5671016,0.63084821 2.9337968,1.03441964 2.9375401,1.77102679 C2.9468235,3.62697917 2.9408342,5.48293155 2.940984,7.3388839 L2.940984,8.2168601" id="path-3"></path>
                </g>
                <g id="path-3-link" fill="#FFFFFF">
                    <path d="M2.940984,8.2168601 C4.0124706,8.2168601 5.0020535,8.2165625 5.9916364,8.2170089 C6.2654973,8.2171577 6.5396578,8.212247 6.8132193,8.2229613 C7.4027166,8.2457292 7.7607273,8.5628423 7.7854332,9.1375446 C7.812385,9.7589732 7.4290695,10.1345685 6.8272941,10.146622 C5.2095829,10.1789137 3.5900749,10.1824851 1.9726631,10.1457292 C1.3364492,10.1312946 0.9875722,9.7222173 0.987123,9.0693899 C0.9854759,6.6195387 0.9791872,4.1696875 0.9905668,1.71983631 C0.993861,1.03352679 1.3669947,0.64513393 1.9548449,0.63813988 C2.5671016,0.63084821 2.9337968,1.03441964 2.9375401,1.77102679 C2.9468235,3.62697917 2.9408342,5.48293155 2.940984,7.3388839 L2.940984,8.2168601" id="path-3"></path>
                </g>
            </g>
        </g>
    </g>
</svg>