<?xml version="1.0" encoding="UTF-8"?>
<svg width="33px" height="34px" viewBox="0 0 33 34" version="1.1" xmlns="http://www.w3.org/2000/svg" xmlns:xlink="http://www.w3.org/1999/xlink">
    <!-- Generator: Sketch 46.2 (44496) - http://www.bohemiancoding.com/sketch -->
    <title>press_4</title>
    <desc>Created with Sketch.</desc>
    <defs></defs>
    <g id="Page-1" stroke="none" stroke-width="1" fill="none" fill-rule="evenodd">
        <g id="press_4" transform="translate(0.000000, 1.000000)" stroke="#FEFEFE" stroke-width="1.5">
            <path d="M31.5564,6.0382 C20.3964,-4.6638 7.1224,4.1892 7.1224,4.1892" id="Stroke-1"></path>
            <polyline id="Stroke-3" points="27.4373 6.4649 32.1343 6.4649 31.6323 1.8519"></polyline>
            <path d="M10.9041,12.3946 L10.7221,11.7526 C10.0321,10.5176 9.0181,10.1966 7.7871,10.6186 C6.8951,10.9246 5.9781,11.5496 4.6881,12.6266 C2.9511,14.0766 1.8401,15.5426 1.2371,16.9626 C0.8461,17.8846 0.7251,18.6346 0.7541,19.1956 L0.8831,25.0936 L0.8861,25.2356 L7.0101,31.3146 L7.1671,31.3056 C8.9501,31.1996 10.5171,31.0126 11.8741,30.7666 C12.6391,30.6276 13.2921,30.4776 13.8311,30.3286 C14.1591,30.2376 14.3791,30.1656 14.4931,30.1236 C14.6361,30.0336 14.7451,29.9516 14.8951,29.8366 C15.1461,29.6446 15.4251,29.4256 15.7261,29.1856 C16.5851,28.4976 17.4441,27.7696 18.2471,27.0306 C18.8761,26.4526 19.4451,25.8916 19.9391,25.3546 C20.7511,24.4746 21.3431,23.6816 21.6791,22.9896 C22.1631,21.9946 21.9051,21.1166 21.2031,20.4276 C21.0591,20.2866 20.9151,20.1696 20.7841,20.0786 C21.4301,18.4596 21.0361,17.3266 19.9671,16.6826 C19.7541,16.5526 19.5411,16.4586 19.3711,16.3336 C19.6781,15.5836 19.7281,14.7846 19.3421,14.0266 C19.2781,13.8996 19.2011,13.7756 19.1131,13.6556 C18.7991,13.2286 18.3951,12.9566 17.9311,12.8236 C17.6981,12.7566 17.0161,12.7066 16.7791,12.7066" id="Stroke-5"></path>
            <path d="M12.8113,16.2696 C12.8113,16.2696 19.8573,9.6606 20.5193,8.9856 C21.1313,8.3596 20.7933,7.0256 20.1953,6.3676 C19.4893,5.5906 18.2733,5.3746 17.4063,6.2416 L6.1043,17.2206" id="Stroke-7"></path>
            <path d="M15.3533,19.4659 L19.2753,16.0429" id="Stroke-9"></path>
            <path d="M17.3142,22.7056 L20.8432,19.6316" id="Stroke-11"></path>
        </g>
    </g>
</svg>