<?xml version="1.0" encoding="UTF-8"?>
<svg width="100px" height="100px" viewBox="0 0 100 100" version="1.1" xmlns="http://www.w3.org/2000/svg" xmlns:xlink="http://www.w3.org/1999/xlink">
    <!-- Generator: Sketch 46.2 (44496) - http://www.bohemiancoding.com/sketch -->
    <title>press_22</title>
    <desc>Created with Sketch.</desc>
    <defs></defs>
    <g id="Page-1" stroke="none" stroke-width="1" fill="none" fill-rule="evenodd">
        <g id="press_22" fill-rule="nonzero">
            <path d="M49.9999793,99.9973164 C22.3857636,99.9973164 0,77.6121584 0,49.9986587 C0,22.3851618 22.3857636,0 49.9999793,0 C77.614264,0 100,22.3851618 100,49.9986587 C100,77.6121584 77.614264,99.9973164 49.9999793,99.9973164 Z" id="redcircle" fill="#FF738E"></path>
            <path d="M17.6,36.4574612 L17.6,63.9638884 C17.6,66.8653974 19.8361735,69.2023313 22.6098576,69.2023313 L76.8416819,69.2023313 C79.615488,69.2023313 81.8514786,66.8653974 81.8514786,63.9638884 L81.8514786,36.4574612 C81.8514786,33.556135 79.615488,31.2 76.8416819,31.2 L22.6098576,31.2 C19.8361735,31.2 17.6,33.556135 17.6,36.4574612 Z M26.3243377,34.9526386 L28.3625259,34.9526386 C29.0787597,34.9526386 29.6578424,35.512764 29.6578424,36.2288759 L29.6578424,63.8496567 C29.6578424,64.5657077 29.0788207,65.1639915 28.3625259,65.1639915 L26.3243377,65.1639915 C25.6081648,65.1639915 25.0290212,64.5657077 25.0290212,63.8496567 L25.0290212,36.2288759 C25.0290212,35.512764 25.6081648,34.9526386 26.3243377,34.9526386 L26.3243377,34.9526386 Z M71.107971,34.9526386 L73.1462201,34.9526386 C73.862393,34.9526386 74.4415366,35.512764 74.4415366,36.2288759 L74.4415366,63.8496567 C74.4415366,64.5657077 73.862393,65.1639915 73.1462201,65.1639915 L71.107971,65.1639915 C70.3917371,65.1639915 69.8126545,64.5657077 69.8126545,63.8496567 L69.8126545,36.2288759 C69.8126545,35.512764 70.3917371,34.9526386 71.107971,34.9526386 L71.107971,34.9526386 Z M32.6676094,35.2003031 L33.4675969,35.2003031 C33.8813057,35.2003031 34.2105295,35.5295878 34.2105295,35.9431748 L34.2105295,64.6687235 C34.2105295,65.0823714 33.8813057,65.4497536 33.4675969,65.4497536 L32.6676094,65.4497536 C32.2540224,65.4497536 31.9246768,65.0823714 31.9246768,64.6687235 L31.9246768,35.9431748 C31.9246768,35.5295878 32.2537786,35.2003031 32.6676094,35.2003031 L32.6676094,35.2003031 Z M37.8488755,35.2003031 L38.6488629,35.2003031 C39.0624499,35.2003031 39.3917955,35.5295878 39.3917955,35.9431748 L39.3917955,64.6687235 C39.3917955,65.0823714 39.0624499,65.4497536 38.6488629,65.4497536 L37.8488755,65.4497536 C37.4350447,65.4497536 37.1059429,65.0823714 37.1059429,64.6687235 L37.1059429,35.9431748 C37.1059429,35.5295878 37.4351666,35.2003031 37.8488755,35.2003031 L37.8488755,35.2003031 Z M43.0491598,35.2003031 L43.830129,35.2003031 C44.2439598,35.2003031 44.5920799,35.5295878 44.5920799,35.9431748 L44.5920799,64.6687235 C44.5920799,65.0823714 44.2439598,65.4497536 43.830129,65.4497536 L43.0491598,65.4497536 C42.6355729,65.4497536 42.2872089,65.0823714 42.2872089,64.6687235 L42.2872089,35.9431748 C42.2872089,35.5295878 42.6355729,35.2003031 43.0491598,35.2003031 L43.0491598,35.2003031 Z M48.2494442,35.2003031 L50.1162848,35.2003031 C50.5299327,35.2003031 50.897254,35.5295878 50.897254,35.9431748 L50.897254,64.6687235 C50.897254,65.0823714 50.5299327,65.4497536 50.1162848,65.4497536 L48.2494442,65.4497536 C47.8359182,65.4497536 47.468475,65.0823714 47.468475,64.6687235 L47.468475,35.9431748 C47.468475,35.5295878 47.8359792,35.2003031 48.2494442,35.2003031 L48.2494442,35.2003031 Z M54.5356,35.2003031 L55.2975509,35.2003031 C55.7111379,35.2003031 56.0785201,35.5295878 56.0785201,35.9431748 L56.0785201,64.6687235 C56.0785201,65.0823714 55.7113207,65.4497536 55.2975509,65.4497536 L54.5356,65.4497536 C54.1218912,65.4497536 53.7545699,65.0823714 53.7545699,64.6687235 L53.7545699,35.9431748 C53.7545699,35.5295878 54.1218912,35.2003031 54.5356,35.2003031 L54.5356,35.2003031 Z M59.7168661,35.2003031 L60.5359328,35.2003031 C60.9494588,35.2003031 61.2597862,35.5295878 61.2597862,35.9431748 L61.2597862,64.6687235 C61.2597862,65.0823714 60.9494588,65.4497536 60.5359328,65.4497536 L59.7168661,65.4497536 C59.3033401,65.4497536 58.9929518,65.0823714 58.9929518,64.6687235 L58.9929518,35.9431748 C58.9929518,35.5295878 59.3031572,35.2003031 59.7168661,35.2003031 L59.7168661,35.2003031 Z M64.8981322,35.2003031 L66.8220277,35.2003031 C67.2355537,35.2003031 67.545881,35.5295878 67.545881,35.9431748 L67.545881,64.6687235 C67.545881,65.0823714 67.2355537,65.4497536 66.8220277,65.4497536 L64.8981322,65.4497536 C64.4845452,65.4497536 64.1742179,65.0823714 64.1742179,64.6687235 L64.1742179,35.9431748 C64.1742179,35.5295878 64.4845452,35.2003031 64.8981322,35.2003031 L64.8981322,35.2003031 Z" id="barcode" fill="#FFFFFF"></path>
        </g>
    </g>
</svg>