<?xml version="1.0" encoding="UTF-8"?>
<svg width="64px" height="35px" viewBox="0 0 64 35" version="1.1" xmlns="http://www.w3.org/2000/svg" xmlns:xlink="http://www.w3.org/1999/xlink">
    <!-- Generator: Sketch 46.2 (44496) - http://www.bohemiancoding.com/sketch -->
    <title>press_3</title>
    <desc>Created with Sketch.</desc>
    <defs></defs>
    <g id="Page-1" stroke="none" stroke-width="1" fill="none" fill-rule="evenodd">
        <g id="press_3">
            <g id="button_white">
                <g id="path-1-link" fill-rule="nonzero" fill="#000000">
                    <path d="M0,17.5 C0,7.83501688 7.83666379,0 17.5044525,0 L46.0163808,0 C55.683823,0 63.5208333,7.83289181 63.5208333,17.5 C63.5208333,27.1649831 55.6841695,35 46.0163808,35 L17.5044525,35 C7.83701035,35 0,27.1671082 0,17.5 Z M41.1452,12.5728 C41.1452,7.2858 36.8592,2.9998 31.5722,2.9998 C26.2862,2.9998 22.0002,7.2858 22.0002,12.5728 C22.0002,19.4998 31.5722,27.1448 31.5722,27.1448 C31.5722,27.1448 41.1452,19.9998 41.1452,12.5728 Z M21.94,21.957 C20.676,24.129 19.413,26.301 18.157,28.477 C17.744,29.193 18.186,29.943 19.02,29.944 C27.316,29.946 35.612,29.946 43.909,29.944 C44.741,29.943 45.174,29.196 44.769,28.474 C44.546,28.077 44.314,27.686 44.085,27.292 C43.063,25.53 42.038,23.769 41.019,22.005 C40.834,21.683 40.588,21.459 40.203,21.427 C39.822,21.395 39.515,21.548 39.311,21.865 C39.091,22.205 39.117,22.551 39.319,22.898 C40.26,24.514 41.196,26.132 42.135,27.748 C42.186,27.838 42.235,27.929 42.298,28.044 L20.629,28.044 C20.705,27.91 20.755,27.814 20.809,27.721 C21.742,26.113 22.676,24.506 23.606,22.895 C23.906,22.374 23.76,21.807 23.269,21.541 C23.116,21.458 22.957,21.418 22.801,21.418 C22.464,21.418 22.144,21.606 21.94,21.957 Z" id="path-1"></path>
                </g>
                <g id="path-1-link" fill="#FFFFFF">
                    <path d="M0,17.5 C0,7.83501688 7.83666379,0 17.5044525,0 L46.0163808,0 C55.683823,0 63.5208333,7.83289181 63.5208333,17.5 C63.5208333,27.1649831 55.6841695,35 46.0163808,35 L17.5044525,35 C7.83701035,35 0,27.1671082 0,17.5 Z M41.1452,12.5728 C41.1452,7.2858 36.8592,2.9998 31.5722,2.9998 C26.2862,2.9998 22.0002,7.2858 22.0002,12.5728 C22.0002,19.4998 31.5722,27.1448 31.5722,27.1448 C31.5722,27.1448 41.1452,19.9998 41.1452,12.5728 Z M21.94,21.957 C20.676,24.129 19.413,26.301 18.157,28.477 C17.744,29.193 18.186,29.943 19.02,29.944 C27.316,29.946 35.612,29.946 43.909,29.944 C44.741,29.943 45.174,29.196 44.769,28.474 C44.546,28.077 44.314,27.686 44.085,27.292 C43.063,25.53 42.038,23.769 41.019,22.005 C40.834,21.683 40.588,21.459 40.203,21.427 C39.822,21.395 39.515,21.548 39.311,21.865 C39.091,22.205 39.117,22.551 39.319,22.898 C40.26,24.514 41.196,26.132 42.135,27.748 C42.186,27.838 42.235,27.929 42.298,28.044 L20.629,28.044 C20.705,27.91 20.755,27.814 20.809,27.721 C21.742,26.113 22.676,24.506 23.606,22.895 C23.906,22.374 23.76,21.807 23.269,21.541 C23.116,21.458 22.957,21.418 22.801,21.418 C22.464,21.418 22.144,21.606 21.94,21.957 Z" id="path-1"></path>
                </g>
            </g>
            <g id="circle_small_white" transform="translate(28.000000, 9.000000)" fill="#FFFFFF">
                <path d="M3.469,0.759 C1.702,0.759 0.27,2.168 0.273,3.906 C0.275,5.634 1.706,7.042 3.463,7.042 C5.219,7.043 6.653,5.635 6.656,3.907 C6.658,2.178 5.23,0.763 3.477,0.759 L3.469,0.759 Z" id="path-3"></path>
            </g>
        </g>
    </g>
</svg>