<?xml version="1.0" encoding="UTF-8"?>
<svg width="64px" height="35px" viewBox="0 0 64 35" version="1.1" xmlns="http://www.w3.org/2000/svg" xmlns:xlink="http://www.w3.org/1999/xlink">
    <!-- Generator: Sketch 46.2 (44496) - http://www.bohemiancoding.com/sketch -->
    <title>press_1</title>
    <desc>Created with Sketch.</desc>
    <defs></defs>
    <g id="Page-1" stroke="none" stroke-width="1" fill="none" fill-rule="evenodd">
        <g id="press_1">
            <path d="M20.314989,26.0618261 L20.2041832,20.4096522 C20.2041832,20.4096522 19.9825714,16.387913 26.5201172,12.3661739 C29.1794579,11.0618261 29.844293,13.887913 29.844293,13.887913" id="Stroke-7" stroke="#FFFFFF" stroke-width="0.7" transform="translate(25.023791, 19.042040) rotate(0.000000) translate(-25.023791, -19.042040) "></path>
            <path d="M25.1904469,18.4531304 L36.4926447,7.47486957 C36.4926447,7.47486957 37.8777179,6.22486957 39.1519853,7.47486957 C40.4262527,8.72486957 39.7060147,10.1922609 39.7060147,10.1922609 L32.1712161,17.5835652" id="Stroke-9" stroke="#FFFFFF" stroke-width="0.7" transform="translate(32.549622, 12.686222) rotate(0.000000) translate(-32.549622, -12.686222) "></path>
            <path d="M36.0494212,13.9966087 C39.2627912,14.6487826 38.1547326,17.8009565 38.1547326,17.8009565 L34.6089451,20.9531304" id="Stroke-11" stroke="#FFFFFF" stroke-width="0.7" transform="translate(36.474139, 17.474870) rotate(0.000000) translate(-36.474139, -17.474870) "></path>
            <path d="M35.9386154,24.4313913 L39.2627912,21.4966087 C39.2627912,21.4966087 41.1464908,18.7792174 38.1547326,17.8009565" id="Stroke-13" stroke="#FFFFFF" stroke-width="0.7" transform="translate(37.893307, 21.116174) rotate(0.000000) translate(-37.893307, -21.116174) "></path>
            <path d="M27.4065641,32.9096522 C27.4065641,32.9096522 31.3955751,33.2357391 35.7170037,29.3226957 C40.0384322,25.4096522 40.5924615,23.887913 40.5924615,23.887913 C40.5924615,23.887913 41.035685,21.8226957 39.2627912,21.4966087" id="Stroke-15" stroke="#FFFFFF" stroke-width="0.7" transform="translate(34.024136, 27.206458) rotate(0.000000) translate(-34.024136, -27.206458) "></path>
            <g id="Combined-Shape_button">
                <g id="path-1-link" fill-rule="nonzero" fill="#000000">
                    <path d="M0,17.5 C0,7.83501688 7.83666379,0 17.5044525,0 L46.0163808,0 C55.683823,0 63.5208333,7.83289181 63.5208333,17.5 C63.5208333,27.1649831 55.6841695,35 46.0163808,35 L17.5044525,35 C7.83701035,35 0,27.1671082 0,17.5 Z M19.7977473,25.9531304 L26.2481392,32.2031304 C31.1603846,31.9131304 34.0549158,31.097913 34.0549158,31.097913 C34.0549158,31.097913 39.5952088,26.7866087 40.8140733,23.924 C41.3521465,22.6605217 39.5952088,21.387913 39.5952088,21.387913 C40.555674,18.2718261 37.9331209,17.7283478 37.9331209,17.7283478 C37.9331209,17.7283478 38.302326,16.424 37.6374908,15.1561739 C36.9726557,13.887913 35.1261868,14.3587826 35.1261868,14.3587826 L39.2627912,10.1922609 C40.4448681,6.6413913 36.4926447,7.47486957 36.4926447,7.47486957 L29.844293,13.887913 L29.4750879,13.1270435 C27.8497875,10.5183478 25.9155604,12.2074783 24.0823883,13.8153043 C20.0654542,17.3392174 20.2041832,20.4096522 20.2041832,20.4096522 L19.7977473,25.9531304 Z M49.1537818,5.23071405 C49.1087818,4.81971405 48.7307818,4.52671405 48.3267818,4.56671405 C47.9147818,4.61171405 47.6177818,4.98171405 47.6627818,5.39271405 L47.9057818,7.63471405 C47.8947818,7.62271405 47.8907818,7.60771405 47.8787818,7.59571405 C37.6587818,-2.20428595 26.3907818,6.70271405 26.2787818,6.79371405 C25.9557818,7.05471405 25.9067818,7.52671405 26.1667818,7.84871405 C26.4277818,8.17071405 26.9007818,8.22071405 27.2217818,7.95971405 C27.6397818,7.62271405 37.5317818,-0.189285946 46.7947818,8.63771405 L44.7007818,8.63771405 C44.2867818,8.63771405 43.9507818,8.97371405 43.9507818,9.38771405 C43.9507818,9.80171405 44.2867818,10.1377141 44.7007818,10.1377141 L48.8507818,10.1377141 C49.0637818,10.1377141 49.2667818,10.0467141 49.4087818,9.88871405 C49.5517818,9.72971405 49.6197818,9.51871405 49.5967818,9.30671405 L49.1537818,5.23071405 Z" id="path-1"></path>
                </g>
                <g id="path-1-link" fill="#FFFFFF">
                    <path d="M0,17.5 C0,7.83501688 7.83666379,0 17.5044525,0 L46.0163808,0 C55.683823,0 63.5208333,7.83289181 63.5208333,17.5 C63.5208333,27.1649831 55.6841695,35 46.0163808,35 L17.5044525,35 C7.83701035,35 0,27.1671082 0,17.5 Z M19.7977473,25.9531304 L26.2481392,32.2031304 C31.1603846,31.9131304 34.0549158,31.097913 34.0549158,31.097913 C34.0549158,31.097913 39.5952088,26.7866087 40.8140733,23.924 C41.3521465,22.6605217 39.5952088,21.387913 39.5952088,21.387913 C40.555674,18.2718261 37.9331209,17.7283478 37.9331209,17.7283478 C37.9331209,17.7283478 38.302326,16.424 37.6374908,15.1561739 C36.9726557,13.887913 35.1261868,14.3587826 35.1261868,14.3587826 L39.2627912,10.1922609 C40.4448681,6.6413913 36.4926447,7.47486957 36.4926447,7.47486957 L29.844293,13.887913 L29.4750879,13.1270435 C27.8497875,10.5183478 25.9155604,12.2074783 24.0823883,13.8153043 C20.0654542,17.3392174 20.2041832,20.4096522 20.2041832,20.4096522 L19.7977473,25.9531304 Z M49.1537818,5.23071405 C49.1087818,4.81971405 48.7307818,4.52671405 48.3267818,4.56671405 C47.9147818,4.61171405 47.6177818,4.98171405 47.6627818,5.39271405 L47.9057818,7.63471405 C47.8947818,7.62271405 47.8907818,7.60771405 47.8787818,7.59571405 C37.6587818,-2.20428595 26.3907818,6.70271405 26.2787818,6.79371405 C25.9557818,7.05471405 25.9067818,7.52671405 26.1667818,7.84871405 C26.4277818,8.17071405 26.9007818,8.22071405 27.2217818,7.95971405 C27.6397818,7.62271405 37.5317818,-0.189285946 46.7947818,8.63771405 L44.7007818,8.63771405 C44.2867818,8.63771405 43.9507818,8.97371405 43.9507818,9.38771405 C43.9507818,9.80171405 44.2867818,10.1377141 44.7007818,10.1377141 L48.8507818,10.1377141 C49.0637818,10.1377141 49.2667818,10.0467141 49.4087818,9.88871405 C49.5517818,9.72971405 49.6197818,9.51871405 49.5967818,9.30671405 L49.1537818,5.23071405 Z" id="path-1"></path>
                </g>
            </g>
        </g>
    </g>
</svg>