<?xml version="1.0" encoding="UTF-8"?>
<svg width="15px" height="20px" viewBox="0 0 15 20" version="1.1" xmlns="http://www.w3.org/2000/svg" xmlns:xlink="http://www.w3.org/1999/xlink">
    <!-- Generator: Sketch 46.2 (44496) - http://www.bohemiancoding.com/sketch -->
    <title>angel_footer</title>
    <desc>Created with Sketch.</desc>
    <defs></defs>
    <g id="Page-1" stroke="none" stroke-width="1" fill="none" fill-rule="evenodd">
        <g id="angel_footer" fill-rule="nonzero" fill="#FFFFFF">
            <path d="M13.25,0.03125 C12.584412,0.1346094 11.989,0.926875 11.84375,1.9375 L11.03125,7.5625 C12.04825,7.4275 13.08425,7.355 13.90625,7.5 L14.65625,2.34375 C14.82125,1.18975 14.30325,0.14225 13.53125,0.03125 C13.434625,0.017375 13.345084,0.0164844 13.25,0.03125 Z M6.1875,0.53125 C6.091402,0.5356387 5.998125,0.561 5.90625,0.59375 C5.17125,0.85475 4.89025,1.9635 5.28125,3.0625 L7.21875,8.53125 C7.34375,8.40525 7.49325,8.296 7.65625,8.25 C8.24325,8.083 9.0565,7.88375 9.9375,7.71875 L7.9375,2.09375 C7.595375,1.132125 6.860184,0.5005293 6.1875,0.53125 Z M3.75,7.28125 C3.449875,7.257375 3.122,7.3515 2.875,7.5625 C2.381,7.9835 2.328,8.72375 2.75,9.21875 L5.0625,11.9375 C5.4835,12.4315 6.22475,12.4845 6.71875,12.0625 C7.21275,11.6405 7.26575,10.90125 6.84375,10.40625 L4.53125,7.6875 C4.32075,7.44 4.050125,7.305125 3.75,7.28125 Z M12.59375,8.5 C11.241734,8.478859 9.48875,8.881 8.46875,9.0625 C7.90675,9.1625 7.603,9.79175 7.75,10.34375 C7.891,10.87375 8.42075,11.134 8.96875,11.125 C9.76375,11.111 12.0625,11.0625 12.0625,11.0625 L12.15625,12.3125 C12.15625,12.3125 7.8295,14.20425 8.9375,17.03125 C6.5535,14.10925 11,11.9375 11,11.9375 C11,11.9375 9.61475,12.13625 9.46875,12.15625 C8.94975,12.22725 8.16075,12.10975 7.96875,11.84375 C7.89975,12.26675 7.71475,12.59025 7.34375,12.90625 C6.94575,13.24525 6.456,13.399 6,13.375 C6.276,14.031 6.0715,14.86625 5.4375,15.40625 C4.6735,16.05725 3.46875,15.83375 2.96875,15.09375 C2.628555,14.590768 1.9810634,13.388681 1.65625,12.78125 L3.1875,14.5625 C3.6095,15.0565 4.34975,15.1085 4.84375,14.6875 C5.33775,14.2655 5.39075,13.52525 4.96875,13.03125 L3.4375,11.25 C3.0155,10.756 2.27525,10.703 1.78125,11.125 C0.05225,12.245 1.187,15.68125 1.875,16.78125 C3.213,18.92325 4.9145,20.149 8.1875,20 C11.4865,19.85 13.36525,18.55425 14.40625,14.65625 C14.96625,12.56025 15.62125,9.4065 13.78125,8.6875 C13.4595,8.56175 13.044422,8.507047 12.59375,8.5 Z" id="Shape"></path>
        </g>
    </g>
</svg>