<?xml version="1.0" encoding="UTF-8"?>
<svg width="251px" height="305px" viewBox="0 0 251 305" version="1.1" xmlns="http://www.w3.org/2000/svg" xmlns:xlink="http://www.w3.org/1999/xlink">
    <!-- Generator: Sketch 46.1 (44463) - http://www.bohemiancoding.com/sketch -->
    <title>apple</title>
    <desc>Created with Sketch.</desc>
    <defs></defs>
    <g id="Page-1" stroke="none" stroke-width="1" fill="none" fill-rule="evenodd">
        <g id="apple" fill-rule="nonzero" fill="#FFFFFF">
            <path d="M13.738,112.119 C-12.047,156.864 4.345,224.767 32.859,265.939 C47.092,286.523 61.502,305 81.239,305 C81.611,305 81.984,304.993 82.366,304.978 C91.639,304.608 98.34,301.753 104.819,298.994 C112.093,295.894 119.616,292.689 131.416,292.689 C142.642,292.689 149.806,295.79 156.734,298.788 C163.562,301.742 170.595,304.798 180.987,304.603 C203.219,304.189 216.869,284.251 228.912,266.662 C241.479,248.297 247.783,230.466 249.91,223.652 L249.996,223.381 C250.401,222.17 249.829,220.848 248.668,220.315 C248.636,220.3 248.518,220.251 248.485,220.237 C244.57,218.636 210.228,203.401 209.867,161.877 C209.532,128.141 235.63,110.276 240.864,107.038 L241.108,106.886 C241.675,106.521 242.07,105.942 242.204,105.28 C242.338,104.619 242.198,103.931 241.818,103.375 C223.804,77.013 196.194,73.04 185.078,72.562 C183.465,72.401 181.8,72.32 180.128,72.32 C167.072,72.32 154.565,77.251 144.517,81.213 C137.581,83.948 131.59,86.31 127.458,86.31 C122.815,86.31 116.79,83.919 109.813,81.151 C100.483,77.448 89.908,73.252 78.713,73.252 C78.446,73.252 78.183,73.255 77.924,73.26 C51.894,73.643 27.298,88.535 13.738,112.119 Z" id="XMLID_229_"></path>
            <path d="M185.101,0.002 C169.338,0.644 150.429,10.347 139.127,23.585 C129.522,34.712 120.139,53.264 122.611,71.964 C122.766,73.134 123.718,74.037 124.895,74.128 C125.959,74.211 127.045,74.253 128.127,74.254 C143.54,74.254 160.167,65.727 171.522,51.997 C183.473,37.499 189.516,18.893 187.688,2.227 C187.544,0.921 186.395,-0.049 185.101,0.002 Z" id="XMLID_230_"></path>
        </g>
    </g>
</svg>