
<svg width="35px" height="35px" viewBox="0 0 35 35" version="1.1" xmlns="http://www.w3.org/2000/svg" xmlns:xlink="http://www.w3.org/1999/xlink">
    <!-- Generator: Sketch 43.1 (39012) - http://www.bohemiancoding.com/sketch -->
    <desc>Created with Sketch.</desc>
    <defs></defs>
    <g id="Page-1" stroke="none" stroke-width="1" fill="none" fill-rule="evenodd">
        <g id="Menu" transform="translate(-173.000000, -505.000000)" fill="#fFF">
            <path d="M203.961831,540 L177.037082,540 C174.807541,540 173,538.190648 173,535.961107 L173,509.038169 C173,506.808627 174.807541,505.001087 177.037082,505.001087 L203.961831,505.001087 C206.191373,505.001087 207.998913,506.808627 207.998913,509.038169 L207.998913,535.961107 C207.998913,538.190648 206.191373,540 203.961831,540 L203.961831,540 Z M190.499457,515.770262 C186.78295,515.770262 183.769175,518.782226 183.769175,522.498732 C183.769175,526.21705 186.78295,529.230825 190.499457,529.230825 C194.217774,529.230825 197.231549,526.21705 197.231549,522.498732 C197.231549,518.782226 194.217774,515.770262 190.499457,515.770262 L190.499457,515.770262 Z M203.961831,510.383863 C203.961831,509.641286 203.360525,509.038169 202.616137,509.038169 L198.577244,509.038169 C197.832856,509.038169 197.231549,509.641286 197.231549,510.383863 L197.231549,514.422756 C197.231549,515.167144 197.832856,515.770262 198.577244,515.770262 L202.616137,515.770262 C203.360525,515.770262 203.961831,515.167144 203.961831,514.422756 L203.961831,510.383863 Z M203.961831,519.807344 L200.915455,519.807344 C201.136417,520.667646 201.268632,521.569606 201.268632,522.498732 C201.268632,528.448403 196.449127,533.269718 190.499457,533.269718 C184.551597,533.269718 179.730282,528.448403 179.730282,522.498732 C179.730282,521.569606 179.862497,520.667646 180.083458,519.807344 L177.037082,519.807344 L177.037082,534.615412 C177.037082,535.357989 177.6402,535.961107 178.384588,535.961107 L202.616137,535.961107 C203.360525,535.961107 203.961831,535.357989 203.961831,534.615412 L203.961831,519.807344 Z" id="Page-1"></path>
        </g>
    </g>
</svg>
