<?xml version="1.0" encoding="UTF-8"?>
<svg width="35px" height="35px" viewBox="0 0 35 35" version="1.1" xmlns="http://www.w3.org/2000/svg" xmlns:xlink="http://www.w3.org/1999/xlink">
    <!-- Generator: Sketch 46.2 (44496) - http://www.bohemiancoding.com/sketch -->
    <title>instagram_footer</title>
    <desc>Created with Sketch.</desc>
    <defs></defs>
    <g id="Page-1" stroke="none" stroke-width="1" fill="none" fill-rule="evenodd">
        <g id="instagram_footer" fill-rule="nonzero" fill="#FFFFFF">
            <path d="M30.961831,35 L4.037082,35 C1.807541,35 0,33.190648 0,30.961107 L0,4.038169 C0,1.808627 1.807541,0.001087 4.037082,0.001087 L30.961831,0.001087 C33.191373,0.001087 34.998913,1.808627 34.998913,4.038169 L34.998913,30.961107 C34.998913,33.190648 33.191373,35 30.961831,35 L30.961831,35 Z M17.499457,10.770262 C13.78295,10.770262 10.769175,13.782226 10.769175,17.498732 C10.769175,21.21705 13.78295,24.230825 17.499457,24.230825 C21.217774,24.230825 24.231549,21.21705 24.231549,17.498732 C24.231549,13.782226 21.217774,10.770262 17.499457,10.770262 L17.499457,10.770262 Z M30.961831,5.383863 C30.961831,4.641286 30.360525,4.038169 29.616137,4.038169 L25.577244,4.038169 C24.832856,4.038169 24.231549,4.641286 24.231549,5.383863 L24.231549,9.422756 C24.231549,10.167144 24.832856,10.770262 25.577244,10.770262 L29.616137,10.770262 C30.360525,10.770262 30.961831,10.167144 30.961831,9.422756 L30.961831,5.383863 Z M30.961831,14.807344 L27.915455,14.807344 C28.136417,15.667646 28.268632,16.569606 28.268632,17.498732 C28.268632,23.448403 23.449127,28.269718 17.499457,28.269718 C11.551597,28.269718 6.730282,23.448403 6.730282,17.498732 C6.730282,16.569606 6.862497,15.667646 7.083458,14.807344 L4.037082,14.807344 L4.037082,29.615412 C4.037082,30.357989 4.6402,30.961107 5.384588,30.961107 L29.616137,30.961107 C30.360525,30.961107 30.961831,30.357989 30.961831,29.615412 L30.961831,14.807344 Z" id="Page-1"></path>
        </g>
    </g>
</svg>