<svg xmlns="http://www.w3.org/2000/svg" xmlns:xlink="http://www.w3.org/1999/xlink" version="1.1" xml:space="preserve" width="41" height="29"><rect id="backgroundrect" width="100%" height="100%" x="0" y="0" fill="none" stroke="none"/><g class="currentLayer"><title>Layer 1</title><path d="M2.4999984741210923,5 h36 c1.4,0 2.5,-1.1 2.5,-2.5 S39.89999847412109,0 38.4999984741211,0 h-36 c-1.4,0 -2.5,1.1 -2.5,2.5 S1.0999984741210938,5 2.4999984741210923,5 zM38.4999984741211,12 h-36 c-1.4,0 -2.5,1.1 -2.5,2.5 s1.1,2.5 2.5,2.5 h36 c1.4,0 2.5,-1.1 2.5,-2.5 S39.89999847412109,12 38.4999984741211,12 zM38.4999984741211,24 h-36 c-1.4,0 -2.5,1.1 -2.5,2.5 s1.1,2.5 2.5,2.5 h36 c1.4,0 2.5,-1.1 2.5,-2.5 S39.89999847412109,24 38.4999984741211,24 z" id="svg_1" class="" fill="#ffffff" fill-opacity="1"/></g></svg>