<?xml version="1.0" encoding="UTF-8"?>
<svg width="35px" height="35px" viewBox="0 0 35 35" version="1.1" xmlns="http://www.w3.org/2000/svg" xmlns:xlink="http://www.w3.org/1999/xlink">
    <!-- Generator: Sketch 46.2 (44496) - http://www.bohemiancoding.com/sketch -->
    <title>pinterest_burger_menu</title>
    <desc>Created with Sketch.</desc>
    <defs></defs>
    <g id="Page-1" stroke="none" stroke-width="1" fill="none" fill-rule="evenodd">
        <g id="pinterest_burger_menu" fill-rule="nonzero" fill="#FFFFFF">
            <path d="M35,17.5 C35,27.164565 27.164565,35 17.5,35 C15.777756,35 14.114127,34.748301 12.540144,34.282829 C13.205596,33.231209 13.931386,31.883066 14.302039,30.533199 C14.517535,29.755689 15.532952,25.723328 15.532952,25.723328 C16.141513,26.883558 17.918924,27.904147 19.808393,27.904147 C25.435425,27.904147 29.250566,22.775342 29.250566,15.910501 C29.250566,10.721358 24.854448,5.885627 18.172348,5.885627 C9.857649,5.885627 5.664959,11.847109 5.664959,16.817309 C5.664959,19.827357 6.802778,22.504679 9.249089,23.502857 C9.649049,23.666634 10.009359,23.509753 10.124865,23.064969 C10.204167,22.758103 10.397252,21.984041 10.481726,21.661659 C10.598956,21.222047 10.554133,21.068614 10.230027,20.685893 C9.526648,19.853216 9.076692,18.77746 9.076692,17.253473 C9.076692,12.831494 12.383263,8.873264 17.69136,8.873264 C22.390897,8.873264 24.973402,11.743671 24.973402,15.5795 C24.973402,20.625554 22.740863,24.883755 19.425672,24.883755 C17.593094,24.883755 16.224264,23.368387 16.662152,21.513398 C17.187962,19.296375 18.208551,16.901783 18.208551,15.301941 C18.208551,13.871047 17.439661,12.674613 15.848439,12.674613 C13.976209,12.674613 12.472909,14.612353 12.472909,17.205201 C12.472909,18.856763 13.031475,19.973894 13.031475,19.973894 C13.031475,19.973894 11.116146,28.088612 10.779972,29.510886 C10.46621,30.840065 10.426559,32.307162 10.47483,33.527731 C4.30992,30.821101 0,24.666535 0,17.5 C0,7.833711 7.835435,0 17.5,0 C27.164565,0 35,7.833711 35,17.5" id="Pinterest"></path>
        </g>
    </g>
</svg>