<?xml version="1.0" encoding="UTF-8"?>
<svg width="612px" height="390px" viewBox="0 0 612 390" version="1.1" xmlns="http://www.w3.org/2000/svg" xmlns:xlink="http://www.w3.org/1999/xlink">
    <!-- Generator: Sketch 46.2 (44496) - http://www.bohemiancoding.com/sketch -->
    <title>trips_2</title>
    <desc>Created with Sketch.</desc>
    <defs></defs>
    <g id="Page-1" stroke="none" stroke-width="1" fill="none" fill-rule="evenodd">
        <g id="trips_2" fill-rule="nonzero" fill="#000000">
            <path d="M374.778,62.493 L255.955,56.176 C254.576,56.102 253.188,56.412 251.968,57.07 L186.514,92.375 C184.526,93.448 183.12,95.357 182.688,97.575 C182.255,99.794 182.84,102.091 184.279,103.832 L217.951,144.565 C218.278,144.318 218.612,144.079 218.987,143.882 L374.778,62.493 Z" id="Shape"></path>
            <path d="M609.246,20.32 C609.187,20.194 609.126,20.069 609.058,19.947 C604.363,11.151 593.75,0.667 569.874,0.667 C544.765,0.667 517.441,12.069 516.29,12.555 C450.061,38.941 138.333,202.975 138.333,202.975 L63.685,162.755 C61.477,161.566 58.828,161.549 56.609,162.708 L4.055,190.156 C1.838,191.312 0.339,193.493 0.05,195.977 C-0.236,198.461 0.72,200.926 2.612,202.562 L131.043,313.59 C133.39,315.614 136.731,316.006 139.475,314.571 L264.891,249.135 L283.868,382.846 C284.214,385.29 285.733,387.41 287.935,388.522 C289.007,389.064 290.176,389.335 291.344,389.335 C292.574,389.335 293.805,389.034 294.92,388.435 C308.251,381.266 316.572,376.728 324.617,372.337 C332.814,367.864 341.291,363.238 355.006,355.87 C356.474,355.083 357.637,353.832 358.32,352.315 L447.578,153.761 L539.329,105.859 C582.228,84.076 623.122,50.163 609.246,20.32 Z" id="Shape"></path>
        </g>
    </g>
</svg>