
<svg width="21px" height="35px" viewBox="0 0 21 35" version="1.1" xmlns="http://www.w3.org/2000/svg" xmlns:xlink="http://www.w3.org/1999/xlink">
    <!-- Generator: Sketch 43.1 (39012) - http://www.bohemiancoding.com/sketch -->
    <desc>Created with Sketch.</desc>
    <defs></defs>
    <g id="Page-1" stroke="none" stroke-width="1" fill="none" fill-rule="evenodd">
        <g id="Menu" transform="translate(-307.000000, -505.000000)" fill="#fFF">
            <path d="M325.43048,532.955338 C324.7801,533.266787 323.536135,533.536099 322.607282,533.559916 C319.806069,533.63503 319.261949,531.592288 319.238132,530.110155 L319.238132,519.21492 L326.265897,519.21492 L326.265897,513.916615 L319.263781,513.916615 L319.263781,505 L314.137689,505 C314.053414,505 313.905018,505.075114 313.884865,505.261984 C313.58624,507.991747 312.307465,512.78074 307,514.693407 L307,519.21492 L310.541364,519.21492 L310.541364,530.650612 C310.541364,534.565715 313.428683,540.127836 321.053699,539.99776 C323.625905,539.95379 326.48208,538.876542 327.114139,537.947689 L325.43048,532.955338" id="Tumblr"></path>
        </g>
    </g>
</svg>
