<?xml version="1.0" encoding="UTF-8"?>
<svg width="21px" height="35px" viewBox="0 0 21 35" version="1.1" xmlns="http://www.w3.org/2000/svg" xmlns:xlink="http://www.w3.org/1999/xlink">
    <!-- Generator: Sketch 46.2 (44496) - http://www.bohemiancoding.com/sketch -->
    <title>tumbler_footer</title>
    <desc>Created with Sketch.</desc>
    <defs></defs>
    <g id="Page-1" stroke="none" stroke-width="1" fill="none" fill-rule="evenodd">
        <g id="tumbler_footer" fill-rule="nonzero" fill="#FFFFFF">
            <path d="M18.43048,27.955338 C17.7801,28.266787 16.536135,28.536099 15.607282,28.559916 C12.806069,28.63503 12.261949,26.592288 12.238132,25.110155 L12.238132,14.21492 L19.265897,14.21492 L19.265897,8.916615 L12.263781,8.916615 L12.263781,0 L7.137689,0 C7.053414,0 6.905018,0.075114 6.884865,0.261984 C6.58624,2.991747 5.307465,7.78074 0,9.693407 L0,14.21492 L3.541364,14.21492 L3.541364,25.650612 C3.541364,29.565715 6.428683,35.127836 14.053699,34.99776 C16.625905,34.95379 19.48208,33.876542 20.114139,32.947689 L18.43048,27.955338" id="Tumblr"></path>
        </g>
    </g>
</svg>