<?xml version="1.0" encoding="UTF-8"?>
<svg width="43px" height="35px" viewBox="0 0 43 35" version="1.1" xmlns="http://www.w3.org/2000/svg" xmlns:xlink="http://www.w3.org/1999/xlink">
    <!-- Generator: Sketch 46.2 (44496) - http://www.bohemiancoding.com/sketch -->
    <title>twitter_footer</title>
    <desc>Created with Sketch.</desc>
    <defs></defs>
    <g id="Page-1" stroke="none" stroke-width="1" fill="none" fill-rule="evenodd">
        <g id="twitter_footer" fill-rule="nonzero" fill="#FFFFFF">
            <path d="M38.660014,8.717082 C38.675636,9.096474 38.684563,9.478097 38.684563,9.861952 C38.684563,21.53829 29.79787,35 13.546515,35 C8.5563986,35 3.9121979,33.538226 0,31.032009 C0.6918319,31.112351 1.3948224,31.154754 2.1089715,31.154754 C6.2488044,31.154754 10.0583434,29.742077 13.082318,27.371995 C9.2147548,27.30058 5.9519862,24.745266 4.8294331,21.234777 C5.3672767,21.339667 5.9207422,21.39546 6.4898298,21.39546 C7.2954792,21.39546 8.0765797,21.286106 8.8175094,21.085252 C4.775872,20.272907 1.7318115,16.702162 1.7318115,12.421731 L1.7318115,12.310145 C2.9235478,12.970733 4.2848945,13.367978 5.7332781,13.414844 C3.3631958,11.830326 1.8032264,9.125486 1.8032264,6.06134 C1.8032264,4.441115 2.238411,2.923548 2.9994261,1.617994 C7.3579672,6.962954 13.867882,10.482369 21.210228,10.850603 C21.060703,10.203405 20.982593,9.529427 20.982593,8.835363 C20.982593,3.956832 24.937193,0 29.817956,0 C32.35988,0 34.656316,1.073455 36.267615,2.791877 C38.280622,2.394631 40.170886,1.660397 41.878148,0.647198 C41.219792,2.709303 39.818275,4.441115 37.992731,5.534655 C39.780335,5.322642 41.483135,4.847287 43.067653,4.144296 C41.882612,5.916279 40.38513,7.471785 38.660014,8.717082" id="Twitter"></path>
        </g>
    </g>
</svg>