<?xml version="1.0" encoding="UTF-8"?>
<svg width="30px" height="27px" viewBox="0 0 30 27" version="1.1" xmlns="http://www.w3.org/2000/svg" xmlns:xlink="http://www.w3.org/1999/xlink">
    <!-- Generator: Sketch 43.2 (39069) - http://www.bohemiancoding.com/sketch -->
    <title>specific trip</title>
    <desc>Created with Sketch.</desc>
    <defs>
        <path d="M5.01971123,11.4451935 C5.45678075,11.0493601 5.79293048,10.7295685 6.14570053,10.429122 C6.65583957,9.99459821 7.23560428,9.98834821 7.60364706,10.428378 C8.00657754,10.9100744 7.94593583,11.4005506 7.5037754,11.8185565 C6.52751872,12.7414732 5.54317647,13.6562054 4.54326203,14.5536756 C4.06157219,14.9859673 3.5286738,14.9733185 3.07857754,14.5060565 C2.12972193,13.5209375 1.19329412,12.5230208 0.279625668,11.5056101 C-0.102791444,11.0795685 -0.0962032086,10.5712351 0.319454545,10.1684077 C0.76655615,9.7350744 1.27085561,9.77584821 1.71406417,10.207247 C2.11385027,10.5963839 2.48952941,11.0099256 2.85832086,11.3944494 C3.18324064,10.1917708 3.3955615,9.0193006 3.81331551,7.92421131 C5.95808556,2.30233631 11.7748984,-0.870877976 17.8525455,0.209776786 C23.5696364,1.22614583 27.9286524,6.3474256 27.921016,12.2295685 C27.9141283,17.5804613 25.4177861,21.5530804 20.513893,23.7169196 C15.6457861,25.8651339 11.065615,25.0160268 7.01040642,21.5545685 C6.78715508,21.3640923 6.48589305,21.1313542 6.45160428,20.8864137 C6.40309091,20.5389435 6.45340107,20.0399851 6.67590374,19.8318006 C6.89765775,19.6243601 7.38503743,19.6535268 7.75322995,19.6649851 C7.91194652,19.6700446 8.0715615,19.8835863 8.21770053,20.0164732 C11.5405668,23.0411756 16.1583209,23.7386458 20.1000321,21.8087351 C24.0194332,19.8896875 26.3057005,15.838497 25.952631,11.4386458 C25.5306845,6.18418155 21.0512834,2.06870536 15.6260214,1.95144345 C10.3307273,1.83686012 5.66326203,5.79950893 5.02150802,10.9569494 C5.00743316,11.0695982 5.01971123,11.1852232 5.01971123,11.4451935" id="path-1"></path>
        <filter x="-7.2%" y="-4.0%" width="114.3%" height="116.1%" filterUnits="objectBoundingBox" id="filter-2">
            <feOffset dx="0" dy="1" in="SourceAlpha" result="shadowOffsetOuter1"></feOffset>
            <feGaussianBlur stdDeviation="0.5" in="shadowOffsetOuter1" result="shadowBlurOuter1"></feGaussianBlur>
            <feColorMatrix values="0 0 0 0 0   0 0 0 0 0   0 0 0 0 0  0 0 0 0.25 0" type="matrix" in="shadowBlurOuter1"></feColorMatrix>
        </filter>
        <path d="M15.940984,12.2168601 C17.0124706,12.2168601 18.0020535,12.2165625 18.9916364,12.2170089 C19.2654973,12.2171577 19.5396578,12.212247 19.8132193,12.2229613 C20.4027166,12.2457292 20.7607273,12.5628423 20.7854332,13.1375446 C20.812385,13.7589732 20.4290695,14.1345685 19.8272941,14.146622 C18.2095829,14.1789137 16.5900749,14.1824851 14.9726631,14.1457292 C14.3364492,14.1312946 13.9875722,13.7222173 13.987123,13.0693899 C13.9854759,10.6195387 13.9791872,8.1696875 13.9905668,5.71983631 C13.993861,5.03352679 14.3669947,4.64513393 14.9548449,4.63813988 C15.5671016,4.63084821 15.9337968,5.03441964 15.9375401,5.77102679 C15.9468235,7.62697917 15.9408342,9.48293155 15.940984,11.3388839 L15.940984,12.2168601" id="path-3"></path>
        <filter x="-29.4%" y="-10.5%" width="158.8%" height="142.0%" filterUnits="objectBoundingBox" id="filter-4">
            <feOffset dx="0" dy="1" in="SourceAlpha" result="shadowOffsetOuter1"></feOffset>
            <feGaussianBlur stdDeviation="0.5" in="shadowOffsetOuter1" result="shadowBlurOuter1"></feGaussianBlur>
            <feColorMatrix values="0 0 0 0 0   0 0 0 0 0   0 0 0 0 0  0 0 0 0.25 0" type="matrix" in="shadowBlurOuter1"></feColorMatrix>
        </filter>
    </defs>
    <g id="Page-1" stroke="none" stroke-width="1" fill="none" fill-rule="evenodd">
        <g id="Artboard" transform="translate(-206.000000, -86.000000)">
            <g id="specific-trip" transform="translate(207.000000, 86.000000)">
                <g id="Fill-1">
                    <use fill="black" fill-opacity="1" filter="url(#filter-2)" xlink:href="#path-1"></use>
                    <use fill="#FFFFFF" fill-rule="evenodd" xlink:href="#path-1"></use>
                </g>
                <g id="Fill-3">
                    <use fill="black" fill-opacity="1" filter="url(#filter-4)" xlink:href="#path-3"></use>
                    <use fill="#FFFFFF" fill-rule="evenodd" xlink:href="#path-3"></use>
                </g>
            </g>
        </g>
    </g>
</svg>