<?xml version="1.0" encoding="UTF-8"?>
<svg width="28px" height="28px" viewBox="0 0 28 28" version="1.1" xmlns="http://www.w3.org/2000/svg" xmlns:xlink="http://www.w3.org/1999/xlink">
    <!-- Generator: Sketch 43.2 (39069) - http://www.bohemiancoding.com/sketch -->
    <title>navigationItem_match_locationMap_whiteOutline</title>
    <desc>Created with Sketch.</desc>
    <defs></defs>
    <g id="Symbols" stroke="none" stroke-width="1" fill="none" fill-rule="evenodd">
        <g id="navigationItem_menu_match_swipe" transform="translate(-204.000000, -4.000000)" fill="#FFFFFF">
            <g id="navigationItem_match_locationMap_whiteOutline" transform="translate(204.000000, 4.000000)">
                <g>
                    <path d="M2.72657778,25.9710938 L25.1981333,25.9710938 C25.1328,25.8529688 25.0821333,25.7584688 25.0283556,25.6652813 C24.0554667,23.9883438 23.0843556,22.3105313 22.1083556,20.6353438 C21.8990222,20.2748438 21.8723556,19.9165313 22.0999111,19.5634688 C22.3119111,19.2349063 22.6296889,19.0769688 23.0261333,19.1093438 C23.4239111,19.1425938 23.6799111,19.3757813 23.8714667,19.7087188 C24.9279111,21.5383438 25.9910222,23.3644688 27.0514667,25.1923438 C27.2883556,25.6000938 27.5292444,26.0060938 27.7603556,26.4177813 C28.1808,27.1654688 27.7314667,27.9407188 26.8683556,27.9411563 C18.2648,27.9437813 9.66168889,27.9437813 1.05768889,27.9411563 C0.1928,27.9407188 -0.265866667,27.1628438 0.162577778,26.4199688 C1.46613333,24.1637813 2.77546667,21.9115313 4.08613333,19.6592813 C4.39546667,19.1272813 4.96257778,18.9562188 5.46435556,19.2283438 C5.97368889,19.5044063 6.12524444,20.0910938 5.81324444,20.6318438 C4.84924444,22.3017813 3.88035556,23.9690938 2.91324444,25.6372813 C2.85768889,25.7335313 2.8048,25.8315313 2.72657778,25.9710938" id="Fill-4"></path>
                    <path d="M13.9552889,12.2308812 C15.0388444,12.2378812 15.9441778,11.3641937 15.9575111,10.2975687 C15.9712889,9.21169375 15.0797333,8.31000625 13.9864,8.30388125 C12.8788444,8.29775625 11.9757333,9.16969375 11.9686222,10.2520687 C11.9619556,11.3361937 12.8530667,12.2234437 13.9552889,12.2308812 M13.9610667,14.1948187 C11.7655111,14.1943812 9.97528889,12.4338812 9.97306667,10.2735062 C9.97084444,8.09694375 11.7659556,6.33425625 13.9792889,6.33994375 C16.1712889,6.34519375 17.9561778,8.11313125 17.9526222,10.2756937 C17.9495111,12.4347562 16.1557333,14.1952562 13.9610667,14.1948187" id="Fill-7"></path>
                    <path d="M13.9778667,22.7009563 C14.8760889,21.7476438 15.7787556,20.8293313 16.6356444,19.8716438 C18.2107556,18.1124563 19.6658667,16.2627063 20.7872,14.1806438 C21.2947556,13.2387063 21.7400889,12.2661438 21.8769778,11.1986438 C22.0983111,9.47445625 21.7129778,7.85264375 20.8143111,6.37608125 C19.2658667,3.83464375 16.9769778,2.44951875 13.9440889,2.42151875 C10.4152,2.38870625 7.24853333,4.81508125 6.31253333,8.23589375 C6.12008889,8.93895625 6.05964444,9.68226875 5.99253333,10.4120188 C5.9352,11.0367688 5.55697778,11.4795188 4.98186667,11.4768938 C4.39342222,11.4742688 3.98453333,11.0205813 3.98853333,10.3748313 C4.02097778,5.70364375 7.29742222,1.69001875 11.9196444,0.65970625 C15.8440889,-0.21529375 20.0814222,1.54870625 22.2978667,4.98176875 C23.4316444,6.73833125 23.9929778,8.65764375 23.9254222,10.7383938 C23.8800889,12.1331438 23.3907556,13.4158938 22.7725333,14.6527063 C21.6040889,16.9920188 20.0320889,19.0631438 18.2800889,20.9977688 C17.1480889,22.2485813 15.9378667,23.4320188 14.7463111,24.6290188 C14.2454222,25.1321438 13.7338667,25.1330188 13.2072,24.6670813 C10.3485333,22.1409563 7.77297778,19.3759563 5.8352,16.0842063 C5.5392,15.5819563 5.27964444,15.0565188 5.03164444,14.5284563 C4.79164444,14.0170188 5.00542222,13.4605188 5.49475556,13.2290813 C5.99742222,12.9915188 6.58942222,13.1875188 6.83431111,13.7116438 C7.99964444,16.2040813 9.69297778,18.3307688 11.5694222,20.3253313 C12.3232,21.1272688 13.1369778,21.8753938 13.9778667,22.7009563" id="Fill-1"></path>
                </g>
            </g>
        </g>
    </g>
</svg>