<?xml version="1.0" encoding="UTF-8"?>
<svg width="39px" height="39px" viewBox="0 0 39 39" version="1.1" xmlns="http://www.w3.org/2000/svg" xmlns:xlink="http://www.w3.org/1999/xlink">
    <!-- Generator: Sketch 43.2 (39069) - http://www.bohemiancoding.com/sketch -->
    <title>icon_gender_male_whiteOn</title>
    <desc>Created with Sketch.</desc>
    <defs></defs>
    <g id="Storyboard" stroke="none" stroke-width="1" fill="none" fill-rule="evenodd">
        <g id="icon_gender_male_whiteOn" transform="translate(-5.000000, -7.000000)">
            <path d="M21.0686451,45.5699997 C25.379745,45.5699997 29.4948858,43.8930432 32.5322516,40.8350637 C38.5090038,34.8177491 38.8029424,25.3478771 33.5120471,18.9359846 L40.3706151,12.0308695 L40.3706151,15.483427 C40.3706151,16.272583 41.0564719,16.9630946 41.8403082,16.9630946 C42.6241446,16.9630946 43.3100014,16.272583 43.3100014,15.483427 L43.3100014,8.38102301 C43.3100014,8.18373401 43.3100014,7.986445 43.2120218,7.8878005 L43.2120218,7.8878005 C43.0160627,7.4932225 42.8201037,7.197289 42.4281855,7.0986445 L42.4281855,7.0986445 C42.2322264,7 42.0362673,7 41.9382878,7 L34.9817402,7 C34.1979039,7 33.5120471,7.6905115 33.5120471,8.47966751 C33.5120471,9.26882351 34.1979039,9.95933501 34.9817402,9.95933501 L38.4110242,9.95933501 L31.5524562,16.86445 C28.6130699,14.3983375 24.9878268,13.115959 21.1666246,13.115959 C16.8555247,13.115959 12.7403839,14.7929155 9.70301807,17.8508951 C3.43232731,24.1641431 3.43232731,34.5218156 9.70301807,40.8350637 C12.6424044,43.8930432 16.7575452,45.5699997 21.0686451,45.5699997 L21.0686451,45.5699997 Z M11.6626089,19.9224296 C14.1120975,17.4563171 17.443402,15.9766495 20.9706655,15.9766495 C24.4979291,15.9766495 27.8292336,17.3576726 30.2787221,19.9224296 C35.4716379,25.1505881 35.4716379,33.5353706 30.2787221,38.7635292 C27.8292336,41.2296417 24.4979291,42.7093092 20.9706655,42.7093092 C17.443402,42.7093092 14.1120975,41.3282862 11.6626089,38.7635292 C6.56767269,33.5353706 6.56767269,25.0519436 11.6626089,19.9224296 L11.6626089,19.9224296 Z" fill="#FFFFFF"></path>
            <rect id="Rectangle-23" x="0" y="0" width="48" height="52"></rect>
        </g>
    </g>
</svg>