<?xml version="1.0" encoding="UTF-8"?>
<svg width="32px" height="47px" viewBox="0 0 32 47" version="1.1" xmlns="http://www.w3.org/2000/svg" xmlns:xlink="http://www.w3.org/1999/xlink">
    <!-- Generator: Sketch 43.2 (39069) - http://www.bohemiancoding.com/sketch -->
    <title>icon_gender_female_whiteOn</title>
    <desc>Created with Sketch.</desc>
    <defs></defs>
    <g id="Storyboard" stroke="none" stroke-width="1" fill="none" fill-rule="evenodd">
        <g id="icon_gender_female_whiteOn" transform="translate(-8.000000, -3.000000)">
            <path d="M22.2765638,42.0378691 L18.9453655,42.0378691 C18.1839488,42.0378691 17.5177092,42.7193281 17.5177092,43.4981385 C17.5177092,44.2769488 18.1839488,44.9584079 18.9453655,44.9584079 L22.2765638,44.9584079 L22.2765638,48.2683519 C22.2765638,49.0471623 22.9428034,49.7286213 23.7042201,49.7286213 C24.4656369,49.7286213 25.1318765,49.0471623 25.1318765,48.2683519 L25.1318765,44.9584079 L28.4630747,44.9584079 C29.2244915,44.9584079 29.8907311,44.2769488 29.8907311,43.4981385 C29.8907311,42.7193281 29.2244915,42.0378691 28.4630747,42.0378691 L25.1318765,42.0378691 L25.1318765,35.0285759 C33.1267522,34.2497655 39.4084403,27.4351749 39.4084403,19.0629636 C39.4084403,10.2039958 32.3653355,3 23.7042201,3 C15.0431048,3 8,10.2039958 8,19.0629636 C8,27.4351749 14.2816881,34.3471168 22.2765638,35.0285759 L22.2765638,42.0378691 Z M23.7042201,5.92053883 C30.7473249,5.92053883 36.5531275,11.8589678 36.5531275,19.0629636 C36.5531275,26.2669594 30.7473249,32.2053883 23.7042201,32.2053883 C16.6611153,32.2053883 10.8553128,26.2669594 10.8553128,19.0629636 C10.8553128,11.8589678 16.6611153,5.92053883 23.7042201,5.92053883 L23.7042201,5.92053883 Z" fill="#FFFFFF"></path>
            <rect id="Rectangle-23" x="0" y="0" width="48" height="52"></rect>
        </g>
    </g>
</svg>