<?xml version="1.0" encoding="UTF-8"?>
<svg width="666px" height="206px" viewBox="0 0 666 206" version="1.1" xmlns="http://www.w3.org/2000/svg" xmlns:xlink="http://www.w3.org/1999/xlink">
    <!-- Generator: Sketch 46.2 (44496) - http://www.bohemiancoding.com/sketch -->
    <title>bustle_white_media</title>
    <desc>Created with Sketch.</desc>
    <defs></defs>
    <g id="Page-1" stroke="none" stroke-width="1" fill="none" fill-rule="evenodd">
        <g id="bustle_white_media" transform="translate(-1.000000, 0.000000)">
            <rect id="backgroundrect" x="1" y="0" width="666" height="206"></rect>
            <g id="Layer-1" fill-rule="nonzero" fill="#FFFFFF">
                <path d="M52.5,92.05 C55.19,91.8 57.42,91.22 59.18,90.3 C60.95,89.38 62.34,88.23 63.34,86.85 C64.35,85.46 65.02,83.97 65.38,82.38 C65.73,80.78 65.83,79.19 65.68,77.6 C65.43,74.76 64.16,72.54 61.89,70.91 C59.62,69.29 56.92,68.62 53.78,68.91 L32.66,70.83 C31.0199442,70.9799135 29.7030603,72.2469469 29.49,73.88 L27.39,90.03 C27.1,92.26 28.96,94.19 31.2,93.99 L52.5,92.05 Z M47.84,131.61 C50.43,131.37 52.68,130.77 54.58,129.79 C56.48,128.8 58.04,127.61 59.27,126.19 C60.5,124.78 61.39,123.19 61.95,121.44 C62.52,119.68 62.71,117.86 62.54,115.99 C62.26,112.88 61,110.41 58.75,108.6 C56.51,106.78 53.55,106.04 49.87,106.37 L27.82,108.38 C26.1799442,108.529914 24.8630603,109.796947 24.65,111.43 L22.32,129.64 C22.1827151,130.696967 22.5328543,131.759087 23.2717954,132.527197 C24.0107364,133.295307 25.0585123,133.686283 26.12,133.59 L47.84,131.61 Z M4.76,145.33 L15.45,61.08 C15.6587469,59.443033 16.9766842,58.1708286 18.62,58.02 L56.67,54.56 C60.35,54.22 63.69,54.49 66.71,55.34 C69.72,56.19 72.34,57.46 74.58,59.15 C76.7895688,60.8163623 78.6199637,62.9330759 79.95,65.36 C81.3,67.81 82.12,70.5 82.38,73.46 C82.66,76.5 82.36,79.43 81.49,82.26 C80.62,85.09 79.34,87.64 77.65,89.91 C75.96,92.19 73.92,94.13 71.54,95.75 C69.16,97.36 66.63,98.42 63.97,98.93 C65.99,99.29 67.86,100.01 69.59,101.07 C71.31,102.13 72.8,103.42 74.07,104.93 C75.34,106.45 76.35,108.16 77.12,110.08 C77.88,112 78.35,113.94 78.53,115.92 C78.82,119.15 78.53,122.41 77.66,125.69 C76.78,128.98 75.21,132.02 72.93,134.8 C70.65,137.59 67.64,139.94 63.88,141.86 C60.13,143.79 55.52,145 50.05,145.49 L8.57,149.27 C6.33,149.47 4.48,147.55 4.76,145.33 L4.76,145.33 Z M171.38,136.08 C165.29,136.63 159.87,136.38 155.12,135.33 C150.37,134.27 146.28,132.54 142.85,130.14 C139.43,127.75 136.74,124.74 134.78,121.13 C132.82,117.51 131.64,113.42 131.22,108.86 C131.12,107.78 131.09,106.61 131.11,105.35 C131.13,104.08 131.19,103.08 131.31,102.35 L137.98,49.93 C138.188747,48.293033 139.506684,47.0208286 141.15,46.87 L149.97,46.07 C152.21,45.87 154.06,47.79 153.77,50.02 L147.27,100.53 C147.22,100.99 147.17,101.66 147.12,102.57 C147.06,103.48 147.08,104.42 147.17,105.41 C147.41,108 148.1,110.39 149.25,112.59 C150.4,114.78 151.94,116.62 153.89,118.11 C155.83,119.6 158.17,120.72 160.9,121.46 C163.63,122.21 166.7,122.42 170.11,122.11 C177.55,121.44 183,118.8 186.47,114.2 C189.93,109.61 192.15,103.66 193.11,96.36 L199.68,44.32 C199.888747,42.683033 201.206684,41.4108286 202.85,41.26 L211.67,40.46 C213.91,40.25 215.76,42.17 215.48,44.4 L209,95.28 C208.25,100.86 207.07,106.02 205.47,110.77 C203.87,115.52 201.58,119.68 198.61,123.24 C195.63,126.81 191.92,129.7 187.47,131.91 C183.02,134.12 177.65,135.51 171.38,136.08 L171.38,136.08 Z M296.33,124.71 C292.12,125.09 288,125.06 283.99,124.62 C279.97,124.17 276.22,123.36 272.72,122.19 C269.23,121.02 266.06,119.54 263.24,117.77 C261.37,116.6 259.7,115.32 258.23,113.93 C256.95,112.73 256.8,110.76 257.83,109.34 L262.61,102.72 C263.85,101.01 266.26,100.82 267.85,102.21 C270.87,104.85 274.45,106.93 278.59,108.45 C284.1,110.48 290,111.2 296.27,110.63 C299.14,110.37 301.56,109.74 303.55,108.75 C305.54,107.76 307.13,106.58 308.31,105.2 C309.49,103.83 310.33,102.36 310.82,100.78 C311.31,99.2 311.49,97.69 311.36,96.26 C311.14,93.84 309.85,91.9 307.51,90.45 C305.16,88.99 302.31,87.71 298.96,86.62 C295.61,85.52 291.94,84.46 287.96,83.42 C283.98,82.39 280.29,81.03 276.88,79.35 C273.48,77.68 270.55,75.51 268.09,72.84 C265.63,70.17 264.21,66.69 263.82,62.39 C263.49,58.81 263.96,55.27 265.22,51.77 C266.48,48.27 268.47,45.09 271.19,42.22 C273.92,39.35 277.29,36.95 281.31,35 C285.34,33.06 289.9,31.85 295.01,31.38 C302,30.75 308.64,31.42 314.92,33.4 C320.04,35.02 324.47,37.4 328.2,40.54 C329.61,41.72 329.83,43.83 328.73,45.31 L323.88,51.84 C322.67,53.48 320.35,53.69 318.76,52.41 C315.79,50.01 312.42,48.26 308.64,47.14 C303.63,45.65 298.75,45.13 294,45.56 C291.85,45.75 289.9,46.25 288.17,47.04 C286.43,47.83 284.96,48.79 283.76,49.94 C282.55,51.09 281.63,52.39 281,53.84 C280.36,55.3 280.11,56.78 280.25,58.3 C280.45,60.54 281.72,62.34 284.06,63.7 C286.4,65.07 289.25,66.27 292.59,67.32 C295.94,68.37 299.61,69.43 303.59,70.51 C307.57,71.59 311.27,72.99 314.68,74.71 C318.09,76.43 321.02,78.64 323.49,81.34 C325.95,84.05 327.37,87.55 327.76,91.84 C328.12648,95.7092518 327.697693,99.6125755 326.5,103.31 C325.3,107.02 323.37,110.38 320.71,113.37 C318.05,116.36 314.66,118.88 310.56,120.91 C306.45,122.96 301.71,124.22 296.33,124.71 L296.33,124.71 Z M393.2,109.98 L401.99,41.52 C402.28,39.29 400.42,37.37 398.18,37.57 L379.72,39.25 C377.49,39.45 375.64,37.56 375.91,35.34 L376.75,28.24 C376.943157,26.5900433 378.265646,25.3009297 379.92,25.15 L442.79,19.43 C443.846651,19.3306489 444.89162,19.7140427 445.633293,20.4731894 C446.374966,21.2323361 446.733926,22.2859485 446.61,23.34 L445.77,30.44 C445.572358,32.0915444 444.246537,33.379842 442.59,33.53 L421.09,35.49 C419.449944,35.6399135 418.13306,36.9069469 417.92,38.54 L408.73,110.09 C408.519671,111.729985 407.196859,113.002879 405.55,113.15 L397.01,113.93 C394.77,114.13 392.91,112.21 393.2,109.98 L393.2,109.98 Z M483.59,101.76 L494.28,17.51 C494.488747,15.873033 495.806684,14.6008286 497.45,14.45 L506,13.67 C508.24,13.47 510.1,15.39 509.81,17.62 L501.14,86.08 C500.86,88.3 502.71,90.22 504.95,90.02 L535.74,87.22 C537.98,87.01 539.84,88.93 539.55,91.16 L538.65,98.27 C538.441253,99.906967 537.123316,101.179171 535.48,101.33 L487.4,105.7 C485.16,105.9 483.31,103.99 483.59,101.76 L483.59,101.76 Z M587.98,92.26 L598.66,8.01 C598.871077,6.37212759 600.194748,5.10256851 601.84,4.96 L656.13,0.02 C658.36,-0.19 660.2,1.71 659.94,3.93 L659.1,11.03 C658.906843,12.6799567 657.584354,13.9690703 655.93,14.12 L615.87,17.76 C614.229944,17.9099135 612.91306,19.1769469 612.7,20.81 L610.6,36.97 C610.31,39.2 612.17,41.12 614.41,40.92 L650.44,37.64 C652.68,37.44 654.53,39.36 654.24,41.59 L653.34,48.69 C653.131253,50.326967 651.813316,51.5991714 650.17,51.75 L611.03,55.31 C609.386684,55.4608286 608.068747,56.733033 607.86,58.37 L605.53,76.57 C605.24,78.8 607.1,80.72 609.34,80.52 L646.31,77.16 C648.55,76.95 650.4,78.87 650.12,81.1 L649.21,88.21 C649.004474,89.8485808 647.684815,91.1224477 646.04,91.27 L591.79,96.2 C589.55,96.41 587.69,94.49 587.98,92.26 L587.98,92.26 Z M1.65,202.179 L1.01,194.939 C0.84,192.939 2.32,191.169 4.32,190.999 L481.82,149.249 C482.83898,149.161041 483.847952,149.505833 484.6,150.199 L519.65,182.419 C520.360306,183.076518 521.303793,183.423129 522.270829,183.381818 C523.237865,183.340508 524.148355,182.914699 524.8,182.199 L560.29,143.349 C560.91,142.679 561.75,142.259 562.66,142.179 L661.78,133.519 C663.79,133.339 665.55,134.819 665.72,136.819 L666.36,144.059 C666.53,146.059 665.05,147.829 663.05,147.999 L569.58,156.169 C568.67,156.249 567.83,156.669 567.21,157.339 L525.69,202.779 C525.038306,203.493685 524.12897,203.919617 523.162731,203.962769 C522.196493,204.005922 521.252808,203.662746 520.54,203.009 L479.47,165.239 C478.716741,164.54869 477.70762,164.207476 476.69,164.299 L5.59,205.479 C3.59,205.659 1.82,204.179 1.65,202.179 L1.65,202.179 Z" id="svg_1"></path>
            </g>
        </g>
    </g>
</svg>