<?xml version="1.0" encoding="UTF-8"?>
<svg width="323px" height="61px" viewBox="0 0 323 61" version="1.1" xmlns="http://www.w3.org/2000/svg" xmlns:xlink="http://www.w3.org/1999/xlink">
    <!-- Generator: Sketch 46.2 (44496) - http://www.bohemiancoding.com/sketch -->
    <title>mashable_2_media</title>
    <desc>Created with Sketch.</desc>
    <defs></defs>
    <g id="Page-1" stroke="none" stroke-width="1" fill="none" fill-rule="evenodd">
        <g id="mashable_2_media">
            <rect id="backgroundrect" x="0" y="0" width="323" height="61"></rect>
            <g id="Layer-1" fill-rule="nonzero" fill="#FFFFFF">
                <g id="Page-1">
                    <g id="Page-2">
                        <g id="press-logo-mashable">
                            <path d="M0,59 C0.2,57.2 0.4,55.2 0.6,53.4 C1,46.2 1.4,39 2,31.8 C2.6,23 3.2,14.4 3.8,5.6 C3.8,4.4 4.2,4 5.4,4 L19,4 C20,4 20.6,4.4 20.8,5.4 C24.2,17.4 28,29.2 30.4,41.4 C30.4,41.8 30.6,42.2 31.2,42.4 C31.4,41.4 31.8,40.4 32,39.4 C35.4,28 38.6,16.6 42,5.4 C42.2,4.4 42.8,4.2 43.8,4.2 L57.4,4.2 C58.4,4.2 58.8,4.4 58.8,5.4 C59,10 59.4,14.8 59.6,19.4 C60.2,28.2 60.6,37.2 61,46 C61.2,50 61.4,54.2 61.6,58.2 C61.6,59.4 61.2,59.6 60.2,59.6 L51,59.6 C50,59.6 49.6,59.2 49.6,58.2 C49.2,44.6 48.8,30.8 48.4,17.2 C48.4,16.8 48.4,16.4 47.8,15.8 C47.6,16.2 47.4,16.8 47.4,17.2 C43.4,30.6 39.4,44 35.2,57.4 C35,58.4 34.4,58.6 33.4,58.6 L26.6,58.6 C25.4,58.6 25,58.2 24.6,57.2 C20.8,43.8 17,30.2 14.2,16.6 C14.2,16.4 14,16.2 13.8,15.8 C13.8,16.4 13.6,17 13.6,17.6 C13.2,26.4 13,35.2 12.6,44 C12.4,48.6 12,53.4 11.8,58 C11.8,59.2 11.4,59.4 10.2,59.4 L5.32907052e-15,59.4 C0,59.6 0,59.4 0,59 Z" id="Shape"></path>
                            <path d="M234.6,1 L234.6,14.6 L234.6,22.2 C234.6,22.6 234.6,23.2 234.8,23.8 C235.2,23.4 235.6,23.2 235.8,23 C243.4,15.4 255.6,17 260.8,26.2 C263.4,30.6 264,35.6 263.6,40.8 C263.4,44.8 262.4,48.4 260.4,51.8 C256.4,58.6 248.4,61.8 241,59.8 C238.2,59 236,57.6 234.2,55.4 C233.8,55 233.6,54.6 233,53.8 C232.8,55.6 232.6,56.8 232.6,58.2 C232.6,59.2 232.2,59.4 231.4,59.4 L223.4,59.4 C222.2,59.4 222,59 222,58 C222.2,39.4 222.2,21 222.4,2.4 L222.4,0.6 C226.2,1 230.4,1 234.6,1 Z M234.2,39.6 L234.2,39.6 C234.4,40.8 234.4,42 234.4,43.2 C234.4,46.8 237,50 240.4,50.8 C244,51.6 247.6,50.2 249.4,46.8 C251.8,42 251.8,37.2 249.4,32.4 C248,29.4 244.8,27.8 241.8,28 C238.4,28.4 235.6,30.6 234.8,34 C234.4,35.8 234.4,37.8 234.2,39.6 Z" id="Shape"></path>
                            <path d="M151.4,1 L151.4,19 L151.4,23.8 C151.6,24 151.8,24 152,24.2 C152.4,23.6 152.8,23 153.2,22.6 C159.2,16.6 169.4,17.2 174,23.8 C176.2,26.8 177.2,30.2 177.2,33.8 C177.4,42 177.2,50.2 177.2,58.4 C177.2,59.4 176.8,59.8 175.8,59.8 L166.4,59.8 C165.2,59.8 164.8,59.4 164.8,58.2 L164.8,36.2 C164.8,35.4 164.8,34.8 164.6,34 C163.8,30 161.2,28 157.6,28.4 C154.2,28.8 151.4,31.8 151.4,35.4 L151.4,57.6 C151.4,59.2 151,59.6 149.4,59.6 C146.4,59.4 143.6,59.4 140.6,59.6 C139.2,59.6 138.8,59.2 138.8,57.8 L138.8,5.4 L138.8,0.6 C143,1 147.2,1 151.4,1 Z" id="Shape"></path>
                            <path d="M280,1 L280,3.2 L280,57.8 C280,59.8 280,59.8 278,59.8 L269.4,59.8 C268,59.8 267.6,59.4 267.6,58 L267.6,3 C267.6,2.2 267.6,1.6 267.4,0.8 C271.6,1 275.8,1 280,1 Z" id="Shape"></path>
                            <path d="M101.2,59.8 L91.2,59.8 C90.8,59.8 90.2,59.2 90,58.8 C89.6,58 89.6,57 89.4,55.8 C88.8,56.4 88.4,56.6 88,57 C83.8,60.8 76.6,62 71.4,59.4 C63.4,55.6 62,44.2 68.8,38.4 C72.6,35 77.4,34 82.2,33.4 C83.8,33.2 85.4,33.2 87,33 C88,33 88.4,32.6 88.2,31.6 C87.8,29.4 86.4,27.8 83.8,27.4 C79.6,26.6 75.6,27.6 71.6,29 C71,29.2 70.4,29.6 69.6,29.8 C68.8,27.4 68.2,25 67.6,22.8 C67.6,22.6 68,21.8 68.4,21.6 C71.4,20.6 74.2,19.6 77.2,19 C81,18.2 84.8,18.2 88.6,19 C95.6,20.6 100,25.6 100.2,32.6 C100.4,39.4 100.4,46.4 100.6,53.4 C101,55.6 101.2,57.6 101.2,59.8 Z M88.8,44 L88.8,41.6 C88.8,41.2 88.2,40.6 88,40.6 C85,40.8 82,40.8 79.4,42.6 C77,44 76.2,46.8 77.4,49.4 C78.4,51.6 80.8,52.6 83.4,52 C87.2,51 88.8,48.4 88.8,44 Z" id="Shape"></path>
                            <path d="M217.2,59.8 L207,59.8 C206.6,59.8 206.2,59.2 206,58.6 C205.8,57.8 205.6,57 205.4,55.8 C204.8,56.2 204.4,56.6 204,57 C199.2,61 193.8,62 188,59.6 C178.8,56 179,44.2 184.2,39 C187.6,35.8 191.6,34.4 196.2,33.6 C198.6,33.2 200.8,33 203.2,33 C204.4,33 204.6,32.4 204.4,31.4 C204,29.2 202.4,27.8 199.8,27.2 C195.6,26.4 191.6,27.4 187.6,28.8 C187,29 186.4,29.2 185.6,29.6 C184.8,27.2 184.2,24.8 183.6,22.4 C183.6,22.2 184.2,21.6 184.6,21.4 C187.6,20.4 190.4,19.4 193.4,18.8 C197.2,18 201,18 204.8,18.8 C211.6,20.2 216.2,25.2 216.4,32.2 C216.6,37.8 216.6,43.4 216.8,49 C217,52.8 217.2,56.2 217.2,59.8 Z M204.8,44 L204.8,41.6 C204.8,41.2 204.2,40.6 204,40.6 C201,40.8 198,40.8 195.4,42.6 C193.2,44.2 192.4,46.8 193.6,49.2 C194.6,51.2 197,52.4 199.6,51.8 C203.2,51 204.8,48.6 204.8,44 Z" id="Shape"></path>
                            <path d="M295.8,43.6 C296,46.2 297,48 298.8,49.2 C301,50.8 303.4,51.4 306,51.4 C309.8,51.6 313.4,51.2 317,50.2 C318.2,49.8 318.6,50.2 318.6,51.4 C318.8,53.2 319.4,55.2 319.8,57 C320,57.8 320,58.4 319,58.6 C311.2,61 303.2,61.8 295.2,58.8 C288.4,56.2 285,50.8 284.2,43.6 C283.4,37 284.6,30.8 289,25.4 C292.6,21 297.2,18.8 302.8,18.6 C305.4,18.6 308,18.8 310.6,19.4 C315.6,20.8 318.8,24.2 320.8,28.8 C322.6,33.2 323,37.6 322.4,42.4 C322.2,43.6 321.4,43.6 320.6,43.6 L297.8,43.6 C297,43.6 296.4,43.6 295.8,43.6 Z M295.8,34.8 L296,35 L309.8,35 C310.2,35 310.6,34.2 310.6,34 C310.2,29.8 307.8,26.4 303,26.6 C299,26.8 295.6,30.8 295.8,34.8 Z" id="Shape"></path>
                            <path d="M106.8,49.4 C108.8,50 110.4,50.8 112.2,51.2 C114.8,52 117.4,52.4 120,51.8 C121.8,51.4 122.8,50.4 123,49 C123.2,47.4 122.4,46.2 121,45.6 C119.6,44.8 118,44.4 116.4,43.8 C114.4,43 112.6,42.2 110.8,41 C102.8,35.8 105,26.4 110.2,22.4 C114.6,19.2 119.4,18.4 124.6,19 C127.2,19 129.6,19.8 132,20.4 C132.8,20.6 133.2,21 132.8,22 C132.2,24.4 131.6,26.8 131,29 C128.4,28.4 126,27.6 123.4,27.2 C122,27 120.6,27.2 119.4,27.6 C116.8,28.6 116.6,31.4 118.8,32.8 C120,33.6 121.4,34.2 122.8,34.8 C125,35.8 127.4,36.6 129.4,37.8 C136.8,42.6 136.6,53.4 129,57.8 C125,60.2 120.4,60.8 115.6,60.4 C112.4,60.2 109.2,59.2 106,58.4 C104.6,58 104.2,57.4 104.6,55.8 C105.8,54 106.2,51.6 106.8,49.4 Z" id="Shape"></path>
                        </g>
                    </g>
                </g>
            </g>
        </g>
    </g>
</svg>