<?xml version="1.0" encoding="utf-8"?>
<!-- Generator: Adobe Illustrator 15.0.2, SVG Export Plug-In . SVG Version: 6.00 Build 0)  -->
<!DOCTYPE svg PUBLIC "-//W3C//DTD SVG 1.1//EN" "http://www.w3.org/Graphics/SVG/1.1/DTD/svg11.dtd">
<svg version="1.1" id="Layer_1" xmlns="http://www.w3.org/2000/svg" xmlns:xlink="http://www.w3.org/1999/xlink" x="0px" y="0px"
	 width="701.514px" height="133.374px" viewBox="0 0 701.514 133.374" enable-background="new 0 0 701.514 133.374"
	 xml:space="preserve">
<path d="M12.607,124.374l20-120.25c0,0,1.75-3.25,4,0s46.75,96,46.75,96s1.25,2.25,2.5-0.5s45.75-96,45.75-96s3.75-2.75,4.5,1.25
	s17,113,17,113s1.25,9,8.75,10.75l6.25,1.25c0,0,3.25,1.25,0.5,2.5h-43c0,0-1.75-0.167-1.75-1.5c0,0-0.167-1.666,1.5-1.666
	s7.167,1.332,7.333-4.334s-10.333-76.333-10.333-76.333s-0.5-2.167-1.5,0.167s-40.333,83.5-40.333,83.5s-1.667,1.833-3-0.167
	S37.357,51.207,37.357,51.207s-1.667-2-2,0.167s-8.5,71.334-8.5,71.334s-1.667,6.166,10,7.333c0,0,4.167-0.333,4.333,1
	s0,2.167-2.167,2H1.357c0,0-1.5-0.333-1.333-2c0,0-0.333-1.501,1.5-1.667s6-0.333,6-0.333S11.191,129.374,12.607,124.374z
	 M532.19,129.041c0,0-4.167,0.167-6,0.333s-1.5,1.667-1.5,1.667c-0.167,1.667,1.333,2,1.333,2h37.667
	c2.167,0.167,2.333-0.667,2.167-2s-4.334-1-4.334-1c-11.666-1.167-10-7.333-10-7.333s8.167-69.167,8.5-71.334
	c0.334-2.167,2-0.167,2-0.167s38.834,78.833,40.167,80.833s3,0.167,3,0.167s39.333-81.167,40.333-83.5s1.5-0.167,1.5-0.167
	s10.5,70.667,10.334,76.333s-5.667,4.334-7.334,4.334c-1.666,0-1.5,1.666-1.5,1.666c0,1.333,1.75,1.5,1.75,1.5h43
	c2.75-1.25-0.5-2.5-0.5-2.5l-6.25-1.25c-7.5-1.75-8.75-10.75-8.75-10.75s-16.25-109-17-113s-4.5-1.25-4.5-1.25s-44.5,93.25-45.75,96
	s-2.5,0.5-2.5,0.5s-44.5-92.75-46.75-96s-4,0-4,0l-20,120.25C535.857,129.374,532.19,129.041,532.19,129.041z M194.607,120.374
	c0,0-2,6.75-9.75,8.75l-4.75,0.5c0,0-1.5-0.25-1.75,1c0,0-0.75,2,1.5,2h36.75c0,0,2.583,0.251,2.583-1.416
	c0,0,0.5-1.834-1.667-1.834h-5.833c0,0-5.833,0-4.333-5.833s11.833-33.167,11.833-33.167s0.667-1.666,2.667-1.666h34.833
	c0,0,2.333-0.666,3,1.5l12.833,33.166c0,0,2.333,4.666-2.667,5.5s-6.333,1.167-6.333,1.167s-1,0.167-1,1.167
	c0,0-0.333,1.666,1,1.666h44.167c0,0,1.666-0.334,1.833-2c0,0-0.167-1.667-2-1.5c0,0-11.167,0.833-17.667-16.5l-43.667-108.5
	c0,0-2.167-2.666-4.167,0.167S194.607,120.374,194.607,120.374z M240.691,38.874l14.833,40c0.667,1.833-1.333,2-1.333,2
	s-27.333,0.167-29.333,0s-0.833-2.5-0.833-2.5l14.333-39.333C239.524,36.041,240.691,38.874,240.691,38.874z M311.857,8.207
	c0,1.667,2.5,1.5,2.5,1.5c10.833-0.333,18.334,9.167,18.334,9.167s28.833,45,32.166,49.333s0.833,6.334,0.833,6.334
	s-29,41.167-34,47.5s-11.5,7.833-13.167,7.833s-2,1.667-2,1.667c0,1.167,2.333,1,2.333,1c3.166-0.5,11.834-0.667,11.834-0.667
	c3.834-0.5,20.166,1.167,23,0.834s1.666-1.501,1.666-1.501c-0.167-1.334-4.166-1.333-4.166-1.333c-8.666-1.167-5-7.5-5-7.5
	s23.833-37.333,25.5-39.833s2.333,0,2.333,0s22.333,35.166,26.167,41.166s-4.5,5.334-6.167,5.5s-2.5,1-2.667,1.667
	s0,1.833,1.667,1.667s15.167-0.667,18.5-0.834s28.833,1.5,28.833,1.5c2.5,0,2.334-0.833,2.5-1.666s-4.666-1.334-4.666-1.334
	c-10.833-1.5-15-9.166-15-9.166s-35.501-52.167-37.334-55.167s-0.667-4.333-0.667-4.333s34.5-47,35.667-49.333
	s4.167-1.667,4.167-1.667s6.666-0.167,8.333-0.667s1.333-1.333,1.333-1.333c-0.167-1.833-3.666-1.667-3.666-1.667
	s-13,0-15.334,0.333s-19.166-0.5-19.166-0.5c-1.5,0.167-2,1.5-2,1.5c0,1.5,1.667,1.667,1.667,1.667s2.166-0.333,6.333,0.667
	s2.5,5.5,2.5,5.5s-23.5,35.167-25,37.5c-1.5,2.333-2.833-0.333-2.833-0.333s-23-37.5-23.834-40.167s1.5-3,1.5-3h5.667
	c2.167,0,1.5-2.167,1.5-2.167c0-1.333-1.833-1-1.833-1h-45.834C312.857,7.04,311.857,6.541,311.857,8.207z M456.357,10.041
	l6.833,0.333c7.5,0.333,6.667,11.667,6.667,11.667s-0.5,96.833-1.333,102.333s-8.5,5.333-10.333,5.333s-3,0.167-3.167,1.5
	s1,2,2.667,2s11.166-0.166,19.333-0.666s28,0.833,30.333,0.833s1.834-1.833,1.834-1.833c0-1.333-3-1.334-3-1.334l-9.167-0.5
	c-6.5-1-6.333-13-6.333-13s-0.834-86.833,0-97.5s9-8.667,11.333-9s3.333-0.833,2.5-2.5s-6.833-0.833-6.833-0.833
	c-23.833,1.667-41.167-0.5-41.167-0.5s-1.334,0-1.334,1.5C455.19,7.874,454.69,10.041,456.357,10.041z"/>
<g>
	<path d="M694.723,0c3.807,0,6.791,3.06,6.791,6.847c0,3.694-2.984,6.735-6.791,6.735c-3.787,0-6.79-3.041-6.79-6.735
		C687.933,3.06,690.936,0,694.723,0z M694.723,12.705c3.19,0,5.69-2.762,5.69-5.858c0-3.209-2.481-5.97-5.69-5.97
		c-3.189,0-5.689,2.779-5.689,5.97C689.033,9.943,691.552,12.705,694.723,12.705z M691.533,10.074
		c0.839-0.112,0.988-0.093,0.988-0.615V4.31c0-0.896-0.131-0.97-0.951-1.007V3.041h3.47c1.194,0,2.295,0.56,2.295,1.81
		c0,1.008-0.653,1.754-1.455,2.015l1.287,2.164c0.447,0.766,0.653,1.045,1.175,1.045v0.262h-1.249c-0.635,0-1.12-1.362-2.37-3.228
		h-0.97v2.351c0,0.522,0.149,0.503,0.989,0.615v0.262h-3.209V10.074z M693.753,6.735h0.877c0.914,0,1.324-0.709,1.324-1.791
		c0-1.157-0.634-1.53-1.361-1.53h-0.84V6.735z"/>
</g>
</svg>
