
<svg width="210px" height="77px" viewBox="0 0 210 77" version="1.1" xmlns="http://www.w3.org/2000/svg" xmlns:xlink="http://www.w3.org/1999/xlink">
    <!-- Generator: Sketch 43.1 (39012) - http://www.bohemiancoding.com/sketch -->
    <desc>Created with Sketch.</desc>
    <defs></defs>
    <g id="Page-1" stroke="none" stroke-width="1" fill="none" fill-rule="evenodd">
        <g id="Page-2" transform="translate(-399.000000, -84.000000)">
            <g id="The_Sun_Newspaper" transform="translate(399.000000, 85.000000)">
                <polygon id="Fill-2" stroke="#FFFFFF" points="0.597966102 74.9761905 209.112542 74.9761905 209.112542 0.31547619 0.597966102 0.31547619"></polygon>
                <path d="M54.7483051,6.62142857 L56.0783051,6.76071429 C56.7877966,6.57619048 57.4522034,6.94404762 58.1166102,6.89761905 C58.4274576,7.03571429 58.8261017,6.80595238 59.0918644,7.08214286 C59.5794915,7.03571429 60.0671186,7.12857143 60.5547458,7.2202381 C62.8149153,7.35833333 64.8532203,8.0952381 67.0694915,8.51071429 C68.3105085,8.9702381 69.6844068,9.38452381 70.8815254,9.93809524 C72.3432203,10.5821429 73.9389831,11.5035714 75.2689831,12.4702381 C78.149661,14.4511905 80.3659322,17.4904762 81.1644068,21.1738095 C81.119322,21.3130952 80.9425424,21.4047619 80.7645763,21.4511905 C76.5989831,22.3714286 72.3432203,23.1083333 68.2666102,24.0297619 C67.0694915,24.4440476 65.740678,24.5357143 64.499661,24.8119048 C64.3216949,24.95 63.9230508,24.9047619 63.7011864,24.95 C62.4162712,25.272619 61.1752542,25.5488095 59.8452542,25.7333333 C59.6684746,25.7797619 59.5794915,25.5488095 59.5355932,25.4107143 C59.2247458,24.5357143 58.8261017,23.7071429 58.2055932,22.9702381 C57.6289831,22.4642857 57.1425424,21.8654762 56.4330508,21.5428571 C55.590678,21.0357143 54.7483051,20.7595238 53.8620339,20.4833333 C52.8428814,20.2071429 51.9566102,20.1607143 50.8923729,19.9309524 L50.0511864,19.8845238 L46.770678,19.8380952 C44.9542373,20.0690476 42.9147458,20.3452381 41.2311864,21.1738095 C40.0779661,21.8190476 39.1038983,22.9702381 39.1477966,24.397619 C39.6354237,26.5619048 42.0723729,26.6547619 43.8461017,27.2988095 C46.4159322,27.8511905 49.1637288,28.2202381 51.7347458,28.6809524 C52.6210169,28.772619 53.5962712,29.0035714 54.5264407,29.0488095 C54.7044068,29.2333333 55.0591525,29.1416667 55.2810169,29.2333333 C56.6988136,29.4178571 57.9837288,29.7857143 59.3576271,29.9702381 C59.6684746,30.1083333 60.0220339,30.0619048 60.3328814,30.2464286 C61.1301695,30.2464286 61.750678,30.6142857 62.4601695,30.7988095 C63.9669492,31.075 65.4298305,31.5821429 66.8476271,32.0892857 C70.3938983,33.2857143 73.9389831,35.5428571 75.8005085,38.95 C76.4661017,40.377381 76.9976271,41.897619 76.9976271,43.6011905 C77.1305085,44.6142857 76.9537288,45.6738095 76.8208475,46.6404762 C76.51,47.8845238 76.2881356,49.2654762 75.6676271,50.4166667 C73.4513559,55.575 68.8871186,59.3047619 64.0120339,61.6535714 C62.1054237,62.8511905 59.8452542,63.45 57.7179661,64.2785714 C56.4769492,64.7392857 55.1469492,65.1083333 53.8181356,65.3845238 C53.2854237,65.7059524 52.6649153,65.6607143 52.0894915,65.8440476 C48.8540678,66.5357143 45.529661,67.0416667 42.2052542,67.3642857 C41.6298305,67.3178571 41.009322,67.5488095 40.3888136,67.502381 C39.7683051,67.6404762 39.2367797,67.5488095 38.5711864,67.6404762 C37.4191525,67.502381 35.9562712,67.6869048 34.8481356,67.6404762 C32.8988136,67.5488095 31.0372881,67.5488095 29.0428814,67.3178571 C27.1813559,67.1345238 25.2747458,66.7654762 23.369322,66.4428571 C22.6159322,66.2130952 21.7735593,66.2595238 21.0640678,65.9369048 C17.4750847,65.0154762 14.0177966,63.7261905 10.9591525,61.6071429 C10.3386441,61.1011905 9.67423729,60.6869048 9.18661017,60.0880952 C7.67983051,58.752381 6.2620339,57.0488095 5.46355932,55.1607143 C4.66627119,53.502381 4.13474576,51.5690476 4.04576271,49.5880952 C4.17864407,49.3119048 4.62237288,49.5880952 4.79915254,49.3583333 C6.2620339,49.2654762 7.72491525,49.0821429 9.18661017,48.8511905 C9.80711864,48.6214286 10.6494915,48.7595238 11.27,48.575 C12.0233898,48.5285714 12.820678,48.3904762 13.6191525,48.2988095 L14.3274576,48.2071429 C16.0561017,48.022619 17.6969492,47.8380952 19.4255932,47.6083333 C20.0449153,47.4238095 20.8433898,47.4702381 21.4638983,47.2857143 C22.2172881,47.1940476 23.059661,47.0095238 23.8130508,47.0547619 C24.5213559,46.9178571 25.2747458,46.8714286 25.940339,46.7333333 C26.5157627,46.6869048 27.0484746,46.5952381 27.58,46.6404762 C27.7567797,48.1142857 28.3772881,49.5416667 29.3525424,50.5095238 C30.1059322,51.2464286 30.9922034,52.0285714 31.9674576,52.397619 C32.4111864,52.8119048 33.120678,52.8583333 33.6961017,53.0880952 C34.4494915,53.4571429 35.3808475,53.3642857 36.2220339,53.6404762 C36.6218644,53.5488095 37.1094915,53.7785714 37.5081356,53.7333333 C37.9957627,53.9166667 38.6162712,53.6404762 39.0588136,53.9166667 C40.2998305,53.9630952 41.7627119,53.9166667 42.9147458,53.8714286 C44.3776271,53.7333333 45.9283051,53.5488095 47.3033898,53.1797619 C48.7211864,52.7202381 50.2279661,51.9833333 50.8484746,50.4630952 C51.1142373,49.7261905 51.0252542,48.897619 50.6266102,48.252381 C49.829322,47.0095238 48.3225424,46.5952381 47.0364407,46.1345238 C44.2008475,45.5357143 41.2750847,45.0297619 38.349322,44.6142857 C37.1972881,44.4761905 36.0013559,44.2 34.8932203,44.0154762 C33.6522034,43.8321429 32.4111864,43.5095238 31.1701695,43.1869048 C25.8952542,41.8511905 20.310678,40.377381 16.4559322,36.4178571 C14.7272881,34.4833333 13.5740678,31.9964286 13.7520339,29.1869048 C13.8849153,24.7666667 16.0561017,21.1285714 18.7161017,18.0892857 C20.9323729,15.7404762 23.7240678,13.4833333 26.7376271,11.9642857 C30.1059322,10.1678571 34.0508475,8.87857143 37.9957627,8.05 C39.1477966,7.86547619 40.2998305,7.58928571 41.5408475,7.45119048 C42.8269492,7.175 44.2447458,7.12857143 45.529661,6.99047619 C45.8405085,6.76071429 46.1952542,6.94404762 46.4598305,6.85238095 C47.3033898,6.85238095 48.1445763,6.66785714 48.9418644,6.76071429 C49.2966102,6.80595238 49.6513559,6.48333333 50.0511864,6.71428571 C51.6018644,6.48333333 53.1525424,6.85238095 54.7483051,6.62142857" id="Fill-3" fill="#FFFFFF"></path>
                <path d="M193.278305,22.6952381 C196.144746,23.1035714 198.92339,24.0107143 200.996102,25.7797619 C202.759153,27.1869048 203.59678,29.5464286 203.554068,31.9964286 C203.729661,32.2678571 203.421186,32.4047619 203.508983,32.6309524 C203.421186,35.4440476 202.684407,38.0333333 202.009322,40.6154762 C201.029322,44.3738095 195.136271,66.847619 195.136271,66.847619 L172.185763,66.8928571 C172.185763,66.8928571 172.507288,65.7047619 172.638983,65.3416667 C173.874068,60.7142857 175.109153,56.0869048 176.255254,51.4130952 C177.446441,47.1035714 178.504746,42.7940476 179.606949,38.3928571 C179.871525,36.9869048 179.827627,35.2619048 178.636441,34.4916667 C177.88661,33.9916667 176.961186,33.9011905 176.034576,33.8559524 C175.638305,33.7654762 175.240847,33.9464286 174.755593,33.9011905 C172.374407,33.9916667 170.081017,35.0357143 168.670339,36.9869048 C167.379492,38.9619048 166.030508,44.6809524 166.030508,44.6809524 L160.447119,66.8714286 L137.262881,66.825 C137.572542,64.7833333 148.824746,23.1940476 148.824746,23.1940476 L170.257797,23.1488095 L168.934915,29.0928571 L169.067797,29.1380952 C170.34678,27.7309524 171.845254,26.4154762 173.565593,25.5083333 C176.519831,23.7392857 179.960508,22.9678571 183.487797,22.4690476 C184.546102,22.377381 185.51661,22.2416667 186.574915,22.2416667 C187.589322,22.0607143 188.824407,22.4238095 189.970508,22.2869048 C189.970508,22.2869048 192.395593,22.5142857 193.278305,22.6952381" id="Fill-4" fill="#FFFFFF"></path>
                <path d="M144.264068,23.1738095 L132.791186,66.8059524 L111.012881,66.7607143 C111.012881,66.7607143 112.158983,62.5011905 112.702373,59.8297619 L112.525593,59.8297619 C110.264237,62.6571429 107.162881,64.6630952 103.882373,65.8035714 C101.04678,66.897619 97.8101695,67.3535714 94.7088136,67.672619 C94.1322034,67.7630952 89.9215254,67.672619 89.9215254,67.672619 C86.73,67.3988095 83.5835593,66.8059524 80.9247458,65.1642857 C79.0632203,63.9333333 77.5564407,61.8809524 77.3784746,59.5559524 L77.290678,58.6904762 L77.4674576,56.6380952 C78.1318644,52.8083333 79.3728814,49.1607143 80.1713559,45.4214286 C80.5261017,44.4190476 80.7467797,43.3702381 81.0137288,42.3214286 C82.6972881,35.9833333 85.9908475,23.1785714 85.9908475,23.1785714 C85.9908475,23.1785714 108.713559,23.0797619 109.068305,23.1714286 C107.516441,30.147619 105.389153,36.9869048 103.660508,43.9178571 C103.394746,44.8285714 103.261864,45.7869048 102.952203,46.6071429 C102.552373,48.7964286 101.53322,50.802381 101.666102,53.127381 C101.798983,53.7654762 102.020847,54.3130952 102.552373,54.7690476 C103.085085,55.1797619 103.838475,55.2702381 104.502881,55.4071429 C105.921864,55.7261905 107.339661,55.3154762 108.669661,55.0416667 C111.328475,54.3130952 113.411864,52.2154762 114.209153,49.525 C114.785763,47.8845238 115.095424,46.1059524 115.628136,44.4190476 C116.647288,40.2238095 117.755424,36.075 118.863559,31.8797619 C119.616949,28.9619048 120.370339,26.0892857 121.078644,23.1714286 L144.264068,23.1738095" id="Fill-5" fill="#FFFFFF"></path>
                <polyline id="Fill-6" fill="#FFFFFF" points="106.898305 17.8392857 109.220169 9.3797619 105.860169 9.3797619 106.59339 6.62142857 118.017627 6.62142857 117.162203 9.3797619 114.04661 9.3797619 111.480339 17.8845238 106.898305 17.8392857"></polyline>
                <polyline id="Fill-7" fill="#FFFFFF" points="116.428983 17.9011905 119.544576 6.62142857 124.431525 6.62142857 123.271186 10.8511905 127.12 10.8511905 128.342034 6.62142857 133.10678 6.62142857 130.052881 17.8392857 125.286949 17.8392857 126.326271 13.6095238 122.477458 13.6095238 121.255424 17.9011905 116.428983 17.9011905"></polyline>
                <polyline id="Fill-8" fill="#FFFFFF" points="132.557458 17.8392857 135.612542 6.62142857 147.647797 6.62142857 146.914576 9.13452381 139.705763 9.13452381 139.216949 10.9130952 145.142034 10.9130952 144.470508 13.3035714 138.605932 13.3035714 138.055424 15.2642857 145.264237 15.2642857 144.592712 17.7785714 132.557458 17.8392857"></polyline>
            </g>
        </g>
    </g>
</svg>
